<svg width="75" height="75" viewBox="0 0 75 75" fill="none" xmlns="http://www.w3.org/2000/svg">
<path d="M64.0165 10.9835C56.9338 3.90059 47.5166 0 37.5 0C27.4834 0 18.0662 3.90059 10.9835 10.9835C3.90088 18.0665 0 27.4834 0 37.5C0 47.5166 3.90059 56.9338 10.9835 64.0165C18.0665 71.0991 27.4834 75 37.5 75C47.5166 75 56.9338 71.0994 64.0165 64.0165C71.0991 56.9335 75 47.5166 75 37.5C75 27.4834 71.0994 18.0662 64.0165 10.9835ZM62.2985 62.2985C55.6745 68.9224 46.8677 72.5703 37.5 72.5703C28.1323 72.5703 19.3255 68.9224 12.7015 62.2985C6.07778 55.6745 2.42974 46.8675 2.42974 37.5C2.42974 28.1325 6.07778 19.3255 12.7015 12.7015C19.3255 6.07778 28.1325 2.42974 37.5 2.42974C46.8675 2.42974 55.6745 6.07764 62.2985 12.7015C68.9224 19.3255 72.5703 28.1323 72.5703 37.5C72.5703 46.8677 68.9222 55.6745 62.2985 62.2985Z" fill="#E82464"/>
<path d="M37.5 5.18359C19.6806 5.18359 5.18359 19.6806 5.18359 37.5C5.18359 55.3193 19.6806 69.8163 37.5 69.8163C55.3193 69.8163 69.8163 55.3193 69.8163 37.5C69.8163 19.6806 55.3193 5.18359 37.5 5.18359ZM37.5 67.3866C21.0203 67.3866 7.61333 53.9796 7.61333 37.5C7.61333 21.0203 21.0203 7.61333 37.5 7.61333C53.9796 7.61333 67.3866 21.0203 67.3866 37.5C67.3866 53.9796 53.9796 67.3866 37.5 67.3866Z" fill="#E82464"/>
<path d="M15.4698 36.2852H11.5821C10.9112 36.2852 10.3672 36.8291 10.3672 37.5001C10.3672 38.171 10.9111 38.715 11.5821 38.715H15.4698C16.1407 38.715 16.6848 38.1711 16.6848 37.5001C16.6848 36.8292 16.1407 36.2852 15.4698 36.2852Z" fill="#E82464"/>
<path d="M63.4181 36.2852H59.5304C58.8595 36.2852 58.3154 36.8291 58.3154 37.5001C58.3154 38.171 58.8593 38.715 59.5304 38.715H63.4181C64.089 38.715 64.633 38.1711 64.633 37.5001C64.633 36.8292 64.089 36.2852 63.4181 36.2852Z" fill="#E82464"/>
<path d="M37.5001 10.3672C36.8292 10.3672 36.2852 10.9111 36.2852 11.5821V15.4698C36.2852 16.1407 36.8291 16.6848 37.5001 16.6848C38.171 16.6848 38.715 16.1409 38.715 15.4698V11.5821C38.715 10.9112 38.171 10.3672 37.5001 10.3672Z" fill="#E82464"/>
<path d="M37.5001 58.3154C36.8292 58.3154 36.2852 58.8593 36.2852 59.5304V63.4181C36.2852 64.089 36.8291 64.633 37.5001 64.633C38.171 64.633 38.715 64.0891 38.715 63.4181V59.5304C38.715 58.8595 38.171 58.3154 37.5001 58.3154Z" fill="#E82464"/>
<path d="M25.7965 57.7715C25.2153 57.4357 24.4725 57.6351 24.137 58.2162L23.4891 59.3384C23.1537 59.9195 23.3527 60.6625 23.9338 60.9979C24.1252 61.1084 24.334 61.1608 24.5401 61.1608C24.96 61.1608 25.3684 60.9429 25.5934 60.5532L26.2413 59.431C26.5766 58.8497 26.3775 58.1068 25.7965 57.7715Z" fill="#E82464"/>
<path d="M51.0666 14.0019C50.4853 13.6663 49.7425 13.8655 49.407 14.4466L48.7591 15.5688C48.4237 16.1501 48.6228 16.893 49.2037 17.2283C49.395 17.3388 49.6041 17.3912 49.81 17.3912C50.2299 17.3912 50.6383 17.1733 50.8633 16.7836L51.5112 15.6614C51.8468 15.0804 51.6477 14.3373 51.0666 14.0019Z" fill="#E82464"/>
<path d="M16.784 24.1371L15.6618 23.4892C15.0807 23.1535 14.3378 23.3529 14.0023 23.934C13.6669 24.5151 13.8659 25.258 14.447 25.5935L15.5692 26.2414C15.7606 26.3518 15.9694 26.4043 16.1755 26.4043C16.5954 26.4043 17.0038 26.1863 17.2288 25.7967C17.5642 25.2157 17.3651 24.4727 16.784 24.1371Z" fill="#E82464"/>
<path d="M60.5531 49.4066L59.4309 48.7587C58.8498 48.4232 58.1068 48.6223 57.7713 49.2032C57.4359 49.7842 57.635 50.5273 58.2161 50.8628L59.3383 51.5107C59.5296 51.6211 59.7386 51.6735 59.9446 51.6735C60.3644 51.6735 60.7728 51.4556 60.9978 51.0659C61.3333 50.4851 61.1342 49.742 60.5531 49.4066Z" fill="#E82464"/>
<path d="M51.5112 59.3384L50.8633 58.2162C50.5279 57.6349 49.7848 57.4358 49.2038 57.7714C48.6227 58.1069 48.4236 58.85 48.7592 59.431L49.4071 60.5532C49.6321 60.943 50.0405 61.1608 50.4604 61.1608C50.6665 61.1608 50.8754 61.1083 51.0667 60.9979C51.6476 60.6624 51.8467 59.9193 51.5112 59.3384Z" fill="#E82464"/>
<path d="M26.2413 15.5698L25.5934 14.4476C25.2579 13.8664 24.5148 13.6673 23.9338 14.0029C23.3527 14.3383 23.1537 15.0815 23.4891 15.6624L24.137 16.7846C24.362 17.1744 24.7704 17.3922 25.1902 17.3922C25.3963 17.3922 25.6052 17.3398 25.7965 17.2294C26.3776 16.8939 26.5767 16.1509 26.2413 15.5698Z" fill="#E82464"/>
<path d="M60.9978 23.9339C60.6623 23.3526 59.9192 23.1536 59.3383 23.4893L58.216 24.1372C57.6349 24.4727 57.4359 25.2158 57.7714 25.7967C57.9964 26.1865 58.4048 26.4044 58.8247 26.4044C59.0308 26.4044 59.2397 26.3519 59.431 26.2415L60.5532 25.5936C61.1342 25.258 61.3332 24.5149 60.9978 23.9339Z" fill="#E82464"/>
<path d="M17.2288 49.2034C16.8935 48.6221 16.1502 48.4232 15.5692 48.7588L14.447 49.4067C13.8659 49.7421 13.6669 50.4852 14.0023 51.0662C14.2273 51.456 14.6357 51.6738 15.0555 51.6738C15.2616 51.6738 15.4705 51.6214 15.6618 51.5109L16.784 50.863C17.3651 50.5274 17.5642 49.7845 17.2288 49.2034Z" fill="#E82464"/>
<path d="M51.7548 41.469H50.3778V27.1332C50.3778 26.4623 49.8339 25.9182 49.1629 25.9182C48.492 25.9182 47.9479 26.4621 47.9479 27.1332V41.469H40.4813L45.1318 27.5174C45.344 26.8808 44.9999 26.1929 44.3633 25.9806C43.7267 25.7685 43.039 26.1125 42.8266 26.7491L37.6429 42.2999C37.5194 42.6703 37.5815 43.0775 37.8099 43.3944C38.0383 43.7112 38.4051 43.899 38.7955 43.899H47.9479V47.8677C47.9479 48.5386 48.4918 49.0827 49.1629 49.0827C49.8338 49.0827 50.3778 48.5388 50.3778 47.8677V43.8987H51.7548C52.4257 43.8987 52.9697 43.3548 52.9697 42.6838C52.9697 42.0129 52.4257 41.469 51.7548 41.469Z" fill="#E82464"/>
<path d="M34.9083 46.6524H24.5776C25.0342 44.4805 26.8002 43.488 29.4399 42.1744C32.4175 40.6925 36.1232 38.8483 36.1232 33.6124C36.1232 29.3697 32.9623 25.918 29.0768 25.918C25.1913 25.918 22.0303 29.3697 22.0303 33.6124C22.0303 34.2833 22.5742 34.8273 23.2452 34.8273C23.9161 34.8273 24.4602 34.2834 24.4602 33.6124C24.4602 30.7096 26.5312 28.3477 29.0768 28.3477C31.6224 28.3477 33.6934 30.7095 33.6934 33.6124C33.6934 37.3435 31.2204 38.5741 28.3572 39.9991C25.3915 41.4749 22.0303 43.1478 22.0303 47.8673C22.0303 48.5382 22.5742 49.0823 23.2452 49.0823H34.9083C35.5792 49.0823 36.1232 48.5384 36.1232 47.8673C36.1231 47.1964 35.5792 46.6524 34.9083 46.6524Z" fill="#E82464"/>
</svg>
