<svg width="81" height="81" viewBox="0 0 81 81" fill="none" xmlns="http://www.w3.org/2000/svg">
<g clip-path="url(#clip0)">
<path d="M37 40.5L14 27L17.5 22.5L21 19L27.5 14L40.5 10.5V36.5L37 40.5Z" fill="#E3E9F7" fill-opacity="0.5"/>
<path d="M69.906 13.6003L75.6112 19.3056C75.8731 19.5674 76.2269 19.7137 76.596 19.7137C76.9651 19.7137 77.3203 19.5674 77.5807 19.3056C81.992 14.8957 81.992 7.71821 77.5807 3.30836C73.1709 -1.10149 65.9934 -1.10149 61.5835 3.30836C61.3217 3.57022 61.1754 3.92262 61.1754 4.29313C61.1754 4.66363 61.3217 5.01742 61.5835 5.27789L67.9364 11.6308L65.5699 13.9973C58.912 8.03022 50.1243 4.39202 40.5009 4.39202C30.8776 4.39202 22.0899 8.03022 15.4319 13.9973L13.064 11.6308L19.417 5.27789C19.6788 5.01603 19.8251 4.66363 19.8251 4.29313C19.8251 3.92262 19.6788 3.56883 19.417 3.30836C15.0071 -1.10149 7.82961 -1.10149 3.41976 3.30836C-0.991482 7.71821 -0.991482 14.8957 3.41976 19.3056C3.68162 19.5674 4.03541 19.7137 4.40452 19.7137C4.77364 19.7137 5.12882 19.5674 5.38929 19.3056L11.0945 13.6003L13.429 15.9348C6.9117 22.7 2.89186 31.8874 2.89186 41.9997C2.89186 55.7864 10.3535 67.8571 21.4464 74.405L17.2287 78.6226C16.6841 79.1673 16.6841 80.0476 17.2287 80.5922C17.5004 80.8638 17.8569 81.0003 18.2135 81.0003C18.5701 81.0003 18.9267 80.8638 19.1983 80.5922L24.0037 75.7867C28.9874 78.2299 34.5854 79.6074 40.4995 79.6074C46.4137 79.6074 52.0117 78.2299 56.9954 75.7867L61.8008 80.5922C62.0724 80.8638 62.429 81.0003 62.7856 81.0003C63.1422 81.0003 63.4987 80.8638 63.7704 80.5922C64.315 80.0476 64.315 79.1673 63.7704 78.6226L59.5527 74.405C70.6456 67.8571 78.1072 55.7864 78.1072 41.9997C78.1072 31.8874 74.0874 22.7 67.5701 15.9348L69.906 13.6003ZM75.6098 5.27789C78.5989 8.26701 78.8998 12.9415 76.5138 16.2719L64.6172 4.37392C67.9448 1.98792 72.6207 2.28738 75.6098 5.27789ZM4.48531 16.2705C2.09931 12.9415 2.40017 8.26701 5.38929 5.27789C8.3784 2.28878 13.0543 1.98931 16.3819 4.37392L4.48531 16.2705ZM40.4995 76.8216C21.2987 76.8216 5.67761 61.2005 5.67761 41.9997C5.67761 22.7989 21.2987 7.17778 40.4995 7.17778C59.7004 7.17778 75.3215 22.7989 75.3215 41.9997C75.3215 61.2005 59.7018 76.8216 40.4995 76.8216Z" fill="#E3E9F7"/>
<path d="M68.1928 25.9215C65.3931 21.1175 61.3816 17.1074 56.579 14.3077C56.5567 14.2924 56.5428 14.2687 56.5191 14.2548C56.494 14.2408 56.4676 14.2408 56.4425 14.2283C51.7443 11.5205 46.3024 9.96191 40.501 9.96191C34.6997 9.96191 29.2577 11.5192 24.5595 14.2283C24.5345 14.2408 24.5066 14.2394 24.4829 14.2548C24.4593 14.2687 24.4467 14.2924 24.423 14.3077C19.619 17.1074 15.6089 21.1175 12.8092 25.9215C12.7939 25.9452 12.7702 25.9577 12.7563 25.9814C12.7424 26.0051 12.7424 26.0329 12.7312 26.058C10.0235 30.7576 8.46484 36.1982 8.46484 41.9995C8.46484 47.8008 10.0235 53.2428 12.7312 57.941C12.7438 57.966 12.7424 57.9925 12.7563 58.0176C12.7758 58.0524 12.805 58.0775 12.8273 58.1095C15.627 62.8982 19.6302 66.8972 24.423 69.6913C24.4453 69.7066 24.4593 69.7303 24.4829 69.7442C24.5191 69.7651 24.5581 69.7735 24.5944 69.7902C29.2856 72.4854 34.7136 74.0357 40.501 74.0357C46.2884 74.0357 51.7165 72.4854 56.4077 69.7902C56.4439 69.7735 56.4829 69.7651 56.5191 69.7442C56.5428 69.7303 56.5553 69.7066 56.579 69.6913C61.3719 66.8972 65.375 62.8996 68.1747 58.1095C68.197 58.0775 68.2262 58.0524 68.2458 58.0176C68.2597 57.9939 68.2597 57.966 68.2708 57.941C70.9786 53.2414 72.5372 47.8008 72.5372 41.9995C72.5372 36.1982 70.9786 30.7562 68.2708 26.058C68.2583 26.0329 68.2597 26.0065 68.2458 25.9814C68.2304 25.9577 68.2068 25.9438 68.1928 25.9215ZM56.299 66.5782L55.6346 65.4277C55.2488 64.7619 54.3978 64.5321 53.732 64.9179C53.0662 65.3023 52.8377 66.1548 53.2222 66.8206L53.8894 67.9753C50.2637 69.8515 46.2007 70.9741 41.8939 71.1789V69.857C41.8939 69.0868 41.2699 68.4642 40.501 68.4642C39.7322 68.4642 39.1081 69.0868 39.1081 69.857V71.1789C34.8014 70.9755 30.7383 69.8515 27.1127 67.9753L27.7799 66.8206C28.1643 66.1534 27.9359 65.3023 27.2701 64.9179C26.6001 64.5335 25.7518 64.7633 25.3674 65.4277L24.703 66.5782C21.186 64.3106 18.1913 61.3145 15.9237 57.7989L17.0742 57.1345C17.74 56.7501 17.9684 55.8976 17.584 55.2318C17.1982 54.566 16.3485 54.3334 15.6813 54.722L14.5266 55.3892C12.6504 51.7636 11.5278 47.6991 11.323 43.3938H12.6449C13.4137 43.3938 14.0377 42.7711 14.0377 42.0009C14.0377 41.2306 13.4137 40.608 12.6449 40.608H11.3202C11.525 36.3012 12.6477 32.2368 14.5239 28.6125L15.6786 29.2797C15.8986 29.4065 16.1382 29.4664 16.3736 29.4664C16.8555 29.4664 17.3235 29.2157 17.5812 28.7699C17.9657 28.1028 17.7372 27.2517 17.0714 26.8673L15.9209 26.2001C18.1885 22.6845 21.1846 19.6884 24.7002 17.4208L25.3646 18.5713C25.6237 19.017 26.0903 19.2677 26.5723 19.2677C26.8076 19.2677 27.0472 19.2078 27.2673 19.0811C27.9331 18.6966 28.1615 17.8442 27.7771 17.1784L27.1099 16.0237C30.7356 14.1475 34.7986 13.0249 39.1054 12.8201V14.1419C39.1054 14.9122 39.7294 15.5348 40.4982 15.5348C41.2671 15.5348 41.8911 14.9122 41.8911 14.1419V12.8201C46.1979 13.0235 50.2609 14.1475 53.8866 16.0237L53.2194 17.1784C52.835 17.8456 53.0634 18.6966 53.7292 19.0811C53.9493 19.2078 54.1888 19.2677 54.4242 19.2677C54.9062 19.2677 55.3742 19.017 55.6319 18.5713L56.2963 17.4208C59.8133 19.6884 62.808 22.6845 65.0756 26.2001L63.925 26.8645C63.2593 27.2489 63.0308 28.1014 63.4153 28.7672C63.6743 29.2129 64.1409 29.4636 64.6229 29.4636C64.8583 29.4636 65.0979 29.4037 65.3179 29.2769L66.4726 28.6098C68.3488 32.2354 69.4715 36.2998 69.6762 40.6052H68.3544C67.5855 40.6052 66.9615 41.2278 66.9615 41.9981C66.9615 42.7684 67.5855 43.391 68.3544 43.391H69.6762C69.4715 47.6978 68.3488 51.7622 66.4726 55.3864L65.3179 54.7192C64.6493 54.332 63.7997 54.5646 63.4153 55.229C63.0308 55.8962 63.2593 56.7473 63.925 57.1317L65.0756 57.7961C62.8107 61.3145 59.8161 64.3092 56.299 66.5782Z" fill="#E3E9F7"/>
<circle cx="41" cy="42" r="4.5" fill="#E3E9F7" stroke="#E3E9F7" stroke-width="3"/>
<path d="M35.9873 39.6709L22.499 32" stroke="#E3E9F7" stroke-width="3" stroke-linecap="round" stroke-linejoin="round"/>
<line x1="40.5" y1="36.3887" x2="40.5" y2="21.5001" stroke="#E3E9F7" stroke-width="3" stroke-linecap="round" stroke-linejoin="round"/>
</g>
<defs>
<clipPath id="clip0">
<rect width="81" height="81" fill="white"/>
</clipPath>
</defs>
</svg>
