<svg width="61" height="61" viewBox="0 0 61 61" fill="none" xmlns="http://www.w3.org/2000/svg">
<g clip-path="url(#clip0)">
<path d="M10.2875 16.1719C10.3028 16.1723 10.3177 16.1728 10.3326 16.1728C10.9683 16.1728 11.4956 15.6711 11.5222 15.0307C11.5496 14.3731 11.0386 13.8179 10.381 13.7909L10.3298 13.7895C10.3214 13.7891 10.3135 13.7891 10.3056 13.7891C9.65872 13.7891 9.13143 14.307 9.1184 14.9567C9.10537 15.6139 9.63034 16.1575 10.2875 16.1719Z" fill="#E82464"/>
<path d="M45.7853 19.2368L45.7266 19.2108C45.1268 18.9413 44.4217 19.2094 44.1518 19.8093C43.8823 20.4096 44.1499 21.1147 44.7503 21.3842L44.8308 21.4205C44.9862 21.4884 45.1482 21.5205 45.3073 21.5205C45.7667 21.5205 46.2041 21.2534 46.3996 20.8061C46.6635 20.203 46.388 19.5007 45.7853 19.2368Z" fill="#E82464"/>
<path d="M60.9247 10.7464C60.8573 10.2545 60.4915 9.85612 60.0074 9.74675C59.5234 9.63692 59.0217 9.83936 58.749 10.254C55.8259 14.7004 48.6397 13.9176 45.6863 13.3745C45.2754 13.2991 44.8551 13.1925 44.4102 13.0794C42.7916 12.669 40.9565 12.2036 39.0819 13.1963C38.0622 13.7366 35.914 15.4669 37.9794 19.8621C38.4145 20.7882 38.3098 21.7753 37.6685 22.7959C36.8187 24.1488 35.18 25.2821 33.8164 25.7666L34.0124 13.5532C35.7855 12.3995 36.9611 10.4011 36.9611 8.1323C36.9611 4.56784 34.0612 1.66797 30.4968 1.66797C26.9323 1.66797 24.0325 4.56784 24.0325 8.1323C24.0325 10.4011 25.208 12.3995 26.9812 13.5532L27.1771 25.7647C25.8149 25.2788 24.1795 24.1465 23.3311 22.7959C22.6898 21.7753 22.5851 20.7882 23.0202 19.8621C25.0856 15.4669 22.9374 13.7366 21.9182 13.1963C20.0431 12.2036 18.2085 12.669 16.5894 13.0794C16.1445 13.1925 15.7242 13.2991 15.3138 13.3745C14.6664 13.4936 14.2382 14.1145 14.3574 14.7618C14.4765 15.4092 15.0973 15.8369 15.7447 15.7182C16.2334 15.6284 16.7127 15.5069 17.1758 15.3892C18.5515 15.0401 19.7397 14.739 20.8031 15.3022C21.7208 15.7885 21.7413 16.9818 20.8636 18.8489C20.084 20.5085 20.2437 22.3603 21.3136 24.0637C22.6549 26.1984 25.1885 27.765 27.2171 28.2462L27.2507 30.327C26.4348 30.5839 25.2085 30.9194 24.0529 31.0409C22.6949 31.1833 21.9708 30.9645 21.8558 30.6844C21.7004 30.3065 21.362 30.0342 20.9595 29.9635C20.5569 29.8932 20.1459 30.0338 19.8714 30.3367C18.9918 31.3066 18.5496 31.4104 18.4705 31.4211C18.169 31.2191 17.7729 29.9128 17.7305 28.6255C17.7189 28.2513 17.5328 27.9046 17.227 27.6886C16.9212 27.4727 16.5322 27.4131 16.1757 27.5271C15.1686 27.8501 13.7942 28.1103 12.9677 27.5123C12.0993 26.884 12.0779 25.5208 12.0779 25.5157C12.0802 25.1881 11.9471 24.8744 11.7111 24.6477C11.4747 24.4216 11.1555 24.3015 10.8288 24.3178C9.70296 24.3727 8.92157 24.1707 8.62976 23.7491C8.39614 23.4112 8.40125 22.8681 8.48735 22.3762C9.14309 22.4702 9.82303 22.5181 10.5146 22.5181C11.1094 22.5181 11.7125 22.4827 12.3162 22.4125C12.9696 22.3366 13.4378 21.7451 13.3614 21.0912C13.2851 20.4378 12.6936 19.9691 12.0402 20.0459C10.6026 20.2135 9.17986 20.1451 7.92516 19.8491C7.9205 19.8477 7.91585 19.8467 7.91119 19.8458C7.90794 19.8449 7.90468 19.8444 7.90142 19.8435C4.09356 19.0183 2.87097 16.1515 2.51215 13.9148C3.62165 14.7176 4.95175 15.3119 6.49267 15.6912C7.13119 15.8485 7.7767 15.4581 7.934 14.8191C8.0913 14.1801 7.70084 13.5346 7.06185 13.3773C4.87868 12.8402 3.26004 11.7894 2.25107 10.2545C1.97835 9.83936 1.47665 9.63692 0.992642 9.74675C0.508166 9.85658 0.142832 10.255 0.0753493 10.7469C0.0618529 10.8432 -0.241119 13.1381 0.471865 15.6684C1.3361 18.7335 3.29169 20.8418 6.16224 21.8289C5.97608 22.7648 5.93606 24.0344 6.66208 25.0936C7.30897 26.037 8.37752 26.5703 9.8477 26.6857C10.046 27.5351 10.5016 28.6581 11.5478 29.4264C12.5726 30.179 13.8952 30.42 15.492 30.1478C15.714 31.4709 16.2697 33.1528 17.6542 33.6629C17.9302 33.7648 18.2025 33.8095 18.4673 33.8095C19.3269 33.8095 20.1082 33.3418 20.7002 32.8527C21.6776 33.4786 23.0784 33.5573 24.4932 33.3925C23.4898 34.7664 22.6763 36.506 22.7954 38.4621C22.9453 40.9282 24.522 43.1718 27.488 45.1549L27.4987 45.8437C24.2949 47.8677 22.7912 49.9163 22.9169 52.0665C23.0896 55.0157 26.3422 56.7935 27.8026 57.446C28.1642 58.5894 29.2351 59.4202 30.4963 59.4202C31.758 59.4202 32.8289 58.589 33.1905 57.446C34.6509 56.793 37.9031 55.0152 38.0757 52.0665C38.2014 49.9163 36.6977 47.8677 33.4939 45.8437L33.5051 45.1549C36.4711 43.1718 38.0478 40.9282 38.1977 38.4621C38.3163 36.5055 37.5028 34.7659 36.4994 33.392C37.9166 33.5577 39.3202 33.48 40.2989 32.8527C40.8909 33.3418 41.6723 33.8095 42.5319 33.809C42.7967 33.809 43.0689 33.7648 43.3454 33.6629C44.7299 33.1528 45.2852 31.4709 45.5071 30.1478C47.1039 30.42 48.4266 30.179 49.4514 29.4264C50.4976 28.6581 50.9532 27.5346 51.1519 26.6857C52.6216 26.5703 53.6906 26.037 54.3371 25.0936C55.0631 24.0344 55.0231 22.7648 54.8369 21.8289C57.7075 20.8413 59.6631 18.7335 60.5273 15.6684C61.2412 13.1376 60.9382 10.8432 60.9247 10.7464ZM30.4968 4.05079C32.7474 4.05079 34.5783 5.88165 34.5783 8.13276C34.5783 10.3834 32.7474 12.2143 30.4968 12.2143C28.2461 12.2143 26.4153 10.3834 26.4153 8.13276C26.4153 5.88165 28.2461 4.05079 30.4968 4.05079ZM30.4968 14.5971C30.8779 14.5971 31.2507 14.5617 31.6142 14.4984L31.1437 43.8201C30.9352 43.9407 30.7192 44.0603 30.4968 44.1799C30.2743 44.0607 30.0588 43.9407 29.8499 43.8201L29.3798 14.4984C29.7428 14.5617 30.1156 14.5971 30.4968 14.5971ZM25.1745 38.3238C25.0619 36.5246 26.217 34.8757 27.3051 33.7378L27.4401 42.1475C26.0169 40.9212 25.2569 39.6423 25.1745 38.3238ZM25.296 51.9268C25.2597 51.3074 25.5845 50.2026 27.5448 48.7049L27.6407 54.6741C26.5339 54.0095 25.3607 53.0289 25.296 51.9268ZM30.9389 56.5947C30.9389 56.8386 30.7407 57.0369 30.4968 57.0369C30.2529 57.0369 30.0547 56.8386 30.0547 56.5938C30.0547 56.5873 30.0547 56.5808 30.0542 56.5747L29.9039 47.1877C30.0942 47.0816 30.2911 46.9741 30.4968 46.8657C30.7025 46.9746 30.8994 47.0816 31.0897 47.1877L30.9394 56.5757C30.9389 56.5822 30.9389 56.5887 30.9389 56.5947ZM35.6976 51.9245C35.6352 53.0201 34.461 54.0016 33.3529 54.6694L33.4488 48.7049C35.4072 50.2012 35.7329 51.3051 35.6976 51.9245ZM35.8195 38.3173C35.7395 39.6381 34.979 40.9189 33.554 42.1475L33.6885 33.7499C34.7747 34.8911 35.9279 36.5386 35.8195 38.3173ZM58.2343 15.0215C57.4952 17.6436 55.7668 19.2659 53.0963 19.8439C53.0889 19.8453 53.0819 19.8472 53.0745 19.8491C51.8202 20.1451 50.397 20.2135 48.9599 20.0459C48.307 19.9696 47.7145 20.4378 47.6387 21.0912C47.5623 21.7451 48.0305 22.3366 48.6839 22.4125C49.9889 22.5646 51.292 22.5502 52.5127 22.3752C52.5988 22.8676 52.6044 23.4112 52.3703 23.7491C52.0785 24.1707 51.2976 24.3732 50.1713 24.3178C49.8446 24.3024 49.5254 24.4211 49.2889 24.6477C49.0525 24.8744 48.9199 25.1885 48.9222 25.5157C48.9222 25.5287 48.8924 26.8807 48.0417 27.5057C47.2161 28.1117 45.8362 27.852 44.8244 27.5271C44.4689 27.4131 44.0798 27.4736 43.7745 27.6886C43.4687 27.9036 43.2821 28.2504 43.2695 28.6241C43.2267 29.9128 42.8311 31.2191 42.5296 31.4211C42.45 31.4104 42.0083 31.3066 41.1287 30.3367C40.8537 30.0338 40.4437 29.8927 40.0406 29.9635C39.6376 30.0342 39.2993 30.3065 39.1443 30.6844C39.0289 30.9645 38.3047 31.1828 36.9472 31.0409C35.7883 30.9194 34.5592 30.582 33.7434 30.3251L33.7769 28.2476C35.8065 27.7682 38.3438 26.2008 39.6865 24.0637C40.7564 22.3608 40.916 20.5085 40.136 18.8489C39.2588 16.9818 39.2792 15.7885 40.197 15.3022C41.2604 14.739 42.4486 15.0401 43.8243 15.3892C44.2873 15.5069 44.7662 15.6284 45.2554 15.7182C48.091 16.239 54.3175 16.9152 58.4763 13.9209C58.4191 14.275 58.3404 14.6455 58.2343 15.0215Z" fill="#E82464"/>
</g>
<defs>
<clipPath id="clip0">
<rect width="61" height="61" fill="white"/>
</clipPath>
</defs>
</svg>
