<svg width="69" height="69" viewBox="0 0 69 69" fill="none" xmlns="http://www.w3.org/2000/svg">
<g clip-path="url(#clip0)">
<path d="M11.6371 18.293C11.6545 18.2935 11.6713 18.294 11.6882 18.294C12.4073 18.294 13.0037 17.7265 13.0337 17.0022C13.0648 16.2583 12.4868 15.6303 11.7429 15.5998L11.685 15.5982C11.6755 15.5977 11.6666 15.5977 11.6576 15.5977C10.9259 15.5977 10.3295 16.1836 10.3147 16.9185C10.3 17.6618 10.8938 18.2767 11.6371 18.293Z" fill="#D5E2F7"/>
<path d="M51.7906 21.7603L51.7243 21.7309C51.0457 21.4261 50.2482 21.7293 49.9429 22.4078C49.6381 23.0869 49.9407 23.8845 50.6198 24.1893L50.7109 24.2303C50.8867 24.3072 51.0699 24.3435 51.25 24.3435C51.7696 24.3435 52.2644 24.0414 52.4855 23.5355C52.784 22.8532 52.4723 22.0588 51.7906 21.7603Z" fill="#D5E2F7"/>
<path d="M68.9149 12.1558C68.8385 11.5993 68.4248 11.1487 67.8773 11.025C67.3298 10.9008 66.7623 11.1298 66.4538 11.5988C63.1473 16.6283 55.0187 15.7429 51.678 15.1285C51.2131 15.0433 50.7378 14.9227 50.2345 14.7948C48.4036 14.3305 46.3279 13.804 44.2074 14.9269C43.054 15.5381 40.624 17.4954 42.9603 22.467C43.4525 23.5146 43.3341 24.6311 42.6086 25.7856C41.6474 27.3159 39.7938 28.5978 38.2514 29.1458L38.473 15.3307C40.4787 14.0257 41.8085 11.7652 41.8085 9.19883C41.8085 5.1669 38.5283 1.88672 34.4964 1.88672C30.4644 1.88672 27.1842 5.1669 27.1842 9.19883C27.1842 11.7652 28.514 14.0257 30.5197 15.3307L30.7413 29.1437C29.2005 28.5941 27.3506 27.3133 26.3909 25.7856C25.6655 24.6311 25.5471 23.5146 26.0393 22.467C28.3756 17.4954 25.9456 15.5381 24.7927 14.9269C22.6717 13.804 20.5965 14.3305 18.7651 14.7948C18.2618 14.9227 17.7864 15.0433 17.3221 15.1285C16.5899 15.2633 16.1055 15.9656 16.2403 16.6978C16.3751 17.4301 17.0773 17.9139 17.8096 17.7796C18.3623 17.678 18.9046 17.5406 19.4284 17.4074C20.9845 17.0126 22.3285 16.672 23.5314 17.309C24.5695 17.8591 24.5926 19.2089 23.5998 21.3209C22.718 23.1982 22.8986 25.2928 24.1088 27.2196C25.626 29.6343 28.4919 31.4063 30.7866 31.9506L30.8245 34.3043C29.9017 34.5949 28.5145 34.9744 27.2074 35.1118C25.6713 35.2729 24.8522 35.0255 24.7221 34.7086C24.5463 34.2811 24.1636 33.9731 23.7082 33.8931C23.2529 33.8136 22.788 33.9726 22.4774 34.3153C21.4825 35.4124 20.9824 35.5298 20.8929 35.5419C20.5518 35.3134 20.1038 33.8357 20.0559 32.3796C20.0427 31.9564 19.8321 31.5642 19.4863 31.3199C19.1404 31.0757 18.7003 31.0083 18.2971 31.1373C17.1579 31.5026 15.6033 31.7969 14.6684 31.1204C13.6861 30.4097 13.6619 28.8678 13.6619 28.862C13.6645 28.4914 13.5139 28.1366 13.247 27.8802C12.9796 27.6244 12.6185 27.4886 12.2489 27.507C10.9755 27.5691 10.0916 27.3406 9.76153 26.8637C9.49727 26.4815 9.50306 25.8672 9.60045 25.3107C10.3422 25.4171 11.1113 25.4713 11.8936 25.4713C12.5664 25.4713 13.2486 25.4313 13.9314 25.3518C14.6705 25.266 15.2001 24.5969 15.1137 23.8573C15.0274 23.1182 14.3583 22.588 13.6192 22.6749C11.9931 22.8644 10.3838 22.787 8.96452 22.4522C8.95926 22.4506 8.95399 22.4496 8.94873 22.4485C8.94504 22.4475 8.94136 22.447 8.93767 22.4459C4.63042 21.5125 3.24749 18.2697 2.84162 15.7397C4.09663 16.6478 5.60116 17.3201 7.34417 17.7491C8.06643 17.927 8.79659 17.4854 8.97452 16.7626C9.15246 16.0398 8.71078 15.3096 7.98799 15.1317C5.51851 14.5242 3.68759 13.3355 2.54629 11.5993C2.2378 11.1298 1.67031 10.9008 1.12282 11.025C0.574811 11.1493 0.161564 11.5999 0.0852311 12.1563C0.0699647 12.2653 -0.272741 14.8611 0.533749 17.7233C1.51133 21.1904 3.72339 23.5751 6.97041 24.6917C6.75983 25.7503 6.71456 27.1864 7.53579 28.3846C8.26753 29.4516 9.47621 30.0549 11.1392 30.1855C11.3635 31.1462 11.8788 32.4165 13.0622 33.2856C14.2214 34.1369 15.7176 34.4095 17.5237 34.1016C17.7748 35.5982 18.4034 37.5007 19.9695 38.0777C20.2817 38.193 20.5897 38.2435 20.8892 38.2435C21.8615 38.2435 22.7454 37.7145 23.415 37.1612C24.5205 37.8692 26.1051 37.9582 27.7054 37.7719C26.5704 39.3259 25.6502 41.2937 25.785 43.5063C25.9545 46.2958 27.7381 48.8337 31.093 51.0768L31.1051 51.856C27.4812 54.1454 25.7803 56.4627 25.9224 58.8948C26.1177 62.2308 29.7969 64.2418 31.4489 64.9799C31.8579 66.2733 33.0692 67.213 34.4958 67.213C35.923 67.213 37.1343 66.2728 37.5433 64.9799C39.1953 64.2413 42.874 62.2303 43.0693 58.8948C43.2114 56.4627 41.5105 54.1454 37.8866 51.856L37.8992 51.0768C41.2541 48.8337 43.0377 46.2958 43.2072 43.5063C43.3414 41.2931 42.4212 39.3253 41.2863 37.7713C42.8892 37.9587 44.4769 37.8708 45.584 37.1612C46.2536 37.7145 47.1375 38.2435 48.1098 38.243C48.4094 38.243 48.7173 38.193 49.03 38.0777C50.5962 37.5007 51.2242 35.5982 51.4753 34.1016C53.2815 34.4095 54.7776 34.1369 55.9368 33.2856C57.1202 32.4165 57.6356 31.1457 57.8604 30.1855C59.5228 30.0549 60.732 29.4516 61.4632 28.3846C62.2845 27.1864 62.2392 25.7503 62.0286 24.6917C65.2757 23.5746 67.4877 21.1904 68.4653 17.7233C69.2728 14.8606 68.9301 12.2653 68.9149 12.1558ZM34.4964 4.58204C37.0422 4.58204 39.1131 6.65301 39.1131 9.19935C39.1131 11.7452 37.0422 13.8161 34.4964 13.8161C31.9505 13.8161 29.8796 11.7452 29.8796 9.19935C29.8796 6.65301 31.9505 4.58204 34.4964 4.58204ZM34.4964 16.5115C34.9275 16.5115 35.3492 16.4715 35.7603 16.3999L35.2281 49.567C34.9923 49.7034 34.748 49.8387 34.4964 49.974C34.2447 49.8392 34.001 49.7034 33.7646 49.567L33.2329 16.3999C33.6435 16.4715 34.0652 16.5115 34.4964 16.5115ZM28.4761 43.3499C28.3487 41.3147 29.6553 39.4496 30.8861 38.1625L31.0388 47.6751C29.4289 46.2879 28.5693 44.8413 28.4761 43.3499ZM28.6135 58.7369C28.5724 58.0362 28.9399 56.7865 31.1572 55.0924L31.2657 61.8444C30.0138 61.0927 28.6867 59.9835 28.6135 58.7369ZM34.9965 64.017C34.9965 64.2929 34.7722 64.5171 34.4964 64.5171C34.2205 64.5171 33.9963 64.2929 33.9963 64.016C33.9963 64.0086 33.9963 64.0012 33.9957 63.9944L33.8257 53.3763C34.041 53.2563 34.2637 53.1347 34.4964 53.012C34.729 53.1352 34.9517 53.2563 35.167 53.3763L34.997 63.9954C34.9965 64.0028 34.9965 64.0102 34.9965 64.017ZM40.3792 58.7343C40.3087 59.9735 38.9805 61.0837 37.7271 61.8392L37.8355 55.0924C40.0507 56.7849 40.4192 58.0336 40.3792 58.7343ZM40.5171 43.3425C40.4266 44.8365 39.5664 46.2853 37.9545 47.6751L38.1066 38.1762C39.3353 39.467 40.6398 41.3305 40.5171 43.3425ZM65.8716 16.9916C65.0356 19.9575 63.0804 21.7926 60.0598 22.4464C60.0514 22.448 60.0435 22.4501 60.035 22.4522C58.6163 22.787 57.0065 22.8644 55.3809 22.6749C54.6423 22.5886 53.9722 23.1182 53.8863 23.8573C53.8 24.5969 54.3296 25.266 55.0687 25.3518C56.5448 25.5239 58.0188 25.5076 59.3996 25.3097C59.497 25.8666 59.5033 26.4815 59.2386 26.8637C58.9085 27.3406 58.0251 27.5696 56.7512 27.507C56.3816 27.4896 56.0205 27.6239 55.7531 27.8802C55.4856 28.1366 55.3356 28.492 55.3382 28.862C55.3382 28.8768 55.3045 30.406 54.3422 31.113C53.4083 31.7985 51.8475 31.5047 50.703 31.1373C50.3008 31.0083 49.8607 31.0767 49.5154 31.3199C49.1695 31.5631 48.9584 31.9553 48.9442 32.3781C48.8958 33.8357 48.4483 35.3134 48.1072 35.5419C48.0172 35.5298 47.5176 35.4124 46.5226 34.3153C46.2115 33.9726 45.7477 33.8131 45.2919 33.8931C44.836 33.9731 44.4533 34.2811 44.278 34.7086C44.1474 35.0255 43.3283 35.2724 41.7927 35.1118C40.4819 34.9744 39.0916 34.5927 38.1687 34.3022L38.2066 31.9522C40.5024 31.41 43.3725 29.6369 44.8912 27.2196C46.1015 25.2934 46.2821 23.1982 45.3998 21.3209C44.4075 19.2089 44.4306 17.8591 45.4687 17.309C46.6716 16.672 48.0156 17.0126 49.5717 17.4074C50.0955 17.5406 50.6372 17.678 51.1905 17.7796C54.398 18.3687 61.4411 19.1336 66.1453 15.7466C66.0806 16.1472 65.9916 16.5662 65.8716 16.9916Z" fill="#D5E2F7"/>
</g>
<defs>
<clipPath id="clip0">
<rect width="69" height="69" fill="white"/>
</clipPath>
</defs>
</svg>
