<svg width="1920" height="831" viewBox="0 0 1920 831" fill="none" xmlns="http://www.w3.org/2000/svg">
<g opacity="0.4">
<path d="M-0.119995 520.834H25.8313V472.862L53.3952 453.554V356.808L80.9591 322.768V259.324H137.71V324.317L157.168 344.436V453.564L222.025 500.726V267.05H299.858L328.239 294.134V482.146L369.187 521.224L396.751 547.529H437.699L483.087 302.65H533.355V458.888H567.402V547.539H612.8V496.089L665.079 446.198L713.725 492.621V615.887H747.395V550.248L757.93 540.193V453.574H848.738V746.775H938.73V624.843H967.917V378.466H979.269V355.259H988.998V327.405H997.104V273.246L1010.89 286.399V325.856V353.71H1019.81V386.612H1032.78V492.98H1050.62V547.139H1074.95C1074.95 547.139 1097.2 579.199 1102.87 573.782C1108.53 568.366 1102.87 432.625 1102.87 432.625H1186.83V592.013H1243.58V544.041H1276.01V503.034L1299.93 480.207V321.219L1340.67 282.336V681.772H1516V434.174H1577.62V613.814L1598.77 593.634V550.237H1613.29V446.557H1626.27V282.531H1660.33V259.324H1673.3V155.634H1684.65V256.216H1697.63V284.07H1726.82V435.723H1749.52V725.097H1767.36V482.146L1828.16 424.12L1856.54 451.204V375.378L1922.21 312.704V830.327H-0.119995V528.57V520.834Z" fill="#EAEDF6"/>
<path d="M-0.119995 520.834H25.8313V472.862L53.3952 453.554V356.808L80.9591 322.768V259.324H137.71V324.317L157.168 344.436V453.564L222.025 500.726V267.05H299.858L328.239 294.134V482.146L369.187 521.224L396.751 547.529H437.699L483.087 302.65H533.355V458.888H567.402V547.539H612.8V496.089L665.079 446.198L713.725 492.621V615.887H747.395V550.248L757.93 540.193V453.574H848.738V746.775H938.73V624.843H967.917V378.466H979.269V355.259H988.998V327.405H997.104V273.246L1010.89 286.399V325.856V353.71H1019.81V386.612H1032.78V492.98H1050.62V547.139H1074.95C1074.95 547.139 1097.2 579.199 1102.87 573.782C1108.53 568.366 1102.87 432.625 1102.87 432.625H1186.83V592.013H1243.58V544.041H1276.01V503.034L1299.93 480.207V321.219L1340.67 282.336V681.772H1516V434.174H1577.62V613.814L1598.77 593.634V550.237H1613.29V446.557H1626.27V282.531H1660.33V259.324H1673.3V155.634H1684.65V256.216H1697.63V284.07H1726.82V435.723H1749.52V725.097H1767.36V482.146L1828.16 424.12L1856.54 451.204V375.378L1922.21 312.704V830.327H-0.119995V528.57V520.834Z" fill="url(#paint0_linear)"/>
</g>
<g opacity="0.4">
<path d="M38.9683 674.693H63.2856V580.287L104.352 535.413L116.801 431.732L167.059 476.617V635.102L243.279 696.35V540.06H377.862V644.069H434.613V431.732H456.447V167.124H439.473V145.456H456.447L465.424 0L470.283 143.907L481.635 145.456V170.222H467.047V430.193H489.741V523.04H561.091V597.317H604.867V736.587H666.488V638.837H744.32V713.371H810.8V472.78H822.153V300.208L848.093 275.442V405.838H865.939V278.54L893.503 304.845V462.684H912.961V564.816H927.549V747.411H953.501V586.524H981.064V476.617H1049.17V600.405L1069.41 581.087V776.814H1149.69V713.371H1180.5L1216.19 679.556V594.219L1226.7 584.185L1241.31 570.233H1352.38V700.988H1412.38V586.524L1461.02 546.246V444.885H1506.43V315.679H1574.54V747.411H1642.64V618.975H1671.83V575.65H1697.77V547.796H1733.44V626.136H1775.6V795.383V830.973H-3.19458V674.693H38.9683Z" fill="#E3E9F7"/>
<path d="M38.9683 674.693H63.2856V580.287L104.352 535.413L116.801 431.732L167.059 476.617V635.102L243.279 696.35V540.06H377.862V644.069H434.613V431.732H456.447V167.124H439.473V145.456H456.447L465.424 0L470.283 143.907L481.635 145.456V170.222H467.047V430.193H489.741V523.04H561.091V597.317H604.867V736.587H666.488V638.837H744.32V713.371H810.8V472.78H822.153V300.208L848.093 275.442V405.838H865.939V278.54L893.503 304.845V462.684H912.961V564.816H927.549V747.411H953.501V586.524H981.064V476.617H1049.17V600.405L1069.41 581.087V776.814H1149.69V713.371H1180.5L1216.19 679.556V594.219L1226.7 584.185L1241.31 570.233H1352.38V700.988H1412.38V586.524L1461.02 546.246V444.885H1506.43V315.679H1574.54V747.411H1642.64V618.975H1671.83V575.65H1697.77V547.796H1733.44V626.136H1775.6V795.383V830.973H-3.19458V674.693H38.9683Z" fill="url(#paint1_linear)"/>
</g>
<defs>
<linearGradient id="paint0_linear" x1="961.047" y1="155.634" x2="961.047" y2="830.327" gradientUnits="userSpaceOnUse">
<stop offset="0.353591" stop-color="#E6E9F2"/>
<stop offset="1" stop-color="white" stop-opacity="0"/>
</linearGradient>
<linearGradient id="paint1_linear" x1="886.203" y1="0" x2="886.203" y2="830.973" gradientUnits="userSpaceOnUse">
<stop offset="0.756906" stop-color="#E0E4F1"/>
<stop offset="0.972376" stop-color="#F3F4F8"/>
</linearGradient>
</defs>
</svg>
