<svg width="1920" height="871" viewBox="0 0 1920 871" fill="none" xmlns="http://www.w3.org/2000/svg">
<path d="M3.07532 545.903H29.0333V495.622L56.6043 475.384V373.983L84.1753 338.304V271.806H140.941V339.927L160.404 361.014V475.395L225.278 524.827V279.904H303.13L331.518 308.292V505.353L372.477 546.312L400.048 573.883H441.007L486.406 317.217H536.688V480.976H570.743V573.894H616.153V519.967L668.446 467.674L717.104 516.332V645.531H750.782V576.733L761.32 566.194V475.406H852.152V782.719H942.166V654.918H971.361V396.682H982.716V372.359H992.448V343.164H1000.56V286.398L1014.34 300.184V341.54V370.735H1023.27V405.22H1036.25V516.709H1054.08V573.474H1078.42C1078.42 573.474 1100.68 607.078 1106.34 601.4C1112.01 595.723 1106.34 453.448 1106.34 453.448H1190.33V620.508H1247.09V570.227H1279.53V527.247L1303.46 503.321V336.68L1344.21 295.926V714.587H1519.59V455.072H1581.22V643.359L1602.38 622.207V576.722H1616.9V468.051H1629.88V296.13H1663.95V271.806H1676.93V163.125H1688.28V268.548H1701.26V297.743H1730.46V456.696H1753.17V759.998H1771.01V505.353L1831.83 444.534L1860.21 472.922V393.446L1925.9 327.755V870.293H3.07532V554.011V545.903Z" fill="#1F222E"/>
<path d="M42.1737 707.168H66.4973V608.218L107.574 561.184L120.026 452.513L170.297 499.557V665.672L246.537 729.868V566.055H381.155V675.07H437.921V452.513H459.76V175.168H442.781V152.458H459.76L468.739 0L473.599 150.834L484.955 152.458V178.416H470.363V450.9H493.063V548.215H564.431V626.068H608.218V772.041H669.854V669.586H747.707V747.707H814.204V495.536H825.56V314.658L851.507 288.7V425.372H869.357V291.947L896.928 319.518V484.955H916.391V592.002H930.983V783.386H956.941V614.756H984.512V499.557H1052.63V629.305L1072.88 609.056V814.204H1153.19V747.707H1184L1219.69 712.265V622.82L1230.21 612.304L1244.82 597.68H1355.92V734.728H1415.94V614.756L1464.6 572.539V466.298H1510.02V330.873H1578.14V783.386H1646.26V648.768H1675.45V603.357H1701.4V574.163H1737.08V656.273H1779.25V833.667V870.97H0V707.168H42.1737Z" fill="#2F3448"/>
<path d="M42.1737 707.168H66.4973V608.218L107.574 561.184L120.026 452.513L170.297 499.557V665.672L246.537 729.868V566.055H381.155V675.07H437.921V452.513H459.76V175.168H442.781V152.458H459.76L468.739 0L473.599 150.834L484.955 152.458V178.416H470.363V450.9H493.063V548.215H564.431V626.068H608.218V772.041H669.854V669.586H747.707V747.707H814.204V495.536H825.56V314.658L851.507 288.7V425.372H869.357V291.947L896.928 319.518V484.955H916.391V592.002H930.983V783.386H956.941V614.756H984.512V499.557H1052.63V629.305L1072.88 609.056V814.204H1153.19V747.707H1184L1219.69 712.265V622.82L1230.21 612.304L1244.82 597.68H1355.92V734.728H1415.94V614.756L1464.6 572.539V466.298H1510.02V330.873H1578.14V783.386H1646.26V648.768H1675.45V603.357H1701.4V574.163H1737.08V656.273H1779.25V833.667V870.97H0V707.168H42.1737Z" fill="url(#paint0_linear)"/>
<defs>
<linearGradient id="paint0_linear" x1="889.627" y1="0" x2="889.627" y2="870.97" gradientUnits="userSpaceOnUse">
<stop offset="0.756906" stop-color="#282C3B"/>
<stop offset="0.972376" stop-color="#1B1E2A"/>
</linearGradient>
</defs>
</svg>
