<svg width="61" height="61" viewBox="0 0 61 61" fill="none" xmlns="http://www.w3.org/2000/svg">
<g clip-path="url(#clip0)">
<path d="M60.8824 33.3175C60.3347 27.8086 57.8736 22.615 53.9521 18.6935C50.6009 15.3423 46.4991 13.1888 42.183 12.2313V9.20412C43.9458 8.76556 45.2562 7.16989 45.2562 5.27326C45.2562 3.03957 43.439 1.22241 41.2053 1.22241H32.6271C30.3934 1.22241 28.5762 3.03957 28.5762 5.27326C28.5762 7.16977 29.8865 8.76544 31.6492 9.20412V12.2398C27.3464 13.2014 23.2582 15.3519 19.9165 18.6936C19.1852 19.4249 18.5108 20.192 17.8935 20.9893C17.8636 20.9871 17.8337 20.9848 17.8032 20.9848H9.31301C8.65511 20.9848 8.12159 21.5182 8.12159 22.1762C8.12159 22.8343 8.65511 23.3677 9.31301 23.3677H16.2724C15.3988 24.8301 14.6944 26.366 14.1583 27.947H1.19142C0.53352 27.947 0 28.4804 0 29.1385C0 29.7965 0.53352 30.3299 1.19142 30.3299H13.485C13.1417 31.8371 12.9446 33.3711 12.8937 34.9094H7.62512C6.96721 34.9094 6.43369 35.4428 6.43369 36.1008C6.43369 36.7588 6.96721 37.2922 7.62512 37.2922H12.9317C13.0323 38.8344 13.2802 40.3685 13.6757 41.8717H5.95712C5.29922 41.8717 4.7657 42.4051 4.7657 43.0631C4.7657 43.7211 5.29922 44.2545 5.95712 44.2545H14.436C15.6048 47.3464 17.4314 50.2443 19.9165 52.7294C23.8417 56.6546 29.0406 59.1164 34.5553 59.6612C35.3423 59.7389 36.13 59.7774 36.9165 59.7774C41.5657 59.7774 46.1558 58.4319 50.0506 55.8956C50.602 55.5365 50.7579 54.7984 50.3988 54.247C50.0397 53.6956 49.3016 53.5397 48.7502 53.8988C40.2248 59.4504 28.807 58.2501 21.6014 51.0445C13.1468 42.5899 13.1468 28.8333 21.6014 20.3786C30.0558 11.9241 43.8124 11.9241 52.2671 20.3786C59.4632 27.5748 60.6701 38.9828 55.1368 47.5041C54.7784 48.056 54.9353 48.794 55.487 49.1522C56.0391 49.5106 56.7769 49.3537 57.1351 48.8018C60.0915 44.2488 61.4224 38.7498 60.8824 33.3175ZM30.9591 5.27338C30.9591 4.3536 31.7073 3.60538 32.6271 3.60538H41.2053C42.1251 3.60538 42.8733 4.3536 42.8733 5.27338C42.8733 6.19316 42.1251 6.94137 41.2053 6.94137H40.9916H32.8407H32.6271C31.7073 6.94137 30.9591 6.19304 30.9591 5.27338ZM34.0321 11.8301V9.32422H39.8001V11.8259C37.8848 11.5981 35.9471 11.5995 34.0321 11.8301Z" fill="#BBC8E6"/>
<path d="M53.1099 50.6951C52.7953 50.6951 52.4891 50.8225 52.2677 51.0441C52.0449 51.2658 51.9185 51.5731 51.9185 51.8865C51.9185 52.1998 52.0449 52.5072 52.2677 52.7288C52.4891 52.9516 52.7955 53.0779 53.1099 53.0779C53.4232 53.0779 53.7294 52.9516 53.9522 52.7288C54.1738 52.5072 54.3013 52.1998 54.3013 51.8865C54.3013 51.5731 54.1739 51.2658 53.9522 51.0441C53.7294 50.8225 53.4231 50.6951 53.1099 50.6951Z" fill="#BBC8E6"/>
<path d="M36.9346 17.2288C26.7434 17.2288 18.4521 25.5199 18.4521 35.7112C18.4521 45.9025 26.7434 54.1937 36.9346 54.1937C47.1258 54.1937 55.4171 45.9025 55.4171 35.7112C55.4171 25.5199 47.1258 17.2288 36.9346 17.2288ZM36.9346 51.8108C28.0572 51.8108 20.835 44.5885 20.835 35.7112C20.835 26.8339 28.0572 19.6116 36.9346 19.6116C45.812 19.6116 53.0342 26.8339 53.0342 35.7112C53.0342 44.5885 45.812 51.8108 36.9346 51.8108Z" fill="#BBC8E6"/>
<path d="M44.4704 26.4898L38.5692 32.3908C38.0757 32.1468 37.5207 32.009 36.9339 32.009C36.347 32.009 35.792 32.1468 35.2985 32.3908L32.6575 29.7498C32.1921 29.2845 31.438 29.2845 30.9725 29.7498C30.5072 30.215 30.5072 30.9694 30.9725 31.4347L33.6135 34.0757C33.3694 34.5692 33.2317 35.1243 33.2317 35.7111C33.2317 37.7525 34.8924 39.4133 36.9339 39.4133C38.9754 39.4133 40.6361 37.7525 40.6361 35.7111C40.6361 35.1243 40.4983 34.5692 40.2543 34.0757L45.9822 28.3478L46.1553 28.1747C46.6205 27.7095 46.6205 26.9551 46.1553 26.4898C45.69 26.0246 44.9358 26.0246 44.4704 26.4898ZM36.9339 37.0306C36.2064 37.0306 35.6145 36.4387 35.6145 35.7112C35.6145 34.9837 36.2064 34.3918 36.9339 34.3918C37.6614 34.3918 38.2533 34.9837 38.2533 35.7112C38.2533 36.4387 37.6614 37.0306 36.9339 37.0306Z" fill="#BBC8E6"/>
<path d="M49.6722 34.5344H48.5684C47.9105 34.5344 47.377 35.0678 47.377 35.7258C47.377 36.3838 47.9105 36.9172 48.5684 36.9172H49.6722C50.3301 36.9172 50.8636 36.3838 50.8636 35.7258C50.8636 35.0678 50.3301 34.5344 49.6722 34.5344Z" fill="#BBC8E6"/>
<path d="M25.2985 34.5054H24.1948C23.5369 34.5054 23.0034 35.0388 23.0034 35.6968C23.0034 36.3548 23.5369 36.8882 24.1948 36.8882H25.2985C25.9564 36.8882 26.4899 36.3548 26.4899 35.6968C26.4899 35.0388 25.9564 34.5054 25.2985 34.5054Z" fill="#BBC8E6"/>
<path d="M36.9487 25.2678C37.6066 25.2678 38.1401 24.7344 38.1401 24.0764V22.9727C38.1401 22.3146 37.6066 21.7812 36.9487 21.7812C36.2908 21.7812 35.7573 22.3146 35.7573 22.9727V24.0764C35.7573 24.7344 36.2908 25.2678 36.9487 25.2678Z" fill="#BBC8E6"/>
<path d="M36.9204 46.1548C36.2625 46.1548 35.729 46.6882 35.729 47.3462V48.4499C35.729 49.1079 36.2625 49.6413 36.9204 49.6413C37.5783 49.6413 38.1118 49.1079 38.1118 48.4499V47.3462C38.1118 46.6882 37.5783 46.1548 36.9204 46.1548Z" fill="#BBC8E6"/>
<path d="M1.19141 41.8713C0.878066 41.8713 0.570684 41.9988 0.349082 42.2204C0.12748 42.442 0 42.7494 0 43.0627C0 43.3773 0.127361 43.6835 0.349082 43.9051C0.570803 44.1267 0.878066 44.2542 1.19141 44.2542C1.50475 44.2542 1.81213 44.1267 2.03361 43.9051C2.25521 43.6835 2.38281 43.3761 2.38281 43.0627C2.38281 42.7494 2.25533 42.442 2.03361 42.2204C1.81213 41.9988 1.50475 41.8713 1.19141 41.8713Z" fill="#BBC8E6"/>
</g>
<defs>
<clipPath id="clip0">
<rect width="61" height="61" fill="white"/>
</clipPath>
</defs>
</svg>
