<svg width="61" height="61" viewBox="0 0 61 61" fill="none" xmlns="http://www.w3.org/2000/svg">
<g clip-path="url(#clip0)">
<path d="M60.8824 33.3177C60.3347 27.8088 57.8736 22.6153 53.9521 18.6937C50.6009 15.3426 46.4991 13.1891 42.183 12.2315V9.20437C43.9458 8.7658 45.2562 7.17013 45.2562 5.2735C45.2562 3.03982 43.439 1.22266 41.2053 1.22266H32.6271C30.3934 1.22266 28.5762 3.03982 28.5762 5.2735C28.5762 7.17001 29.8865 8.76569 31.6492 9.20437V12.24C27.3464 13.2016 23.2582 15.3521 19.9165 18.6938C19.1852 19.4251 18.5108 20.1923 17.8935 20.9896C17.8636 20.9873 17.8337 20.9851 17.8032 20.9851H9.31301C8.65511 20.9851 8.12159 21.5185 8.12159 22.1765C8.12159 22.8345 8.65511 23.3679 9.31301 23.3679H16.2724C15.3988 24.8304 14.6944 26.3663 14.1583 27.9473H1.19142C0.53352 27.9473 0 28.4807 0 29.1387C0 29.7967 0.53352 30.3301 1.19142 30.3301H13.485C13.1417 31.8374 12.9446 33.3713 12.8937 34.9096H7.62512C6.96721 34.9096 6.43369 35.443 6.43369 36.101C6.43369 36.759 6.96721 37.2924 7.62512 37.2924H12.9317C13.0323 38.8346 13.2802 40.3687 13.6757 41.8719H5.95712C5.29922 41.8719 4.7657 42.4053 4.7657 43.0634C4.7657 43.7214 5.29922 44.2548 5.95712 44.2548H14.436C15.6048 47.3466 17.4314 50.2445 19.9165 52.7296C23.8417 56.6549 29.0406 59.1166 34.5553 59.6614C35.3423 59.7391 36.13 59.7776 36.9165 59.7776C41.5657 59.7776 46.1558 58.4321 50.0506 55.8958C50.602 55.5367 50.7579 54.7986 50.3988 54.2473C50.0397 53.6959 49.3016 53.5399 48.7502 53.899C40.2248 59.4507 28.807 58.2503 21.6014 51.0447C13.1468 42.5901 13.1468 28.8336 21.6014 20.3789C30.0558 11.9244 43.8124 11.9244 52.2671 20.3789C59.4632 27.5751 60.6701 38.9831 55.1368 47.5044C54.7784 48.0563 54.9353 48.7942 55.487 49.1525C56.0391 49.5109 56.7769 49.354 57.1351 48.8021C60.0915 44.2491 61.4224 38.75 60.8824 33.3177ZM30.9591 5.27362C30.9591 4.35384 31.7073 3.60563 32.6271 3.60563H41.2053C42.1251 3.60563 42.8733 4.35384 42.8733 5.27362C42.8733 6.1934 42.1251 6.94161 41.2053 6.94161H40.9916H32.8407H32.6271C31.7073 6.94161 30.9591 6.19328 30.9591 5.27362ZM34.0321 11.8304V9.32446H39.8001V11.8261C37.8848 11.5983 35.9471 11.5997 34.0321 11.8304Z" fill="#E82464"/>
<path d="M53.1094 50.6953C52.7948 50.6953 52.4887 50.8228 52.2672 51.0444C52.0444 51.266 51.918 51.5734 51.918 51.8867C51.918 52.2001 52.0444 52.5074 52.2672 52.729C52.4887 52.9518 52.795 53.0781 53.1094 53.0781C53.4227 53.0781 53.7289 52.9518 53.9517 52.729C54.1733 52.5074 54.3008 52.2001 54.3008 51.8867C54.3008 51.5734 54.1734 51.266 53.9517 51.0444C53.7289 50.8228 53.4226 50.6953 53.1094 50.6953Z" fill="#E82464"/>
<path d="M36.9346 17.229C26.7434 17.229 18.4521 25.5201 18.4521 35.7115C18.4521 45.9028 26.7434 54.1939 36.9346 54.1939C47.1258 54.1939 55.4171 45.9028 55.4171 35.7115C55.4171 25.5201 47.1258 17.229 36.9346 17.229ZM36.9346 51.8111C28.0572 51.8111 20.835 44.5888 20.835 35.7115C20.835 26.8342 28.0572 19.6119 36.9346 19.6119C45.812 19.6119 53.0342 26.8342 53.0342 35.7115C53.0342 44.5888 45.812 51.8111 36.9346 51.8111Z" fill="#E82464"/>
<path d="M44.4708 26.4901L38.5697 32.3911C38.0762 32.1471 37.5212 32.0092 36.9344 32.0092C36.3475 32.0092 35.7925 32.1471 35.299 32.3911L32.658 29.75C32.1926 29.2848 31.4385 29.2848 30.973 29.75C30.5077 30.2153 30.5077 30.9697 30.973 31.4349L33.614 34.076C33.3699 34.5695 33.2321 35.1245 33.2321 35.7113C33.2321 37.7527 34.8929 39.4136 36.9344 39.4136C38.9759 39.4136 40.6366 37.7527 40.6366 35.7113C40.6366 35.1245 40.4988 34.5695 40.2548 34.076L45.9826 28.3481L46.1558 28.175C46.621 27.7097 46.621 26.9553 46.1558 26.4901C45.6905 26.0248 44.9363 26.0248 44.4708 26.4901ZM36.9344 37.0308C36.2069 37.0308 35.615 36.4389 35.615 35.7114C35.615 34.984 36.2069 34.3921 36.9344 34.3921C37.6619 34.3921 38.2538 34.984 38.2538 35.7114C38.2538 36.4389 37.6619 37.0308 36.9344 37.0308Z" fill="#E82464"/>
<path d="M49.6722 34.5347H48.5684C47.9105 34.5347 47.377 35.0681 47.377 35.7261C47.377 36.3841 47.9105 36.9175 48.5684 36.9175H49.6722C50.3301 36.9175 50.8636 36.3841 50.8636 35.7261C50.8636 35.0681 50.3301 34.5347 49.6722 34.5347Z" fill="#E82464"/>
<path d="M25.299 34.5054H24.1953C23.5374 34.5054 23.0039 35.0388 23.0039 35.6968C23.0039 36.3548 23.5374 36.8882 24.1953 36.8882H25.299C25.9569 36.8882 26.4904 36.3548 26.4904 35.6968C26.4904 35.0388 25.9569 34.5054 25.299 34.5054Z" fill="#E82464"/>
<path d="M36.9492 25.2678C37.6071 25.2678 38.1406 24.7344 38.1406 24.0764V22.9727C38.1406 22.3146 37.6071 21.7812 36.9492 21.7812C36.2913 21.7812 35.7578 22.3146 35.7578 22.9727V24.0764C35.7578 24.7344 36.2913 25.2678 36.9492 25.2678Z" fill="#E82464"/>
<path d="M36.9199 46.1548C36.262 46.1548 35.7285 46.6882 35.7285 47.3462V48.4499C35.7285 49.1079 36.262 49.6413 36.9199 49.6413C37.5778 49.6413 38.1113 49.1079 38.1113 48.4499V47.3462C38.1113 46.6882 37.5778 46.1548 36.9199 46.1548Z" fill="#E82464"/>
<path d="M1.19141 41.8716C0.878066 41.8716 0.570684 41.9991 0.349082 42.2207C0.12748 42.4423 0 42.7496 0 43.063C0 43.3775 0.127361 43.6837 0.349082 43.9053C0.570803 44.1269 0.878066 44.2544 1.19141 44.2544C1.50475 44.2544 1.81213 44.1269 2.03361 43.9053C2.25521 43.6837 2.38281 43.3763 2.38281 43.063C2.38281 42.7496 2.25533 42.4423 2.03361 42.2207C1.81213 41.9991 1.50475 41.8716 1.19141 41.8716Z" fill="#E82464"/>
</g>
<defs>
<clipPath id="clip0">
<rect width="61" height="61" fill="white"/>
</clipPath>
</defs>
</svg>
