<svg width="74" height="78" viewBox="0 0 74 78" fill="none" xmlns="http://www.w3.org/2000/svg">
<path d="M69.7691 74.006L66.4955 53.8048C66.1427 51.6282 64.6778 49.8798 62.6722 49.2421L53.8425 46.4339C53.6596 44.1588 52.7747 42.0124 51.3019 40.3135C50.1238 38.9546 48.6421 37.9651 47.0087 37.4191C47.2883 37.0922 47.5474 36.7663 47.7852 36.4476C49.8849 33.6328 51.0091 30.5317 51.2953 28.4155H51.9764C53.7481 28.4155 55.1895 26.8963 55.1895 25.0287V23.2926C55.1895 22.0463 54.5244 20.9169 53.5241 20.3309V16.1561C53.5241 15.5252 53.0389 15.0138 52.4404 15.0138C51.8419 15.0138 51.3568 15.525 51.3568 16.1561V20.8428C50.9348 20.92 50.4312 21.0534 49.9161 21.2821C49.8634 21.3024 49.8121 21.3258 49.7635 21.354C49.6472 21.4099 49.5307 21.4689 49.4146 21.5353V12.3304C49.4146 9.78732 47.4519 7.7185 45.0392 7.7185H42.0481C41.0165 7.7185 40.0087 8.09737 39.21 8.78566L38.9164 9.03856C38.3773 9.5032 37.6969 9.75914 37.0004 9.75914C36.3039 9.75914 35.6233 9.5032 35.0842 9.03856L34.7908 8.78566C33.9921 8.09753 32.9843 7.7185 31.9526 7.7185H28.9613C26.5486 7.7185 24.5859 9.78732 24.5859 12.3304V21.5353C24.4698 21.4689 24.3533 21.4099 24.237 21.354C24.1884 21.3258 24.1373 21.3024 24.0845 21.2821C23.5694 21.0534 23.0657 20.92 22.6438 20.8428V8.99209C22.6438 5.29349 25.4986 2.28439 29.0075 2.28439H44.9928C48.5019 2.28439 51.3565 5.29349 51.3565 8.99209V10.7876C51.3565 11.4185 51.8417 11.9299 52.4401 11.9299C53.0384 11.9299 53.5238 11.4186 53.5238 10.7876V8.99209C53.5238 4.03391 49.6967 0 44.9928 0H29.0075C24.3035 0 20.4766 4.03391 20.4766 8.99209V20.331C19.4763 20.9171 18.8111 22.0463 18.8111 23.2927V25.0289C18.8111 26.8964 20.2525 28.4156 22.0242 28.4156H22.7054C22.9914 30.5318 24.1157 33.6329 26.2155 36.4478C26.4529 36.7662 26.7119 37.0917 26.9912 37.4184C23.2362 38.6755 20.498 42.234 20.1582 46.4339L11.3282 49.2421C9.32251 49.8798 7.85754 51.6282 7.50488 53.8048L6.17548 62.0083C6.07474 62.6302 6.47134 63.2202 7.06117 63.3264C7.65086 63.4329 8.21092 63.0147 8.3118 62.3928L9.6412 54.1893C9.85453 52.8724 10.7408 51.8148 11.9541 51.4291L20.1209 48.8318V51.0912C18.2489 51.4544 16.656 52.8098 16 54.6878C15.8258 55.1862 15.7176 55.7081 15.6783 56.2389L14.889 66.9174C14.8294 67.7218 15.0935 68.5229 15.6131 69.1147C16.1327 69.7067 16.8696 70.0464 17.6349 70.0464H18.986C19.5845 70.0464 20.0697 69.5352 20.0697 68.9042C20.0697 68.2732 19.5845 67.762 18.986 67.762H17.6349C17.4718 67.762 17.3148 67.6898 17.2039 67.5634C17.0932 67.4372 17.037 67.2666 17.0497 67.0952L17.839 56.4165C17.8629 56.095 17.9283 55.7788 18.0338 55.477C18.4903 54.1707 19.7228 53.286 21.1012 53.2758L21.2797 53.2745C21.2881 53.2743 21.2963 53.2743 21.3046 53.2743C22.6442 53.2743 23.8301 54.075 24.3303 55.3198C24.4707 55.6688 24.556 56.0378 24.584 56.4165L25.3736 67.0954C25.3861 67.2666 25.3299 67.4372 25.2192 67.5635C25.1085 67.6897 24.9514 67.762 24.7882 67.762H23.4371C22.8386 67.762 22.3534 68.2733 22.3534 68.9042C22.3534 69.535 22.8386 70.0464 23.4371 70.0464H24.7882C25.5535 70.0464 26.2906 69.7069 26.8101 69.1147C27.3298 68.5225 27.5939 67.7217 27.5343 66.9176L26.7447 56.2389C26.6985 55.614 26.5576 55.0048 26.3259 54.4285C25.612 52.6526 24.0857 51.4178 22.288 51.0838V48.1426L26.0131 46.9578C26.352 47.7103 27.0237 49.3362 28.3541 52.8412C29.6949 56.3777 31.3615 60.9107 32.9599 65.3174C32.9713 65.3544 32.9844 65.3905 32.9992 65.4258C34.0658 68.3678 35.1005 71.2492 35.9855 73.7348C36.1442 74.1806 36.5484 74.4758 37.0001 74.4758C37.4518 74.4758 37.856 74.1806 38.0147 73.7348C38.8995 71.2492 39.9342 68.3678 41.001 65.4258C41.0159 65.3905 41.0289 65.3542 41.0403 65.3174C42.6375 60.9133 44.3033 56.3832 45.6435 52.8477C46.9757 49.3382 47.6479 47.7109 47.9869 46.9578L51.7121 48.1426V54.8891C49.131 55.4176 47.176 57.817 47.176 60.6899C47.176 63.9487 49.6912 66.6001 52.7831 66.6001C55.8749 66.6001 58.3902 63.9489 58.3902 60.6899C58.3902 57.8265 56.4479 55.4329 53.8793 54.894V48.832L62.0462 51.4293C63.2596 51.815 64.1457 52.8726 64.3591 54.1894L67.6328 74.3907C67.6871 74.7257 67.6026 75.0532 67.3946 75.313C67.1868 75.5726 66.8947 75.7158 66.5722 75.7158H7.42799C7.10554 75.7158 6.81359 75.5727 6.60561 75.313C6.39777 75.0532 6.31308 74.7258 6.36742 74.3907L7.44779 67.7238C7.54853 67.1019 7.15194 66.5119 6.5621 66.4057C5.97242 66.2991 5.41236 66.7176 5.31147 67.3393L4.2311 74.0062C4.06995 75.0013 4.3317 76.0145 4.94913 76.7861C5.56686 77.5576 6.47033 78 7.42799 78H66.5722C67.5299 78 68.4335 77.5576 69.0511 76.786C69.6685 76.0144 69.9303 75.0011 69.7691 74.006ZM51.3695 23.1698C51.9469 23.0181 52.4105 23.0208 52.4157 23.021C52.6024 23.0236 52.7839 22.9776 52.9452 22.8884C52.9935 23.015 53.022 23.1511 53.022 23.2927V25.0289C53.022 25.6367 52.5528 26.1312 51.9761 26.1312H51.3695V23.1698ZM22.6307 26.1312H22.0241C21.4474 26.1312 20.9782 25.6367 20.9782 25.0289V23.2927C20.9782 23.1511 21.0068 23.015 21.055 22.8886C21.2161 22.9777 21.3977 23.0237 21.5845 23.021C21.5928 23.0225 22.055 23.0198 22.6307 23.1704V26.1312ZM24.7979 27.412V24.4111C25.1263 24.5149 25.4854 24.5007 25.817 24.3549C26.3857 24.1047 26.7531 23.5239 26.7531 22.8747V12.3304C26.7531 11.0471 27.7437 10.0029 28.9613 10.0029H31.9523C32.4854 10.0029 33.0061 10.1987 33.4188 10.5542L33.7122 10.8071C34.6373 11.6045 35.805 12.0434 37.0001 12.0434C38.1952 12.0434 39.3629 11.6043 40.288 10.8071L40.5814 10.5542C40.9939 10.1987 41.5148 10.0029 42.0479 10.0029H45.0389C46.2565 10.0029 47.2471 11.0471 47.2471 12.3304V22.8749C47.2471 23.5239 47.6145 24.1049 48.1832 24.355C48.3731 24.4385 48.572 24.479 48.7691 24.479C48.9161 24.479 49.062 24.4564 49.2023 24.4122V27.412C49.2023 29.0797 48.1085 32.3182 46.0813 35.0357C45.4098 35.9359 44.5467 36.903 43.4839 37.7482C43.4502 37.772 43.418 37.7977 43.3872 37.8251C41.7409 39.1082 39.6239 40.0911 37.0001 40.0911C34.3763 40.0911 32.2593 39.1082 30.6128 37.825C30.582 37.7977 30.55 37.772 30.5164 37.7483C29.4537 36.903 28.5905 35.9359 27.9189 35.0357C25.8919 32.3184 24.7979 29.0797 24.7979 27.412ZM44.0995 45.8661L37.0001 51.4593L29.9007 45.8661C30.6047 44.923 30.9992 43.7123 30.9992 42.6319V40.7906C32.6686 41.737 34.6607 42.3756 37.0001 42.3756C39.3395 42.3756 41.3317 41.737 43.001 40.7906V42.6319C43.001 43.7123 43.3955 44.923 44.0995 45.8661ZM28.0922 44.5912C27.5135 44.3588 26.8719 44.3208 26.265 44.4943C26.2384 44.5008 26.2124 44.5083 26.1871 44.5162L22.4433 45.7069C23.0765 42.4251 25.6047 39.8131 28.8319 39.3071V42.6319C28.8319 43.3485 28.5284 44.0893 28.0922 44.5912ZM31.0333 53.7604C31.0312 53.7551 31.0292 53.7498 31.0273 53.7446C30.9724 53.5982 30.9182 53.4538 30.8645 53.311C30.8548 53.2851 30.8451 53.2594 30.8354 53.2338C30.7828 53.0941 30.7306 52.9554 30.6792 52.8191C30.6756 52.8095 30.6719 52.8001 30.6683 52.7903C30.5078 52.3648 30.353 51.9567 30.2041 51.5656C30.1933 51.5373 30.1824 51.5085 30.1716 51.4803C30.1288 51.3682 30.0867 51.2577 30.045 51.1487C30.0296 51.1086 30.0145 51.069 29.9993 51.0294C29.9588 50.9236 29.9186 50.8185 29.879 50.7157C29.8672 50.6849 29.8556 50.6551 29.8439 50.6244C29.7721 50.4377 29.7019 50.2556 29.6333 50.0781C29.6148 50.0301 29.5959 49.9812 29.5776 49.9339C29.5507 49.8647 29.5245 49.7974 29.4982 49.7296C29.4699 49.6564 29.4415 49.5839 29.4138 49.5126C29.4034 49.486 29.3926 49.4578 29.3821 49.4313C29.3738 49.41 29.3661 49.3903 29.3579 49.3691C29.2327 49.0486 29.1138 48.7465 29.0009 48.4624C29 48.4601 28.999 48.4578 28.9981 48.4555C28.938 48.3042 28.8792 48.1565 28.8227 48.0157C28.7933 47.9427 28.7644 47.871 28.7361 47.8006L34.8418 52.6107L32.2906 53.7531C32.2861 53.7551 32.2814 53.7571 32.277 53.7592L31.2118 54.2362C31.1514 54.0752 31.0922 53.9173 31.0333 53.7604ZM33.6189 60.7542C33.4049 60.1688 33.1892 59.58 32.9732 58.9918C32.6353 58.0718 32.3125 57.197 32.0037 56.3637L32.4081 56.1825L34.0603 58.207L33.6189 60.7542ZM37.0211 70.0378C36.99 69.9698 36.953 69.9057 36.9102 69.846C36.4205 68.4817 35.799 66.7555 35.1112 64.8562L36.1229 59.0177H37.8773L38.889 64.8562C38.1682 66.846 37.5208 68.6452 37.0211 70.0378ZM38.2837 56.7334H35.7165L34.5017 55.245L37.0001 54.1264L39.4985 55.245L38.2837 56.7334ZM41.027 58.9918C40.811 59.58 40.5953 60.1688 40.3813 60.7542L39.9399 58.2069L41.5921 56.1824L41.9965 56.3635C41.6877 57.1969 41.3649 58.0718 41.027 58.9918ZM45.1777 48.0157C45.1241 48.1492 45.0683 48.2892 45.0115 48.4321C45.0041 48.4506 44.9966 48.4694 44.9892 48.4881C44.933 48.6298 44.8758 48.7745 44.8165 48.9252C44.8126 48.9351 44.8085 48.9456 44.8046 48.9557C44.7535 49.0856 44.701 49.2197 44.6477 49.3563C44.6377 49.3819 44.6283 49.4055 44.6183 49.4313C44.6065 49.4619 44.5938 49.4944 44.5818 49.5253C44.5581 49.5862 44.5339 49.6484 44.5097 49.7105C44.4799 49.7872 44.4503 49.8635 44.4198 49.9419C44.4101 49.9669 44.4001 49.993 44.3903 50.0181C44.3148 50.213 44.2374 50.4137 44.1582 50.62C44.1457 50.6523 44.1334 50.684 44.121 50.7168C44.0818 50.8187 44.042 50.9227 44.0019 51.0274C43.9863 51.0684 43.9706 51.1092 43.9548 51.1506C43.9135 51.2586 43.8717 51.368 43.8295 51.4789C43.8176 51.5099 43.8056 51.5415 43.7938 51.5726C43.6468 51.9584 43.4943 52.3607 43.3361 52.7799C43.3309 52.7938 43.3257 52.8074 43.3205 52.8214C43.2693 52.9568 43.2175 53.0945 43.1652 53.2333C43.1555 53.2592 43.1457 53.2851 43.1359 53.3112C43.0818 53.4547 43.0273 53.5997 42.9721 53.747C42.9711 53.7498 42.9701 53.7525 42.9691 53.7551C42.9096 53.9138 42.8497 54.0735 42.7887 54.2365L41.7225 53.7591C41.7188 53.7574 41.715 53.7557 41.7114 53.754L39.1587 52.611L45.2644 47.8009C45.2358 47.871 45.2069 47.9426 45.1777 48.0157ZM47.8131 44.5164C47.8129 44.5164 47.8126 44.5162 47.8125 44.5162C47.8116 44.5159 47.8106 44.5158 47.8097 44.5153C47.181 44.3165 46.5104 44.3494 45.9081 44.5912C45.4718 44.0893 45.1684 43.3485 45.1684 42.6319V39.3055C48.4159 39.81 50.9364 42.3976 51.5613 45.7083L47.8131 44.5164ZM56.2229 60.6899C56.2229 62.6893 54.6797 64.3157 52.7831 64.3157C50.8864 64.3157 49.3432 62.6893 49.3432 60.6899C49.3432 58.6906 50.8864 57.0642 52.7831 57.0642C54.6797 57.0642 56.2229 58.6906 56.2229 60.6899Z" fill="#E82464"/>
</svg>
