<svg width="40" height="35" viewBox="0 0 40 35" fill="none" xmlns="http://www.w3.org/2000/svg">
<circle cx="31.9564" cy="26.7249" r="7.6087" fill="#3D56CC"/>
<circle cx="7.6087" cy="26.7249" r="7.6087" fill="#3D56CC"/>
<path d="M0 27.2318C0 23.3098 3.17943 20.1304 7.10145 20.1304H32.4638C36.3858 20.1304 39.5652 23.3098 39.5652 27.2318C39.5652 31.1538 36.3858 34.3333 32.4638 34.3333H7.10146C3.17944 34.3333 0 31.1538 0 27.2318Z" fill="#3D56CC"/>
<path d="M19.918 32.5743C25.8756 32.5743 30.7052 27.7447 30.7052 21.7872C30.7052 15.8296 25.8756 11 19.918 11C13.9604 11 9.13086 15.8296 9.13086 21.7872C9.13086 27.7447 13.9604 32.5743 19.918 32.5743Z" fill="#3D56CC"/>
<circle cx="35.5" cy="4.5" r="4.5" fill="#3D56CC"/>
</svg>
