<svg width="39" height="23" viewBox="0 0 39 23" fill="none" xmlns="http://www.w3.org/2000/svg">
<circle cx="31.5" cy="15.5" r="7.5" fill="#3D56CC"/>
<circle cx="7.5" cy="15.5" r="7.5" fill="#3D56CC"/>
<path d="M0 16C0 12.134 3.13401 9 7 9H32C35.866 9 39 12.134 39 16C39 19.866 35.866 23 32 23H7C3.13401 23 0 19.866 0 16Z" fill="#3D56CC"/>
<path d="M19.6331 21.2661C25.5055 21.2661 30.2661 16.5055 30.2661 10.6331C30.2661 4.76059 25.5055 0 19.6331 0C13.7606 0 9 4.76059 9 10.6331C9 16.5055 13.7606 21.2661 19.6331 21.2661Z" fill="#3D56CC"/>
</svg>
