<svg width="35" height="30" viewBox="0 0 35 30" fill="none" xmlns="http://www.w3.org/2000/svg">
<circle cx="30" cy="24.3335" r="5" fill="#3D56CC"/>
<circle cx="14" cy="24.3335" r="5" fill="#3D56CC"/>
<path d="M9 24.6667C9 22.0893 11.0893 20 13.6667 20H30.3333C32.9107 20 35 22.0893 35 24.6667C35 27.244 32.9107 29.3333 30.3333 29.3333H13.6667C11.0893 29.3333 9 27.244 9 24.6667Z" fill="#3D56CC"/>
<path d="M22.0887 28.1774C26.0037 28.1774 29.1774 25.0037 29.1774 21.0887C29.1774 17.1737 26.0037 14 22.0887 14C18.1737 14 15 17.1737 15 21.0887C15 25.0037 18.1737 28.1774 22.0887 28.1774Z" fill="#3D56CC"/>
<circle cx="3" cy="5" r="3" fill="#3D56CC"/>
<circle cx="15.5" cy="2.5" r="2.5" fill="#3D56CC"/>
</svg>
