<svg width="13" height="13" viewBox="0 0 13 13" fill="none" xmlns="http://www.w3.org/2000/svg">
<path d="M10.4858 11.1635L9.33889 10.5785C8.92371 10.3661 8.42789 10.6416 8.38096 11.1077L8.2534 12.398C8.18841 13.0608 7.3075 13.2283 7.00544 12.6371L6.41937 11.484C6.20757 11.0664 5.64557 10.9948 5.33628 11.3444L4.48185 12.313C4.0426 12.8107 3.23269 12.4247 3.33378 11.7668L3.53114 10.4862C3.60214 10.0225 3.19057 9.63168 2.73567 9.73122L1.4805 10.0055C0.83546 10.1476 0.404632 9.35493 0.870359 8.88275L1.77654 7.96388C2.10508 7.63129 1.99918 7.0705 1.57316 6.88236L0.396208 6.36162C-0.207913 6.09458 -0.0947905 5.19756 0.556264 5.09074L1.82588 4.88439C2.28559 4.81035 2.52628 4.29326 2.29161 3.88784L1.64296 2.76868C1.30961 2.19454 1.92456 1.53543 2.51304 1.83646L3.65991 2.42153C4.07509 2.63395 4.5709 2.35841 4.61784 1.8923L4.7454 0.601995C4.81039 -0.0607562 5.6913 -0.228264 5.99336 0.362872L6.57943 1.51601C6.79123 1.93357 7.35323 2.00518 7.66251 1.6556L8.51695 0.686964C8.9562 0.189294 9.76611 0.575292 9.66502 1.23319L9.46766 2.51378C9.39665 2.97746 9.80823 3.36832 10.2631 3.26878L11.5195 2.99203C12.1645 2.85001 12.5954 3.64264 12.1296 4.11482L11.2235 5.03369C10.8949 5.36628 11.0008 5.92707 11.4268 6.11522L12.6038 6.63595C13.2079 6.90299 13.0948 7.80001 12.4437 7.90683L11.1741 8.11318C10.7144 8.18722 10.4737 8.70432 10.7084 9.10974L11.357 10.2289C11.6892 10.8055 11.0742 11.4646 10.4858 11.1635Z" fill="#E82464"/>
</svg>
