<svg width="64" height="59" viewBox="0 0 64 59" fill="none" xmlns="http://www.w3.org/2000/svg">
<g clip-path="url(#clip0)">
<path d="M58.3037 12.4808H47.2733V7.9423C47.2733 3.56293 43.4669 0 38.7883 0H24.2427C19.5641 0 15.7578 3.56293 15.7578 7.9423V12.4808H4.72733C2.12065 12.4808 0 14.4658 0 16.9058V23.9404C0 26.0289 1.55423 27.7828 3.63635 28.2451V55.5961C3.63635 57.4729 5.26765 58.9999 7.2727 58.9999H55.7581C57.7632 58.9999 59.3945 57.4729 59.3945 55.5961V28.2451C61.4768 27.7828 63.0311 26.0288 63.0311 23.9404V16.9058C63.0311 14.4658 60.9104 12.4808 58.3037 12.4808ZM18.182 7.9423C18.182 4.81415 20.9008 2.2692 24.2427 2.2692H38.7883C42.1302 2.2692 44.8491 4.81415 44.8491 7.9423V12.4808H42.4248V7.9423C42.4248 6.06536 40.7935 4.53851 38.7885 4.53851H24.2427C22.2375 4.53851 20.6064 6.06548 20.6064 7.9423V12.4808H18.1821V7.9423H18.182ZM40.0005 7.9423V12.4808H23.0306V7.9423C23.0306 7.31669 23.5744 6.8077 24.2427 6.8077H38.7883C39.4567 6.8077 40.0005 7.31669 40.0005 7.9423ZM56.9703 55.5962C56.9703 56.2218 56.4266 56.7308 55.7582 56.7308H7.27282C6.60447 56.7308 6.06071 56.2218 6.06071 55.5962V54.4616H12.1214C12.7907 54.4616 13.3335 53.9535 13.3335 53.327C13.3335 52.7005 12.7907 52.1924 12.1214 52.1924H6.06071V28.3654H10.9093V31.7692C10.9093 32.3957 11.4521 32.9038 12.1214 32.9038H19.3942C20.0636 32.9038 20.6064 32.3957 20.6064 31.7692V28.3654H42.4248V31.7692C42.4248 32.3957 42.9676 32.9038 43.6369 32.9038H50.9098C51.5791 32.9038 52.1219 32.3957 52.1219 31.7692V28.3654H56.9705V55.5962H56.9703ZM13.3335 30.6346V23.8269H18.1821V30.6346H13.3335ZM44.8491 30.6346V23.8269H49.6976V30.6346H44.8491ZM60.6068 23.9404C60.6068 25.1292 59.5737 26.0962 58.3037 26.0962H58.1825H52.1218V22.6924C52.1218 22.0659 51.579 21.5578 50.9096 21.5578H43.6368C42.9675 21.5578 42.4247 22.0659 42.4247 22.6924V26.0962H20.6064V22.6924C20.6064 22.0659 20.0636 21.5578 19.3942 21.5578H12.1214C11.4521 21.5578 10.9093 22.0659 10.9093 22.6924V26.0962H4.84859H4.72733C3.45735 26.0962 2.42423 25.1292 2.42423 23.9404V16.9058C2.42423 15.717 3.45735 14.75 4.72733 14.75H58.3037C59.5737 14.75 60.6068 15.717 60.6068 16.9058V23.9404Z" fill="#E82464"/>
<path d="M38.7879 39.1443H35.1516V35.7406C35.1516 35.114 34.6088 34.606 33.9394 34.606H29.0909C28.4215 34.606 27.8787 35.114 27.8787 35.7406V39.1443H24.2424C23.5731 39.1443 23.0303 39.6524 23.0303 40.2789V44.8175C23.0303 45.444 23.5731 45.952 24.2424 45.952H27.8787V49.3558C27.8787 49.9824 28.4215 50.4904 29.0909 50.4904H33.9394C34.6088 50.4904 35.1516 49.9824 35.1516 49.3558V45.952H38.7879C39.4572 45.952 40 45.444 40 44.8175V40.2789C40 39.6524 39.4572 39.1443 38.7879 39.1443ZM37.5758 43.6829H33.9394C33.2701 43.6829 32.7273 44.1909 32.7273 44.8175V48.2212H30.3031V44.8175C30.3031 44.1909 29.7603 43.6829 29.091 43.6829H25.4546V41.4137H29.091C29.7603 41.4137 30.3031 40.9056 30.3031 40.2791V36.8752H32.7273V40.2789C32.7273 40.9055 33.2701 41.4135 33.9394 41.4135H37.5758V43.6829Z" fill="#E82464"/>
<path d="M16.6139 52.5248C16.3886 52.3137 16.0758 52.1924 15.757 52.1924C15.4383 52.1924 15.1255 52.3137 14.9001 52.5248C14.6747 52.7359 14.5449 53.0286 14.5449 53.327C14.5449 53.6253 14.6746 53.9181 14.9001 54.129C15.1255 54.34 15.4383 54.4616 15.757 54.4616C16.0758 54.4616 16.3886 54.3401 16.6139 54.129C16.8394 53.9181 16.9692 53.6253 16.9692 53.327C16.9692 53.0286 16.8395 52.7358 16.6139 52.5248Z" fill="#E82464"/>
</g>
<defs>
<clipPath id="clip0">
<rect width="63.0311" height="59" fill="white"/>
</clipPath>
</defs>
</svg>
