<svg width="64" height="59" viewBox="0 0 64 59" fill="none" xmlns="http://www.w3.org/2000/svg">
<g clip-path="url(#clip0)">
<path d="M58.3037 12.4808H47.2733V7.9423C47.2733 3.56293 43.4669 0 38.7883 0H24.2427C19.5641 0 15.7578 3.56293 15.7578 7.9423V12.4808H4.72733C2.12065 12.4808 0 14.4658 0 16.9058V23.9404C0 26.0289 1.55423 27.7828 3.63635 28.2451V55.5961C3.63635 57.4729 5.26765 58.9999 7.2727 58.9999H55.7581C57.7632 58.9999 59.3945 57.4729 59.3945 55.5961V28.2451C61.4768 27.7828 63.0311 26.0288 63.0311 23.9404V16.9058C63.0311 14.4658 60.9104 12.4808 58.3037 12.4808ZM18.182 7.9423C18.182 4.81415 20.9008 2.2692 24.2427 2.2692H38.7883C42.1302 2.2692 44.8491 4.81415 44.8491 7.9423V12.4808H42.4248V7.9423C42.4248 6.06536 40.7935 4.53851 38.7885 4.53851H24.2427C22.2375 4.53851 20.6064 6.06548 20.6064 7.9423V12.4808H18.1821V7.9423H18.182ZM40.0005 7.9423V12.4808H23.0306V7.9423C23.0306 7.31669 23.5744 6.8077 24.2427 6.8077H38.7883C39.4567 6.8077 40.0005 7.31669 40.0005 7.9423ZM56.9703 55.5962C56.9703 56.2218 56.4266 56.7308 55.7582 56.7308H7.27282C6.60447 56.7308 6.06071 56.2218 6.06071 55.5962V54.4616H12.1214C12.7907 54.4616 13.3335 53.9535 13.3335 53.327C13.3335 52.7005 12.7907 52.1924 12.1214 52.1924H6.06071V28.3654H10.9093V31.7692C10.9093 32.3957 11.4521 32.9038 12.1214 32.9038H19.3942C20.0636 32.9038 20.6064 32.3957 20.6064 31.7692V28.3654H42.4248V31.7692C42.4248 32.3957 42.9676 32.9038 43.6369 32.9038H50.9098C51.5791 32.9038 52.1219 32.3957 52.1219 31.7692V28.3654H56.9705V55.5962H56.9703ZM13.3335 30.6346V23.8269H18.1821V30.6346H13.3335ZM44.8491 30.6346V23.8269H49.6976V30.6346H44.8491ZM60.6068 23.9404C60.6068 25.1292 59.5737 26.0962 58.3037 26.0962H58.1825H52.1218V22.6924C52.1218 22.0659 51.579 21.5578 50.9096 21.5578H43.6368C42.9675 21.5578 42.4247 22.0659 42.4247 22.6924V26.0962H20.6064V22.6924C20.6064 22.0659 20.0636 21.5578 19.3942 21.5578H12.1214C11.4521 21.5578 10.9093 22.0659 10.9093 22.6924V26.0962H4.84859H4.72733C3.45735 26.0962 2.42423 25.1292 2.42423 23.9404V16.9058C2.42423 15.717 3.45735 14.75 4.72733 14.75H58.3037C59.5737 14.75 60.6068 15.717 60.6068 16.9058V23.9404Z" fill="#BBC8E6"/>
<path d="M38.7884 39.1441H35.1521V35.7403C35.1521 35.1138 34.6093 34.6057 33.9399 34.6057H29.0913C28.422 34.6057 27.8792 35.1138 27.8792 35.7403V39.1441H24.2429C23.5735 39.1441 23.0308 39.6522 23.0308 40.2787V44.8172C23.0308 45.4437 23.5735 45.9518 24.2429 45.9518H27.8792V49.3556C27.8792 49.9821 28.422 50.4902 29.0913 50.4902H33.9399C34.6093 50.4902 35.1521 49.9821 35.1521 49.3556V45.9518H38.7884C39.4577 45.9518 40.0005 45.4437 40.0005 44.8172V40.2787C40.0005 39.6522 39.4577 39.1441 38.7884 39.1441ZM37.5763 43.6826H33.9399C33.2706 43.6826 32.7278 44.1907 32.7278 44.8172V48.221H30.3036V44.8172C30.3036 44.1907 29.7608 43.6826 29.0915 43.6826H25.4551V41.4134H29.0915C29.7608 41.4134 30.3036 40.9053 30.3036 40.2788V36.8749H32.7278V40.2787C32.7278 40.9052 33.2706 41.4133 33.9399 41.4133H37.5763V43.6826Z" fill="#BBC8E6"/>
<path d="M16.6144 52.5248C16.3891 52.3137 16.0763 52.1924 15.7575 52.1924C15.4388 52.1924 15.126 52.3137 14.9006 52.5248C14.6752 52.7359 14.5454 53.0286 14.5454 53.327C14.5454 53.6253 14.675 53.9181 14.9006 54.129C15.126 54.34 15.4388 54.4616 15.7575 54.4616C16.0763 54.4616 16.3891 54.3401 16.6144 54.129C16.8399 53.9181 16.9697 53.6253 16.9697 53.327C16.9697 53.0286 16.84 52.7358 16.6144 52.5248Z" fill="#BBC8E6"/>
</g>
<defs>
<clipPath id="clip0">
<rect width="63.0311" height="59" fill="white"/>
</clipPath>
</defs>
</svg>
