<svg width="675" height="116" viewBox="0 0 675 116" fill="none" xmlns="http://www.w3.org/2000/svg">
<path d="M26.1354 89.7319H0V14.2673H26.1354L43.6721 42.7787C46.6892 47.6814 49.0651 52.1316 50.8 56.1292H51.5919C50.008 49.4917 49.216 43.5329 49.216 38.2531V14.2673H75.4645V89.7319H49.216L30.4347 59.976C28.7753 57.336 27.0405 54.055 25.2303 50.1328H24.4383C25.5697 55.9406 26.1354 60.5794 26.1354 64.049V89.7319Z" fill="#3D56CC"/>
<path d="M152.601 67.5564H115.152C115.001 71.1014 115.642 73.666 117.075 75.2499C117.905 76.2305 119.187 76.7207 120.922 76.7207C122.355 76.7207 123.638 76.2305 124.769 75.2499C125.448 74.6465 126.013 73.6282 126.466 72.1951H151.583C150.527 75.4385 148.755 78.4556 146.266 81.2464C143.399 84.4897 140.081 86.9788 136.309 88.7136C132.613 90.373 127.861 91.2027 122.054 91.2027C111.192 91.2027 102.857 88.2987 97.0496 82.4909C92.0714 77.5127 89.5823 71.3654 89.5823 64.049C89.5823 56.0538 92.2222 49.4162 97.5021 44.1364C103.461 38.3285 111.305 35.4246 121.035 35.4246C130.464 35.4246 138.044 38.2153 143.776 43.7969C146.567 46.4369 148.717 49.6425 150.225 53.4139C151.809 57.1098 152.601 60.8434 152.601 64.6147V67.5564ZM115.378 56.5818H127.484C127.333 54.319 126.579 52.5464 125.221 51.2642C124.241 50.2836 122.883 49.7934 121.148 49.7934C119.715 49.7934 118.471 50.2459 117.415 51.151C116.057 52.3579 115.378 54.1681 115.378 56.5818Z" fill="#3D56CC"/>
<path d="M194.442 89.7319H168.759V56.6949L162.31 57.1475V36.8954L168.759 37.3479V18.1141H194.442V37.3479L203.154 36.8954V57.1475L194.442 56.6949V89.7319Z" fill="#3D56CC"/>
<path d="M239.596 89.7318H213.008L225.227 14.2672H253.399L262.224 45.1545C263.054 47.9453 263.62 50.8492 263.921 53.8663H264.6C264.676 51.151 265.166 48.247 266.071 45.1545L274.896 14.2672H302.842L315.174 89.7318H288.812L285.418 55.9028C285.116 52.4332 284.965 49.9441 284.965 48.4356H284.513C284.06 50.8493 283.57 52.9612 283.042 54.7714L271.841 89.7318H255.775L245.706 56.6948C244.801 53.6023 244.31 50.8493 244.235 48.4356H243.443C243.443 51.3772 243.405 53.3383 243.33 54.3189L239.596 89.7318Z" fill="#303449"/>
<path d="M354.252 89.7318H328.569V36.8953H354.252V89.7318ZM352.329 12.0044C354.516 14.3427 355.61 17.1335 355.61 20.3768C355.61 23.6202 354.516 26.411 352.329 28.7492C349.764 31.4646 346.106 32.8222 341.354 32.8222C336.602 32.8222 332.944 31.4646 330.38 28.7492C328.192 26.411 327.099 23.6202 327.099 20.3768C327.099 17.1335 328.192 14.3427 330.38 12.0044C332.944 9.28908 336.602 7.9314 341.354 7.9314C346.106 7.9314 349.764 9.28908 352.329 12.0044Z" fill="#303449"/>
<path d="M429.518 36.8953V86.677C429.518 94.5214 427.067 100.933 422.164 105.911C415.753 112.398 406.739 115.641 395.123 115.641C386.902 115.641 379.548 114.509 373.061 112.247L368.535 110.663L374.306 92.7866C376.191 94.3705 378.68 95.8413 381.773 97.199C385.092 98.5567 388.222 99.2355 391.163 99.2355C395.463 99.2355 398.782 98.0664 401.12 95.7282C403.156 93.6917 404.325 90.8632 404.627 87.2427L405.08 82.0382H404.514C403.232 84.6782 401.384 86.7524 398.97 88.2609C396.481 89.8449 393.351 90.6369 389.579 90.6369C383.47 90.6369 378.303 88.4872 374.079 84.1879C368.875 78.8326 366.273 71.8179 366.273 63.1438C366.273 59.1462 367.027 55.1486 368.535 51.151C370.044 47.1533 372.08 43.91 374.645 41.4209C378.793 37.4233 383.772 35.4245 389.579 35.4245C393.2 35.4245 396.179 36.2165 398.518 37.8004C400.705 39.309 402.704 41.4586 404.514 44.2494H405.08C404.703 42.9671 404.514 41.6095 404.514 40.1764V36.8953H429.518ZM391.277 63.257C391.277 65.2935 391.918 66.9906 393.2 68.3483C394.633 70.0077 396.481 70.8374 398.744 70.8374C400.479 70.8374 401.949 70.2717 403.156 69.1403C404.589 67.7826 405.306 65.9723 405.306 63.7095C405.306 60.9942 404.627 58.9953 403.269 57.7131C401.836 56.4308 400.215 55.7897 398.404 55.7897C396.519 55.7897 394.859 56.5063 393.426 57.9394C391.993 59.3725 391.277 61.145 391.277 63.257Z" fill="#303449"/>
<path d="M469.43 89.7318H443.747V36.8953H469.656V40.1764C469.656 41.3832 469.43 42.5523 468.977 43.6837H469.43C471.014 40.8929 473.164 38.7432 475.879 37.2347C478.745 35.6508 482.667 34.8588 487.645 34.8588V61.673C484.553 59.7119 481.875 58.7313 479.613 58.7313C476.822 58.7313 474.484 59.561 472.598 61.2204C470.486 63.0307 469.43 65.6329 469.43 69.0271V89.7318Z" fill="#303449"/>
<path d="M559.717 67.5563H522.267C522.116 71.1013 522.758 73.6659 524.191 75.2498C525.02 76.2304 526.303 76.7206 528.037 76.7206C529.471 76.7206 530.753 76.2304 531.884 75.2498C532.563 74.6464 533.129 73.6281 533.581 72.195H558.698C557.642 75.4384 555.87 78.4555 553.381 81.2463C550.515 84.4896 547.196 86.9787 543.425 88.7135C539.729 90.3729 534.977 91.2026 529.169 91.2026C518.307 91.2026 509.973 88.2987 504.165 82.4908C499.187 77.5126 496.698 71.3653 496.698 64.0489C496.698 56.0537 499.338 49.4161 504.617 44.1363C510.576 38.3284 518.421 35.4245 528.151 35.4245C537.579 35.4245 545.159 38.2153 550.892 43.7968C553.683 46.4368 555.832 49.6424 557.341 53.4138C558.925 57.1097 559.717 60.8433 559.717 64.6146V67.5563ZM522.494 56.5817H534.6C534.449 54.3189 533.694 52.5464 532.337 51.2641C531.356 50.2835 529.999 49.7933 528.264 49.7933C526.831 49.7933 525.586 50.2458 524.53 51.151C523.172 52.3578 522.494 54.168 522.494 56.5817Z" fill="#303449"/>
<path d="M597.424 89.7318H571.741V36.8953H596.972V39.6107C596.972 41.1946 596.632 43.0049 595.953 45.0414L596.519 45.1545C598.782 42.2129 601.158 39.9124 603.647 38.253C606.513 36.3673 609.719 35.4245 613.264 35.4245C618.393 35.4245 622.692 37.0084 626.162 40.1764C630.084 43.9477 632.045 49.1521 632.045 55.7897V89.7318H606.362V60.9942C606.362 59.0331 605.985 57.6754 605.231 56.9211C604.552 56.1668 603.571 55.7897 602.289 55.7897C600.932 55.7897 599.838 56.2046 599.008 57.0342C597.952 58.0902 597.424 59.825 597.424 62.2387V89.7318Z" fill="#303449"/>
<path d="M671.973 89.7318H646.29V36.8953H671.973V89.7318ZM670.05 12.0044C672.237 14.3427 673.331 17.1335 673.331 20.3768C673.331 23.6202 672.237 26.411 670.05 28.7492C667.485 31.4646 663.827 32.8222 659.075 32.8222C654.323 32.8222 650.665 31.4646 648.1 28.7492C645.913 26.411 644.819 23.6202 644.819 20.3768C644.819 17.1335 645.913 14.3427 648.1 12.0044C650.665 9.28908 654.323 7.9314 659.075 7.9314C663.827 7.9314 667.485 9.28908 670.05 12.0044Z" fill="#303449"/>
<circle cx="341.267" cy="17.5562" r="17.5562" fill="#E82464"/>
<circle cx="657.28" cy="17.5562" r="17.5562" fill="#E82464"/>
</svg>
