<svg width="92" height="92" viewBox="0 0 92 92" fill="none" xmlns="http://www.w3.org/2000/svg">
<path d="M38.4072 73.6815C35.6688 76.081 30.7982 76.1215 30.7483 76.1215H22.7833C20.1057 76.1215 17.9269 73.9423 17.9269 71.265V61.5656C17.9269 61.0534 17.6171 60.5914 17.1426 60.3971L11.3542 58.0255C10.0547 57.4937 9.49318 55.9378 10.1978 54.6906C15.1058 45.8176 15.2395 46.1904 15.1268 45.4282C15.121 45.388 14.5339 41.3714 14.5339 39.3417C14.5339 34.5976 15.5708 30.0422 17.6167 25.8029C17.9198 25.1746 17.6559 24.4191 17.0272 24.1164C16.3986 23.8127 15.6434 24.0762 15.3407 24.7049C13.1288 29.2893 12.0075 34.214 12.0075 39.3417C12.0075 41.1599 12.4083 44.2319 12.5659 45.3644L7.99798 53.4478C6.55575 56.0002 7.67538 59.2488 10.3965 60.3647L15.4001 62.4143V71.265C15.4001 75.3366 18.7128 78.6483 22.7833 78.6483H29.4873V87.6623C29.4873 88.3595 30.0531 88.9257 30.7506 88.9257C31.4485 88.9257 32.0143 88.3595 32.0143 87.6623V78.5744C33.9148 78.4003 37.5551 77.7875 40.0731 75.5819C40.5975 75.122 40.6501 74.3236 40.1899 73.7986C39.7299 73.2738 38.9319 73.2212 38.4072 73.6815Z" fill="#E82464"/>
<path d="M83.1413 19.4649L80.8261 17.7827C80.2622 17.3724 79.4723 17.4976 79.0619 18.0618C78.6516 18.626 78.7768 19.4166 79.3407 19.8263L79.6703 20.0658L73.5647 22.103L63.2656 25.5388L70.4909 19.2286C71.1246 18.6749 71.0487 17.6673 70.3418 17.2138L64.7824 13.646L77.6588 7.37568C73.0305 13.7486 72.5972 13.6379 72.7359 14.5588C72.8601 15.3906 73.5785 15.5374 74.7474 16.4879C75.3133 16.8983 76.1026 16.7731 76.5126 16.2089C76.9225 15.645 76.798 14.8541 76.2338 14.4447L75.7655 14.1032L82.8254 4.70551C83.6174 3.64999 82.4502 2.23173 81.2617 2.81111L64.1521 11.1425C49.0637 1.2744 29.2552 5.01494 18.6755 19.207C18.2587 19.7669 18.3748 20.5582 18.9333 20.9749C19.4927 21.392 20.2854 21.2762 20.7018 20.7171C30.766 7.21472 48.5782 4.8118 61.5285 12.4292C61.5005 12.4474 61.5072 12.4916 61.4812 12.5109C60.9315 12.9205 60.941 13.4375 60.9467 13.4213C60.9504 13.4382 60.8806 14.1444 61.5254 14.5581L67.5619 18.4323L56.8593 27.7794C56.2333 28.3264 56.2401 29.4335 57.1772 29.857C58.015 30.2424 57.2136 30.0581 73.3625 24.8339C80.0881 37.6398 77.2229 53.843 65.5315 63.4554C62.8772 65.6359 61.356 68.8814 61.356 72.3584V87.6621C61.356 88.3606 61.9213 88.9255 62.6194 88.9255C63.3166 88.9255 63.8825 88.3606 63.8825 87.6621V72.3584C63.8825 69.6407 65.0682 67.1065 67.1354 65.4071C79.1193 55.5549 83.1419 38.587 75.7287 24.0443L82.7988 21.6852C83.2472 21.5361 83.5752 21.1473 83.6474 20.68C83.7189 20.2123 83.5242 19.7436 83.1413 19.4649Z" fill="#E82464"/>
<path d="M58.7635 31.5746C56.9191 31.4119 54.8219 30.6858 54.9741 26.4782C54.999 25.7804 54.4541 25.1949 53.7562 25.1696C53.0662 25.1473 52.474 25.6893 52.4483 26.3868C52.2826 30.9945 54.446 33.7305 58.5412 34.0919C59.2262 34.154 59.8491 33.6461 59.9105 32.9439C59.9726 32.2491 59.4583 31.6357 58.7635 31.5746Z" fill="#E82464"/>
</svg>
