<svg width="81" height="81" viewBox="0 0 81 81" fill="none" xmlns="http://www.w3.org/2000/svg">
<path d="M75.4892 69.9784C74.4444 69.9784 73.4667 70.2707 72.6332 70.7777L50.3339 48.4782C50.2951 48.4394 50.2539 48.4046 50.2118 48.3717C51.959 46.2204 53.0086 43.4809 53.0086 40.5C53.0086 37.5229 51.9616 34.787 50.2186 32.6369L65.4193 17.4362C67.0512 18.679 69.0857 19.419 71.2905 19.419C76.6444 19.419 81 15.0634 81 9.7095C81 4.35563 76.6444 0 71.2905 0C65.9366 0 61.581 4.35563 61.581 9.7095C61.581 11.9143 62.321 13.9488 63.5638 15.5805L48.3631 30.7812C46.213 29.0384 43.4771 27.9914 40.5 27.9914C37.5229 27.9914 34.787 29.0384 32.6369 30.7814L25.6175 23.762C26.1245 22.9286 26.4168 21.9508 26.4168 20.906C26.4168 17.8674 23.9447 15.3952 20.906 15.3952C17.8674 15.3952 15.3952 17.8674 15.3952 20.906C15.3952 23.9447 17.8674 26.4168 20.906 26.4168C21.9508 26.4168 22.9286 26.1245 23.762 25.6175L30.7814 32.6369C29.0384 34.787 27.9914 37.5229 27.9914 40.5C27.9914 42.1886 28.3295 43.7991 28.9387 45.2701L12.2481 54.3108C10.9798 52.769 9.058 51.784 6.91037 51.784C3.10004 51.784 0 54.8841 0 58.6944C0 62.5047 3.10004 65.6048 6.91037 65.6048C10.7207 65.6048 13.8207 62.5047 13.8207 58.6944C13.8207 57.9706 13.7084 57.2728 13.5011 56.6167L30.1924 47.5757C32.4499 50.854 36.2273 53.0086 40.5 53.0086C40.9794 53.0086 41.4517 52.9789 41.9172 52.9261L43.6567 60.7537C41.8399 61.6555 40.5875 63.5299 40.5875 65.6922C40.5875 68.7309 43.0596 71.203 46.0983 71.203C49.1369 71.203 51.6091 68.7309 51.6091 65.6922C51.6091 62.6938 49.2016 60.2488 46.2185 60.1844L44.4788 52.3561C45.9088 51.875 47.2242 51.1437 48.3719 50.2118C48.4048 50.2539 48.4396 50.2951 48.4784 50.3339L70.7777 72.6332C70.2707 73.4667 69.9784 74.4444 69.9784 75.4892C69.9784 78.5278 72.4506 81 75.4892 81C78.5278 81 81 78.5278 81 75.4892C81 72.4506 78.5278 69.9784 75.4892 69.9784ZM6.91037 62.9806C4.54702 62.9806 2.62419 61.0577 2.62419 58.6944C2.62419 56.331 4.54702 54.4082 6.91037 54.4082C9.27371 54.4082 11.1965 56.331 11.1965 58.6944C11.1965 61.0577 9.27371 62.9806 6.91037 62.9806ZM48.9849 65.6922C48.9849 67.2839 47.6899 68.5788 46.0983 68.5788C44.5066 68.5788 43.2117 67.2839 43.2117 65.6922C43.2117 64.1006 44.5066 62.8056 46.0983 62.8056C47.6899 62.8056 48.9849 64.1006 48.9849 65.6922ZM71.2905 2.62419C75.1974 2.62419 78.3758 5.80261 78.3758 9.7095C78.3758 13.6164 75.1974 16.7948 71.2905 16.7948C67.3836 16.7948 64.2052 13.6164 64.2052 9.7095C64.2052 5.80261 67.3836 2.62419 71.2905 2.62419ZM18.0194 20.906C18.0194 19.3144 19.3144 18.0194 20.906 18.0194C22.4977 18.0194 23.7927 19.3144 23.7927 20.906C23.7927 22.4977 22.4977 23.7927 20.906 23.7927C19.3144 23.7927 18.0194 22.4977 18.0194 20.906ZM40.5 50.3845C35.0497 50.3845 30.6156 45.9503 30.6156 40.5C30.6156 35.0497 35.0497 30.6156 40.5 30.6156C45.9503 30.6156 50.3845 35.0497 50.3845 40.5C50.3845 45.9503 45.9503 50.3845 40.5 50.3845ZM75.4892 78.3758C73.8975 78.3758 72.6026 77.0809 72.6026 75.4892C72.6026 73.8975 73.8975 72.6026 75.4892 72.6026C77.0809 72.6026 78.3758 73.8975 78.3758 75.4892C78.3758 77.0809 77.0809 78.3758 75.4892 78.3758Z" fill="#D5E2F7"/>
<path d="M40.5006 33.5898C39.7759 33.5898 39.1885 34.1773 39.1885 34.9019C39.1885 35.6266 39.7759 36.214 40.5006 36.214C42.8639 36.214 44.7868 38.1369 44.7868 40.5002C44.7868 41.2248 45.3742 41.8123 46.0988 41.8123C46.8235 41.8123 47.4109 41.2248 47.4109 40.5002C47.4109 36.6899 44.3109 33.5898 40.5006 33.5898Z" fill="#D5E2F7"/>
<path d="M71.2906 8.22282C72.1106 8.22282 72.7777 8.88989 72.7777 9.70986C72.7777 10.4345 73.3651 11.022 74.0897 11.022C74.8144 11.022 75.4018 10.4345 75.4018 9.70986C75.4018 7.44291 73.5576 5.59863 71.2906 5.59863C70.566 5.59863 69.9785 6.1861 69.9785 6.91073C69.9785 7.63535 70.566 8.22282 71.2906 8.22282Z" fill="#D5E2F7"/>
</svg>
