<svg width="20" height="20" viewBox="0 0 20 20" fill="none" xmlns="http://www.w3.org/2000/svg">
<circle cx="10" cy="10" r="10" fill="#DADCE9"/>
<path d="M9.10925 8.734H7.49725C7.49725 8.24 7.54058 7.85867 7.62725 7.59C7.76591 7.148 8.02158 6.81 8.39425 6.576C8.77558 6.33333 9.20891 6.212 9.69425 6.212C10.4309 6.212 11.0159 6.45467 11.4492 6.94C11.8912 7.41667 12.1122 8.02767 12.1122 8.773C12.1122 9.40567 11.9692 9.956 11.6832 10.424C11.4666 10.7793 11.1416 11.0307 10.7082 11.178V12.296H9.01825V10.164C9.13958 10.1813 9.22625 10.19 9.27825 10.19C9.62491 10.19 9.87625 10.0557 10.0322 9.787C10.1882 9.51833 10.2662 9.19767 10.2662 8.825C10.2662 8.66033 10.2532 8.50433 10.2272 8.357C10.2012 8.201 10.1362 8.05367 10.0322 7.915C9.93691 7.77633 9.81125 7.707 9.65525 7.707C9.26525 7.707 9.08325 8.04933 9.10925 8.734ZM10.6302 13.284C10.8469 13.492 10.9552 13.7477 10.9552 14.051C10.9552 14.3543 10.8469 14.6143 10.6302 14.831C10.4136 15.039 10.1579 15.143 9.86325 15.143C9.55991 15.143 9.29991 15.039 9.08325 14.831C8.86658 14.6143 8.75825 14.3543 8.75825 14.051C8.75825 13.7563 8.86658 13.5007 9.08325 13.284C9.29991 13.0673 9.55991 12.959 9.86325 12.959C10.1579 12.959 10.4136 13.0673 10.6302 13.284Z" fill="white"/>
</svg>
