<svg width="375" height="138" viewBox="0 0 375 138" fill="none" xmlns="http://www.w3.org/2000/svg">
<path d="M360.022 111.99C360.022 111.99 294.615 117.489 272.737 117.908C222.494 118.869 6.19775 111.99 6.19775 111.99C2.78899 111.99 0 109.532 0 106.527C0 106.527 3.49656 76.8542 3.61535 66.9208C3.78063 53.3545 4.64831 16.3888 4.64831 16.3888C4.64831 13.3842 7.4373 10.9258 10.8461 10.9258C10.8461 10.9258 48.5542 5.7998 97.1187 4.4978C143.39 3.25954 260.925 2.18972 287.199 2.73146C305.446 3.10931 357.956 0 357.956 0C361.365 0 364.154 2.45831 364.154 5.46292C364.154 5.46292 375 25.0384 375 59.6369C375 71.5187 366.22 106.527 366.22 106.527C366.22 109.532 363.431 111.99 360.022 111.99Z" fill="#3D56CC"/>
<path d="M59.5403 97.6924L34.6943 137.865L110.475 105.727L59.5403 97.6924Z" fill="#3D56CC"/>
</svg>
