<svg width="403" height="138" viewBox="0 0 403 138" fill="none" xmlns="http://www.w3.org/2000/svg">
<path d="M16.0962 121.481C16.0962 121.481 86.3869 127.446 109.898 127.9C163.893 128.942 396.339 121.481 396.339 121.481C400.003 121.481 403 118.814 403 115.555C403 115.555 399.242 83.3672 399.115 72.592C398.937 57.8761 398.005 17.7776 398.005 17.7776C398.005 14.5184 395.007 11.8518 391.344 11.8518C391.344 11.8518 350.82 6.29131 298.63 4.87897C248.903 3.53577 122.592 2.37529 94.3573 2.96294C74.7477 3.37281 18.3164 0 18.3164 0C14.6531 0 11.6559 2.66665 11.6559 5.92588C11.6559 5.92588 0 27.1603 0 64.6908C0 77.5796 9.43573 115.555 9.43573 115.555C9.43573 118.814 12.433 121.481 16.0962 121.481Z" fill="#3D56CC"/>
<path d="M281.934 97.6924L306.78 137.865L231 105.727L281.934 97.6924Z" fill="#3D56CC"/>
</svg>
