<svg width="25" height="25" viewBox="0 0 25 25" fill="none" xmlns="http://www.w3.org/2000/svg">
<g clip-path="url(#clip0)">
<path d="M3.00274 13.6528C2.95448 13.2507 2.92969 12.8513 2.92969 12.5C2.92969 7.25574 7.25574 2.92969 12.5 2.92969C14.9462 2.92969 17.2363 3.91598 18.9209 5.45406L18.0761 6.31351C17.8858 6.50387 17.8125 6.78215 17.8858 7.04594C17.9737 7.29485 18.1787 7.48539 18.4423 7.54395C18.5898 7.57351 23.4333 9.13429 23.1249 9.0723C23.5172 9.20296 24.0974 8.78448 23.9893 8.20808C23.9595 8.06046 22.8872 2.68002 22.9492 2.98824C22.8907 2.72465 22.7001 2.50492 22.4365 2.43168C22.1876 2.35844 21.9091 2.43168 21.7188 2.62203L21.0011 3.32508C18.7891 1.2598 15.7518 0 12.5 0C5.62992 0 0 5.62992 0 12.5V12.5292C0 12.9421 0.0188828 13.2612 0.0408173 13.5054C0.0699997 13.8288 0.308418 14.0938 0.626945 14.1577L2.13165 14.4585C2.62146 14.5565 3.06187 14.1459 3.00274 13.6528Z" fill="#3D56CC"/>
<path d="M24.3772 10.8411L22.8681 10.5336C22.3777 10.4337 21.9343 10.8447 21.9945 11.3401C22.0468 11.7675 22.0701 12.1831 22.0701 12.4999C22.0701 17.744 17.744 22.0702 12.4998 22.0702C10.0536 22.0702 7.76344 21.084 6.07887 19.5312L6.92363 18.6864C7.11398 18.4961 7.18723 18.2178 7.11398 17.954C7.02605 17.7049 6.82101 17.5145 6.55742 17.456C6.40998 17.4262 1.56646 15.8656 1.87488 15.9276C1.62578 15.8838 1.37668 15.957 1.2157 16.1327C1.03984 16.2938 0.9666 16.5574 1.01047 16.7918C1.04022 16.9393 2.11273 22.2709 2.05074 21.9627C2.1091 22.2265 2.29965 22.4462 2.56324 22.5192C2.86899 22.5959 3.12419 22.5032 3.28098 22.3289L3.98422 21.6258C6.19598 23.6913 9.23324 24.9999 12.4998 24.9999C19.3698 24.9999 24.9998 19.37 24.9998 12.4999V12.4559C24.9998 12.1312 24.9879 11.8125 24.9609 11.4957C24.933 11.172 24.6955 10.9061 24.3772 10.8411Z" fill="#3D56CC"/>
</g>
<defs>
<clipPath id="clip0">
<rect width="25" height="25" fill="white"/>
</clipPath>
</defs>
</svg>
