<svg width="20" height="20" viewBox="0 0 20 20" fill="none" xmlns="http://www.w3.org/2000/svg">
<path d="M9.99977 15.4195C12.938 15.4195 15.3198 13.0376 15.3198 10.0994C15.3198 7.16118 12.938 4.7793 9.99977 4.7793C7.06157 4.7793 4.67969 7.16118 4.67969 10.0994C4.67969 13.0376 7.06157 15.4195 9.99977 15.4195Z" fill="#2F3448"/>
<path d="M10.0002 3.02729C10.4702 3.02729 10.9284 3.07278 11.3715 3.16038V1.37129C11.3715 0.613208 10.7566 0 10.0002 0C9.2438 0 8.62891 0.614892 8.62891 1.37129V3.16038C9.07197 3.07446 9.53019 3.02729 10.0002 3.02729Z" fill="#2F3448"/>
<path d="M2.92958 10.0996C2.92958 9.59589 2.98349 9.10397 3.08288 8.62891H1.37129C0.613208 8.62891 0 9.2438 0 10.0002C0 10.7566 0.614892 11.3715 1.37129 11.3715H3.04245C2.96833 10.9588 2.92958 10.5342 2.92958 10.0996Z" fill="#2F3448"/>
<path d="M15.8357 6.10538L17.0722 4.86885C17.6079 4.33314 17.6079 3.46387 17.0722 2.92815C16.5365 2.39244 15.6672 2.39244 15.1315 2.92815L13.8765 4.18321C14.6463 4.69197 15.3135 5.34392 15.8357 6.10538Z" fill="#2F3448"/>
<path d="M4.16468 6.10467C4.68691 5.3449 5.35234 4.69126 6.12391 4.18418L4.86885 2.92913C4.33314 2.39342 3.46387 2.39342 2.92815 2.92913C2.39244 3.46484 2.39244 4.33412 2.92815 4.86983L4.16468 6.10467Z" fill="#2F3448"/>
<path d="M4.08528 13.9736L2.92962 15.1293C2.3939 15.665 2.3939 16.5343 2.92962 17.07C3.19747 17.3379 3.54788 17.4726 3.89997 17.4726C4.25206 17.4726 4.60246 17.3379 4.87032 17.07L6.00745 15.9329C5.24599 15.4123 4.59235 14.7452 4.08528 13.9736Z" fill="#2F3448"/>
<path d="M15.9146 13.9736C15.4076 14.7452 14.7539 15.4123 13.9941 15.9329L15.1313 17.07C15.3991 17.3379 15.7495 17.4726 16.1016 17.4726C16.452 17.4726 16.8041 17.3379 17.072 17.07C17.6077 16.5343 17.6077 15.665 17.072 15.1293L15.9146 13.9736Z" fill="#2F3448"/>
<path d="M18.6289 8.62891H16.9189C17.02 9.10397 17.0722 9.59589 17.0722 10.0996C17.0722 10.5342 17.0335 10.9588 16.9577 11.3732H18.6289C19.3869 11.3732 20.0001 10.7583 20.0001 10.0019C20.0001 9.24548 19.3853 8.62891 18.6289 8.62891Z" fill="#2F3448"/>
<path d="M10.0002 17.1702C9.53019 17.1702 9.07197 17.1247 8.62891 17.0371V18.6291C8.62891 19.3872 9.2438 20.0004 10.0002 20.0004C10.7566 20.0004 11.3715 19.3855 11.3715 18.6291V17.0371C10.9284 17.1247 10.4702 17.1702 10.0002 17.1702Z" fill="#2F3448"/>
</svg>
