<svg width="21" height="17" viewBox="0 0 21 17" fill="none" xmlns="http://www.w3.org/2000/svg">
<g clip-path="url(#clip0)">
<path fill-rule="evenodd" clip-rule="evenodd" d="M18.8504 4.23469C19.1223 10.2723 14.6037 17.004 6.60424 17.004C4.17132 17.004 1.9066 16.293 0 15.0751C2.28535 15.3435 4.56708 14.7122 6.37822 13.2973C4.49329 13.2629 2.90197 12.0218 2.35398 10.3166C3.0289 10.4451 3.69299 10.4076 4.29928 10.2436C2.22704 9.82816 0.797212 7.96864 0.843651 5.98008C1.42466 6.30139 2.08927 6.4947 2.79567 6.51629C0.876683 5.23925 0.333331 2.71499 1.46233 0.785553C3.58668 3.38282 6.76109 5.0917 10.3421 5.27113C9.71414 2.58544 11.7585 0 14.5392 0C15.7786 0 16.8983 0.520789 17.6837 1.35518C18.6651 1.16291 19.5872 0.805603 20.4195 0.313604C20.098 1.31611 19.4149 2.1577 18.5253 2.68826C19.3968 2.58492 20.227 2.35409 21 2.01272C20.4226 2.87385 19.692 3.62959 18.8504 4.23469Z" fill="#4DC8F1"/>
</g>
<defs>
<clipPath id="clip0">
<rect width="21" height="17" fill="white"/>
</clipPath>
</defs>
</svg>
