<svg width="22" height="13" viewBox="0 0 22 13" fill="none" xmlns="http://www.w3.org/2000/svg">
<path fill-rule="evenodd" clip-rule="evenodd" d="M12.7588 11.3871C12.8156 10.5022 13.2095 9.12476 14.1938 9.87601C14.7885 10.3311 15.2604 10.9903 15.7948 11.569C16.3164 12.1326 16.9388 12.625 18.0984 12.5948C18.7861 12.5769 20.7611 12.643 21.2757 12.4532C22.8306 11.8817 20.0756 9.26997 19.4028 8.68552C19.1197 8.43965 18.8024 8.08958 18.5597 7.82934C18.2595 7.50799 18.1155 7.18232 18.3539 6.67837L19.3964 5.1931C19.7051 4.85162 20.847 3.19747 21.1231 2.74457C21.5205 2.09181 22.3359 0.808592 21.2849 0.602987C20.6937 0.487244 18.7747 0.595083 18.0445 0.600116C16.606 0.609463 16.8984 0.448438 16.1887 2.10836C15.7161 3.21258 14.2569 5.81494 13.4834 6.11185C12.0491 6.66251 13.1711 1.39304 12.5665 0.481475C12.1996 -0.071353 10.4992 -0.00236027 9.70367 0.00842354C8.77967 0.0199254 7.50223 0.0695342 7.23255 0.841629C7.31488 0.912795 7.22476 0.864659 7.38444 0.930798C7.4994 0.978242 7.67894 0.989026 7.8741 1.0947C8.04726 1.18744 8.20482 1.3506 8.29495 1.49725C8.73069 2.20321 8.67818 5.17732 8.31766 5.89837C7.64276 7.24558 5.67127 3.4606 5.33346 2.78628C4.85088 1.82368 4.66138 0.887644 4.11493 0.648252C3.71893 0.475717 1.47424 0.572065 0.870306 0.582131C0.317468 0.59076 -0.159447 0.679177 0.0506179 1.34272C0.15636 1.677 0.407584 2.1479 0.559454 2.48507C1.49552 4.56626 2.95887 7.1212 4.24835 8.8523C5.7039 10.8055 7.85564 12.5359 10.5758 12.5582C12.5296 12.574 12.6772 12.6617 12.7588 11.3871Z" fill="#3E6FA1"/>
</svg>
