<svg width="74" height="74" viewBox="0 0 74 74" fill="none" xmlns="http://www.w3.org/2000/svg">
<g clip-path="url(#clip0)">
<path d="M21.8523 74.0044C19.0547 74.0044 16.37 72.7854 14.4859 70.6602C11.0717 66.8078 5.34424 58.9637 5.34424 49.7154C5.34424 39.1775 9.22086 33.9876 12.6407 29.4086C12.774 29.2302 12.9591 29.0975 13.1709 29.0275C16.4959 27.9355 21.8015 27.2975 28.1952 30.4571C31.8352 32.2565 35.7937 32.7415 39.96 31.8997C40.2671 31.8376 40.5867 31.9115 40.8351 32.1024C41.0841 32.2938 41.2377 32.5828 41.2569 32.8956L43.6435 71.856C44.142 71.9593 44.5124 72.4037 44.5062 72.9299C44.4994 73.5205 44.0218 73.9965 43.4318 74.0015L43.4165 74.0021C43.2579 74.0083 43.1003 73.9914 42.9586 73.9411C42.1467 73.7345 41.5426 73.0299 41.4895 72.1604L39.1667 34.2383C34.9643 34.8565 30.9556 34.2405 27.2348 32.401C21.7027 29.6672 17.1254 30.0867 14.1691 30.9861C10.8605 35.42 7.51234 40.1001 7.51234 49.7154C7.51234 58.2483 12.8982 65.5996 16.1091 69.2221C17.5811 70.8832 19.6746 71.8363 21.8523 71.8363C22.4508 71.8363 22.9364 72.3213 22.9364 72.9203C22.9364 73.5194 22.4508 74.0044 21.8523 74.0044Z" fill="#E3E9F7"/>
<path d="M43.3249 74.0041C43.1961 74.0041 43.0731 73.9815 42.9584 73.9408C42.1471 73.7342 41.5424 73.0301 41.4893 72.1606L41.294 68.9694H15.8865L16.1084 69.2218C17.5809 70.8829 19.6745 71.836 21.8522 71.836C22.4506 71.836 22.9362 72.321 22.9362 72.92C22.9362 73.5191 22.4506 74.0041 21.8522 74.0041C19.0545 74.0041 16.3692 72.7851 14.4857 70.6599C13.8838 69.9807 13.2932 69.2721 12.7309 68.5539C12.4751 68.227 12.4277 67.7832 12.6095 67.4106C12.7907 67.0374 13.1696 66.8008 13.584 66.8008H42.3137C42.8867 66.8008 43.3604 67.2468 43.396 67.8188L43.6433 71.8563C44.1419 71.9591 44.5123 72.4034 44.506 72.9302C44.4993 73.5202 44.0216 73.9967 43.4316 74.0018L43.4163 74.0024C43.3859 74.0029 43.3554 74.0041 43.3249 74.0041Z" fill="#E3E9F7"/>
<path d="M62.1407 74.0038H43.4499C42.4138 74.0038 41.5528 73.1942 41.4895 72.1604L38.8268 28.6904C38.7941 28.1518 38.9872 27.6177 39.357 27.2247C39.7268 26.8323 40.2479 26.6064 40.7872 26.6064H64.8029C65.3421 26.6064 65.8638 26.8323 66.233 27.2247C66.6029 27.6177 66.796 28.1518 66.7632 28.6904L64.1011 72.1598C64.0373 73.1942 63.1762 74.0038 62.1407 74.0038ZM43.6418 71.8357H61.9482L64.5855 28.7751H41.0045L43.6418 71.8357ZM64.8029 28.7751H64.8046H64.8029Z" fill="#E3E9F7"/>
<path d="M62.1405 74.0039H43.4496C42.4141 74.0039 41.5531 73.1942 41.4893 72.1604L41.3086 69.2132C41.2906 68.9145 41.3961 68.6215 41.6011 68.4041C41.8061 68.1861 42.0917 68.0625 42.391 68.0625H63.1991C63.4978 68.0625 63.7835 68.1861 63.9885 68.4041C64.1934 68.6215 64.299 68.9145 64.2809 69.2132L64.1003 72.1604C64.037 73.1942 63.176 74.0039 62.1405 74.0039ZM43.6416 71.8358H61.948L62.0468 70.2306H43.5434L43.6416 71.8358Z" fill="#E3E9F7"/>
<path d="M63.1992 70.2315H42.3911C41.818 70.2315 41.3443 69.786 41.3087 69.2141L39.6397 41.9592C39.6104 41.4781 39.9017 41.0355 40.3557 40.8723C42.4458 40.1225 46.795 38.5619 53.2084 41.2088C57.5289 42.9913 62.4348 41.7689 64.425 40.8729C64.7717 40.717 65.1742 40.7537 65.4865 40.9694C65.7987 41.1851 65.9754 41.5487 65.9523 41.9275L64.281 69.2141C64.246 69.786 63.7717 70.2315 63.1992 70.2315ZM43.4108 68.0634H62.1795L63.6871 43.4469C60.9193 44.2837 56.4397 44.8884 52.3813 43.2132C47.4031 41.158 43.9534 41.9451 41.8541 42.6452L43.4108 68.0634Z" fill="#E3E9F7"/>
<path d="M51.0643 59.966C49.2745 59.966 47.8184 58.5098 47.8184 56.72C47.8184 54.9307 49.2745 53.4746 51.0643 53.4746C52.8541 53.4746 54.3102 54.9307 54.3102 56.72C54.3102 58.5098 52.8541 59.966 51.0643 59.966ZM51.0643 55.6427C50.4703 55.6427 49.9865 56.126 49.9865 56.72C49.9865 57.314 50.4703 57.7978 51.0643 57.7978C51.6583 57.7978 52.1421 57.314 52.1421 56.72C52.1421 56.126 51.6583 55.6427 51.0643 55.6427Z" fill="#E3E9F7"/>
<path d="M55.6066 50.0878C55.3215 50.0878 55.0408 49.972 54.8404 49.7699C54.6377 49.5689 54.522 49.2883 54.522 49.0037C54.522 48.9332 54.5293 48.862 54.544 48.7914C54.5581 48.7231 54.5784 48.6542 54.6061 48.5887C54.6321 48.5238 54.6665 48.46 54.706 48.4024C54.745 48.3431 54.7896 48.2867 54.8404 48.2376C55.0917 47.9846 55.466 47.8689 55.8189 47.9411C55.8883 47.9541 55.9561 47.9761 56.021 48.0021C56.0859 48.0292 56.1497 48.0625 56.209 48.1015C56.2683 48.1421 56.3231 48.1867 56.3739 48.2376C56.423 48.2867 56.4693 48.3431 56.5083 48.4024C56.5472 48.46 56.5805 48.5238 56.6082 48.5887C56.6353 48.6537 56.6556 48.7231 56.6703 48.7909C56.6833 48.862 56.6906 48.9326 56.6906 49.0037C56.6906 49.2883 56.5749 49.5689 56.3739 49.7699C56.3236 49.8207 56.2689 49.8653 56.209 49.9043C56.1497 49.9444 56.0865 49.9782 56.0216 50.0036C55.9561 50.0313 55.8883 50.0528 55.8189 50.0663C55.7477 50.0804 55.6772 50.0878 55.6066 50.0878Z" fill="#E3E9F7"/>
<path d="M31.2295 74.0047H21.8514C19.0537 74.0047 16.369 72.7857 14.4854 70.6605C11.0712 66.8082 5.34326 58.9641 5.34326 49.7157C5.34326 39.1773 9.24303 33.9574 12.6832 29.3519C15.3973 25.7175 17.7432 22.5772 18.1413 17.3133C18.1317 16.9982 18.0329 14.7883 17.1194 12.2736C15.8405 8.7521 13.6368 6.30394 10.5699 4.998C9.73819 4.64399 9.23795 3.79538 9.3249 2.88635C9.41072 1.98524 10.0566 1.25294 10.9312 1.06436C14.7119 0.250751 20.0632 -0.514861 24.1058 0.451188C25.5597 0.746479 26.9673 1.23374 28.2902 1.89998C34.1554 4.85459 40.2876 7.27394 45.4001 4.99009C46.1116 4.67222 46.9246 4.78909 47.5225 5.29498C48.1385 5.81725 48.3943 6.62916 48.1899 7.4151C45.4064 18.106 47.9652 22.9865 50.8244 27.0698C51.0564 27.4006 51.0852 27.8337 50.8983 28.1922C50.7114 28.5507 50.3411 28.7755 49.9368 28.7755H41.0047L43.6431 71.8558C44.1416 71.9591 44.512 72.4035 44.5064 72.9303C44.4996 73.5203 44.0219 73.9968 43.4313 74.0019L43.4167 74.0025C43.3856 74.0036 43.3551 74.0042 43.3246 74.0042H36.289C35.69 74.0042 35.205 73.5192 35.205 72.9201C35.205 72.3216 35.69 71.8361 36.289 71.8361H41.4693L38.8269 28.6913C38.7936 28.1527 38.9867 27.6186 39.3565 27.2256C39.7264 26.8326 40.2475 26.6073 40.7867 26.6073H47.9251C44.8976 21.6732 43.669 16.3235 46.0382 7.0769C40.1617 9.55046 33.5704 6.98712 27.3151 3.83659C26.1593 3.25448 24.9285 2.82933 23.6581 2.573C23.6446 2.57017 23.6316 2.56735 23.6186 2.56396C20.8288 1.89264 16.601 2.09025 11.6872 3.12067C15.1652 4.68972 17.754 7.61723 19.1836 11.6039C20.2733 14.6432 20.3094 17.2224 20.3105 17.3308C20.3105 17.3602 20.31 17.3901 20.3077 17.4194C19.8747 23.3467 17.2255 26.8942 14.4205 30.6488C11.0238 35.1962 7.51193 39.8977 7.51193 49.7157C7.51193 58.2487 12.8978 65.5999 16.1081 69.2219C17.5806 70.8836 19.6742 71.8366 21.8514 71.8366H31.2295C31.828 71.8366 32.3136 72.3216 32.3136 72.9207C32.3136 73.5192 31.828 74.0047 31.2295 74.0047Z" fill="#E3E9F7"/>
<path d="M64.301 28.7759H59.0637C58.682 28.7759 58.328 28.5749 58.1327 28.2468C57.9373 27.9188 57.9283 27.5123 58.1101 27.1763C62.0838 19.8217 63.6009 15.5002 60.8671 12.2898C59.8576 11.1047 58.7424 10.5327 57.3569 10.4893C54.0172 10.3888 49.6229 13.2767 46.631 16.0151C46.3109 16.3081 45.8468 16.3821 45.4515 16.2026C45.0563 16.0236 44.8056 15.6261 44.8152 15.1919C44.8598 13.1096 45.154 10.8947 45.7141 8.42053C45.7745 8.15347 45.9337 7.91859 46.1601 7.76445C50.262 4.96568 54.1002 3.59932 57.5675 3.7049C60.9106 3.80992 63.759 5.21749 66.0344 7.88923C67.4408 9.54072 68.3623 11.4271 68.7744 13.4964C68.8913 14.0836 68.5096 14.6544 67.9224 14.7713C67.3353 14.8881 66.7644 14.5065 66.6476 13.9198C66.3088 12.2175 65.5471 10.6615 64.3835 9.29455C62.5214 7.10838 60.2059 5.95713 57.5009 5.87244C53.9354 5.76742 50.2823 7.6312 47.7359 9.31713C47.4757 10.5209 47.2842 11.6558 47.1583 12.7392C49.6624 10.7913 53.7078 8.21162 57.4241 8.32172C59.4093 8.38383 61.1228 9.24599 62.518 10.8839C66.0909 15.0796 64.0718 20.484 60.8699 26.6072H63.6388C64.9865 23.9468 65.8227 21.8746 66.3274 19.9521C66.4466 19.4976 66.5488 19.0346 66.6301 18.5773C66.7351 17.9879 67.2986 17.5949 67.8874 17.6999C68.4769 17.8049 68.8699 18.3678 68.7648 18.9573C68.6728 19.4717 68.5588 19.9922 68.4244 20.5032C67.8411 22.7255 66.8666 25.0957 65.2643 28.1898C65.0774 28.5495 64.7064 28.7759 64.301 28.7759Z" fill="#E3E9F7"/>
</g>
<defs>
<clipPath id="clip0">
<rect width="74" height="74" fill="white"/>
</clipPath>
</defs>
</svg>
