<svg width="449" height="561" viewBox="0 0 449 561" fill="none" xmlns="http://www.w3.org/2000/svg">
<mask id="mask0" mask-type="alpha" maskUnits="userSpaceOnUse" x="0" y="0" width="449" height="561">
<path d="M449 0H0V561H449V0Z" fill="#C4C4C4"/>
</mask>
<g mask="url(#mask0)">
<path d="M140.711 20.1802C32.4311 52.17 3.50396 96.4699 -3.81252 129.661C-22.7812 215.671 91.0307 282.267 206.198 522.191C259.739 633.729 287.447 693.489 273.943 765.186C256.239 859.207 188.697 862.384 127.162 994.83C104.196 1044.29 57.5646 1144.64 77.4817 1248.51C105.122 1392.73 235.712 1412.09 231.038 1504.86C225.957 1605.61 69.8716 1623.5 45.8673 1747.85C30.2181 1828.89 78.8817 1912.71 127.162 1974.83" stroke="white" stroke-width="5" stroke-miterlimit="10"/>
<path opacity="0.47" d="M85.7837 -27.6528C165.421 -4.3948 237.695 23.7032 235.365 50.2146C230.518 105.286 -92.052 108.681 -98.516 172.7C-104.264 229.705 149.076 251.873 161.083 371.936C162.577 386.95 162.729 427.495 -8.3399 617.202C-152.572 777.131 -197.431 797.959 -196.607 849.352C-194.685 969.26 51.9958 1006.32 44.1826 1108.14C40.2171 1159.79 -24.3473 1164.2 -112.823 1290.37C-161.352 1359.58 -185.63 1394.2 -190.923 1442.08C-205.91 1577.51 -58.0933 1641.43 -70.843 1774.6C-76.3261 1831.86 -108.997 1876.11 -134.763 1903.87" stroke="white" stroke-width="3" stroke-miterlimit="10"/>
<path opacity="0.47" d="M317.831 -122.328C221.05 -16.5079 214.761 34.6973 226.094 61.8697C248.214 114.839 340.488 83.9142 388.177 154.606C407.477 183.221 413.4 219.488 393.223 396.223C369.591 603.294 353.552 623.13 366.56 668.249C406.316 806.12 625.398 746.69 680.332 867.492C747.934 1016.2 483.958 1212 551.464 1381.68C604.345 1514.59 806.127 1494.57 858.155 1651.8C879.57 1716.49 865.4 1780.37 851.452 1821.96" stroke="white" stroke-width="2" stroke-miterlimit="10"/>
<path opacity="0.47" d="M259.034 -16C315.873 29.5816 378.04 94.8697 374.201 168.248C369.346 261.014 264.002 270.867 234.194 373.86C185.892 540.832 413.742 684.306 374.201 857.179C342 997.983 171.575 987.115 155.158 1110.86C136.709 1249.87 344.213 1320.8 383.234 1527.42C412.071 1680.19 334.457 1831.06 265.809 1933.3" stroke="white" stroke-width="2.5" stroke-miterlimit="10"/>
</g>
</svg>
