<svg width="450" height="3356" viewBox="0 0 450 3356" fill="none" xmlns="http://www.w3.org/2000/svg">
<mask id="mask0" mask-type="alpha" maskUnits="userSpaceOnUse" x="0" y="0" width="450" height="562">
<rect x="0.326172" y="0.324585" width="449" height="561" fill="#C4C4C4"/>
</mask>
<g mask="url(#mask0)">
<path d="M141.037 20.5048C32.7573 52.4946 3.83013 96.7945 -3.48635 129.986C-22.455 215.996 91.3569 282.592 206.524 522.516C260.065 634.054 287.773 693.814 274.269 765.511C256.565 859.532 189.023 862.709 127.488 995.155C104.522 1044.61 57.8908 1144.96 77.8079 1248.83C105.448 1393.05 236.038 1412.41 231.364 1505.18C226.283 1605.93 70.1978 1623.82 46.1935 1748.17C30.5443 1829.21 79.2079 1913.03 127.488 1975.15" stroke="white" stroke-width="5" stroke-miterlimit="10"/>
<path opacity="0.47" d="M86.1097 -27.3282C165.747 -4.07017 238.021 24.0278 235.691 50.5392C230.844 105.611 -91.7259 109.006 -98.1899 173.025C-103.938 230.03 149.402 252.198 161.409 372.261C162.903 387.275 163.055 427.82 -8.01385 617.527C-152.246 777.456 -197.105 798.284 -196.281 849.677C-194.359 969.585 52.3219 1006.64 44.5087 1108.46C40.5432 1160.11 -24.0212 1164.52 -112.497 1290.69C-161.026 1359.9 -185.304 1394.52 -190.597 1442.4C-205.584 1577.83 -57.7673 1641.75 -70.517 1774.92C-76.0001 1832.18 -108.671 1876.43 -134.437 1904.19" stroke="white" stroke-width="3" stroke-miterlimit="10"/>
<path opacity="0.47" d="M318.157 -122.003C221.376 -16.1833 215.087 35.0219 226.42 62.1943C248.54 115.164 340.814 84.2388 388.503 154.931C407.803 183.546 413.726 219.813 393.549 396.548C369.917 603.619 353.878 623.455 366.886 668.574C406.642 806.445 625.724 747.015 680.658 867.817C748.26 1016.52 484.284 1212.32 551.79 1382C604.671 1514.91 806.453 1494.89 858.481 1652.12C879.896 1716.81 865.726 1780.69 851.778 1822.28" stroke="white" stroke-width="2" stroke-miterlimit="10"/>
<path opacity="0.47" d="M259.36 -15.6754C316.199 29.9062 378.366 95.1943 374.527 168.573C369.672 261.339 264.328 271.192 234.52 374.185C186.218 541.157 414.068 684.631 374.527 857.504C342.326 998.308 171.901 987.44 155.484 1111.18C137.035 1250.19 344.539 1321.12 383.56 1527.74C412.397 1680.51 334.783 1831.38 266.135 1933.62" stroke="white" stroke-width="2.5" stroke-miterlimit="10"/>
</g>
<mask id="mask1" mask-type="alpha" maskUnits="userSpaceOnUse" x="0" y="1441" width="450" height="562">
<rect x="0.326172" y="1441.32" width="449" height="561" fill="#C4C4C4"/>
</mask>
<g mask="url(#mask1)">
<path d="M141.037 1461.5C32.7573 1493.49 3.83013 1537.79 -3.48635 1570.99C-22.455 1657 91.3569 1723.59 206.524 1963.52C260.065 2075.05 287.773 2134.81 274.269 2206.51C256.565 2300.53 189.023 2303.71 127.488 2436.15C104.522 2485.61 57.8908 2585.96 77.8079 2689.83C105.448 2834.05 236.038 2853.41 231.364 2946.18C226.283 3046.93 70.1978 3064.82 46.1935 3189.17C30.5443 3270.21 79.2079 3354.03 127.488 3416.15" stroke="white" stroke-width="5" stroke-miterlimit="10"/>
<path opacity="0.47" d="M86.1097 1413.67C165.747 1436.93 238.021 1465.03 235.691 1491.54C230.844 1546.61 -91.7259 1550.01 -98.1899 1614.03C-103.938 1671.03 149.402 1693.2 161.409 1813.26C162.903 1828.27 163.055 1868.82 -8.01385 2058.53C-152.246 2218.46 -197.105 2239.28 -196.281 2290.68C-194.359 2410.58 52.3219 2447.64 44.5087 2549.46C40.5432 2601.11 -24.0212 2605.52 -112.497 2731.69C-161.026 2800.9 -185.304 2835.52 -190.597 2883.4C-205.584 3018.83 -57.7673 3082.75 -70.517 3215.92C-76.0001 3273.18 -108.671 3317.43 -134.437 3345.19" stroke="white" stroke-width="3" stroke-miterlimit="10"/>
<path opacity="0.47" d="M318.157 1319C221.376 1424.82 215.087 1476.02 226.42 1503.19C248.54 1556.16 340.814 1525.24 388.503 1595.93C407.803 1624.55 413.726 1660.81 393.549 1837.55C369.917 2044.62 353.878 2064.45 366.886 2109.57C406.642 2247.44 625.724 2188.01 680.658 2308.82C748.26 2457.52 484.284 2653.32 551.79 2823C604.671 2955.91 806.453 2935.89 858.481 3093.12C879.896 3157.81 865.726 3221.69 851.778 3263.28" stroke="white" stroke-width="2" stroke-miterlimit="10"/>
<path opacity="0.47" d="M259.36 1425.32C316.199 1470.91 378.366 1536.19 374.527 1609.57C369.672 1702.34 264.328 1712.19 234.52 1815.18C186.218 1982.16 414.068 2125.63 374.527 2298.5C342.326 2439.31 171.901 2428.44 155.484 2552.18C137.035 2691.19 344.539 2762.12 383.56 2968.74C412.397 3121.51 334.783 3272.38 266.135 3374.62" stroke="white" stroke-width="2.5" stroke-miterlimit="10"/>
</g>
<mask id="mask2" mask-type="alpha" maskUnits="userSpaceOnUse" x="0" y="693" width="450" height="562">
<rect x="0.326172" y="693.325" width="449" height="561" fill="#C4C4C4"/>
</mask>
<g mask="url(#mask2)">
<path d="M141.037 713.505C32.7573 745.495 3.83013 789.794 -3.48635 822.986C-22.455 908.996 91.3569 975.592 206.524 1215.52C260.065 1327.05 287.773 1386.81 274.269 1458.51C256.565 1552.53 189.023 1555.71 127.488 1688.15C104.522 1737.61 57.8908 1837.96 77.8079 1941.83C105.448 2086.05 236.038 2105.41 231.364 2198.18C226.283 2298.93 70.1978 2316.82 46.1935 2441.17C30.5443 2522.21 79.2079 2606.03 127.488 2668.15" stroke="white" stroke-width="5" stroke-miterlimit="10"/>
<path opacity="0.47" d="M86.1097 665.672C165.747 688.93 238.021 717.028 235.691 743.539C230.844 798.611 -91.7259 802.006 -98.1899 866.025C-103.938 923.03 149.402 945.198 161.409 1065.26C162.903 1080.27 163.055 1120.82 -8.01385 1310.53C-152.246 1470.46 -197.105 1491.28 -196.281 1542.68C-194.359 1662.58 52.3219 1699.64 44.5087 1801.46C40.5432 1853.11 -24.0212 1857.52 -112.497 1983.69C-161.026 2052.9 -185.304 2087.52 -190.597 2135.4C-205.584 2270.83 -57.7673 2334.75 -70.517 2467.92C-76.0001 2525.18 -108.671 2569.43 -134.437 2597.19" stroke="white" stroke-width="3" stroke-miterlimit="10"/>
<path opacity="0.47" d="M318.157 570.997C221.376 676.817 215.087 728.022 226.42 755.194C248.54 808.164 340.814 777.239 388.503 847.931C407.803 876.546 413.726 912.813 393.549 1089.55C369.917 1296.62 353.878 1316.45 366.886 1361.57C406.642 1499.44 625.724 1440.01 680.658 1560.82C748.26 1709.52 484.284 1905.32 551.79 2075C604.671 2207.91 806.453 2187.89 858.481 2345.12C879.896 2409.81 865.726 2473.69 851.778 2515.28" stroke="white" stroke-width="2" stroke-miterlimit="10"/>
<path opacity="0.47" d="M259.36 677.325C316.199 722.906 378.366 788.194 374.527 861.573C369.672 954.339 264.328 964.192 234.52 1067.18C186.218 1234.16 414.068 1377.63 374.527 1550.5C342.326 1691.31 171.901 1680.44 155.484 1804.18C137.035 1943.19 344.539 2014.12 383.56 2220.74C412.397 2373.51 334.783 2524.38 266.135 2626.62" stroke="white" stroke-width="2.5" stroke-miterlimit="10"/>
</g>
<mask id="mask3" mask-type="alpha" maskUnits="userSpaceOnUse" x="0" y="2134" width="450" height="562">
<rect x="0.326172" y="2134.32" width="449" height="561" fill="#C4C4C4"/>
</mask>
<g mask="url(#mask3)">
<path d="M141.037 2154.5C32.7573 2186.49 3.83013 2230.79 -3.48635 2263.99C-22.455 2350 91.3569 2416.59 206.524 2656.52C260.065 2768.05 287.773 2827.81 274.269 2899.51C256.565 2993.53 189.023 2996.71 127.488 3129.15C104.522 3178.61 57.8908 3278.96 77.8079 3382.83C105.448 3527.05 236.038 3546.41 231.364 3639.18C226.283 3739.93 70.1978 3757.82 46.1935 3882.17C30.5443 3963.21 79.2079 4047.03 127.488 4109.15" stroke="white" stroke-width="5" stroke-miterlimit="10"/>
<path opacity="0.47" d="M86.1097 2106.67C165.747 2129.93 238.021 2158.03 235.691 2184.54C230.844 2239.61 -91.7259 2243.01 -98.1899 2307.03C-103.938 2364.03 149.402 2386.2 161.409 2506.26C162.903 2521.27 163.055 2561.82 -8.01385 2751.53C-152.246 2911.46 -197.105 2932.28 -196.281 2983.68C-194.359 3103.58 52.3219 3140.64 44.5087 3242.46C40.5432 3294.11 -24.0212 3298.52 -112.497 3424.69C-161.026 3493.9 -185.304 3528.52 -190.597 3576.4C-205.584 3711.83 -57.7673 3775.75 -70.517 3908.92C-76.0001 3966.18 -108.671 4010.43 -134.437 4038.19" stroke="white" stroke-width="3" stroke-miterlimit="10"/>
<path opacity="0.47" d="M318.157 2012C221.376 2117.82 215.087 2169.02 226.42 2196.19C248.54 2249.16 340.814 2218.24 388.503 2288.93C407.803 2317.55 413.726 2353.81 393.549 2530.55C369.917 2737.62 353.878 2757.45 366.886 2802.57C406.642 2940.44 625.724 2881.01 680.658 3001.82C748.26 3150.52 484.284 3346.32 551.79 3516C604.671 3648.91 806.453 3628.89 858.481 3786.12C879.896 3850.81 865.726 3914.69 851.778 3956.28" stroke="white" stroke-width="2" stroke-miterlimit="10"/>
<path opacity="0.47" d="M259.36 2118.32C316.199 2163.91 378.366 2229.19 374.527 2302.57C369.672 2395.34 264.328 2405.19 234.52 2508.18C186.218 2675.16 414.068 2818.63 374.527 2991.5C342.326 3132.31 171.901 3121.44 155.484 3245.18C137.035 3384.19 344.539 3455.12 383.56 3661.74C412.397 3814.51 334.783 3965.38 266.135 4067.62" stroke="white" stroke-width="2.5" stroke-miterlimit="10"/>
</g>
<mask id="mask4" mask-type="alpha" maskUnits="userSpaceOnUse" x="0" y="2794" width="450" height="562">
<rect x="0.326172" y="2794.32" width="449" height="561" fill="#C4C4C4"/>
</mask>
<g mask="url(#mask4)">
<path d="M141.037 2814.5C32.7573 2846.49 3.83013 2890.79 -3.48635 2923.99C-22.455 3010 91.3569 3076.59 206.524 3316.52C260.065 3428.05 287.773 3487.81 274.269 3559.51C256.565 3653.53 189.023 3656.71 127.488 3789.15C104.522 3838.61 57.8908 3938.96 77.8079 4042.83C105.448 4187.05 236.038 4206.41 231.364 4299.18C226.283 4399.93 70.1978 4417.82 46.1935 4542.17C30.5443 4623.21 79.2079 4707.03 127.488 4769.15" stroke="white" stroke-width="5" stroke-miterlimit="10"/>
<path opacity="0.47" d="M86.1097 2766.67C165.747 2789.93 238.021 2818.03 235.691 2844.54C230.844 2899.61 -91.7259 2903.01 -98.1899 2967.03C-103.938 3024.03 149.402 3046.2 161.409 3166.26C162.903 3181.27 163.055 3221.82 -8.01385 3411.53C-152.246 3571.46 -197.105 3592.28 -196.281 3643.68C-194.359 3763.58 52.3219 3800.64 44.5087 3902.46C40.5432 3954.11 -24.0212 3958.52 -112.497 4084.69C-161.026 4153.9 -185.304 4188.52 -190.597 4236.4C-205.584 4371.83 -57.7673 4435.75 -70.517 4568.92C-76.0001 4626.18 -108.671 4670.43 -134.437 4698.19" stroke="white" stroke-width="3" stroke-miterlimit="10"/>
<path opacity="0.47" d="M318.157 2672C221.376 2777.82 215.087 2829.02 226.42 2856.19C248.54 2909.16 340.814 2878.24 388.503 2948.93C407.803 2977.55 413.726 3013.81 393.549 3190.55C369.917 3397.62 353.878 3417.45 366.886 3462.57C406.642 3600.44 625.724 3541.01 680.658 3661.82C748.26 3810.52 484.284 4006.32 551.79 4176C604.671 4308.91 806.453 4288.89 858.481 4446.12C879.896 4510.81 865.726 4574.69 851.778 4616.28" stroke="white" stroke-width="2" stroke-miterlimit="10"/>
<path opacity="0.47" d="M259.36 2778.32C316.199 2823.91 378.366 2889.19 374.527 2962.57C369.672 3055.34 264.328 3065.19 234.52 3168.18C186.218 3335.16 414.068 3478.63 374.527 3651.5C342.326 3792.31 171.901 3781.44 155.484 3905.18C137.035 4044.19 344.539 4115.12 383.56 4321.74C412.397 4474.51 334.783 4625.38 266.135 4727.62" stroke="white" stroke-width="2.5" stroke-miterlimit="10"/>
</g>
</svg>
