<svg width="335" height="2043" viewBox="0 0 335 2043" fill="none" xmlns="http://www.w3.org/2000/svg">
<g clip-path="url(#clip0)">
<path opacity="0.47" d="M174.647 46.5695C256.551 59.7873 331.748 78.7196 332.719 105.316C334.729 160.563 15.0621 203.875 16.575 268.202C17.9299 325.48 272.065 316.107 298.847 433.759C302.189 448.472 307.36 488.687 161.098 698.116C37.7793 874.675 -4.155 900.897 3.02599 951.792C19.7816 1070.54 269.152 1076.76 274.007 1178.77C276.468 1230.52 212.946 1242.88 140.775 1379.04C101.189 1453.72 81.3846 1491.08 82.062 1539.25C83.9589 1675.49 238.553 1720.62 242.392 1854.34C244.041 1911.84 217.101 1959.79 194.971 1990.53" stroke="white" stroke-width="3" stroke-miterlimit="10"/>
<path opacity="0.47" d="M135.129 93.2993C191.967 138.881 254.135 204.169 250.296 277.548C245.441 370.313 140.097 380.167 110.289 483.159C61.9869 650.131 289.837 793.605 250.296 966.479C218.094 1107.28 47.6701 1096.41 31.2532 1220.15C12.8039 1359.17 220.307 1430.09 259.329 1636.72C288.165 1789.48 210.552 1940.35 141.904 2042.6" stroke="white" stroke-width="2.5" stroke-miterlimit="10"/>
<path opacity="0.47" d="M213.036 1.17484C92.5624 78.9599 73.4809 126.891 77.5456 156.051C85.4944 212.901 182.596 206.412 210.778 286.894C222.182 319.471 218.704 356.054 154.323 521.878C78.9005 716.167 58.3511 731.281 59.4802 778.225C62.9352 921.672 289.927 919.802 312.396 1050.59C340.036 1211.58 35.0016 1333.96 57.222 1515.22C74.6326 1657.2 274.887 1689.05 285.298 1854.34C289.588 1922.36 259.667 1980.54 235.618 2017.23" stroke="white" stroke-width="2" stroke-miterlimit="10"/>
<path d="M157.711 5.18066C49.4314 37.1705 20.5042 81.4704 13.1877 114.662C-5.78093 200.671 108.031 267.268 223.198 507.192C276.739 618.73 304.447 678.49 290.943 750.187C273.239 844.207 205.697 847.385 144.162 979.831C121.196 1029.28 74.5649 1129.63 94.4819 1233.51C122.122 1377.73 252.712 1397.09 248.038 1489.85C242.957 1590.6 86.8719 1608.49 62.8675 1732.85C47.2184 1813.89 95.882 1897.71 144.162 1959.82" stroke="white" stroke-width="7" stroke-miterlimit="10"/>
<path d="M157.711 5.18066C49.4311 37.1705 20.504 81.4704 13.1875 114.662C-5.78117 200.671 108.031 267.268 223.198 507.192C276.739 618.73 304.447 678.49 290.943 750.187C273.239 844.207 205.697 847.385 144.162 979.831C121.196 1029.28 74.5646 1129.63 94.4817 1233.51" stroke="#2C4A9D" stroke-width="7" stroke-miterlimit="10"/>
<path d="M157.711 5.18066C49.4311 37.1705 20.504 81.4704 13.1875 114.662C-5.78117 200.671 108.031 267.268 223.198 507.192C276.739 618.73 304.447 678.49 290.943 750.187C273.239 844.207 205.697 847.385 144.162 979.831C121.196 1029.28 74.5646 1129.63 94.4817 1233.51" stroke="url(#paint0_linear)" stroke-width="7" stroke-miterlimit="10"/>
</g>
<defs>
<linearGradient id="paint0_linear" x1="153" y1="1066" x2="153" y2="1234" gradientUnits="userSpaceOnUse">
<stop stop-color="#2C4A9D"/>
<stop offset="1" stop-color="white"/>
</linearGradient>
<clipPath id="clip0">
<rect width="335" height="2043" fill="white"/>
</clipPath>
</defs>
</svg>
