<svg width="60" height="60" viewBox="0 0 60 60" fill="none" xmlns="http://www.w3.org/2000/svg">
<circle cx="30" cy="30" r="30" fill="white"/>
<path d="M29.6595 34.7483C28.4155 34.7483 27.2415 34.267 26.363 33.3821C25.4767 32.505 24.9946 31.3329 24.9946 30.0909C24.9946 29.0741 25.3212 28.1038 25.9276 27.2965L27.1716 28.228C26.7673 28.7714 26.5496 29.4156 26.5496 30.0909C26.5496 30.9215 26.8761 31.6977 27.4592 32.2877C28.0501 32.8698 28.8276 33.1958 29.6595 33.1958C31.3777 33.1958 32.7694 31.8064 32.7694 30.0909C32.7694 28.3755 31.3777 26.986 29.6595 26.986C29.2241 26.986 28.812 27.0714 28.4155 27.2422L27.7936 25.8217C28.3844 25.5656 29.0142 25.4336 29.6595 25.4336C32.233 25.4336 34.3244 27.5216 34.3244 30.0909C34.3244 32.6602 32.233 34.7483 29.6595 34.7483Z" fill="#2C4A9D"/>
<path d="M29.6595 40.1818C24.0849 40.1818 19.5522 35.6564 19.5522 30.0909C19.5522 24.5254 24.0849 20 29.6595 20C35.234 20 39.7667 24.5254 39.7667 30.0909C39.7667 35.6564 35.234 40.1818 29.6595 40.1818ZM29.6595 21.5524C24.9402 21.5524 21.1072 25.3792 21.1072 30.0909C21.1072 34.8026 24.9402 38.6294 29.6595 38.6294C34.371 38.6294 38.2117 34.8026 38.2117 30.0909C38.2117 25.3792 34.371 21.5524 29.6595 21.5524Z" fill="#2C4A9D"/>
<path d="M29.6595 40.1818C19.4823 40.1818 11.5209 30.9836 11.1866 30.5955C10.9378 30.3082 10.9378 29.8813 11.1866 29.5864C11.5209 29.1982 19.4823 20 29.6595 20C39.8367 20 47.798 29.1982 48.1324 29.5864C48.3812 29.8736 48.3812 30.3005 48.1324 30.5955C47.798 30.9836 39.8367 40.1818 29.6595 40.1818ZM12.8271 30.0909C14.6308 31.9927 21.5193 38.6294 29.6595 38.6294C37.8152 38.6294 44.6881 31.9927 46.4919 30.0909C44.6804 28.1892 37.7997 21.5524 29.6595 21.5524C21.5037 21.5524 14.6308 28.1892 12.8271 30.0909Z" fill="#2C4A9D"/>
<line x1="37.7071" y1="13.7071" x2="33.7071" y2="17.7071" stroke="#2C4A9D" stroke-width="2"/>
<line y1="-1" x2="5.65685" y2="-1" transform="matrix(0.707107 0.707107 0.707107 -0.707107 21 13)" stroke="#2C4A9D" stroke-width="2"/>
<line x1="29" y1="6" x2="29" y2="16" stroke="#2C4A9D" stroke-width="2"/>
</svg>
