<svg width="60" height="60" viewBox="0 0 60 60" fill="none" xmlns="http://www.w3.org/2000/svg">
<circle cx="30" cy="30" r="30" fill="white"/>
<path d="M23.1948 41.5084H16.6541C16.2943 41.5084 16 41.2146 16 40.8554C16 40.4962 16.2943 40.2024 16.6541 40.2024H23.1948C24.0058 40.2024 24.7711 39.6734 24.7776 39.6734C25.072 39.4645 25.4775 39.5363 25.6868 39.8302C25.8961 40.124 25.8241 40.5289 25.5298 40.7379C25.4906 40.764 24.431 41.5084 23.1948 41.5084Z" fill="#2C4A9D"/>
<path d="M41.5087 40.2026C41.149 40.2026 40.8547 39.9087 40.8547 39.5495C40.8547 39.1904 41.149 38.8965 41.5087 38.8965C42.3525 38.8965 42.8169 38.4329 42.8169 37.5905C42.8169 31.3673 37.3358 27.7953 27.7733 27.7953H16.6541C16.2943 27.7953 16 27.5014 16 27.1423C16 26.7831 16.2943 26.4893 16.6541 26.4893H27.7733C38.1664 26.4893 44.125 30.5379 44.125 37.5905C44.125 39.1512 43.0719 40.2026 41.5087 40.2026Z" fill="#2C4A9D"/>
<path d="M39.6643 41.5085H27.1193C25.6345 41.5085 24.7973 40.764 24.7057 40.6791C24.5618 40.5485 24.4899 40.3526 24.503 40.1633C24.5161 39.9739 24.6142 39.791 24.7712 39.6735C25.0786 39.4515 32.2406 34.3253 36.2762 34.3253C38.0815 34.3253 39.1803 35.4028 40.1549 36.5064C41.3845 37.8973 42.5357 39.347 42.019 40.4963C41.5611 41.5085 40.1352 41.5085 39.6643 41.5085ZM26.4325 40.1176C26.6287 40.1698 26.8576 40.2024 27.1193 40.2024H39.6643C40.5211 40.2024 40.7959 40.0196 40.822 39.9543C40.9005 39.778 40.7958 39.2033 39.1738 37.3684C38.1796 36.2452 37.4209 35.6313 36.2762 35.6313C33.431 35.6313 28.4536 38.7658 26.4325 40.1176Z" fill="#2C4A9D"/>
<path d="M31.6976 25.8362C23.9665 25.8362 19.2703 21.7548 19.2703 19.959C19.2703 19.2603 19.8785 18.8293 23.2143 18.431C25.5493 18.1567 28.5646 18 31.6976 18C34.8306 18 37.8458 18.1567 40.1809 18.431C43.5166 18.8293 44.1249 19.2603 44.1249 19.959C44.1249 21.7548 39.4287 25.8362 31.6976 25.8362ZM20.67 20.2202C21.2979 21.4022 25.1111 24.5301 31.6976 24.5301C38.2775 24.5301 42.0907 21.4022 42.7252 20.2202C41.6133 19.8415 37.5908 19.306 31.6976 19.306C25.7979 19.306 21.7754 19.8415 20.67 20.2202Z" fill="#2C4A9D"/>
<path d="M31.6976 23.8772C28.6758 23.8772 25.3989 22.7866 24.1039 21.781C23.8161 21.559 23.7637 21.1476 23.9861 20.8668C24.2085 20.586 24.6206 20.5337 24.9018 20.7492C26.0137 21.6112 29.0748 22.5711 31.6976 22.5711C32.0573 22.5711 32.3517 22.865 32.3517 23.2241C32.3517 23.5833 32.0573 23.8772 31.6976 23.8772Z" fill="#2C4A9D"/>
</svg>
