<svg width="60" height="60" viewBox="0 0 60 60" fill="none" xmlns="http://www.w3.org/2000/svg">
<circle cx="30" cy="30" r="30" fill="white"/>
<path d="M30.1007 44.9452C21.8848 44.9452 15.2014 38.2726 15.2014 30.07C15.2014 21.8674 21.8848 15.1948 30.1007 15.1948C38.3165 15.1948 44.9999 21.8674 44.9999 30.07C44.9999 38.2726 38.3165 44.9452 30.1007 44.9452ZM30.1007 16.6115C22.6652 16.6115 16.6204 22.6466 16.6204 30.07C16.6204 37.4935 22.6652 43.5285 30.1007 43.5285C37.5361 43.5285 43.5809 37.4935 43.5809 30.07C43.5809 22.6466 37.5361 16.6115 30.1007 16.6115Z" fill="#2C4A9D"/>
<path d="M36.8338 35.0284C34.8117 35.0284 33.1374 33.1088 32.9458 30.5658L32.8394 29.2058L34.0171 29.9071C34.0739 29.9425 34.1023 29.9637 34.1377 29.9708C34.3364 30.0416 34.5563 30.0275 34.7834 29.9141C35.1736 29.7158 35.507 29.2837 35.6773 28.7454C35.9256 27.9308 35.7341 27.0666 35.2303 26.7337L34.2513 26.0891L35.28 25.5224C35.7766 25.2532 36.3017 25.1116 36.8409 25.1116C38.9977 25.1116 40.7502 27.3358 40.7502 30.07C40.7502 31.3592 40.367 32.5775 39.6717 33.4984C38.9197 34.483 37.9122 35.0284 36.8338 35.0284ZM34.535 31.4229C34.9182 32.705 35.8192 33.6117 36.8338 33.6117C37.4581 33.6117 38.0612 33.2717 38.5295 32.6483C39.0403 31.9683 39.3241 31.0546 39.3241 30.07C39.3241 28.1645 38.2031 26.5495 36.8622 26.5283C37.2382 27.272 37.3162 28.2283 37.0253 29.1633C36.7416 30.0771 36.1527 30.8137 35.4077 31.1821C35.1239 31.3237 34.8259 31.4017 34.535 31.4229Z" fill="#2C4A9D"/>
<path d="M37.1955 39.9869C32.8889 39.9869 29.3911 35.5385 29.3911 30.0701C29.3911 24.6017 32.8889 20.1533 37.1955 20.1533C41.5021 20.1533 44.9999 24.6017 44.9999 30.0701C44.9999 35.5385 41.5021 39.9869 37.1955 39.9869ZM37.1955 21.57C33.6764 21.57 30.8101 25.3809 30.8101 30.0701C30.8101 34.7594 33.6764 38.5702 37.1955 38.5702C40.7145 38.5702 43.5809 34.7594 43.5809 30.0701C43.5809 25.3809 40.7145 21.57 37.1955 21.57Z" fill="#2C4A9D"/>
<path d="M19.1036 30.7784H15.9109C15.5207 30.7784 15.2014 30.4596 15.2014 30.07C15.2014 29.6805 15.5207 29.3617 15.9109 29.3617H18.3941L20.5226 26.5283H24.6376L26.9434 28.0654C27.2698 28.285 27.3549 28.7242 27.1421 29.05C26.9221 29.3759 26.4823 29.4609 26.1559 29.2484L24.2119 27.945H21.2321L19.1036 30.7784Z" fill="#2C4A9D"/>
<path d="M24.4246 27.9451C24.2402 27.9451 24.0628 27.8743 23.9209 27.7397C23.6442 27.4634 23.6442 27.0172 23.9209 26.7409L26.0494 24.6159C26.3261 24.3396 26.7731 24.3396 27.0498 24.6159C27.3265 24.8921 27.3265 25.3384 27.0498 25.6147L24.9213 27.7397C24.7865 27.8743 24.6091 27.9451 24.4246 27.9451Z" fill="#2C4A9D"/>
<path d="M20.8772 27.945C20.487 27.945 20.1677 27.6262 20.1677 27.2366V24.7291L22.6155 23.0999C22.9418 22.8803 23.3817 22.9724 23.6016 23.2982C23.8216 23.6241 23.7294 24.0633 23.403 24.2828L21.5938 25.487V27.2366C21.5867 27.6262 21.2674 27.945 20.8772 27.945Z" fill="#2C4A9D"/>
<path d="M29.3912 40.6952C29.2422 40.6952 29.0932 40.6456 28.9655 40.5535L26.3191 38.5701H23.8997L20.1536 40.6102C19.806 40.7943 19.3803 40.6739 19.1887 40.3268C19.0043 39.9868 19.1249 39.5547 19.4725 39.3635L23.5379 37.1534H26.7945L29.824 39.4201C30.1361 39.6539 30.2 40.1002 29.9659 40.4118C29.8169 40.596 29.604 40.6952 29.3912 40.6952Z" fill="#2C4A9D"/>
<path d="M26.5533 38.5701C26.3688 38.5701 26.1915 38.4993 26.0496 38.3647C25.7729 38.0885 25.7729 37.6422 26.0496 37.3659L27.4685 35.9493C27.7452 35.673 28.1922 35.673 28.4689 35.9493C28.7456 36.2255 28.7456 36.6718 28.4689 36.948L27.0499 38.3647C26.9151 38.4993 26.7378 38.5701 26.5533 38.5701Z" fill="#2C4A9D"/>
<path d="M23.7154 38.5701C23.6657 38.5701 23.6231 38.5631 23.5735 38.556C23.1903 38.4781 22.942 38.1097 23.0201 37.7201L23.6728 34.4688L22.417 32.5846C22.1971 32.2588 22.2893 31.8196 22.6157 31.6C22.942 31.3804 23.3819 31.4725 23.6018 31.7984L25.184 34.1642L24.4178 37.9964C24.3468 38.3364 24.0488 38.5701 23.7154 38.5701Z" fill="#2C4A9D"/>
<path d="M24.4249 35.0285C24.1623 35.0285 23.914 34.8868 23.7863 34.6389C23.609 34.2918 23.7508 33.8668 24.1056 33.6897L26.9435 32.273C27.2912 32.0959 27.7169 32.2376 27.8943 32.5918C28.0716 32.9389 27.9297 33.3639 27.575 33.541L24.737 34.9576C24.6377 35.0072 24.5313 35.0285 24.4249 35.0285Z" fill="#2C4A9D"/>
<path d="M27.9721 22.2784C27.6741 22.2784 27.3974 22.0942 27.2981 21.7967L26.6737 19.9196L23.3533 17.9291C23.0199 17.7308 22.9063 17.2916 23.1121 16.9587C23.3178 16.6258 23.7506 16.5125 24.0841 16.7179L27.8586 18.9775L28.6532 21.3504C28.7738 21.7188 28.5751 22.1225 28.2062 22.243C28.1211 22.2642 28.043 22.2784 27.9721 22.2784Z" fill="#2C4A9D"/>
<path d="M27.2627 20.1531C26.9434 20.1531 26.6525 19.9406 26.5745 19.6147C26.4822 19.2322 26.7093 18.8497 27.0924 18.7576L29.9303 18.0493C30.3064 17.9572 30.6966 18.1839 30.7888 18.5664C30.881 18.9489 30.654 19.3314 30.2709 19.4235L27.4329 20.1318C27.3762 20.146 27.3194 20.1531 27.2627 20.1531Z" fill="#2C4A9D"/>
</svg>
