<svg width="60" height="60" viewBox="0 0 60 60" fill="none" xmlns="http://www.w3.org/2000/svg">
<circle cx="30" cy="30" r="30" fill="white"/>
<path d="M26.6024 43.1609C19.1051 43.1609 13 37.0656 13 29.5804C13 22.0952 19.1051 16 26.6024 16C34.0997 16 40.2048 22.0952 40.2048 29.5804C40.2048 37.0656 34.0997 43.1609 26.6024 43.1609ZM26.6024 17.5977C19.9852 17.5977 14.6003 22.9739 14.6003 29.5804C14.6003 36.1869 19.9852 41.5632 26.6024 41.5632C33.2195 41.5632 38.6045 36.1869 38.6045 29.5804C38.6045 22.9739 33.2195 17.5977 26.6024 17.5977Z" fill="#2C4A9D"/>
<path d="M32.5956 34.3735C30.7313 34.3735 29.187 32.5122 29.003 30.0517C28.979 29.7481 29.131 29.4685 29.387 29.3088C29.6431 29.149 29.9711 29.157 30.2272 29.3168L30.3232 29.3727C30.3472 29.3807 30.4752 29.4286 30.6753 29.3327C30.9233 29.2129 31.2434 28.8774 31.4034 28.3102C31.6274 27.5193 31.4034 26.7764 31.0673 26.5368C30.8433 26.377 30.7153 26.1213 30.7313 25.8497C30.7393 25.5781 30.8913 25.3305 31.1233 25.1947C31.5874 24.9231 32.0835 24.7793 32.5956 24.7793C34.62 24.7793 36.2042 26.8882 36.2042 29.5724C36.2042 30.8026 35.8602 31.9689 35.2361 32.8557C34.564 33.8223 33.5958 34.3735 32.5956 34.3735ZM30.7953 30.9624C31.1233 32.0329 31.8275 32.7758 32.5956 32.7758C33.2437 32.7758 33.7078 32.2565 33.9238 31.945C34.3559 31.3299 34.604 30.4671 34.604 29.5804C34.604 27.9987 33.8358 26.6406 32.8756 26.4169C33.1397 27.104 33.1797 27.9347 32.9397 28.7496C32.6756 29.6762 32.1075 30.4112 31.3794 30.7627C31.1874 30.8585 30.9873 30.9304 30.7953 30.9624Z" fill="#2C4A9D"/>
<path d="M33.0035 38.3678C29.0348 38.3678 25.8022 34.4294 25.8022 29.5804C25.8022 24.7314 29.0348 20.7931 33.0035 20.7931C36.9722 20.7931 40.2048 24.7314 40.2048 29.5804C40.2048 34.4294 36.9722 38.3678 33.0035 38.3678ZM33.0035 22.3908C29.915 22.3908 27.4025 25.6181 27.4025 29.5804C27.4025 33.5427 29.915 36.7701 33.0035 36.7701C36.092 36.7701 38.6045 33.5427 38.6045 29.5804C38.6045 25.6181 36.092 22.3908 33.0035 22.3908Z" fill="#2C4A9D"/>
<path d="M45.0056 30.3793H41.805C41.3649 30.3793 41.0049 30.0198 41.0049 29.5805C41.0049 29.1411 41.3649 28.7816 41.805 28.7816H45.0056C45.4457 28.7816 45.8057 29.1411 45.8057 29.5805C45.8057 30.0198 45.4457 30.3793 45.0056 30.3793Z" fill="#2C4A9D"/>
<path d="M50.6067 30.3793H47.4061C46.966 30.3793 46.606 30.0198 46.606 29.5805C46.606 29.1411 46.966 28.7816 47.4061 28.7816H50.6067C51.0467 28.7816 51.4068 29.1411 51.4068 29.5805C51.4068 30.0198 51.0467 30.3793 50.6067 30.3793Z" fill="#2C4A9D"/>
<path d="M41.805 27.1839C41.509 27.1839 41.2289 27.0241 41.0929 26.7445C40.8929 26.3531 41.0529 25.8738 41.445 25.674L44.3015 24.2281C44.7016 24.0284 45.1816 24.1882 45.3737 24.5796C45.5737 24.9711 45.4137 25.4504 45.0216 25.6501L42.1651 27.096C42.0531 27.1599 41.9251 27.1839 41.805 27.1839Z" fill="#2C4A9D"/>
<path d="M46.8058 24.6596C46.5097 24.6596 46.2297 24.4998 46.0936 24.2202C45.8936 23.8288 46.0536 23.3495 46.4457 23.1498L49.3022 21.7039C49.7023 21.5041 50.1744 21.6639 50.3744 22.0553C50.5744 22.4468 50.4144 22.9261 50.0223 23.1258L47.1659 24.5717C47.0458 24.6276 46.9258 24.6596 46.8058 24.6596Z" fill="#2C4A9D"/>
<path d="M44.6616 35.0206C44.5415 35.0206 44.4135 34.9966 44.3015 34.9327L41.445 33.4868C41.0529 33.2871 40.8929 32.8077 41.0929 32.4163C41.2929 32.0249 41.7731 31.8651 42.1651 32.0648L45.0216 33.5108C45.4137 33.7105 45.5737 34.1898 45.3737 34.5812C45.2296 34.8608 44.9496 35.0206 44.6616 35.0206Z" fill="#2C4A9D"/>
<path d="M49.6544 37.5449C49.5344 37.5449 49.4064 37.5209 49.2944 37.457L46.4379 36.0111C46.0458 35.8113 45.8858 35.332 46.0858 34.9406C46.2859 34.5492 46.7659 34.3894 47.158 34.5891L50.0145 36.035C50.4066 36.2347 50.5666 36.7141 50.3666 37.1055C50.2305 37.3851 49.9505 37.5449 49.6544 37.5449Z" fill="#2C4A9D"/>
</svg>
