<svg width="60" height="60" viewBox="0 0 60 60" fill="none" xmlns="http://www.w3.org/2000/svg">
<circle cx="30" cy="30" r="30" fill="white"/>
<path d="M33.3587 33.1043H31.9919V32.422C31.9919 31.5282 31.1923 30.8869 30.3517 30.2046C30.0647 29.9726 29.7776 29.7406 29.5316 29.5086L30.4747 28.5193C30.6934 28.7308 30.9463 28.9355 31.206 29.147C32.1627 29.918 33.3518 30.88 33.3518 32.4289V33.1043H33.3587Z" fill="#2C4A9D"/>
<path d="M31.3084 46.7503H22.4242C21.2966 46.7503 20.374 45.8292 20.374 44.7034V32.422C20.374 30.88 21.5632 29.918 22.5199 29.1402C22.7796 28.9287 23.0324 28.724 23.2511 28.5125L24.1942 29.5018C23.9482 29.7338 23.668 29.9657 23.3742 30.1977C22.5336 30.88 21.734 31.5214 21.734 32.4152V44.6966C21.734 45.0718 22.0415 45.3789 22.4174 45.3789H31.3016C31.6775 45.3789 31.985 45.0718 31.985 44.6966V43.332H33.3518V44.6966C33.3586 45.8292 32.436 46.7503 31.3084 46.7503Z" fill="#2C4A9D"/>
<path d="M31.3085 25.5991C29.1831 25.5991 27.4814 18.585 27.249 15.7194C27.2354 15.5147 27.0645 15.3646 26.8663 15.3646C26.6682 15.3646 26.4973 15.5147 26.4836 15.7194C26.2513 18.585 24.5496 25.5991 22.4242 25.5991V24.2345C22.3696 24.2345 22.3422 24.2481 22.3422 24.2481C23.1008 23.8865 24.8298 19.3015 25.1168 15.6102C25.192 14.7028 25.9574 14 26.8663 14C27.7753 14 28.5407 14.7096 28.6158 15.6102C28.9097 19.3015 30.6319 23.8797 31.3905 24.2481C31.3905 24.2481 31.3631 24.2345 31.3085 24.2345V25.5991Z" fill="#2C4A9D"/>
<path d="M32.6752 29.693H21.0574V24.2346H23.791V25.5992H22.4242V28.3284H31.3084V25.5992H29.9416V24.2346H32.6752V29.693Z" fill="#2C4A9D"/>
<path d="M26.5246 24.2346H23.791V25.5992H26.5246V24.2346Z" fill="#2C4A9D"/>
<path d="M30.625 24.2346H28.5748V25.5992H30.625V24.2346Z" fill="#2C4A9D"/>
<path d="M29.9416 42.6564H21.0574V41.2918H28.5748V34.4688H21.0574V33.1042H29.9416V42.6564Z" fill="#2C4A9D"/>
<path d="M36.0922 43.3388C33.4543 43.3388 31.3084 41.1964 31.3084 38.5627C31.3084 36.5841 32.4224 35.1171 33.509 33.7048C34.3632 32.579 35.1765 31.5214 35.4225 30.2455C35.484 29.9249 35.7642 29.6929 36.0922 29.6929C36.4202 29.6929 36.7004 29.9249 36.762 30.2455C37.008 31.5214 37.8212 32.579 38.6755 33.7048C39.7552 35.1171 40.876 36.5841 40.876 38.5627C40.876 41.1964 38.7301 43.3388 36.0922 43.3388ZM36.0922 32.3334C35.6685 33.118 35.1286 33.8344 34.5956 34.5304C33.6115 35.8199 32.6752 37.0412 32.6752 38.5627C32.6752 40.4459 34.206 41.9742 36.0922 41.9742C37.9784 41.9742 39.5092 40.4459 39.5092 38.5627C39.5092 37.0412 38.5798 35.8199 37.5889 34.5304C37.0558 33.8344 36.5159 33.118 36.0922 32.3334Z" fill="#2C4A9D"/>
</svg>
