<svg width="60" height="60" viewBox="0 0 60 60" fill="none" xmlns="http://www.w3.org/2000/svg">
<circle cx="30" cy="30" r="30" fill="white"/>
<path d="M37.2028 26.4662C34.1741 26.4662 31.8081 24.1733 31.8081 21.2418C31.8081 19.0105 33.072 17.31 34.2897 15.6634C35.253 14.3631 36.1701 13.132 36.4476 11.6932C36.5169 11.3392 36.8329 11.0776 37.2028 11.0776C37.5727 11.0776 37.8887 11.3392 37.9581 11.7009C38.2355 13.1397 39.1526 14.3708 40.116 15.6711C41.3336 17.3177 42.5975 19.0105 42.5975 21.2495C42.5975 24.1733 40.2316 26.4662 37.2028 26.4662ZM37.2028 14.0707C36.7327 14.9633 36.1239 15.7865 35.5305 16.5867C34.413 18.0948 33.3495 19.5183 33.3495 21.2418C33.3495 23.3039 35.0449 24.9274 37.2028 24.9274C39.3607 24.9274 41.0562 23.3116 41.0562 21.2418C41.0562 19.5183 40.0004 18.0948 38.8752 16.5867C38.2818 15.7865 37.6729 14.9633 37.2028 14.0707Z" fill="#2C4A9D"/>
<path d="M37.2028 24.1579C35.4996 24.1579 34.1201 22.7807 34.1201 21.0802C34.1201 20.657 34.4669 20.3108 34.8908 20.3108C35.3147 20.3108 35.6615 20.657 35.6615 21.0802C35.6615 21.9266 36.3551 22.6191 37.2028 22.6191C37.6267 22.6191 37.9735 22.9653 37.9735 23.3885C37.9735 23.8117 37.6267 24.1579 37.2028 24.1579Z" fill="#2C4A9D"/>
<path d="M44.1388 16.4637C42.4357 16.4637 41.0562 15.0864 41.0562 13.386C41.0562 12.1395 41.7575 11.2239 42.374 10.416C42.8287 9.82355 43.2603 9.25417 43.3836 8.62324C43.4529 8.26161 43.7689 8 44.1388 8C44.5088 8 44.8247 8.26161 44.8941 8.62324C45.0174 9.25417 45.449 9.81585 45.9037 10.416C46.5202 11.2239 47.2215 12.1395 47.2215 13.386C47.2215 15.0864 45.842 16.4637 44.1388 16.4637ZM44.1388 10.6084C43.9616 10.87 43.7766 11.1085 43.5994 11.347C43.0599 12.0472 42.5975 12.655 42.5975 13.386C42.5975 14.2324 43.2911 14.9249 44.1388 14.9249C44.9866 14.9249 45.6802 14.2324 45.6802 13.386C45.6802 12.655 45.2178 12.0472 44.6783 11.347C44.5011 11.1162 44.3161 10.87 44.1388 10.6084Z" fill="#2C4A9D"/>
<path d="M29.4961 34.1606C28.263 34.1606 27.0993 33.6836 26.2285 32.8064C25.3499 31.937 24.8721 30.7752 24.8721 29.5441C24.8721 28.5361 25.1958 27.5743 25.7969 26.7741L27.03 27.6974C26.6292 28.236 26.4134 28.8747 26.4134 29.5441C26.4134 30.3674 26.7371 31.1368 27.3151 31.7215C27.9008 32.2986 28.6715 32.6218 29.4961 32.6218C31.1993 32.6218 32.5788 31.2445 32.5788 29.5441C32.5788 27.8436 31.1993 26.4663 29.4961 26.4663C29.0645 26.4663 28.6561 26.551 28.263 26.7203L27.6465 25.3122C28.2322 25.0583 28.8564 24.9275 29.4961 24.9275C32.047 24.9275 34.1201 26.9973 34.1201 29.5441C34.1201 32.0909 32.047 34.1606 29.4961 34.1606Z" fill="#2C4A9D"/>
<path d="M29.496 39.5467C23.9703 39.5467 19.4773 35.0609 19.4773 29.5441C19.4773 24.0273 23.9703 19.5415 29.496 19.5415C29.9199 19.5415 30.2667 19.8877 30.2667 20.3109C30.2667 20.7341 29.9199 21.0804 29.496 21.0804C24.8181 21.0804 21.0186 24.8736 21.0186 29.5441C21.0186 34.2145 24.8181 38.0078 29.496 38.0078C34.1663 38.0078 37.9734 34.2145 37.9734 29.5441C37.9734 29.0209 37.9272 28.4977 37.827 27.9898C37.7499 27.5743 38.0274 27.1742 38.4436 27.0896C38.8674 27.0127 39.2605 27.2897 39.3452 27.7051C39.4608 28.3053 39.5148 28.9285 39.5148 29.5441C39.5148 35.0609 35.0218 39.5467 29.496 39.5467Z" fill="#2C4A9D"/>
<path d="M29.4961 39.5467C19.408 39.5467 11.5164 30.4289 11.185 30.0442C10.9383 29.7595 10.9383 29.3363 11.185 29.044C11.5164 28.6592 19.408 19.5415 29.4961 19.5415C29.8352 19.5415 30.1743 19.5492 30.5134 19.5723C30.9373 19.5954 31.261 19.9647 31.2379 20.3879C31.2148 20.8111 30.8448 21.1342 30.421 21.1111C30.1127 21.0881 29.8044 21.0804 29.4961 21.0804C21.4118 21.0804 14.599 27.659 12.8111 29.5441C14.599 31.4292 21.4272 38.0078 29.4961 38.0078C37.5805 38.0078 44.3933 31.4292 46.1812 29.5441C45.5184 28.8439 44.1775 27.5051 42.351 26.1047C42.0119 25.8431 41.9502 25.3661 42.2123 25.0275C42.4743 24.689 42.9521 24.6274 43.2912 24.889C46.0733 27.0204 47.7457 28.967 47.815 29.0517C48.0617 29.3363 48.0617 29.7595 47.815 30.0519C47.4759 30.4289 39.5843 39.5467 29.4961 39.5467Z" fill="#2C4A9D"/>
</svg>
