<svg width="60" height="60" viewBox="0 0 60 60" fill="none" xmlns="http://www.w3.org/2000/svg">
<circle cx="30" cy="30" r="30" fill="white"/>
<path d="M33.3585 33.1043H31.9917V32.422C31.9917 31.5282 31.1922 30.8869 30.3516 30.2046C30.0646 29.9726 29.7775 29.7406 29.5315 29.5086L30.4746 28.5193C30.6933 28.7308 30.9461 28.9355 31.2058 29.147C32.1626 29.918 33.3517 30.88 33.3517 32.4289V33.1043H33.3585Z" fill="#2C4A9D"/>
<path d="M31.3084 46.7503H22.4242C21.2966 46.7503 20.374 45.8292 20.374 44.7034V32.422C20.374 30.88 21.5632 29.918 22.5199 29.1402C22.7796 28.9287 23.0324 28.724 23.2511 28.5125L24.1942 29.5018C23.9482 29.7338 23.668 29.9657 23.3742 30.1977C22.5336 30.88 21.734 31.5214 21.734 32.4152V44.6966C21.734 45.0718 22.0415 45.3789 22.4174 45.3789H31.3016C31.6775 45.3789 31.985 45.0718 31.985 44.6966V43.332H33.3518V44.6966C33.3586 45.8292 32.436 46.7503 31.3084 46.7503Z" fill="#2C4A9D"/>
<path d="M31.3085 25.5991C29.1831 25.5991 27.4815 18.585 27.2491 15.7194C27.2354 15.5147 27.0646 15.3646 26.8664 15.3646C26.6682 15.3646 26.4974 15.5147 26.4837 15.7194C26.2513 18.585 24.5497 25.5991 22.4243 25.5991V24.2345C22.3696 24.2345 22.3423 24.2481 22.3423 24.2481C23.1009 23.8865 24.8299 19.3015 25.1169 15.6102C25.1921 14.7028 25.9575 14 26.8664 14C27.7753 14 28.5407 14.7096 28.6159 15.6102C28.9098 19.3015 30.6319 23.8797 31.3905 24.2481C31.3905 24.2481 31.3632 24.2345 31.3085 24.2345V25.5991Z" fill="#2C4A9D"/>
<path d="M32.6752 29.6929H21.0574V24.2345H23.791V25.5991H22.4242V28.3283H31.3084V25.5991H29.9416V24.2345H32.6752V29.6929Z" fill="#2C4A9D"/>
<path d="M26.5246 24.2345H23.791V25.5991H26.5246V24.2345Z" fill="#2C4A9D"/>
<path d="M30.6252 24.2345H28.575V25.5991H30.6252V24.2345Z" fill="#2C4A9D"/>
<path d="M29.9416 42.6564H21.0574V41.2918H28.5748V34.4688H21.0574V33.1042H29.9416V42.6564Z" fill="#2C4A9D"/>
<path d="M36.0922 43.3388C33.4542 43.3388 31.3083 41.1964 31.3083 38.5627C31.3083 36.5841 32.4223 35.1171 33.5089 33.7048C34.3632 32.579 35.1764 31.5214 35.4224 30.2455C35.4839 29.9249 35.7641 29.6929 36.0922 29.6929C36.4202 29.6929 36.7004 29.9249 36.7619 30.2455C37.0079 31.5214 37.8212 32.579 38.6754 33.7048C39.7552 35.1171 40.876 36.5841 40.876 38.5627C40.876 41.1964 38.7301 43.3388 36.0922 43.3388ZM36.0922 32.3334C35.6684 33.118 35.1286 33.8344 34.5955 34.5304C33.6114 35.8199 32.6752 37.0412 32.6752 38.5627C32.6752 40.4459 34.206 41.9742 36.0922 41.9742C37.9783 41.9742 39.5092 40.4459 39.5092 38.5627C39.5092 37.0412 38.5797 35.8199 37.5888 34.5304C37.0558 33.8344 36.5159 33.118 36.0922 32.3334Z" fill="#2C4A9D"/>
</svg>
