<svg width="60" height="60" viewBox="0 0 60 60" fill="none" xmlns="http://www.w3.org/2000/svg">
<circle cx="30" cy="30" r="30" fill="white"/>
<path d="M29.0001 34.7483C27.7561 34.7483 26.5821 34.267 25.7036 33.3821C24.8172 32.505 24.3352 31.3329 24.3352 30.0909C24.3352 29.0741 24.6617 28.1038 25.2682 27.2965L26.5121 28.228C26.1079 28.7714 25.8902 29.4156 25.8902 30.0909C25.8902 30.9215 26.2167 31.6977 26.7998 32.2877C27.3907 32.8698 28.1682 33.1958 29.0001 33.1958C30.7183 33.1958 32.11 31.8064 32.11 30.0909C32.11 28.3755 30.7183 26.986 29.0001 26.986C28.5647 26.986 28.1526 27.0714 27.7561 27.2422L27.1341 25.8217C27.725 25.5656 28.3548 25.4336 29.0001 25.4336C31.5735 25.4336 33.6649 27.5216 33.6649 30.0909C33.6649 32.6602 31.5735 34.7483 29.0001 34.7483Z" fill="#2C4A9D"/>
<path d="M29 40.1818C23.4255 40.1818 18.8928 35.6564 18.8928 30.0909C18.8928 24.5254 23.4255 20 29 20C34.5746 20 39.1073 24.5254 39.1073 30.0909C39.1073 35.6564 34.5746 40.1818 29 40.1818ZM29 21.5524C24.2807 21.5524 20.4478 25.3792 20.4478 30.0909C20.4478 34.8026 24.2807 38.6294 29 38.6294C33.7116 38.6294 37.5523 34.8026 37.5523 30.0909C37.5523 25.3792 33.7116 21.5524 29 21.5524Z" fill="#2C4A9D"/>
<path d="M29.0001 40.1818C18.8229 40.1818 10.8615 30.9836 10.5272 30.5955C10.2784 30.3082 10.2784 29.8813 10.5272 29.5864C10.8615 29.1982 18.8229 20 29.0001 20C39.1772 20 47.1386 29.1982 47.4729 29.5864C47.7217 29.8736 47.7217 30.3005 47.4729 30.5955C47.1386 30.9836 39.1772 40.1818 29.0001 40.1818ZM12.1676 30.0909C13.9714 31.9927 20.8599 38.6294 29.0001 38.6294C37.1558 38.6294 44.0287 31.9927 45.8325 30.0909C44.0209 28.1892 37.1403 21.5524 29.0001 21.5524C20.8443 21.5524 13.9714 28.1892 12.1676 30.0909Z" fill="#2C4A9D"/>
</svg>
