<svg width="60" height="60" viewBox="0 0 60 60" fill="none" xmlns="http://www.w3.org/2000/svg">
<circle cx="30" cy="30" r="30" fill="white"/>
<path d="M37.6442 28.4097H36.2411V24.9075C36.2411 23.4786 34.6696 22.505 32.9998 21.4613C32.5368 21.1742 32.0667 20.88 31.6317 20.5788L31.3301 20.3686V18.6035H32.7332V19.6332C33.063 19.8503 33.3997 20.0605 33.7435 20.2776C35.6588 21.4753 37.6442 22.7081 37.6442 24.9075V28.4097Z" fill="#2C4A9D"/>
<path d="M34.8377 46.6211H20.8063C19.2558 46.6211 18 45.3673 18 43.8193V24.9075C18 22.7081 19.9854 21.4683 21.9007 20.2776C22.2445 20.0675 22.5813 19.8503 22.911 19.6332V18.6035H24.3141V20.3686L24.0125 20.5788C23.5775 20.88 23.1074 21.1741 22.6444 21.4613C20.9747 22.498 19.4031 23.4786 19.4031 24.9075V43.8193C19.4031 44.5898 20.0346 45.2202 20.8063 45.2202H34.8377C35.6094 45.2202 36.2408 44.5898 36.2408 43.8193V41.0176H37.644V43.8193C37.644 45.3673 36.3882 46.6211 34.8377 46.6211Z" fill="#2C4A9D"/>
<path d="M34.1361 19.3039H21.5078V14.4009C21.5078 13.6304 22.1392 13 22.911 13H32.7329C33.5047 13 34.1361 13.6304 34.1361 14.4009V19.3039ZM22.911 17.9031H32.7329V14.4009H22.911V17.9031Z" fill="#2C4A9D"/>
<path d="M25.7169 41.0176H18.7012V39.6167H24.3137V29.8106H18.7012V28.4097H25.7169V41.0176Z" fill="#2C4A9D"/>
<path d="M36.9424 38.2158C35.0061 38.2158 33.4346 36.6468 33.4346 34.7136C33.4346 32.7804 35.0061 31.2114 36.9424 31.2114C38.8788 31.2114 40.4503 32.7804 40.4503 34.7136C40.4503 36.6468 38.8788 38.2158 36.9424 38.2158ZM36.9424 32.6123C35.7848 32.6123 34.8377 33.5579 34.8377 34.7136C34.8377 35.8693 35.7848 36.8149 36.9424 36.8149C38.1 36.8149 39.0471 35.8693 39.0471 34.7136C39.0471 33.5579 38.1 32.6123 36.9424 32.6123Z" fill="#2C4A9D"/>
<path d="M36.9421 40.3171C30.7823 40.3171 28.0181 35.2599 27.9059 35.0428L27.7305 34.7136L27.9059 34.3844C28.0181 34.1673 30.7823 29.1101 36.9421 29.1101C43.1019 29.1101 45.8661 34.1673 45.9783 34.3844L46.1537 34.7136L45.9783 35.0428C45.8661 35.2599 43.1019 40.3171 36.9421 40.3171ZM29.3441 34.7136C30.0246 35.7643 32.431 38.9162 36.9421 38.9162C41.4181 38.9162 43.8596 35.7503 44.5401 34.7136C43.8596 33.6629 41.4532 30.511 36.9421 30.511C32.4661 30.511 30.0246 33.677 29.3441 34.7136Z" fill="#2C4A9D"/>
</svg>
