<svg width="60" height="60" viewBox="0 0 60 60" fill="none" xmlns="http://www.w3.org/2000/svg">
<circle cx="30" cy="30" r="30" fill="white"/>
<path d="M21.0193 36.551C20.681 36.551 20.3428 36.4186 20.0841 36.167C19.6 35.6836 19.5535 34.9088 19.9846 34.399C20.177 34.1738 20.3229 33.7169 20.4754 33.2269C20.7275 32.4323 21.0458 31.4523 21.7886 30.6974L28.4874 24.0625L29.4225 25.0028L22.7238 31.6311C22.2065 32.1542 21.9677 32.9025 21.7356 33.6308C21.5366 34.2467 21.3575 34.8228 20.9994 35.2532C21.3907 34.8956 21.9412 34.6837 22.5182 34.452C23.2279 34.1738 23.9641 33.8825 24.5013 33.3395L31.1403 26.7178L32.0755 27.6515L25.4431 34.2732C24.7135 35.0148 23.7651 35.3856 23.0024 35.6836C22.5315 35.869 22.0871 36.0412 21.855 36.2464C21.6162 36.4517 21.3177 36.551 21.0193 36.551Z" fill="#2C4A9D"/>
<path d="M19.9912 45.7221C18.3398 45.7221 17 44.3382 17 42.6298C17 41.2127 17.8158 40.0274 18.4658 39.0739C18.8372 38.5309 19.1887 38.0211 19.2948 37.6105L19.4208 37.1139H20.5616L20.6876 37.6105C20.7871 38.0144 21.1386 38.5309 21.5167 39.0739C22.1733 40.0274 22.9824 41.2193 22.9824 42.6298C22.9824 44.3382 21.6427 45.7221 19.9912 45.7221ZM19.9912 39.1799C19.8586 39.3918 19.7127 39.6036 19.5601 39.8222C18.9499 40.7095 18.3265 41.6233 18.3265 42.6298C18.3265 43.6031 19.0759 44.3978 19.9912 44.3978C20.9065 44.3978 21.6559 43.6098 21.6559 42.6364C21.6559 41.6299 21.0259 40.7095 20.4223 39.8222C20.2698 39.6036 20.1239 39.3918 19.9912 39.1799Z" fill="#2C4A9D"/>
<path d="M33.5942 28.1216L28.0098 22.4932L30.6694 19.8975H31.9892L37.1028 14.7656C38.1441 13.7393 39.8221 13.7459 40.8501 14.7789L41.3674 15.2954C41.8715 15.7986 42.1434 16.4674 42.1434 17.1759C42.1434 17.8845 41.8648 18.5533 41.3541 19.0499L36.2472 24.1486V25.4729L33.5942 28.1216ZM29.8934 22.5064L33.5942 26.241L34.9207 24.9167V23.5924L40.419 18.103C40.671 17.8514 40.8103 17.5203 40.8169 17.1627C40.8169 16.8051 40.6776 16.474 40.4322 16.2224L39.9149 15.7059C39.4042 15.1894 38.5619 15.1894 38.0446 15.6993L32.5463 21.2218H31.2132L29.8934 22.5064Z" fill="#2C4A9D"/>
<path d="M32.7353 20.0918L31.7974 21.0282L33.7858 23.0134L34.7238 22.077L32.7353 20.0918Z" fill="#2C4A9D"/>
</svg>
