<svg width="106" height="50" viewBox="0 0 106 50" fill="none" xmlns="http://www.w3.org/2000/svg">
<path d="M53 49.5246C38.1755 49.5246 24.9013 43.1414 16.3748 37.7854C7.17002 32.0137 1.50183 26.2908 1.28382 26.0463L0 24.7745L1.28382 23.4783C1.52605 23.2338 7.19424 17.5354 16.3748 11.7392C24.9013 6.38317 38.1755 0 53 0C59.0558 0 65.3537 1.05163 71.7002 3.1549C73.3958 3.7174 75.1156 4.35327 76.8355 5.06251L75.4548 8.46198C73.8318 7.77719 72.1846 7.16578 70.5617 6.62774C64.5786 4.67121 58.6682 3.66849 53 3.66849C39.0718 3.66849 26.4758 9.73372 18.3853 14.7962C12.0631 18.7582 7.41225 22.7691 5.23218 24.7501C7.41225 26.7311 12.0631 30.7419 18.3853 34.7039C26.5 39.7909 39.0718 45.8561 53 45.8561C66.9282 45.8561 79.5242 39.7909 87.6147 34.7039C93.9369 30.7419 98.5877 26.7311 100.768 24.7501C98.4909 22.6713 93.4767 18.3669 86.67 14.2093L88.5594 11.0788C98.3697 17.0707 104.45 23.2093 104.716 23.4539L106 24.7501L104.716 26.0463C104.474 26.2908 98.8058 31.9892 89.6252 37.7854C81.0987 43.1414 67.8245 49.5246 53 49.5246Z" fill="#2C4A9D"/>
<path d="M82.5522 11.862C81.4137 11.2506 80.2752 10.6637 79.1367 10.1256L80.687 6.82397C81.8739 7.38648 83.0608 7.99789 84.2478 8.63376L82.5522 11.862Z" fill="#2C4A9D"/>
<path d="M53.0009 43.0435C43.021 43.0435 34.9062 34.8506 34.9062 24.7744C34.9062 14.6983 43.021 6.50537 53.0009 6.50537C55.8592 6.50537 58.7175 7.19016 61.2367 8.51081C62.351 9.09777 63.4168 9.80701 64.4099 10.6141L62.1087 13.451C61.3336 12.8152 60.4616 12.2527 59.5653 11.788C57.5063 10.7364 55.302 10.1983 52.9766 10.1983C45.0073 10.1983 38.5155 16.7527 38.5155 24.7989C38.5155 32.8451 45.0073 39.3995 52.9766 39.3995C60.946 39.3995 67.4378 32.8451 67.4378 24.7989C67.4378 22.1331 66.7111 19.5163 65.3546 17.2418L68.4552 15.3342C70.1508 18.1712 71.0712 21.4483 71.0712 24.7989C71.0955 34.8261 62.9808 43.0435 53.0009 43.0435Z" fill="#2C4A9D"/>
<path d="M63.8759 15.1387C63.343 14.5273 62.7616 13.9648 62.1318 13.4267L64.433 10.5898C65.2082 11.2257 65.9591 11.9594 66.6131 12.7175L63.8759 15.1387Z" fill="#2C4A9D"/>
<path d="M53.0012 33.8726C48.0355 33.8726 43.9902 29.7883 43.9902 24.7747C43.9902 19.7611 48.0355 15.6769 53.0012 15.6769C57.9669 15.6769 62.0122 19.7611 62.0122 24.7747C62.0122 29.7883 57.9669 33.8726 53.0012 33.8726ZM53.0012 19.3454C50.046 19.3454 47.6237 21.791 47.6237 24.7747C47.6237 27.7584 50.046 30.2041 53.0012 30.2041C55.9564 30.2041 58.3787 27.7584 58.3787 24.7747C58.3787 21.7666 55.9564 19.3454 53.0012 19.3454Z" fill="#2C4A9D"/>
<path d="M14.4127 26.3641H3.10059V23.1847H13.1047L18.2642 17.9021L25.7249 16.0679L26.4758 19.1494L19.8871 20.7635L14.4127 26.3641Z" fill="#2C4A9D"/>
<path d="M27.0825 31.7937H17.5144V25.1415L15.8672 21.9132L18.6528 20.4703L20.6633 24.3833V28.6143H27.0825V31.7937Z" fill="#2C4A9D"/>
<path d="M23.6526 23.356L18.334 26.2279L19.819 29.0315L25.1377 26.1596L23.6526 23.356Z" fill="#2C4A9D"/>
<path d="M102.9 26.3644H94.906L90.4005 21.0328L78.3859 22.916L74.1953 16.5573L76.8356 14.7964L79.912 19.4676L91.6359 17.6334L96.3594 23.185H102.9V26.3644Z" fill="#2C4A9D"/>
<path d="M86.4282 31.7936H78.1924V28.6142H84.4662L86.0649 25.3126V19.3452H89.2139V26.0707L86.4282 31.7936Z" fill="#2C4A9D"/>
</svg>
