<svg width="118" height="63" viewBox="0 0 118 63" fill="none" xmlns="http://www.w3.org/2000/svg">
<path d="M55.9324 52.3309C40.2877 52.3309 26.279 45.6989 17.2808 40.1342C7.56672 34.1375 1.58492 28.1915 1.35485 27.9375L0 26.6161L1.35485 25.2694C1.61049 25.0153 7.59229 19.0948 17.2808 13.0727C26.279 7.50794 40.2877 0.875977 55.9324 0.875977C62.3232 0.875977 68.9697 1.9686 75.6672 4.15385C77.4567 4.73827 79.2717 5.39893 81.0866 6.13581L79.6295 9.66778C77.9168 8.9563 76.1785 8.32106 74.4658 7.76204C68.1772 5.72926 61.9398 4.68745 55.9324 4.68745C41.2335 4.68745 27.9406 10.9891 19.3769 16.2489C12.7049 20.3653 7.79679 24.5325 5.4961 26.5907C7.79679 28.6489 12.7049 32.8161 19.3769 36.9325C27.9406 42.2178 41.2335 48.5194 55.9324 48.5194C70.6313 48.5194 83.9242 42.2178 92.4879 36.9325C99.1599 32.8161 104.068 28.6489 106.369 26.5907C103.966 24.4309 98.6742 19.9588 91.4909 15.6391L93.4848 12.3866C103.838 18.612 110.254 24.9899 110.536 25.244L111.89 26.5907L110.536 27.9375C110.28 28.1915 104.298 34.112 94.6096 40.1342C85.5858 45.6989 71.5771 52.3309 55.9324 52.3309Z" fill="#2C4A9D"/>
<path d="M87.1191 13.1998C85.9176 12.5645 84.7161 11.9547 83.5146 11.3957L85.1507 7.96533C86.4033 8.54976 87.6559 9.185 88.9085 9.84566L87.1191 13.1998Z" fill="#2C4A9D"/>
<path d="M66.7711 18.7135C62.3231 18.434 58.1307 18.3832 54.194 18.4848C52.1489 20.2127 50.8452 22.8045 50.8452 25.6758C50.8452 30.8848 55.1143 35.1283 60.3548 35.1283C65.5952 35.1283 69.8643 30.8848 69.8643 25.6758C69.8643 22.9061 68.6628 20.4414 66.7711 18.7135ZM60.3548 31.3168C57.236 31.3168 54.6797 28.7758 54.6797 25.6758C54.6797 22.5758 57.236 20.0348 60.3548 20.0348C63.4735 20.0348 66.0298 22.5758 66.0298 25.6758C66.0298 28.7758 63.4735 31.3168 60.3548 31.3168Z" fill="#2C4A9D"/>
<path d="M74.2102 19.3489C75.1305 21.3309 75.5906 23.4653 75.5906 25.6759C75.5906 34.0358 68.7396 40.8456 60.3293 40.8456C51.919 40.8456 45.0681 34.0358 45.0681 25.6759C45.0681 23.2112 45.656 20.8989 46.7041 18.8407C45.1959 18.9423 43.7388 19.0694 42.3584 19.2218C41.617 21.2292 41.208 23.4145 41.208 25.6759C41.208 36.1448 49.7717 44.6571 60.3038 44.6571C70.8358 44.6571 79.3995 36.1448 79.3995 25.6759C79.3995 23.7194 79.0928 21.7628 78.5048 19.9079C77.0733 19.7046 75.6417 19.5014 74.2102 19.3489Z" fill="#2C4A9D"/>
<path d="M94.3282 21.1274C81.0609 17.3159 67.2312 15.3848 53.1202 15.3848C52.1233 15.3848 51.1263 15.3848 50.1293 15.4102C38.7026 15.6389 29.5254 17.0618 24.106 18.0274C23.6969 18.1036 23.3135 18.1798 22.93 18.2307C17.1016 19.2979 11.2732 20.6954 5.54703 22.3979L2.19824 27.5053C8.92138 25.3708 15.7979 23.6684 22.7255 22.3979C33.0531 20.5176 60.5336 15.5372 93.6124 25.1421C98.0093 26.4126 102.33 27.9118 106.599 29.6143L108.465 26.1077C103.838 24.202 99.1085 22.5503 94.3282 21.1274Z" fill="#2C4A9D"/>
<path d="M115.443 30.2749L114.881 30.3511C112.861 32.6888 108.541 37.4659 102.457 42.3954C94.6602 48.7479 82.3131 56.7011 67.742 58.6069C56.4175 60.0806 45.4509 57.6921 36.8105 54.6175L31.0332 56.4724C40.6194 60.4364 54.1168 64.2224 68.2533 62.3929C83.7446 60.3601 96.7819 51.9749 104.988 45.2921C111.481 40.0069 115.98 35.0011 117.999 32.6126L115.443 30.2749Z" fill="#2C4A9D"/>
</svg>
