<svg width="112" height="81" viewBox="0 0 112 81" fill="none" xmlns="http://www.w3.org/2000/svg">
<path d="M56 52.8657C40.3364 52.8657 26.3108 46.1648 17.3016 40.5422C7.57587 34.4832 1.58684 28.4755 1.35649 28.2187L0 26.8837L1.35649 25.523C1.61243 25.2662 7.60146 19.2842 17.3016 13.1995C26.3108 7.57687 40.3364 0.875977 56 0.875977C62.3985 0.875977 69.053 1.97996 75.7587 4.18791C77.5503 4.77841 79.3675 5.44594 81.1846 6.19048L79.7258 9.75916C78.011 9.04029 76.2706 8.39844 74.5558 7.83361C68.234 5.7797 61.989 4.72707 56 4.72707C41.2834 4.72707 27.9744 11.0942 19.426 16.4087C12.7459 20.5679 7.83181 24.7784 5.52834 26.858C7.83181 28.9376 12.7459 33.1481 19.426 37.3073C28 42.6475 41.2834 49.0146 56 49.0146C70.7166 49.0146 84.0256 42.6475 92.5741 37.3073C99.2541 33.1481 104.168 28.9376 106.472 26.858C104.066 24.6757 98.7678 20.1571 91.5759 15.7925L93.5722 12.5063C103.938 18.7964 110.362 25.2405 110.644 25.4973L112 26.858L110.644 28.2187C110.388 28.4755 104.399 34.4575 94.6984 40.5422C85.6892 46.1648 71.6636 52.8657 56 52.8657Z" fill="#2C4A9D"/>
<path d="M87.2245 13.3279C86.0216 12.686 84.8186 12.0699 83.6157 11.505L85.2537 8.03906C86.5079 8.62956 87.762 9.27141 89.0161 9.93893L87.2245 13.3279Z" fill="#2C4A9D"/>
<path d="M56.0002 46.0621C45.4554 46.0621 36.8813 37.4613 36.8813 26.8836C36.8813 16.306 45.4554 7.7052 56.0002 7.7052C59.0203 7.7052 62.0404 8.42407 64.7022 9.81046C65.8795 10.4266 67.0057 11.1712 68.055 12.0184L65.6236 14.9966C64.8046 14.3291 63.8832 13.7386 62.9362 13.2508C60.7607 12.1468 58.4316 11.582 55.9746 11.582C47.5541 11.582 40.6949 18.4626 40.6949 26.9093C40.6949 35.356 47.5541 42.2366 55.9746 42.2366C64.3951 42.2366 71.2543 35.356 71.2543 26.9093C71.2543 24.1108 70.4865 21.3637 69.0532 18.9761L72.3293 16.9735C74.1208 19.9517 75.0934 23.392 75.0934 26.9093C75.119 37.4356 66.545 46.0621 56.0002 46.0621Z" fill="#2C4A9D"/>
<path d="M67.4917 16.7683C66.9286 16.1264 66.3144 15.5359 65.6489 14.9711L68.0804 11.9929C68.8994 12.6604 69.6928 13.4307 70.3838 14.2266L67.4917 16.7683Z" fill="#2C4A9D"/>
<path d="M56.0005 36.4343C50.7537 36.4343 46.4795 32.1467 46.4795 26.8836C46.4795 21.6204 50.7537 17.3329 56.0005 17.3329C61.2473 17.3329 65.5216 21.6204 65.5216 26.8836C65.5216 32.1467 61.2473 36.4343 56.0005 36.4343ZM56.0005 21.184C52.878 21.184 50.3186 23.7514 50.3186 26.8836C50.3186 30.0158 52.878 32.5832 56.0005 32.5832C59.123 32.5832 61.6824 30.0158 61.6824 26.8836C61.6824 23.7257 59.123 21.184 56.0005 21.184Z" fill="#2C4A9D"/>
<path d="M70.3839 72.1212C65.0859 72.1212 61.0677 70.8632 60.0951 67.7053C58.2523 61.5692 70.0768 54.9453 81.8245 51.4023C93.5978 47.8593 107.086 46.8324 108.929 52.9941C109.517 54.971 108.98 58.1803 103.016 62.2111C98.9982 64.9325 93.3931 67.4485 87.1993 69.2971C81.4918 70.9916 75.3748 72.1212 70.3839 72.1212ZM98.6655 52.6604C94.2633 52.6604 88.7349 53.6103 83.0274 55.3304C77.2176 57.0763 71.9964 59.4126 68.3108 61.903C64.7532 64.3163 63.883 66.0622 64.0366 66.5243C64.1646 66.9864 65.8538 67.9877 70.1536 68.0134C70.2304 68.0134 70.3327 68.0134 70.4095 68.0134C74.8117 68.0134 80.3401 67.0634 86.0476 65.3433C91.8574 63.5975 97.0786 61.2611 100.764 58.7708C104.322 56.3574 105.192 54.6116 105.038 54.1494C104.91 53.6873 103.221 52.686 98.9214 52.6604C98.819 52.6604 98.7422 52.6604 98.6655 52.6604Z" fill="#2C4A9D"/>
<path d="M105.09 54.4061C106.139 58.3086 105.192 62.5961 102.377 66.4986C99.3825 70.6834 94.6476 73.8927 89.0936 75.5871C83.5141 77.2559 77.8066 77.1789 73.0205 75.3561C68.9254 73.79 65.9565 71.1455 64.4977 67.7823L60.5562 68.9889C62.3733 73.5846 66.2381 77.1789 71.5616 79.2072C74.5306 80.3368 77.781 80.9016 81.1339 80.9016C84.154 80.9016 87.2253 80.4395 90.271 79.5152C96.6951 77.5897 102.172 73.8156 105.704 68.8862C109.236 63.9568 110.414 58.4883 109.057 53.3792L105.09 54.4061Z" fill="#2C4A9D"/>
</svg>
