<svg width="115" height="104" viewBox="0 0 115 104" fill="none" xmlns="http://www.w3.org/2000/svg">
<path d="M52.7448 49.385C38.0002 49.385 24.7974 43.1327 16.3168 37.8866C7.16167 32.2332 1.52401 26.6277 1.30718 26.3881L0.0302734 25.1425L1.30718 23.8728C1.5481 23.6333 7.18576 18.0518 16.3168 12.3744C24.7974 7.12825 38.0002 0.875977 52.7448 0.875977C58.7679 0.875977 65.032 1.90604 71.3443 3.96618C73.0307 4.51715 74.7413 5.13998 76.4519 5.83468L75.0786 9.16443C73.4644 8.49369 71.8261 7.89481 70.2119 7.3678C64.2851 5.45139 58.4066 4.46924 52.7448 4.46924C38.8916 4.46924 26.3634 10.4101 18.2924 15.3688C12.0043 19.2495 7.37851 23.1781 5.21017 25.1185C7.37851 27.0589 12.0043 30.9875 18.2924 34.8682C26.3634 39.8509 38.8916 45.7917 52.7448 45.7917C66.598 45.7917 79.1262 39.8509 87.1972 34.8682C93.4853 30.9875 98.1111 27.0589 100.279 25.1185C98.0147 23.0823 93.0276 18.8662 86.2576 14.7939L88.1368 11.7276C97.8943 17.5966 103.941 23.6093 104.207 23.8489L105.483 25.1185L104.207 26.3881C103.966 26.6277 98.3279 32.2092 89.1968 37.8866C80.6922 43.1327 67.4894 49.385 52.7448 49.385Z" fill="#2C4A9D"/>
<path d="M82.1373 12.4943C81.0049 11.8954 79.8726 11.3205 78.7402 10.7935L80.2822 7.55957C81.4627 8.11054 82.6432 8.70941 83.8238 9.33224L82.1373 12.4943Z" fill="#2C4A9D"/>
<path d="M65.8749 17.6923C61.6828 17.4288 57.7316 17.3809 54.0214 17.4767C52.094 19.1056 50.8652 21.549 50.8652 24.256C50.8652 29.1668 54.8887 33.1673 59.8277 33.1673C64.7666 33.1673 68.7901 29.1668 68.7901 24.256C68.7901 21.6449 67.6818 19.3212 65.8749 17.6923ZM59.8277 29.574C56.8884 29.574 54.4791 27.1785 54.4791 24.256C54.4791 21.3335 56.8884 18.9379 59.8277 18.9379C62.767 18.9379 65.1762 21.3335 65.1762 24.256C65.1762 27.1785 62.7911 29.574 59.8277 29.574Z" fill="#2C4A9D"/>
<path d="M69.9707 18.2911C70.838 20.1596 71.2717 22.1718 71.2717 24.2559C71.2717 32.1371 64.8149 38.5571 56.8884 38.5571C48.962 38.5571 42.5052 32.1371 42.5052 24.2559C42.5052 21.9323 43.0593 19.7524 44.0471 17.812C42.6256 17.9078 41.2524 18.0276 39.9514 18.1713C39.2527 20.0638 38.8672 22.1239 38.8672 24.2559C38.8672 34.1254 46.9382 42.1504 56.8643 42.1504C66.7905 42.1504 74.8615 34.1254 74.8615 24.2559C74.8615 22.4114 74.5724 20.5668 74.0182 18.8181C72.6691 18.6265 71.3199 18.4348 69.9707 18.2911Z" fill="#2C4A9D"/>
<path d="M88.9321 19.9683C76.4281 16.375 63.394 14.5544 50.0949 14.5544C49.1553 14.5544 48.2157 14.5544 47.2761 14.5784C36.5067 14.794 27.8575 16.1355 22.7499 17.0458C22.3644 17.1176 22.003 17.1895 21.6416 17.2374C16.1485 18.2435 10.6554 19.5611 5.25867 21.166L2.10254 25.981C8.43888 23.9688 14.9198 22.3638 21.4489 21.166C31.1823 19.3934 57.0818 14.6982 88.2576 23.7532C92.4015 24.9509 96.4731 26.3643 100.497 27.9693L102.255 24.6635C97.8946 22.8669 93.4374 21.3098 88.9321 19.9683Z" fill="#2C4A9D"/>
<path d="M89.39 82.1794C81.4876 84.6228 72.6697 78.9694 69.7063 69.5311C66.743 60.1168 70.7664 50.4389 78.6447 47.9955C86.547 45.5521 95.3649 51.2055 98.3283 60.6438C101.292 70.0821 97.2923 79.736 89.39 82.1794ZM79.6566 51.2294C73.5371 53.1219 70.5255 60.9073 72.9347 68.549C75.344 76.1906 82.2586 80.8858 88.3781 78.9694C94.4976 77.053 97.5092 69.2916 95.0999 61.6499C92.6906 54.0082 85.7761 49.313 79.6566 51.2294Z" fill="#2C4A9D"/>
<path d="M76.6446 102.925C76.5241 102.589 76.4037 102.278 76.3073 101.942L65.6825 68.1658C62.6468 58.5359 68.0676 48.2352 77.7769 45.2169C87.4621 42.1986 97.8219 47.5884 100.858 57.2423L111.482 91.019C111.579 91.3543 111.675 91.6897 111.772 92.0251L115 91.019C114.904 90.6836 114.807 90.3482 114.711 90.0129L104.086 56.2362C100.496 44.8336 88.2331 38.4376 76.765 42.0069C65.297 45.5762 58.8643 57.7693 62.4541 69.1719L73.0789 102.949C73.1753 103.284 73.2957 103.619 73.4162 103.931L76.6446 102.925Z" fill="#2C4A9D"/>
</svg>
