<svg width="122" height="65" viewBox="0 0 122 65" fill="none" xmlns="http://www.w3.org/2000/svg">
<path d="M68.7539 49.0379C54.1233 49.0379 41.0228 42.8334 32.6078 37.6274C23.5235 32.0172 17.9294 26.4546 17.7143 26.2169L16.4473 24.9569L17.7143 23.697C17.9534 23.4593 23.5474 17.9205 32.6078 12.2865C41.0228 7.08045 54.1233 0.875977 68.7539 0.875977C74.7304 0.875977 80.946 1.89817 87.2094 3.94256C88.8829 4.48931 90.5802 5.10738 92.2775 5.79677L90.9149 9.10106C89.3132 8.43545 87.6875 7.84115 86.0858 7.31817C80.2049 5.44019 74.3479 4.46554 68.7539 4.46554C55.0079 4.46554 42.5767 10.361 34.592 15.2818C28.3525 19.1328 23.7625 23.0314 21.611 24.9569C23.7625 26.8825 28.3525 30.7811 34.592 34.6321C42.6006 39.5767 55.0079 45.4721 68.7539 45.4721C82.4999 45.4721 94.9311 39.5767 102.916 34.6321C109.155 30.7811 113.745 26.8825 115.897 24.9569C113.65 22.9363 108.701 18.7525 101.983 14.7112L103.848 11.6684C113.554 17.4926 119.554 23.4593 119.793 23.7208L121.061 24.9807L119.793 26.2406C119.554 26.4783 113.96 32.0172 104.9 37.6512C96.485 42.8334 83.3844 49.0379 68.7539 49.0379Z" fill="#2C4A9D"/>
<path d="M97.9201 12.4292C96.7965 11.8349 95.6729 11.2644 94.5493 10.7414L96.0793 7.53217C97.2507 8.07892 98.4221 8.67322 99.5935 9.29129L97.9201 12.4292Z" fill="#2C4A9D"/>
<path d="M68.7539 42.7379C58.9046 42.7379 50.896 34.7743 50.896 24.9803C50.896 15.1863 58.9046 7.22266 68.7539 7.22266C71.5748 7.22266 74.3957 7.88827 76.882 9.17195C77.9816 9.74248 79.0335 10.4319 80.0137 11.2163L77.7426 13.9739C76.9776 13.3558 76.117 12.8091 75.2324 12.3574C73.2004 11.3352 71.025 10.8122 68.73 10.8122C60.8649 10.8122 54.458 17.1831 54.458 25.0041C54.458 32.825 60.8649 39.1959 68.73 39.1959C76.5951 39.1959 83.0019 32.825 83.0019 25.0041C83.0019 22.4129 82.2847 19.8693 80.946 17.6585L84.006 15.8043C85.6794 18.5619 86.5878 21.7473 86.5878 25.0041C86.6117 34.7505 78.6032 42.7379 68.7539 42.7379Z" fill="#2C4A9D"/>
<path d="M79.4878 15.6145C78.9619 15.0202 78.3882 14.4735 77.7666 13.9505L80.0377 11.1929C80.8027 11.811 81.5438 12.5242 82.1892 13.2611L79.4878 15.6145Z" fill="#2C4A9D"/>
<path d="M68.7534 33.8238C63.8527 33.8238 59.8604 29.8538 59.8604 24.9806C59.8604 20.1074 63.8527 16.1375 68.7534 16.1375C73.6542 16.1375 77.6465 20.1074 77.6465 24.9806C77.6465 29.8538 73.6542 33.8238 68.7534 33.8238ZM68.7534 19.7032C65.8369 19.7032 63.4463 22.0804 63.4463 24.9806C63.4463 27.8808 65.8369 30.258 68.7534 30.258C71.67 30.258 74.0606 27.8808 74.0606 24.9806C74.0606 22.0567 71.67 19.7032 68.7534 19.7032Z" fill="#2C4A9D"/>
<path d="M12.5796 51.2902L10.0439 53.8115L13.8981 57.644L16.4337 55.1226L12.5796 51.2902Z" fill="#2C4A9D"/>
<path d="M9.32361 24.981H5.02051V28.5467H9.32361V24.981Z" fill="#2C4A9D"/>
<path d="M33.5411 54.458H30.0747V60.401H33.5411V54.458Z" fill="#2C4A9D"/>
<path d="M54.1203 57.6534L49.6914 62.0574L52.227 64.5787L56.6559 60.1748L54.1203 57.6534Z" fill="#2C4A9D"/>
<path d="M88.4048 57.8097H84.8188V64.4183H88.4048V57.8097Z" fill="#2C4A9D"/>
<path d="M24.7807 41.706L22.2451 44.2274L26.0992 48.0598L28.6348 45.5385L24.7807 41.706Z" fill="#2C4A9D"/>
<path d="M3.58592 40.5751H0V44.854H3.58592V40.5751Z" fill="#2C4A9D"/>
</svg>
