<svg width="150" height="75" viewBox="0 0 150 75" fill="none" xmlns="http://www.w3.org/2000/svg">
<path d="M91.1824 56.0286C74.7308 56.0286 59.9996 48.92 50.5373 42.9554C40.3222 36.5277 34.0319 30.1545 33.79 29.8821L32.3652 28.4386L33.79 26.9951C34.0588 26.7228 40.3491 20.3768 50.5373 13.9219C59.9996 7.95721 74.7308 0.848633 91.1824 0.848633C97.9029 0.848633 104.892 2.01978 111.935 4.36207C113.817 4.98849 115.725 5.69663 117.634 6.48647L116.102 10.2723C114.301 9.50966 112.473 8.82876 110.672 8.22957C104.032 6.07793 97.4728 4.96126 91.1824 4.96126C75.7254 4.96126 61.747 11.7158 52.7685 17.3536C45.7523 21.7658 40.591 26.2325 38.1717 28.4386C40.591 30.6447 45.7523 35.1114 52.7685 39.5236C61.7738 45.1887 75.7254 51.9432 91.1824 51.9432C106.639 51.9432 120.618 45.1887 129.596 39.5236C136.613 35.1114 141.774 30.6447 144.193 28.4386C141.666 26.1236 136.102 21.33 128.548 16.6999L130.645 13.2137C141.532 19.8865 148.279 26.7228 148.575 26.9951L150 28.4386L148.575 29.8821C148.306 30.1545 142.016 36.5005 131.828 42.9554C122.365 48.92 107.607 56.0286 91.1824 56.0286Z" fill="#2C4A9D"/>
<path d="M123.979 14.0857C122.715 13.4048 121.452 12.7511 120.188 12.1519L121.909 8.4751C123.226 9.10152 124.543 9.78242 125.861 10.4906L123.979 14.0857Z" fill="#2C4A9D"/>
<path d="M91.1832 48.8111C80.1079 48.8111 71.1025 39.687 71.1025 28.4658C71.1025 17.2446 80.1079 8.12061 91.1832 8.12061C94.3552 8.12061 97.5273 8.88321 100.323 10.354C101.56 11.0076 102.742 11.7975 103.844 12.6962L101.291 15.8556C100.431 15.1475 99.4628 14.521 98.4681 14.0036C96.1832 12.8324 93.737 12.2332 91.1563 12.2332C82.3122 12.2332 75.1079 19.5325 75.1079 28.4931C75.1079 37.4537 82.3122 44.7529 91.1563 44.7529C100 44.7529 107.205 37.4537 107.205 28.4931C107.205 25.5244 106.398 22.6101 104.893 20.0772L108.334 17.9528C110.215 21.1121 111.237 24.7618 111.237 28.4931C111.264 39.6598 102.258 48.8111 91.1832 48.8111Z" fill="#2C4A9D"/>
<path d="M103.252 17.7353C102.66 17.0544 102.015 16.428 101.316 15.8288L103.87 12.6694C104.73 13.3776 105.564 14.1946 106.29 15.039L103.252 17.7353Z" fill="#2C4A9D"/>
<path d="M91.1826 38.5975C85.6719 38.5975 81.1826 34.0491 81.1826 28.4657C81.1826 22.8824 85.6719 18.334 91.1826 18.334C96.6934 18.334 101.183 22.8824 101.183 28.4657C101.183 34.0491 96.6934 38.5975 91.1826 38.5975ZM91.1826 22.4194C87.9031 22.4194 85.2149 25.143 85.2149 28.4657C85.2149 31.7885 87.9031 34.5121 91.1826 34.5121C94.4622 34.5121 97.1504 31.7885 97.1504 28.4657C97.1504 25.1157 94.4622 22.4194 91.1826 22.4194Z" fill="#2C4A9D"/>
<path d="M0.430672 67.1954C-0.590833 61.4214 0.215618 56.9547 2.82315 53.9316C5.16186 51.2352 8.09196 50.6632 10.9414 50.1185C13.0113 49.71 15.1887 49.3014 17.3662 48.0214C21.1027 45.8425 23.9522 41.6754 25.7801 35.6562L29.893 36.9363C27.6887 44.0994 24.1941 49.0836 19.4629 51.8344C16.6672 53.4685 14.0328 53.9588 11.721 54.4218C9.22099 54.9121 7.39304 55.2661 6.04895 56.8186C4.3554 58.7795 3.89841 62.0206 4.67798 66.4328L0.430672 67.1954Z" fill="#2C4A9D"/>
<path d="M15.4304 66.8139L11.7207 64.635C13.8712 60.8765 16.6401 58.1801 19.9465 56.6549C24.1938 54.6939 28.1723 55.2114 31.3444 55.6472C34.1938 56.0285 35.9949 56.2191 37.339 55.2386C39.4089 53.7407 40.1078 49.628 39.4089 43.3638L43.6831 42.8735C44.597 51.0443 43.3605 56.2464 39.839 58.7793C37.0433 60.7948 33.8712 60.3862 30.7798 59.9777C27.8766 59.5964 24.8659 59.1878 21.7207 60.6314C19.2476 61.7753 17.1239 63.8452 15.4304 66.8139Z" fill="#2C4A9D"/>
<path d="M26.9886 74.8761L22.6875 74.522C23.0638 69.7829 24.5423 66.7053 27.0692 65.398C30.2413 63.7638 33.3864 65.4797 36.4509 67.1683C39.0316 68.5846 41.6929 70.0553 44.3273 69.565C47.2843 68.9931 50.0262 65.9427 52.4456 60.4683L56.3703 62.2386C53.3327 69.102 49.5423 72.9968 45.1337 73.8411C41.0208 74.6309 37.3649 72.6155 34.4348 71.0086C32.2574 69.8102 30.2144 68.6935 29.0585 69.2927C27.9563 69.8646 27.2305 71.8529 26.9886 74.8761Z" fill="#2C4A9D"/>
</svg>
