<svg width="52" height="52" viewBox="0 0 52 52" fill="none" xmlns="http://www.w3.org/2000/svg">
<path d="M35.1465 31.3878V27.4578C35.1465 27.2095 35.014 26.98 34.7989 26.8559L31.3959 24.8912C31.4464 24.6914 31.4735 24.4824 31.4735 24.2671C31.4735 23.1028 30.6884 22.119 29.62 21.8156V17.8858C29.62 17.6374 29.4875 17.408 29.2724 17.2838L23.746 14.0931C23.531 13.969 23.266 13.969 23.051 14.0931L19.6463 16.0588C19.1871 15.6127 18.5613 15.3372 17.872 15.3372C16.4667 15.3372 15.3234 16.4805 15.3234 17.8858C15.3234 19.0501 16.1085 20.0338 17.1769 20.3372V24.2672C17.1769 24.5155 17.3094 24.745 17.5245 24.8691L22.7034 27.8592V31.3878C21.635 31.6912 20.8499 32.675 20.8499 33.8393C20.8499 35.2446 21.9932 36.3879 23.3985 36.3879C24.0878 36.3879 24.7136 36.1124 25.1728 35.6663L28.5774 37.6319C28.6849 37.694 28.8049 37.725 28.9249 37.725C29.045 37.725 29.165 37.694 29.2725 37.6319L32.6771 35.6663C33.1363 36.1124 33.7622 36.3879 34.4514 36.3879C35.8567 36.3879 37 35.2446 37 33.8393C37 32.6749 36.2149 31.6912 35.1465 31.3878ZM30.0834 24.2671C30.0834 24.9059 29.5637 25.4256 28.9249 25.4256C28.2862 25.4256 27.7665 24.9059 27.7665 24.2671C27.7665 23.6284 28.2862 23.1087 28.9249 23.1087C29.5637 23.1087 30.0834 23.6284 30.0834 24.2671ZM16.7136 17.8858C16.7136 17.247 17.2333 16.7273 17.8721 16.7273C18.5108 16.7273 19.0305 17.247 19.0305 17.8858C19.0305 18.5245 18.5108 19.0442 17.8721 19.0442C17.2333 19.0442 16.7136 18.5245 16.7136 17.8858ZM18.5671 23.8658V20.3372C19.6355 20.0338 20.4206 19.0501 20.4206 17.8858C20.4206 17.6705 20.3935 17.4615 20.3431 17.2617L23.3985 15.4977L28.2299 18.2871V21.8157C27.1615 22.1191 26.3764 23.1028 26.3764 24.2672C26.3764 24.4824 26.4035 24.6914 26.454 24.8913L23.3985 26.6553L18.5671 23.8658ZM23.3985 34.9977C22.7597 34.9977 22.2401 34.478 22.2401 33.8392C22.2401 33.2005 22.7597 32.6808 23.3985 32.6808C24.0373 32.6808 24.5569 33.2005 24.5569 33.8392C24.5569 34.478 24.0373 34.9977 23.3985 34.9977ZM31.9028 33.8392C31.9028 34.0545 31.9299 34.2635 31.9804 34.4633L28.9249 36.2274L25.8695 34.4633C25.92 34.2635 25.9471 34.0545 25.9471 33.8392C25.9471 32.6749 25.162 31.6912 24.0936 31.3878V27.8591L27.1506 26.0941C27.6098 26.5402 28.2357 26.8157 28.9249 26.8157C29.6142 26.8157 30.24 26.5402 30.6993 26.0941L33.7564 27.8591V31.3877C32.6879 31.6912 31.9028 32.6749 31.9028 33.8392ZM34.4514 34.9977C33.8126 34.9977 33.2929 34.478 33.2929 33.8392C33.2929 33.2005 33.8126 32.6808 34.4514 32.6808C35.0902 32.6808 35.6098 33.2005 35.6098 33.8392C35.6098 34.478 35.0902 34.9977 34.4514 34.9977Z" fill="white"/>
</svg>
