<svg width="50" height="53" viewBox="0 0 50 53" fill="none" xmlns="http://www.w3.org/2000/svg">
<path d="M18.108 38.7237L23.3657 38.7237C23.698 38.7237 24.005 38.5401 24.171 38.242L26.7995 33.5246C27.0669 33.5945 27.3464 33.6321 27.6345 33.6321C29.1922 33.6321 30.5082 32.5437 30.9141 31.0627L36.1717 31.0627C36.5039 31.0627 36.8109 30.879 36.977 30.5809L41.2457 22.9199C41.4118 22.6218 41.4118 22.2545 41.2457 21.9564L38.6159 17.2368C39.2127 16.6002 39.5813 15.7326 39.5813 14.7771C39.5813 12.829 38.0518 11.2441 36.1717 11.2441C34.614 11.2441 33.298 12.3325 32.892 13.8136L27.6343 13.8136C27.3021 13.8136 26.9951 13.9972 26.829 14.2953L22.8288 21.4746L18.108 21.4746C17.7021 19.9936 16.386 18.9052 14.8283 18.9052C12.9482 18.9052 11.4187 20.4901 11.4187 22.4382C11.4187 23.3937 11.7872 24.2613 12.3841 24.8978L9.75435 29.6174C9.67128 29.7664 9.62974 29.9328 9.62974 30.0992C9.62974 30.2656 9.67128 30.4319 9.75435 30.581L12.3841 35.3006C11.7873 35.9372 11.4187 36.8048 11.4187 37.7603C11.4187 39.7083 12.9482 41.2932 14.8283 41.2932C16.3861 41.2932 17.7021 40.2048 18.108 38.7237ZM27.6344 31.7051C26.7798 31.7051 26.0846 30.9847 26.0846 30.0992C26.0846 29.2137 26.7798 28.4933 27.6344 28.4933C28.489 28.4933 29.1842 29.2137 29.1842 30.0992C29.1842 30.9847 28.489 31.7051 27.6344 31.7051ZM36.1717 13.1713C37.0263 13.1713 37.7215 13.8917 37.7215 14.7772C37.7215 15.6627 37.0263 16.3831 36.1717 16.3831C35.3171 16.3831 34.6219 15.6627 34.6219 14.7772C34.6219 13.8917 35.3171 13.1713 36.1717 13.1713ZM28.1713 15.7407L32.892 15.7407C33.2979 17.2218 34.614 18.3101 36.1717 18.3101C36.4597 18.3101 36.7393 18.2726 37.0066 18.2026L39.3666 22.4382L35.6348 29.1357L30.914 29.1357C30.5081 27.6546 29.192 26.5663 27.6343 26.5663C27.3464 26.5663 27.0667 26.6039 26.7994 26.6738L24.4394 22.4382L28.1713 15.7407ZM13.2785 22.4382C13.2785 21.5527 13.9738 20.8323 14.8284 20.8323C15.6829 20.8323 16.3782 21.5527 16.3782 22.4382C16.3782 23.3237 15.6829 24.0441 14.8284 24.0441C13.9738 24.0441 13.2785 23.3237 13.2785 22.4382ZM14.8284 34.2272C14.5404 34.2272 14.2608 34.2648 13.9935 34.3348L11.6334 30.0992L13.9935 25.8636C14.2608 25.9336 14.5404 25.9711 14.8284 25.9711C16.3861 25.9711 17.7021 24.8828 18.108 23.4017L22.8289 23.4017L25.1902 27.6395C24.5934 28.2761 24.2248 29.1437 24.2248 30.0992C24.2248 31.0547 24.5933 31.9222 25.1902 32.5588L22.8289 36.7967L18.1081 36.7967C17.7021 35.3156 16.3861 34.2272 14.8284 34.2272ZM13.2785 37.7602C13.2785 36.8747 13.9738 36.1543 14.8284 36.1543C15.6829 36.1543 16.3782 36.8747 16.3782 37.7602C16.3782 38.6457 15.6829 39.3661 14.8284 39.3661C13.9738 39.3661 13.2785 38.6458 13.2785 37.7602Z" fill="#75B526"/>
</svg>
