<svg width="50" height="53" viewBox="0 0 50 53" fill="none" xmlns="http://www.w3.org/2000/svg">
<path d="M23 13.4509C23 14.9353 21.8475 16.0775 20.5 16.0775C19.1525 16.0775 18 14.9353 18 13.4509C18 11.9665 19.1525 10.8243 20.5 10.8243C21.8475 10.8243 23 11.9665 23 13.4509Z" stroke="#75B526" stroke-width="2"/>
<path d="M29 25.885C29 27.3694 27.8475 28.5116 26.5 28.5116C25.1525 28.5116 24 27.3694 24 25.885C24 24.4006 25.1525 23.2584 26.5 23.2584C27.8475 23.2584 29 24.4006 29 25.885Z" stroke="#75B526" stroke-width="2"/>
<path d="M37 38.3191C37 39.8036 35.8475 40.9457 34.5 40.9457C33.1525 40.9457 32 39.8036 32 38.3191C32 36.8347 33.1525 35.6925 34.5 35.6925C35.8475 35.6925 37 36.8347 37 38.3191Z" stroke="#75B526" stroke-width="2"/>
<path d="M17 33.1382C17 34.6227 15.8475 35.7649 14.5 35.7649C13.1525 35.7649 12 34.6227 12 33.1382C12 31.6538 13.1525 30.5116 14.5 30.5116C15.8475 30.5116 17 31.6538 17 33.1382Z" stroke="#75B526" stroke-width="2"/>
<line y1="-1" x2="9.20403" y2="-1" transform="matrix(0.434592 0.900627 -0.887911 0.460016 21 16.0413)" stroke="#75B526" stroke-width="2"/>
<line y1="-1" x2="8.85575" y2="-1" transform="matrix(0.832253 -0.554397 0.527209 0.849736 17 32.6201)" stroke="#75B526" stroke-width="2"/>
<line y1="-1" x2="10.233" y2="-1" transform="matrix(0.586338 0.810066 -0.789599 0.613623 27 28.4755)" stroke="#75B526" stroke-width="2"/>
<line y1="-1" x2="15.3187" y2="-1" transform="matrix(0.979195 0.202924 -0.189519 0.981877 17 35.7287)" stroke="#75B526" stroke-width="2"/>
</svg>
