<svg width="50" height="53" viewBox="0 0 50 53" fill="none" xmlns="http://www.w3.org/2000/svg">
<path d="M39.6058 26.6744L36.977 21.9563C36.8108 21.6582 36.5039 21.4746 36.1716 21.4746L30.9146 21.4746C30.8394 21.1998 30.7311 20.9301 30.587 20.6716C29.8082 19.2738 28.2405 18.637 26.7997 19.0133L24.1709 14.2954C24.0048 13.9973 23.6978 13.8136 23.3656 13.8136L14.8283 13.8136C14.4961 13.8136 14.1891 13.9972 14.023 14.2954L11.3933 19.015C10.5628 18.7978 9.6534 18.9008 8.85479 19.3785C7.22661 20.3526 6.66675 22.5176 7.60678 24.2046C8.38564 25.6025 9.95329 26.2393 11.3941 25.863L14.023 30.581C14.1891 30.8791 14.4961 31.0628 14.8283 31.0627L22.8288 31.0627L25.1892 35.299C24.1543 36.4037 23.9027 38.1289 24.6815 39.5267C25.6216 41.2138 27.711 41.7939 29.3392 40.8199C30.1378 40.3421 30.6786 39.5776 30.9122 38.7237L36.1717 38.7237C36.3378 38.7238 36.4976 38.6779 36.6366 38.5947C36.7757 38.5115 36.894 38.391 36.977 38.242L39.6068 33.5223C40.4372 33.7396 41.3466 33.6366 42.1452 33.1588C43.7734 32.1848 44.3333 30.0198 43.3932 28.3327C42.6143 26.9349 41.0466 26.2981 39.6058 26.6744ZM28.9765 21.6352C29.4038 22.402 29.1493 23.3861 28.4092 23.8289C27.6691 24.2716 26.7194 24.0079 26.2921 23.2411C25.8648 22.4742 26.1193 21.4901 26.8594 21.0474C27.5995 20.6046 28.5492 20.8683 28.9765 21.6352ZM9.21747 23.2411C8.79018 22.4742 9.04466 21.4901 9.78474 21.0474C10.5248 20.6046 11.4746 20.8683 11.9018 21.6352C12.3291 22.402 12.0747 23.3861 11.3346 23.8289C10.5945 24.2716 9.64475 24.0079 9.21747 23.2411ZM15.3652 29.1356L13.0048 24.8994C14.0398 23.7947 14.2913 22.0695 13.5125 20.6717C13.3685 20.4133 13.1973 20.1811 13.0052 19.9763L15.3653 15.7407L22.8289 15.7407L25.1892 19.9769C24.1543 21.0816 23.9027 22.8068 24.6816 24.2046C24.8256 24.463 24.9968 24.6952 25.1889 24.9001L22.8289 29.1356L15.3652 29.1356ZM28.4092 39.1509C27.6692 39.5937 26.7194 39.33 26.2921 38.5631C25.8649 37.7963 26.1193 36.8122 26.8594 36.3694C27.5995 35.9267 28.5492 36.1904 28.9765 36.9572C29.4038 37.7241 29.1493 38.7082 28.4092 39.1509ZM37.4875 31.8657C37.6315 32.1241 37.8027 32.3562 37.9948 32.5611L35.6348 36.7967L30.9147 36.7966C30.8395 36.5218 30.7311 36.2521 30.5871 35.9937C29.8083 34.5959 28.2406 33.9591 26.7998 34.3354L24.4394 30.0991L26.8007 25.8613C27.6311 26.0785 28.5405 25.9755 29.3391 25.4978C30.1377 25.02 30.6785 24.2555 30.9122 23.4016L35.6348 23.4016L37.9952 27.6378C36.9603 28.7427 36.7087 30.4678 37.4875 31.8657ZM41.2152 31.4899C40.4752 31.9327 39.5254 31.669 39.0981 30.9021C38.6708 30.1353 38.9253 29.1512 39.6654 28.7084C40.4055 28.2657 41.3552 28.5294 41.7825 29.2962C42.2098 30.0631 41.9554 31.0471 41.2152 31.4899Z" fill="#75B526"/>
</svg>
