<svg width="84" height="88" viewBox="0 0 84 88" fill="none" xmlns="http://www.w3.org/2000/svg">
<ellipse rx="6.08981" ry="6.12911" transform="matrix(-0.757137 -0.653256 -0.626407 0.779496 42.2839 9.49247)" fill="white"/>
<ellipse rx="6.08981" ry="6.12911" transform="matrix(-0.757137 -0.653256 -0.626407 0.779496 42.2839 9.49247)" fill="white"/>
<ellipse rx="6.08981" ry="6.12911" transform="matrix(-0.757137 -0.653256 -0.626407 0.779496 41.6775 78.9161)" fill="white"/>
<ellipse rx="6.08981" ry="6.12911" transform="matrix(-0.757137 -0.653256 -0.626407 0.779496 41.6775 78.9161)" fill="white"/>
<ellipse rx="3.0449" ry="3.06455" transform="matrix(-0.757137 -0.653256 -0.626407 0.779496 42.2839 9.49248)" fill="white"/>
<ellipse rx="3.0449" ry="3.06455" transform="matrix(-0.757137 -0.653256 -0.626407 0.779496 42.2839 9.49248)" fill="#75B526"/>
<ellipse rx="3.0449" ry="3.06455" transform="matrix(-0.757137 -0.653256 -0.626407 0.779496 41.6775 78.9161)" fill="white"/>
<ellipse rx="3.0449" ry="3.06455" transform="matrix(-0.757137 -0.653256 -0.626407 0.779496 41.6775 78.9161)" fill="#75B526"/>
<line x1="42.0173" y1="79.4858" x2="42.0173" y2="10.062" stroke="#75B526" stroke-width="2"/>
</svg>
