<svg width="67" height="83" viewBox="0 0 67 83" fill="none" xmlns="http://www.w3.org/2000/svg">
<ellipse rx="6" ry="6.21705" transform="matrix(-1 0 0 1 6 7.02583)" fill="white"/>
<ellipse rx="6" ry="6.21705" transform="matrix(-1 0 0 1 6 7.02583)" fill="white"/>
<ellipse rx="6" ry="6.21705" transform="matrix(-1 0 0 1 61 76.4496)" fill="white"/>
<ellipse rx="6" ry="6.21705" transform="matrix(-1 0 0 1 61 76.4496)" fill="white"/>
<ellipse rx="3" ry="3.10853" transform="matrix(-1 0 0 1 6 7.02582)" fill="white"/>
<ellipse rx="3" ry="3.10853" transform="matrix(-1 0 0 1 6 7.02582)" fill="#75B526"/>
<ellipse rx="3" ry="3.10853" transform="matrix(-1 0 0 1 61 76.4496)" fill="white"/>
<ellipse rx="3" ry="3.10853" transform="matrix(-1 0 0 1 61 76.4496)" fill="#75B526"/>
<line y1="-1" x2="87.7603" y2="-1" transform="matrix(-0.626707 -0.779255 -0.756882 0.653552 60 76.4496)" stroke="#75B526" stroke-width="2"/>
</svg>
