<svg width="26" height="26" viewBox="0 0 26 26" fill="none" xmlns="http://www.w3.org/2000/svg">
<g clip-path="url(#clip0)">
<path d="M2.70832 11.375C1.2155 11.375 0 12.5905 0 14.0833V22.75C0 24.2428 1.2155 25.4583 2.70832 25.4583H5.95832C6.56825 25.4583 7.12938 25.2525 7.58332 24.9101V11.375H2.70832Z" fill="white"/>
<path d="M26 15.4374C26 14.7864 25.7422 14.1797 25.2948 13.7323C25.8007 13.1787 26.0585 12.4366 25.9881 11.6642C25.8613 10.2873 24.6209 9.20826 23.1628 9.20826H16.471C16.8025 8.20182 17.3333 6.35694 17.3333 4.87494C17.3333 2.52519 15.3368 0.541626 14.0833 0.541626C12.9578 0.541626 12.1539 1.17538 12.1193 1.20138C11.9914 1.30431 11.9167 1.46031 11.9167 1.62494V5.29851L8.79669 12.0574L8.66669 12.1235V23.7347C9.5485 24.1507 10.6643 24.3749 11.375 24.3749H21.3189C22.4987 24.3749 23.5311 23.5798 23.7738 22.4824C23.8983 21.9179 23.8258 21.3492 23.5777 20.8552C24.3783 20.4522 24.9167 19.6278 24.9167 18.6874C24.9167 18.3039 24.8289 17.9367 24.6621 17.6041C25.4627 17.2011 26 16.3767 26 15.4374Z" fill="white"/>
</g>
<defs>
<clipPath id="clip0">
<rect width="26" height="26" fill="white"/>
</clipPath>
</defs>
</svg>
