<svg width="21" height="17" viewBox="0 0 21 17" fill="none" xmlns="http://www.w3.org/2000/svg">
<g clip-path="url(#clip0)">
<path fill-rule="evenodd" clip-rule="evenodd" d="M18.4487 4.37923C18.7114 10.2122 14.346 16.7157 6.61765 16.7157C4.2672 16.7157 2.07926 16.0288 0.237289 14.8522C2.44517 15.1115 4.64955 14.5015 6.3993 13.1347C4.57827 13.1014 3.04088 11.9024 2.51147 10.2549C3.16352 10.3791 3.80509 10.3428 4.39084 10.1844C2.38884 9.78309 1.00748 7.9866 1.05234 6.06545C1.61366 6.37587 2.25574 6.56262 2.93819 6.58348C1.08425 5.34973 0.559321 2.91104 1.65005 1.04701C3.70239 3.55623 6.76919 5.20719 10.2288 5.38053C9.62214 2.78588 11.5972 0.288086 14.2836 0.288086C15.4811 0.288086 16.5628 0.791221 17.3215 1.59733C18.2697 1.41157 19.1605 1.06638 19.9646 0.591059C19.654 1.55958 18.994 2.37265 18.1346 2.88522C18.9766 2.78539 19.7787 2.56238 20.5254 2.23258C19.9676 3.06452 19.2617 3.79464 18.4487 4.37923Z" fill="#4DC8F1"/>
</g>
<defs>
<clipPath id="clip0">
<rect width="20.2881" height="16.4237" fill="white" transform="translate(0.237289 0.288086)"/>
</clipPath>
</defs>
</svg>
