<svg width="22" height="13" viewBox="0 0 22 13" fill="none" xmlns="http://www.w3.org/2000/svg">
<g clip-path="url(#clip0)">
<path fill-rule="evenodd" clip-rule="evenodd" d="M12.6822 11.2215C12.7371 10.3665 13.1176 9.03578 14.0686 9.76156C14.6431 10.2012 15.0991 10.8381 15.6153 11.3972C16.1193 11.9417 16.7205 12.4174 17.8408 12.3882C18.5052 12.3709 20.4133 12.4348 20.9104 12.2514C22.4126 11.6993 19.751 9.17607 19.101 8.61143C18.8275 8.3739 18.521 8.0357 18.2865 7.78428C17.9965 7.47382 17.8573 7.15919 18.0877 6.67233L19.0949 5.2374C19.3931 4.9075 20.4962 3.30942 20.7629 2.87187C21.1469 2.24124 21.9347 1.00152 20.9193 0.802884C20.3481 0.691064 18.4942 0.795248 17.7887 0.80011C16.399 0.809141 16.6815 0.653573 15.9959 2.25723C15.5392 3.32402 14.1296 5.83816 13.3822 6.125C11.9966 6.657 13.0806 1.56615 12.4964 0.685491C12.142 0.151403 10.4992 0.218057 9.73066 0.228475C8.83798 0.239587 7.60384 0.287514 7.34331 1.03344C7.42284 1.10219 7.33578 1.05569 7.49004 1.11958C7.60111 1.16542 7.77456 1.17584 7.96311 1.27793C8.1304 1.36753 8.28262 1.52515 8.36969 1.66683C8.79066 2.34886 8.73993 5.22216 8.39163 5.91876C7.73961 7.2203 5.83495 3.56363 5.50859 2.91217C5.04237 1.9822 4.8593 1.07789 4.33137 0.846614C3.94879 0.679928 1.78019 0.77301 1.19673 0.782734C0.662633 0.791071 0.201885 0.876491 0.404829 1.51754C0.506986 1.84049 0.749694 2.29543 0.896416 2.62116C1.80075 4.63181 3.21449 7.10014 4.46027 8.77256C5.86647 10.6596 7.94528 12.3313 10.5733 12.3528C12.4608 12.3681 12.6034 12.4529 12.6822 11.2215Z" fill="#3E6FA1"/>
</g>
<defs>
<clipPath id="clip0">
<rect width="21.2542" height="12.5593" fill="white" transform="translate(0.355927 0.220337)"/>
</clipPath>
</defs>
</svg>
