<svg width="277" height="110" viewBox="0 0 277 110" fill="none" xmlns="http://www.w3.org/2000/svg">
<path d="M272.493 82.15C272.493 82.15 240.454 104.939 208.602 104.939C176.749 104.939 157.147 82.15 157.147 82.15C157.147 82.15 176.749 52.3501 208.602 52.3501C240.454 52.3501 272.493 82.15 272.493 82.15Z" fill="white"/>
<path d="M7.18677 82.15C7.18677 82.15 39.2263 104.939 71.0786 104.939C102.931 104.939 122.533 82.15 122.533 82.15C122.533 82.15 102.931 52.3501 71.0786 52.3501C39.2263 52.3501 7.18677 82.15 7.18677 82.15Z" fill="white"/>
<path d="M157.042 81.1936C157.042 83.269 158.367 88.286 161.668 94.1332" stroke="#21426E" stroke-miterlimit="10"/>
<path d="M122.729 81.1936C122.729 83.269 121.405 88.286 118.104 94.1332" stroke="#21426E" stroke-miterlimit="10"/>
<path d="M213.177 105.201C225.977 105.201 236.354 94.9481 236.354 82.3C236.354 69.6519 225.977 59.3986 213.177 59.3986C200.377 59.3986 190 69.6519 190 82.3C190 94.9481 200.377 105.201 213.177 105.201Z" fill="#BAF0FF"/>
<path d="M213.177 90.4888C217.754 90.4888 221.464 86.8225 221.464 82.3C221.464 77.7775 217.754 74.1112 213.177 74.1112C208.6 74.1112 204.89 77.7775 204.89 82.3C204.89 86.8225 208.6 90.4888 213.177 90.4888Z" fill="#21426E"/>
<path opacity="0.48" d="M222.46 80.3193C227.586 80.3193 231.742 76.2127 231.742 71.147C231.742 66.0812 227.586 61.9746 222.46 61.9746C217.333 61.9746 213.177 66.0812 213.177 71.147C213.177 76.2127 217.333 80.3193 222.46 80.3193Z" fill="#F5FFFF"/>
<path d="M220.543 92.3423C223.604 92.3423 226.086 89.8901 226.086 86.8651C226.086 83.8402 223.604 81.3879 220.543 81.3879C217.482 81.3879 215 83.8402 215 86.8651C215 89.8901 217.482 92.3423 220.543 92.3423Z" fill="#BAF0FF"/>
<path d="M65.1769 104.202C77.9772 104.202 88.3539 93.9486 88.3539 81.3004C88.3539 68.6523 77.9772 58.3989 65.1769 58.3989C52.3767 58.3989 42 68.6523 42 81.3004C42 93.9486 52.3767 104.202 65.1769 104.202Z" fill="#BAF0FF"/>
<path d="M65.1769 89.4891C69.7538 89.4891 73.4642 85.8229 73.4642 81.3004C73.4642 76.7779 69.7538 73.1117 65.1769 73.1117C60.6 73.1117 56.8896 76.7779 56.8896 81.3004C56.8896 85.8229 60.6 89.4891 65.1769 89.4891Z" fill="#21426E"/>
<path opacity="0.48" d="M73.2827 79.7422C78.4093 79.7422 82.5653 75.6356 82.5653 70.5698C82.5653 65.5041 78.4093 61.3975 73.2827 61.3975C68.156 61.3975 64 65.5041 64 70.5698C64 75.6356 68.156 79.7422 73.2827 79.7422Z" fill="#F5FFFF"/>
<path d="M71.9268 88.1486C74.0955 88.1486 75.8535 86.4114 75.8535 84.2684C75.8535 82.1255 74.0955 80.3883 71.9268 80.3883C69.7581 80.3883 68 82.1255 68 84.2684C68 86.4114 69.7581 88.1486 71.9268 88.1486Z" fill="#BAF0FF"/>
<path d="M272 81.9539C272 81.9539 240.057 108.375 208.3 108.375C176.543 108.375 157 81.9539 157 81.9539C157 81.9539 176.543 47.4043 208.3 47.4043C240.057 47.4043 272 81.9539 272 81.9539Z" stroke="#21426E" stroke-width="1.9601" stroke-miterlimit="10"/>
<path opacity="0.16" d="M208.602 60.8953C233.331 60.8953 272.082 82.7861 272.082 82.7861C272.082 82.7861 240.454 52.9637 208.602 52.9637C176.749 52.9637 158.992 77.7014 157.193 82.1951C163.718 73.8304 183.872 60.8953 208.602 60.8953Z" fill="#8B94A5"/>
<path d="M7 81.9539C7 81.9539 39.2212 108.375 71.2541 108.375C103.287 108.375 123 81.9539 123 81.9539C123 81.9539 103.287 47.4043 71.2541 47.4043C39.2212 47.4043 7 81.9539 7 81.9539Z" stroke="#21426E" stroke-width="1.9601" stroke-miterlimit="10"/>
<path opacity="0.16" d="M71.0788 60.8953C46.3494 60.8953 7.5979 82.7861 7.5979 82.7861C7.5979 82.7861 39.2265 52.9637 71.0788 52.9637C102.931 52.9637 120.688 77.7014 122.487 82.1951C115.962 73.8304 95.8081 60.8953 71.0788 60.8953Z" fill="#8B94A5"/>
<path d="M273.534 48.9708C273.534 48.9708 256.722 10.5626 221.857 3.31674C192.054 -2.87785 156.805 11.8574 152.262 29.3719C151.691 31.5781 151.162 36.4688 153.773 38.0976C164.828 44.9915 187.338 19.3333 203.049 15.4307C246.225 4.71086 273.534 48.9708 273.534 48.9708Z" fill="white"/>
<path d="M1.42017 48.9708C1.42017 48.9708 18.2321 10.5626 53.098 3.31674C82.9002 -2.87785 118.154 11.8574 122.697 29.3719C123.268 31.5781 123.798 36.4688 121.186 38.0976C110.132 44.9915 87.6168 19.3333 71.9098 15.4307C28.7293 4.71086 1.42017 48.9708 1.42017 48.9708Z" fill="white"/>
<path d="M273.534 48.9708C273.534 48.9708 256.722 10.5626 221.857 3.31674C192.054 -2.87785 156.805 11.8574 152.262 29.3719C151.691 31.5781 151.162 36.4689 153.773 38.0976C164.828 44.9915 187.338 19.3333 203.049 15.4307C246.225 4.71086 273.534 48.9708 273.534 48.9708Z" stroke="#21426E" stroke-width="2" stroke-miterlimit="10"/>
<path d="M156.773 30.0577C158.892 26.6243 163.522 20.3169 171.768 16.6534C174.147 15.5976 176.416 14.9434 178.434 14.5374" stroke="#21426E" stroke-miterlimit="10"/>
<path d="M1.42017 48.9708C1.42017 48.9708 18.2321 10.5626 53.098 3.31674C82.9002 -2.87785 118.154 11.8574 122.697 29.3719C123.268 31.5781 123.798 36.4689 121.186 38.0976C110.132 44.9915 87.6168 19.3333 71.9098 15.4307C28.7293 4.71086 1.42017 48.9708 1.42017 48.9708Z" stroke="#21426E" stroke-width="2" stroke-miterlimit="10"/>
<path d="M118.177 30.0577C116.058 26.6243 111.428 20.3169 103.182 16.6534C100.803 15.5976 98.534 14.9434 96.5159 14.5374" stroke="#21426E" stroke-miterlimit="10"/>
<path d="M237.76 104.934C243.6 102.471 251.577 97.7515 260.462 91.7284C267.197 87.1625 272.489 82.15 272.489 82.15C272.489 82.15 250.723 41.9235 218.46 39.1985C195.246 37.2359 171.823 49.1423 157.517 69.0615" stroke="#21426E" stroke-width="0.98" stroke-miterlimit="10"/>
<path d="M157.147 80.7649C157.147 80.7649 171.754 53.6945 198.826 48.8218C232.212 42.8122 259.211 66.6296 262.772 70.627C262.982 70.8616 265.023 72.8513 265.023 72.8513L277 70.6947C277 70.6947 273.667 73.7581 272.904 77.9676C272.265 81.5093 273.128 82.6417 273.128 82.6417C273.128 82.6417 253.987 66.2642 237.778 60.6155C184.822 42.167 157.147 80.7649 157.147 80.7649Z" fill="#21426E"/>
<path d="M41.9203 104.934C36.0804 102.471 28.1036 97.7515 19.2182 91.7284C12.4834 87.1625 7.19141 82.15 7.19141 82.15C7.19141 82.15 28.9574 41.9235 61.2207 39.1985C84.4341 37.2359 107.858 49.1423 122.163 69.0615" stroke="#21426E" stroke-width="0.98" stroke-miterlimit="10"/>
<path d="M122.533 80.7649C122.533 80.7649 107.926 53.6945 80.8544 48.8218C47.4679 42.8122 20.4693 66.6296 16.9078 70.627C16.6977 70.8616 14.6568 72.8513 14.6568 72.8513L2.68018 70.6947C2.68018 70.6947 6.01334 73.7581 6.77586 77.9676C7.4151 81.5093 6.55213 82.6417 6.55213 82.6417C6.55213 82.6417 25.6927 66.2642 41.902 60.6155C94.8583 42.167 122.533 80.7649 122.533 80.7649Z" fill="#21426E"/>
</svg>
