<svg width="264" height="105" viewBox="0 0 264 105" fill="none" xmlns="http://www.w3.org/2000/svg">
<g clip-path="url(#clip0)">
<mask id="mask0" mask-type="alpha" maskUnits="userSpaceOnUse" x="148" y="49" width="112" height="53">
<path d="M259.672 78.8499C259.672 78.8499 228.905 101.034 198.318 101.034C167.731 101.034 148.907 78.8499 148.907 78.8499C148.907 78.8499 167.731 49.8406 198.318 49.8406C228.905 49.8362 259.672 78.8499 259.672 78.8499Z" fill="white"/>
</mask>
<g mask="url(#mask0)">
<path d="M202.257 81.5878C214.548 81.5878 224.513 71.6065 224.513 59.2939C224.513 46.9813 214.548 37 202.257 37C189.965 37 180 46.9813 180 59.2939C180 71.6065 189.965 81.5878 202.257 81.5878Z" fill="#BAF0FF"/>
<path d="M202.235 67.3181C206.644 67.3181 210.219 63.7374 210.219 59.3203C210.219 54.9032 206.644 51.3224 202.235 51.3224C197.825 51.3224 194.25 54.9032 194.25 59.3203C194.25 63.7374 197.825 67.3181 202.235 67.3181Z" fill="#21426E"/>
<path opacity="0.48" d="M195.305 72.6314C198.787 72.6314 201.61 69.8038 201.61 66.3157C201.61 62.8276 198.787 60 195.305 60C191.823 60 189 62.8276 189 66.3157C189 69.8038 191.823 72.6314 195.305 72.6314Z" fill="#F5FFFF"/>
</g>
<mask id="mask1" mask-type="alpha" maskUnits="userSpaceOnUse" x="4" y="49" width="112" height="53">
<path d="M4.90631 78.8499C4.90631 78.8499 35.6734 101.034 66.2608 101.034C96.8481 101.034 115.671 78.8499 115.671 78.8499C115.671 78.8499 96.8481 49.8406 66.2608 49.8406C35.6734 49.8406 4.90631 78.8499 4.90631 78.8499Z" fill="white"/>
</mask>
<g mask="url(#mask1)">
<path d="M62.2566 78.5878C74.5485 78.5878 84.5131 68.6065 84.5131 56.2939C84.5131 43.9813 74.5485 34 62.2566 34C49.9646 34 40.0001 43.9813 40.0001 56.2939C40.0001 68.6065 49.9646 78.5878 62.2566 78.5878Z" fill="#BAF0FF"/>
<path d="M62.2566 64.2654C66.6518 64.2654 70.2148 60.6964 70.2148 56.2939C70.2148 51.8914 66.6518 48.3224 62.2566 48.3224C57.8614 48.3224 54.2985 51.8914 54.2985 56.2939C54.2985 60.6964 57.8614 64.2654 62.2566 64.2654Z" fill="#21426E"/>
<path opacity="0.48" d="M55.127 70.5193C59.1347 70.5193 62.3836 67.2649 62.3836 63.2505C62.3836 59.236 59.1347 55.9817 55.127 55.9817C51.1193 55.9817 47.8704 59.236 47.8704 63.2505C47.8704 67.2649 51.1193 70.5193 55.127 70.5193Z" fill="#F5FFFF"/>
<path d="M71.7709 69.5543C73.8534 69.5543 75.5417 67.8632 75.5417 65.7771C75.5417 63.6911 73.8534 62 71.7709 62C69.6883 62 68.0001 63.6911 68.0001 65.7771C68.0001 67.8632 69.6883 69.5543 71.7709 69.5543Z" fill="#BAF0FF"/>
</g>
<path d="M148.811 77.9188C148.811 79.9392 150.082 84.8231 153.252 90.5151" stroke="#21426E" stroke-miterlimit="10"/>
<path d="M115.856 77.9188C115.856 79.9392 114.584 84.8231 111.414 90.5151" stroke="#21426E" stroke-miterlimit="10"/>
<path d="M259.672 78.8499C259.672 78.8499 228.905 101.034 198.318 101.034C167.731 101.034 148.907 78.8499 148.907 78.8499C148.907 78.8499 167.731 49.8406 198.318 49.8406C228.905 49.8362 259.672 78.8499 259.672 78.8499Z" stroke="#21426E" stroke-width="1.9601" stroke-miterlimit="10"/>
<path opacity="0.16" d="M198.318 58.1592C222.065 58.1592 259.278 79.4692 259.278 79.4692C259.278 79.4692 228.905 50.438 198.318 50.438C167.731 50.438 150.679 74.5194 148.951 78.8939C155.217 70.7511 174.575 58.1592 198.318 58.1592Z" fill="#8B94A5"/>
<path d="M4.90643 78.8499C4.90643 78.8499 35.6735 101.034 66.2609 101.034C96.8482 101.034 115.672 78.8499 115.672 78.8499C115.672 78.8499 96.8482 49.8406 66.2609 49.8406C35.6735 49.8406 4.90643 78.8499 4.90643 78.8499Z" stroke="#21426E" stroke-width="1.9601" stroke-miterlimit="10"/>
<path opacity="0.16" d="M66.2609 58.1592C42.5136 58.1592 5.30109 79.4692 5.30109 79.4692C5.30109 79.4692 35.6736 50.438 66.2609 50.438C96.8483 50.438 113.9 74.5194 115.628 78.8939C109.362 70.7511 90.0038 58.1592 66.2609 58.1592Z" fill="#8B94A5"/>
<path d="M260.12 47.9213C260.12 47.9213 244.861 10.1631 211.555 2.32338C183.081 -4.37884 148.903 9.16176 144.141 26.1018C143.54 28.2363 142.922 32.9841 145.391 34.6267C155.844 41.588 178.043 17.1289 193.214 13.6855C234.912 4.23391 260.12 47.9213 260.12 47.9213Z" stroke="#21426E" stroke-width="2" stroke-miterlimit="10"/>
<path d="M148.46 26.8748C150.573 23.5808 155.16 17.5462 163.162 14.1687C165.468 13.1937 167.665 12.6095 169.607 12.2582" stroke="#21426E" stroke-miterlimit="10"/>
<path d="M0.407776 49.0633C0.407776 49.0633 14.921 11.0108 48.0646 2.51225C76.3982 -4.75215 110.835 8.11207 115.93 24.9555C116.575 27.0812 117.285 31.8114 114.847 33.5067C104.539 40.6701 81.8615 16.6502 66.6248 13.5099C24.7514 4.88394 0.407776 49.0633 0.407776 49.0633Z" stroke="#21426E" stroke-width="2" stroke-miterlimit="10"/>
<path d="M111.633 25.8119C109.458 22.5619 104.749 16.6195 96.686 13.4001C94.3577 12.469 92.1566 11.9288 90.2054 11.6169" stroke="#21426E" stroke-miterlimit="10"/>
<path d="M226.323 101.03C231.931 98.6316 239.591 94.0376 248.123 88.1742C254.591 83.7295 259.672 78.85 259.672 78.85C259.672 78.85 238.771 39.6907 207.789 37.038C185.497 35.1274 163.004 46.718 149.267 66.1087" stroke="#21426E" stroke-width="0.98" stroke-miterlimit="10"/>
<path d="M148.907 77.5059C148.907 77.5059 162.934 51.1538 188.93 46.4104C220.991 40.5603 246.917 63.7457 250.337 67.6371C250.539 67.8655 252.499 69.8023 252.499 69.8023L264 67.7029C264 67.7029 260.799 70.6851 260.067 74.7829C259.453 78.2306 260.282 79.333 260.282 79.333C260.282 79.333 241.901 63.39 226.336 57.8912C175.483 39.9278 148.907 77.5059 148.907 77.5059Z" fill="#21426E"/>
<path d="M38.2561 101.03C32.6481 98.6316 24.9881 94.0376 16.4556 88.1742C9.98825 83.7295 4.90643 78.85 4.90643 78.85C4.90643 78.85 25.8081 39.6907 56.79 37.038C79.0816 35.1274 101.575 46.718 115.312 66.1087" stroke="#21426E" stroke-width="0.98" stroke-miterlimit="10"/>
<path d="M115.672 77.5059C115.672 77.5059 101.645 51.1538 75.6485 46.4104C43.5835 40.5603 17.657 63.7457 14.2414 67.6327C14.0397 67.8611 12.0797 69.7979 12.0797 69.7979L0.578796 67.6986C0.578796 67.6986 3.77959 70.6807 4.51183 74.7785C5.12568 78.2262 4.29698 79.3286 4.29698 79.3286C4.29698 79.3286 22.6775 63.3856 38.243 57.8868C89.0962 39.9278 115.672 77.5059 115.672 77.5059Z" fill="#21426E"/>
</g>
<defs>
<clipPath id="clip0">
<rect width="264" height="105" fill="white"/>
</clipPath>
</defs>
</svg>
