<svg width="276" height="104" viewBox="0 0 276 104" fill="none" xmlns="http://www.w3.org/2000/svg">
<g clip-path="url(#clip0)">
<path d="M271.493 80.7625C271.493 80.7625 239.454 103.562 207.602 103.562C175.749 103.562 156.148 80.7625 156.148 80.7625C156.148 80.7625 175.749 50.9482 207.602 50.9482C239.454 50.9482 271.493 80.7625 271.493 80.7625Z" fill="white"/>
<path d="M6.18689 80.7625C6.18689 80.7625 38.2264 103.562 70.0787 103.562C101.931 103.562 121.533 80.7625 121.533 80.7625C121.533 80.7625 101.931 50.9482 70.0787 50.9482C38.2264 50.9482 6.18689 80.7625 6.18689 80.7625Z" fill="white"/>
<path d="M156.042 79.8055C156.042 81.8819 157.367 86.9014 160.668 92.7514" stroke="#21426E" stroke-miterlimit="10"/>
<path d="M121.729 79.8055C121.729 81.8819 120.405 86.9014 117.104 92.7514" stroke="#21426E" stroke-miterlimit="10"/>
<path d="M196.506 97.2382C209.307 97.2382 219.683 86.9799 219.683 74.3257C219.683 61.6715 209.307 51.4132 196.506 51.4132C183.706 51.4132 173.329 61.6715 173.329 74.3257C173.329 86.9799 183.706 97.2382 196.506 97.2382Z" fill="#BAF0FF"/>
<path d="M196.506 82.5185C201.083 82.5185 204.793 78.8505 204.793 74.3258C204.793 69.8011 201.083 66.1331 196.506 66.1331C191.929 66.1331 188.219 69.8011 188.219 74.3258C188.219 78.8505 191.929 82.5185 196.506 82.5185Z" fill="#21426E"/>
<path opacity="0.48" d="M205.789 72.3441C210.916 72.3441 215.072 68.2355 215.072 63.1673C215.072 58.0992 210.916 53.9906 205.789 53.9906C200.662 53.9906 196.506 58.0992 196.506 63.1673C196.506 68.2355 200.662 72.3441 205.789 72.3441Z" fill="#F5FFFF"/>
<path d="M189.835 85.2854C192.897 85.2854 195.379 82.832 195.379 79.8055C195.379 76.7791 192.897 74.3257 189.835 74.3257C186.774 74.3257 184.292 76.7791 184.292 79.8055C184.292 82.832 186.774 85.2854 189.835 85.2854Z" fill="#BAF0FF"/>
<path d="M52.0066 97.3917C64.8069 97.3917 75.1836 87.1334 75.1836 74.4792C75.1836 61.8249 64.8069 51.5667 52.0066 51.5667C39.2064 51.5667 28.8297 61.8249 28.8297 74.4792C28.8297 87.1334 39.2064 97.3917 52.0066 97.3917Z" fill="#BAF0FF"/>
<path d="M52.0066 82.6719C56.5836 82.6719 60.2939 79.0039 60.2939 74.4792C60.2939 69.9545 56.5836 66.2865 52.0066 66.2865C47.4297 66.2865 43.7194 69.9545 43.7194 74.4792C43.7194 79.0039 47.4297 82.6719 52.0066 82.6719Z" fill="#21426E"/>
<path opacity="0.48" d="M42.7194 72.4931C47.8461 72.4931 52.0021 68.3846 52.0021 63.3164C52.0021 58.2482 47.8461 54.1396 42.7194 54.1396C37.5927 54.1396 33.4368 58.2482 33.4368 63.3164C33.4368 68.3846 37.5927 72.4931 42.7194 72.4931Z" fill="#F5FFFF"/>
<path d="M60.2938 81.4034C62.4625 81.4034 64.2206 79.6654 64.2206 77.5215C64.2206 75.3775 62.4625 73.6395 60.2938 73.6395C58.1251 73.6395 56.3671 75.3775 56.3671 77.5215C56.3671 79.6654 58.1251 81.4034 60.2938 81.4034Z" fill="#BAF0FF"/>
<path d="M271.493 80.7625C271.493 80.7625 239.454 103.562 207.602 103.562C175.749 103.562 156.148 80.7625 156.148 80.7625C156.148 80.7625 175.749 50.9482 207.602 50.9482C239.454 50.9482 271.493 80.7625 271.493 80.7625Z" stroke="#21426E" stroke-width="1.9601" stroke-miterlimit="10"/>
<path opacity="0.16" d="M207.602 59.4975C232.331 59.4975 271.082 81.3989 271.082 81.3989C271.082 81.3989 239.454 51.5621 207.602 51.5621C175.749 51.5621 157.992 76.3118 156.193 80.8076C162.718 72.4389 182.872 59.4975 207.602 59.4975Z" fill="#8B94A5"/>
<path d="M6.18689 80.7625C6.18689 80.7625 38.2264 103.562 70.0787 103.562C101.931 103.562 121.533 80.7625 121.533 80.7625C121.533 80.7625 101.931 50.9482 70.0787 50.9482C38.2264 50.9482 6.18689 80.7625 6.18689 80.7625Z" stroke="#21426E" stroke-width="1.9601" stroke-miterlimit="10"/>
<path opacity="0.16" d="M70.0788 59.4975C45.3494 59.4975 6.5979 81.3989 6.5979 81.3989C6.5979 81.3989 38.2265 51.5621 70.0788 51.5621C101.931 51.5621 119.688 76.3118 121.487 80.8076C114.962 72.4389 94.8082 59.4975 70.0788 59.4975Z" fill="#8B94A5"/>
<path d="M272.534 47.5673C272.534 47.5673 255.722 9.14059 220.857 1.89128C191.054 -4.30629 155.805 10.4361 151.262 27.959C150.691 30.1663 150.161 35.0593 152.773 36.6889C163.827 43.5861 186.338 17.9156 202.049 14.0111C245.225 3.28608 272.534 47.5673 272.534 47.5673Z" fill="white"/>
<path d="M0.420166 47.5673C0.420166 47.5673 17.2321 9.14059 52.098 1.89128C81.9001 -4.30629 117.154 10.4361 121.697 27.959C122.268 30.1663 122.798 35.0593 120.186 36.6889C109.132 43.5861 86.6168 17.9156 70.9098 14.0111C27.7293 3.28608 0.420166 47.5673 0.420166 47.5673Z" fill="white"/>
<path d="M272.534 47.5673C272.534 47.5673 255.722 9.14059 220.857 1.89128C191.054 -4.30629 155.805 10.4361 151.262 27.959C150.691 30.1663 150.161 35.0593 152.773 36.6889C163.827 43.5861 186.338 17.9156 202.049 14.0111C245.225 3.28608 272.534 47.5673 272.534 47.5673Z" stroke="#21426E" stroke-width="2" stroke-miterlimit="10"/>
<path d="M155.773 28.6451C157.892 25.21 162.522 18.8996 170.768 15.2343C173.147 14.1781 175.416 13.5236 177.434 13.1173" stroke="#21426E" stroke-miterlimit="10"/>
<path d="M0.420166 47.5673C0.420166 47.5673 17.2321 9.14059 52.098 1.89128C81.9001 -4.30629 117.154 10.4361 121.697 27.959C122.268 30.1663 122.798 35.0593 120.186 36.6889C109.132 43.5861 86.6168 17.9156 70.9098 14.0111C27.7293 3.28608 0.420166 47.5673 0.420166 47.5673Z" stroke="#21426E" stroke-width="2" stroke-miterlimit="10"/>
<path d="M117.177 28.6451C115.058 25.21 110.428 18.8996 102.182 15.2343C99.8033 14.1781 97.534 13.5236 95.5158 13.1173" stroke="#21426E" stroke-miterlimit="10"/>
<path d="M236.76 103.558C242.6 101.093 250.577 96.3715 259.462 90.3454C266.197 85.7774 271.489 80.7625 271.489 80.7625C271.489 80.7625 249.723 40.5166 217.46 37.7902C194.246 35.8267 170.823 47.7388 156.517 67.6677" stroke="#21426E" stroke-width="0.98" stroke-miterlimit="10"/>
<path d="M156.148 79.3767C156.148 79.3767 170.754 52.2934 197.826 47.4184C231.212 41.4059 258.211 65.2347 261.772 69.234C261.982 69.4687 264.023 71.4593 264.023 71.4593L276 69.3017C276 69.3017 272.667 72.3666 271.904 76.5781C271.265 80.1215 272.128 81.2545 272.128 81.2545C272.128 81.2545 252.987 64.8691 236.778 59.2177C183.822 40.7604 156.148 79.3767 156.148 79.3767Z" fill="#21426E"/>
<path d="M40.9203 103.558C35.0804 101.093 27.1036 96.3715 18.2182 90.3454C11.4834 85.7774 6.19141 80.7625 6.19141 80.7625C6.19141 80.7625 27.9574 40.5166 60.2207 37.7902C83.4342 35.8267 106.858 47.7388 121.163 67.6677" stroke="#21426E" stroke-width="0.98" stroke-miterlimit="10"/>
<path d="M121.533 79.3767C121.533 79.3767 106.926 52.2934 79.8545 47.4184C46.468 41.4059 19.4694 65.2347 15.9079 69.234C15.6979 69.4687 13.6569 71.4593 13.6569 71.4593L1.6803 69.3017C1.6803 69.3017 5.01347 72.3666 5.77598 76.5781C6.41522 80.1215 5.55225 81.2545 5.55225 81.2545C5.55225 81.2545 24.6929 64.8691 40.9021 59.2177C93.8584 40.7604 121.533 79.3767 121.533 79.3767Z" fill="#21426E"/>
</g>
<defs>
<clipPath id="clip0">
<rect width="276" height="104" fill="white"/>
</clipPath>
</defs>
</svg>
