<svg width="264" height="105" viewBox="0 0 264 105" fill="none" xmlns="http://www.w3.org/2000/svg">
<g clip-path="url(#clip0)">
<mask id="mask0" mask-type="alpha" maskUnits="userSpaceOnUse" x="148" y="49" width="112" height="53">
<path d="M259.672 78.8499C259.672 78.8499 228.905 101.034 198.318 101.034C167.731 101.034 148.907 78.8499 148.907 78.8499C148.907 78.8499 167.731 49.8406 198.318 49.8406C228.905 49.8362 259.672 78.8499 259.672 78.8499Z" fill="white"/>
</mask>
<g mask="url(#mask0)">
<path d="M167.875 104.996C180.167 104.996 190.132 95.0143 190.132 82.7017C190.132 70.3892 180.167 60.4078 167.875 60.4078C155.583 60.4078 145.619 70.3892 145.619 82.7017C145.619 95.0143 155.583 104.996 167.875 104.996Z" fill="#BAF0FF"/>
<path d="M167.853 90.726C172.263 90.726 175.838 87.1452 175.838 82.7281C175.838 78.311 172.263 74.7302 167.853 74.7302C163.444 74.7302 159.869 78.311 159.869 82.7281C159.869 87.1452 163.444 90.726 167.853 90.726Z" fill="#21426E"/>
<path opacity="0.48" d="M173.821 81.046C177.303 81.046 180.126 78.2183 180.126 74.7303C180.126 71.2422 177.303 68.4146 173.821 68.4146C170.339 68.4146 167.516 71.2422 167.516 74.7303C167.516 78.2183 170.339 81.046 173.821 81.046Z" fill="#F5FFFF"/>
<path d="M161.469 93.3656C164.409 93.3656 166.792 90.9784 166.792 88.0337C166.792 85.089 164.409 82.7018 161.469 82.7018C158.529 82.7018 156.146 85.089 156.146 88.0337C156.146 90.9784 158.529 93.3656 161.469 93.3656Z" fill="#BAF0FF"/>
</g>
<mask id="mask1" mask-type="alpha" maskUnits="userSpaceOnUse" x="4" y="49" width="112" height="53">
<path d="M4.90634 78.8499C4.90634 78.8499 35.6735 101.034 66.2608 101.034C96.8481 101.034 115.671 78.8499 115.671 78.8499C115.671 78.8499 96.8481 49.8406 66.2608 49.8406C35.6735 49.8406 4.90634 78.8499 4.90634 78.8499Z" fill="white"/>
</mask>
<g mask="url(#mask1)">
<path d="M93.5994 103.77C105.891 103.77 115.856 93.789 115.856 81.4764C115.856 69.1638 105.891 59.1825 93.5994 59.1825C81.3074 59.1825 71.3429 69.1638 71.3429 81.4764C71.3429 93.789 81.3074 103.77 93.5994 103.77Z" fill="#BAF0FF"/>
<path d="M93.5994 89.4479C97.9946 89.4479 101.558 85.8789 101.558 81.4764C101.558 77.0738 97.9946 73.5049 93.5994 73.5049C89.2042 73.5049 85.6413 77.0738 85.6413 81.4764C85.6413 85.8789 89.2042 89.4479 93.5994 89.4479Z" fill="#21426E"/>
<path opacity="0.48" d="M86.4699 82.7018C90.4776 82.7018 93.7265 79.4474 93.7265 75.433C93.7265 71.4185 90.4776 68.1642 86.4699 68.1642C82.4622 68.1642 79.2133 71.4185 79.2133 75.433C79.2133 79.4474 82.4622 82.7018 86.4699 82.7018Z" fill="#F5FFFF"/>
<path d="M100.771 87.5543C102.853 87.5543 104.542 85.8632 104.542 83.7771C104.542 81.6911 102.853 80 100.771 80C98.6883 80 97.0001 81.6911 97.0001 83.7771C97.0001 85.8632 98.6883 87.5543 100.771 87.5543Z" fill="#BAF0FF"/>
</g>
<path d="M148.811 77.9188C148.811 79.9392 150.082 84.8231 153.252 90.5151" stroke="#21426E" stroke-miterlimit="10"/>
<path d="M115.856 77.9188C115.856 79.9392 114.584 84.8231 111.414 90.5151" stroke="#21426E" stroke-miterlimit="10"/>
<path d="M259.672 78.8499C259.672 78.8499 228.905 101.034 198.318 101.034C167.731 101.034 148.907 78.8499 148.907 78.8499C148.907 78.8499 167.731 49.8406 198.318 49.8406C228.905 49.8362 259.672 78.8499 259.672 78.8499Z" stroke="#21426E" stroke-width="1.9601" stroke-miterlimit="10"/>
<path opacity="0.16" d="M198.318 58.1592C222.065 58.1592 259.278 79.4692 259.278 79.4692C259.278 79.4692 228.905 50.438 198.318 50.438C167.731 50.438 150.679 74.5194 148.951 78.8939C155.217 70.7511 174.575 58.1592 198.318 58.1592Z" fill="#8B94A5"/>
<path d="M4.90643 78.8499C4.90643 78.8499 35.6735 101.034 66.2609 101.034C96.8482 101.034 115.672 78.8499 115.672 78.8499C115.672 78.8499 96.8482 49.8406 66.2609 49.8406C35.6735 49.8406 4.90643 78.8499 4.90643 78.8499Z" stroke="#21426E" stroke-width="1.9601" stroke-miterlimit="10"/>
<path opacity="0.16" d="M66.261 58.1592C42.5137 58.1592 5.30115 79.4692 5.30115 79.4692C5.30115 79.4692 35.6736 50.438 66.261 50.438C96.8483 50.438 113.9 74.5194 115.628 78.8939C109.362 70.7511 90.0039 58.1592 66.261 58.1592Z" fill="#8B94A5"/>
<path d="M260.12 47.9213C260.12 47.9213 244.861 10.1631 211.555 2.32338C183.081 -4.37884 148.903 9.16176 144.141 26.1018C143.54 28.2363 142.922 32.9841 145.391 34.6267C155.844 41.588 178.043 17.1289 193.214 13.6855C234.912 4.23391 260.12 47.9213 260.12 47.9213Z" stroke="#21426E" stroke-width="2" stroke-miterlimit="10"/>
<path d="M148.46 26.8748C150.573 23.5808 155.16 17.5462 163.162 14.1687C165.468 13.1937 167.665 12.6095 169.607 12.2582" stroke="#21426E" stroke-miterlimit="10"/>
<path d="M0.407806 49.0633C0.407806 49.0633 14.921 11.0108 48.0646 2.51225C76.3982 -4.75215 110.835 8.11207 115.93 24.9555C116.575 27.0812 117.285 31.8114 114.847 33.5067C104.539 40.6701 81.8615 16.6502 66.6248 13.5099C24.7514 4.88394 0.407806 49.0633 0.407806 49.0633Z" stroke="#21426E" stroke-width="2" stroke-miterlimit="10"/>
<path d="M111.633 25.8119C109.458 22.5619 104.749 16.6195 96.686 13.4001C94.3577 12.469 92.1566 11.9288 90.2055 11.6169" stroke="#21426E" stroke-miterlimit="10"/>
<path d="M226.323 101.03C231.931 98.6316 239.591 94.0376 248.123 88.1742C254.591 83.7295 259.672 78.85 259.672 78.85C259.672 78.85 238.771 39.6907 207.789 37.038C185.497 35.1274 163.004 46.718 149.267 66.1087" stroke="#21426E" stroke-width="0.98" stroke-miterlimit="10"/>
<path d="M148.907 77.5059C148.907 77.5059 162.934 51.1538 188.93 46.4104C220.991 40.5603 246.917 63.7457 250.337 67.6371C250.539 67.8655 252.499 69.8023 252.499 69.8023L264 67.7029C264 67.7029 260.799 70.6851 260.067 74.7829C259.453 78.2306 260.282 79.333 260.282 79.333C260.282 79.333 241.901 63.39 226.336 57.8912C175.483 39.9278 148.907 77.5059 148.907 77.5059Z" fill="#21426E"/>
<path d="M38.2561 101.03C32.6481 98.6316 24.9881 94.0376 16.4556 88.1742C9.98825 83.7295 4.90643 78.85 4.90643 78.85C4.90643 78.85 25.8081 39.6907 56.79 37.038C79.0816 35.1274 101.575 46.718 115.312 66.1087" stroke="#21426E" stroke-width="0.98" stroke-miterlimit="10"/>
<path d="M115.672 77.5059C115.672 77.5059 101.645 51.1538 75.6485 46.4104C43.5835 40.5603 17.6571 63.7457 14.2414 67.6327C14.0397 67.8611 12.0798 69.7979 12.0798 69.7979L0.578857 67.6986C0.578857 67.6986 3.77965 70.6807 4.51189 74.7785C5.12574 78.2262 4.29704 79.3286 4.29704 79.3286C4.29704 79.3286 22.6775 63.3856 38.243 57.8868C89.0963 39.9278 115.672 77.5059 115.672 77.5059Z" fill="#21426E"/>
</g>
<defs>
<clipPath id="clip0">
<rect width="264" height="105" fill="white"/>
</clipPath>
</defs>
</svg>
