<?xml version="1.0" encoding="utf-8"?>
<!-- Generator: Adobe Illustrator 23.0.1, SVG Export Plug-In . SVG Version: 6.00 Build 0)  -->
<svg version="1.1" id="Слой_1" xmlns="http://www.w3.org/2000/svg" xmlns:xlink="http://www.w3.org/1999/xlink" x="0px" y="0px"
	 viewBox="0 0 354.4 233.1" style="enable-background:new 0 0 354.4 233.1;" xml:space="preserve">
<style type="text/css">
	.st0{fill:#F6F9FE;}
	.st1{fill:#21426E;}
	.st2{opacity:0.16;enable-background:new    ;}
	.st3{fill:#8B94A5;}
</style>
<g>
	<g>
		<path class="st0" d="M177.2,2.3C81.3,2.3,3.6,53.5,3.6,116.5s77.7,114.2,173.6,114.2s173.6-51.1,173.6-114.2S273.1,2.3,177.2,2.3z
			 M108,164.4c-32.1,0-64.4-23.2-64.4-23.2s32.3-30.4,64.4-30.4s51.8,30.4,51.8,30.4S140.1,164.4,108,164.4z M246.6,164.4
			c-32.1,0-51.8-23.2-51.8-23.2s19.8-30.4,51.8-30.4s64.4,30.4,64.4,30.4S278.6,164.4,246.6,164.4z"/>
	</g>
	<g>
		<path class="st1" d="M199.1,153.5c-3.2-5.8-4.7-10.9-4.7-13.3h0.4c0,1.9,1.2,7,4.6,13.1L199.1,153.5z"/>
	</g>
	<g>
		<path class="st1" d="M155.6,153.5l-0.4-0.2c3.4-6.1,4.6-11.2,4.6-13.1h0.4C160.3,142.6,158.8,147.8,155.6,153.5z"/>
	</g>
	<g>
		<path class="st1" d="M246.6,164.9c-16.7,0-30-6.4-38.2-11.7c-8.9-5.8-13.9-11.6-14-11.7l-0.2-0.2l0.2-0.3c0-0.1,5.1-7.7,14-15.3
			c8.2-7,21.5-15.3,38.2-15.3c16.7,0,33.4,8.3,44.4,15.3c12,7.5,20.1,15.2,20.2,15.2l0.4,0.3l-0.4,0.3
			C310.8,141.8,278.4,164.9,246.6,164.9z M195.2,141.2c2.2,2.4,21.5,22.9,51.3,22.9c29.6,0,59.8-20.2,63.7-22.9
			c-3.7-3.4-34-29.9-63.7-29.9c-16.4,0-29.6,8.2-37.7,15.1C201,133,196.2,139.8,195.2,141.2z"/>
	</g>
	<g class="st2">
		<path class="st3" d="M246.6,119.5c24.9,0,64,22.3,64,22.3s-31.9-30.4-64-30.4s-50,25.2-51.8,29.8
			C201.3,132.7,221.6,119.5,246.6,119.5z"/>
	</g>
	<g>
		<path class="st1" d="M108,164.9c-31.9,0-64.3-23.1-64.6-23.3l-0.4-0.3l0.4-0.3c0.1-0.1,8.2-7.7,20.2-15.2
			c11.1-7,27.8-15.3,44.4-15.3c16.7,0,30,8.3,38.2,15.3c8.9,7.5,13.9,15.2,14,15.3l0.2,0.3l-0.2,0.2c0,0.1-5.1,5.9-14,11.7
			C138,158.5,124.7,164.9,108,164.9z M44.3,141.2c3.9,2.7,34.1,22.9,63.7,22.9c29.8,0,49.1-20.4,51.3-22.9c-1-1.4-5.8-8.2-13.6-14.9
			c-8.1-6.9-21.2-15.1-37.7-15.1C78.3,111.2,48,137.8,44.3,141.2z"/>
	</g>
	<g class="st2">
		<path class="st3" d="M108,119.5c-24.9,0-64,22.3-64,22.3s31.9-30.4,64-30.4s50,25.2,51.8,29.8C153.2,132.7,132.9,119.5,108,119.5z
			"/>
	</g>
	<g>
		<path class="st1" d="M311,109c-0.1-0.1-6.7-11.5-18.6-21.5c-10.9-9.2-28.7-19.2-51.1-14.1c-6.4,1.5-14.2,6.6-21.8,11.7
			c-11.3,7.5-22,14.7-28.8,10.2c-2.7-1.8-2.2-6.8-1.5-9.4c2.4-8.6,12.3-16.9,26.3-22c14.5-5.3,30.9-6.5,44.9-3.2
			c18.2,4.3,31.1,17.1,38.8,27.1c8.3,10.8,12.4,20.8,12.4,20.9L311,109z M253.4,71.1c17,0,30.6,8.1,39.6,15.7
			c7.1,6,12.4,12.5,15.5,16.8c-2-3.9-5.3-9.5-9.8-15.4c-7.6-9.9-20.4-22.6-38.3-26.8c-13.9-3.3-30.1-2.1-44.4,3.2
			c-13.8,5.1-23.4,13.1-25.8,21.5c-0.7,2.6-1,7,1.1,8.5c6.2,4.1,16.7-2.8,27.8-10.2c7.6-5.1,15.4-10.3,22-11.8
			C245.4,71.6,249.5,71.1,253.4,71.1z"/>
	</g>
	<g>
		<path class="st1" d="M194.4,86.9l-0.4-0.2c2.8-4.3,7.7-10.1,15.5-13.4c2.2-0.9,4.5-1.6,6.8-2l0.1,0.4c-2.3,0.4-4.6,1.1-6.7,2
			C202,76.9,197.2,82.6,194.4,86.9z"/>
	</g>
	<g>
		<path class="st1" d="M39.3,110.2l-0.8-0.4c0-0.1,3.9-10.1,12-21.1C58,78.5,70.7,65.5,88.8,60.8c14-3.6,30.4-2.7,45,2.3
			c14.1,4.9,24.1,12.9,26.7,21.5c0.8,2.6,1.4,7.6-1.3,9.4c-6.6,4.6-17.5-2.3-29-9.6c-7.6-4.9-15.5-9.9-22-11.2
			c-22.5-4.6-40.1,5.7-50.8,15.1C45.8,98.6,39.4,110.1,39.3,110.2z M106.9,59.5c-6.2,0-12.2,0.7-17.9,2.2
			c-17.8,4.6-30.4,17.5-37.8,27.6c-4.4,6-7.5,11.6-9.5,15.6c3-4.4,8.2-11,15.2-17.1c10.9-9.6,28.7-20,51.6-15.3
			c6.6,1.4,14.6,6.4,22.3,11.3c11.2,7.2,21.8,13.9,28,9.7c2.3-1.6,1.6-6.2,1-8.5c-2.5-8.3-12.3-16.2-26.2-20.9
			C125,61,115.8,59.5,106.9,59.5z"/>
	</g>
	<g>
		<path class="st1" d="M155.4,85.8c-2.8-4.2-7.8-9.8-15.6-12.9c-2.2-0.9-4.4-1.5-6.8-1.9l0.1-0.4c2.4,0.4,4.7,1,6.8,1.9
			c7.9,3.1,12.9,8.8,15.8,13.1L155.4,85.8z"/>
	</g>
	<g>
		<path class="st1" d="M276,164.6l-0.2-0.4c5.6-2.4,13.5-7,22.8-13.4c6.2-4.2,11.2-8.9,12-9.6c-0.7-1.3-6.1-10.9-14.9-20.7
			c-8.7-9.6-22.5-21.4-39.3-22.9c-23.1-2-46.5,9.7-61.2,30.4l-0.3-0.2c7.1-10.1,16.6-18.2,27.4-23.7c10.9-5.5,22.8-7.9,34.2-6.9
			c16.9,1.4,30.8,13.3,39.5,23c9.5,10.5,15,20.8,15.1,20.9l0.1,0.1l-0.1,0.1c-0.1,0.1-5.4,5.2-12.1,9.8
			C289.6,157.6,281.7,162.2,276,164.6z"/>
	</g>
	<g>
		<path class="st1" d="M194.7,139.8c0,0,14.7-27.6,42-32.6c33.6-6.1,60.8,18.2,64.4,22.2c0.2,0.2,2.3,2.3,2.3,2.3l12.1-2.2
			c0,0-3.4,3.1-4.1,7.4c-0.6,3.6,0.2,4.8,0.2,4.8S292.3,125,276,119.2C222.6,100.4,194.7,139.8,194.7,139.8z"/>
	</g>
	<g>
		<path class="st1" d="M78.5,164.6c-5.6-2.4-13.6-7.1-22.9-13.5c-6.7-4.6-12.1-9.7-12.1-9.8l-0.1-0.1l0.1-0.1
			c0.1-0.1,5.6-10.4,15.1-20.9c8.7-9.7,22.7-21.6,39.5-23c11.4-1,23.2,1.4,34.2,6.9c10.8,5.4,20.3,13.6,27.4,23.7l-0.3,0.2
			c-14.7-20.7-38.1-32.3-61.2-30.4c-16.7,1.4-30.6,13.2-39.3,22.9c-8.8,9.8-14.2,19.4-14.9,20.7c0.8,0.8,5.8,5.4,12,9.6
			c9.3,6.4,17.2,11.1,22.8,13.4L78.5,164.6z"/>
	</g>
	<g>
		<path class="st1" d="M159.8,139.8c0,0-14.7-27.6-42-32.6c-33.6-6.1-60.8,18.2-64.4,22.2c-0.2,0.2-2.3,2.3-2.3,2.3l-12.1-2.2
			c0,0,3.4,3.1,4.1,7.4c0.6,3.6-0.2,4.8-0.2,4.8s19.3-16.7,35.6-22.5C132,100.4,159.8,139.8,159.8,139.8z"/>
	</g>
</g>
</svg>
