<?xml version="1.0" encoding="utf-8"?>
<!-- Generator: Adobe Illustrator 23.0.1, SVG Export Plug-In . SVG Version: 6.00 Build 0)  -->
<svg version="1.1" id="Слой_1" xmlns="http://www.w3.org/2000/svg" xmlns:xlink="http://www.w3.org/1999/xlink" x="0px" y="0px"
	 viewBox="0 0 282.2 121.9" style="enable-background:new 0 0 282.2 121.9;" xml:space="preserve">
<style type="text/css">
	.st0{fill:#F6F9FE;}
	.st1{fill:none;}
	.st2{fill:none;stroke:#21426E;stroke-miterlimit:10;}
	.st3{fill:none;stroke:#21426E;stroke-width:1.9601;stroke-miterlimit:10;}
	.st4{opacity:0.16;fill:#8B94A5;enable-background:new    ;}
	.st5{fill:none;stroke:#21426E;stroke-width:2;stroke-miterlimit:10;}
	.st6{fill:none;stroke:#21426E;stroke-width:0.98;stroke-miterlimit:10;}
	.st7{fill:#21426E;}
</style>
<g>
	<path class="st0" d="M141.1,8C63.2,8,0,39.5,0,78.2s63.2,70.3,141.1,70.3s141.1-31.4,141.1-70.3S219.1,8,141.1,8z M75.5,110.2
		c-30.7,0-61.6-28.6-61.6-28.6S44.8,44,75.5,44s49.6,37.5,49.6,37.5S106.2,110.2,75.5,110.2z M208.1,110.2
		c-30.7,0-49.6-28.6-49.6-28.6S177.4,44,208.1,44s61.6,37.5,61.6,37.5S238.8,110.2,208.1,110.2z"/>
</g>
<rect x="9.1" y="-13.8" class="st1" width="264" height="129.6"/>
<path class="st2" d="M157.9,82.4c0,2.5,1.3,8.5,4.4,15.6"/>
<path class="st2" d="M125,82.4c0,2.5-1.3,8.5-4.4,15.6"/>
<path class="st3" d="M268.8,83.5c0,0-30.8,27.4-61.4,27.4S158,83.5,158,83.5s18.8-35.8,49.4-35.8C238,47.7,268.8,83.5,268.8,83.5z"
	/>
<path class="st4" d="M207.4,58.1c23.7,0,61,26.3,61,26.3s-30.4-35.8-61-35.8S159.8,78.3,158,83.8C164.3,73.7,183.7,58.1,207.4,58.1z
	"/>
<path class="st3" d="M14,83.5c0,0,30.8,27.4,61.4,27.4s49.4-27.4,49.4-27.4S106,47.7,75.4,47.7C44.8,47.7,14,83.5,14,83.5z"/>
<path class="st4" d="M75.4,58.1c-23.7,0-61,26.3-61,26.3s30.4-35.8,61-35.8s47.6,29.8,49.4,35.2C118.5,73.7,99.1,58.1,75.4,58.1z"/>
<path class="st5" d="M269.2,49.6c0,0-15.3-37.8-48.6-45.6c-28.5-6.7-62.7,6.8-67.4,23.8c-0.6,2.1-1.2,6.9,1.3,8.5
	c10.5,7,32.7-17.5,47.8-20.9C244,5.9,269.2,49.6,269.2,49.6z"/>
<path class="st2" d="M157.6,28.6c2.1-3.3,6.7-9.3,14.7-12.7c2.3-1,4.5-1.6,6.4-1.9"/>
<path class="st5" d="M9.5,50.8c0,0,14.5-38.1,47.7-46.6C85.5-3.1,120,9.8,125,26.7c0.6,2.1,1.4,6.9-1.1,8.6
	c-10.3,7.2-33-16.9-48.2-20C33.9,6.6,9.5,50.8,9.5,50.8z"/>
<path class="st2" d="M120.8,27.5c-2.2-3.3-6.9-9.2-14.9-12.4c-2.3-0.9-4.5-1.5-6.5-1.8"/>
<path class="st6" d="M235.4,110.9c5.6-3,13.3-8.6,21.8-15.9c6.5-5.4,11.5-11.5,11.5-11.5s-20.8-48.3-51.8-51.6
	c-22.3-2.3-44.8,12-58.5,35.9"/>
<path class="st7" d="M158,81.9c0,0,14-32.6,40-38.4c32.1-7.3,58,21.4,61.4,26.2c0.2,0.2,2.2,2.7,2.2,2.7l11.5-2.6
	c0,0-3.2,3.7-3.9,8.8c-0.6,4.2,0.2,5.7,0.2,5.7S251,64.5,235.5,57.7C184.6,35.5,158,81.9,158,81.9z"/>
<path class="st6" d="M47.4,110.9c-5.6-3-13.3-8.6-21.8-15.9C19.1,89.6,14,83.5,14,83.5s20.9-48.3,51.9-51.6
	c22.3-2.3,44.8,12,58.5,35.9"/>
<path class="st7" d="M124.8,81.9c0,0-14-32.6-40-38.4c-32.1-7.3-58,21.4-61.4,26.2c-0.2,0.2-2.2,2.7-2.2,2.7L9.7,69.8
	c0,0,3.2,3.7,3.9,8.8c0.6,4.2-0.2,5.7-0.2,5.7s18.4-19.6,33.9-26.4C98.2,35.5,124.8,81.9,124.8,81.9z"/>
</svg>
