<?xml version="1.0" encoding="utf-8"?>
<!-- Generator: Adobe Illustrator 23.0.1, SVG Export Plug-In . SVG Version: 6.00 Build 0)  -->
<svg version="1.1" id="Слой_1" xmlns="http://www.w3.org/2000/svg" xmlns:xlink="http://www.w3.org/1999/xlink" x="0px" y="0px"
	 viewBox="0 0 282.2 121.9" style="enable-background:new 0 0 282.2 121.9;" xml:space="preserve">
<style type="text/css">
	.st0{fill:#F6F9FE;}
	.st1{fill:none;}
	.st2{fill:none;stroke:#21426E;stroke-miterlimit:10;}
	.st3{fill:none;stroke:#21426E;stroke-width:1.9601;stroke-miterlimit:10;}
	.st4{opacity:0.16;fill:#8B94A5;enable-background:new    ;}
	.st5{fill:none;stroke:#21426E;stroke-width:2;stroke-miterlimit:10;}
	.st6{fill:none;stroke:#21426E;stroke-width:0.98;stroke-miterlimit:10;}
	.st7{fill:#21426E;}
</style>
<g>
	<path class="st0" d="M141.1,19.3C63.2,19.3,0,44.8,0,76.2s63.2,56.9,141.1,56.9s141.1-25.4,141.1-56.9S219.1,19.3,141.1,19.3z
		 M75.5,102.1c-30.7,0-61.6-23.2-61.6-23.2s30.9-30.4,61.6-30.4s49.6,30.4,49.6,30.4S106.2,102.1,75.5,102.1z M208.1,102.1
		c-30.7,0-49.6-23.2-49.6-23.2s18.9-30.4,49.6-30.4s61.6,30.4,61.6,30.4S238.8,102.1,208.1,102.1z"/>
</g>
<rect x="9.1" y="1.7" class="st1" width="264" height="105"/>
<g>
	<path class="st2" d="M157.9,79.6c0,2,1.3,6.9,4.4,12.6"/>
	<path class="st2" d="M125,79.6c0,2-1.3,6.9-4.4,12.6"/>
	<path class="st3" d="M268.8,80.5c0,0-30.8,22.2-61.4,22.2S158,80.5,158,80.5s18.8-29,49.4-29C238,51.5,268.8,80.5,268.8,80.5z"/>
	<path class="st4" d="M207.4,59.9c23.7,0,61,21.3,61,21.3s-30.4-29-61-29S159.8,76.3,158,80.7C164.3,72.5,183.7,59.9,207.4,59.9z"/>
	<path class="st3" d="M14,80.5c0,0,30.8,22.2,61.4,22.2s49.4-22.2,49.4-22.2s-18.8-29-49.4-29C44.8,51.5,14,80.5,14,80.5z"/>
	<path class="st4" d="M75.4,59.9c-23.7,0-61,21.3-61,21.3s30.4-29,61-29s47.6,24.1,49.4,28.5C118.5,72.5,99.1,59.9,75.4,59.9z"/>
	<path class="st5" d="M269.2,49.6c0,0-15.3-37.8-48.6-45.6c-28.5-6.7-62.7,6.8-67.4,23.8c-0.6,2.1-1.2,6.9,1.3,8.5
		c10.5,7,32.7-17.5,47.8-20.9C244,5.9,269.2,49.6,269.2,49.6z"/>
	<path class="st2" d="M157.6,28.6c2.1-3.3,6.7-9.3,14.7-12.7c2.3-1,4.5-1.6,6.4-1.9"/>
	<path class="st5" d="M9.5,50.8c0,0,14.5-38.1,47.7-46.6C85.5-3.1,120,9.8,125,26.7c0.6,2.1,1.4,6.9-1.1,8.6
		c-10.3,7.2-33-16.9-48.2-20C33.9,6.6,9.5,50.8,9.5,50.8z"/>
	<path class="st2" d="M120.8,27.5c-2.2-3.3-6.9-9.2-14.9-12.4c-2.3-0.9-4.5-1.5-6.5-1.8"/>
	<path class="st6" d="M235.4,102.7c5.6-2.4,13.3-7,21.8-12.9c6.5-4.4,11.5-9.3,11.5-9.3s-20.8-39.1-51.8-41.8
		c-22.3-1.9-44.8,9.7-58.5,29.1"/>
	<path class="st7" d="M158,79.2c0,0,14-26.4,40-31.1c32.1-5.9,58,17.3,61.4,21.2c0.2,0.2,2.2,2.2,2.2,2.2l11.5-2.1
		c0,0-3.2,3-3.9,7.1c-0.6,3.4,0.2,4.6,0.2,4.6s-18.4-16-33.9-21.5C184.6,41.6,158,79.2,158,79.2z"/>
	<path class="st6" d="M47.4,102.7c-5.6-2.4-13.3-7-21.8-12.9C19.1,85.4,14,80.5,14,80.5s20.9-39.1,51.9-41.8
		c22.3-1.9,44.8,9.7,58.5,29.1"/>
	<path class="st7" d="M124.8,79.2c0,0-14-26.4-40-31.1c-32.1-5.9-58,17.3-61.4,21.2c-0.2,0.2-2.2,2.2-2.2,2.2L9.7,69.4
		c0,0,3.2,3,3.9,7.1c0.6,3.4-0.2,4.6-0.2,4.6s18.4-15.9,33.9-21.4C98.2,41.6,124.8,79.2,124.8,79.2z"/>
</g>
</svg>
