<?xml version="1.0" encoding="utf-8"?>
<!-- Generator: Adobe Illustrator 23.0.1, SVG Export Plug-In . SVG Version: 6.00 Build 0)  -->
<svg version="1.1" id="Слой_1" xmlns="http://www.w3.org/2000/svg" xmlns:xlink="http://www.w3.org/1999/xlink" x="0px" y="0px"
	 viewBox="0 0 282.2 121.9" style="enable-background:new 0 0 282.2 121.9;" xml:space="preserve">
<style type="text/css">
	.st0{fill:#F6F9FE;}
	.st1{fill:none;}
	.st2{fill:none;stroke:#21426E;stroke-miterlimit:10;}
	.st3{fill:none;stroke:#21426E;stroke-width:1.9601;stroke-miterlimit:10;}
	.st4{opacity:0.16;fill:#8B94A5;enable-background:new    ;}
	.st5{fill:none;stroke:#21426E;stroke-width:2;stroke-miterlimit:10;}
	.st6{fill:none;stroke:#21426E;stroke-width:0.98;stroke-miterlimit:10;}
	.st7{fill:#21426E;}
</style>
<g>
	<path class="st0" d="M141.1,15.9C63.2,15.9,0,43.2,0,76.8s63.2,60.8,141.1,60.8s141.1-27.2,141.1-60.8S219.1,15.9,141.1,15.9z
		 M75.5,104.5c-30.7,0-61.6-24.8-61.6-24.8s30.9-32.5,61.6-32.5s49.6,32.5,49.6,32.5S106.2,104.5,75.5,104.5z M208.1,104.5
		c-30.7,0-49.6-24.8-49.6-24.8s18.9-32.5,49.6-32.5s61.6,32.5,61.6,32.5S238.8,104.5,208.1,104.5z"/>
</g>
<rect x="9.1" y="-2.9" class="st1" width="264" height="112.3"/>
<path class="st2" d="M157.9,80.4c0,2.1,1.3,7.4,4.4,13.5"/>
<path class="st2" d="M125,80.4c0,2.1-1.3,7.4-4.4,13.5"/>
<path class="st3" d="M268.8,81.4c0,0-30.8,23.7-61.4,23.7S158,81.4,158,81.4s18.8-31,49.4-31C238,50.4,268.8,81.4,268.8,81.4z"/>
<path class="st4" d="M207.4,59.3c23.7,0,61,22.8,61,22.8s-30.4-31-61-31S159.8,76.9,158,81.6C164.3,72.8,183.7,59.3,207.4,59.3z"/>
<path class="st3" d="M14,81.4c0,0,30.8,23.7,61.4,23.7s49.4-23.7,49.4-23.7s-18.8-31-49.4-31C44.8,50.4,14,81.4,14,81.4z"/>
<path class="st4" d="M75.4,59.3c-23.7,0-61,22.8-61,22.8s30.4-31,61-31s47.6,25.8,49.4,30.5C118.5,72.8,99.1,59.3,75.4,59.3z"/>
<path class="st5" d="M269.2,49.6c0,0-15.3-37.8-48.6-45.6c-28.5-6.7-62.7,6.8-67.4,23.8c-0.6,2.1-1.2,6.9,1.3,8.5
	c10.5,7,32.7-17.5,47.8-20.9C244,5.9,269.2,49.6,269.2,49.6z"/>
<path class="st2" d="M157.6,28.6c2.1-3.3,6.7-9.3,14.7-12.7c2.3-1,4.5-1.6,6.4-1.9"/>
<path class="st5" d="M9.5,50.8c0,0,14.5-38.1,47.7-46.6C85.5-3.1,120,9.8,125,26.7c0.6,2.1,1.4,6.9-1.1,8.6
	c-10.3,7.2-33-16.9-48.2-20C33.9,6.6,9.5,50.8,9.5,50.8z"/>
<path class="st2" d="M120.8,27.5c-2.2-3.3-6.9-9.2-14.9-12.4c-2.3-0.9-4.5-1.5-6.5-1.8"/>
<path class="st6" d="M235.4,105.1c5.6-2.6,13.3-7.5,21.8-13.8c6.5-4.7,11.5-9.9,11.5-9.9s-20.8-41.8-51.8-44.7
	c-22.3-2-44.8,10.4-58.5,31.1"/>
<path class="st7" d="M158,80c0,0,14-28.2,40-33.3c32.1-6.3,58,18.5,61.4,22.7c0.2,0.2,2.2,2.4,2.2,2.4l11.5-2.2c0,0-3.2,3.2-3.9,7.6
	c-0.6,3.6,0.2,4.9,0.2,4.9S251,64.9,235.5,59C184.6,39.8,158,80,158,80z"/>
<path class="st6" d="M47.4,105.1c-5.6-2.6-13.3-7.5-21.8-13.8C19.1,86.6,14,81.4,14,81.4s20.9-41.8,51.9-44.7
	c22.3-2,44.8,10.4,58.5,31.1"/>
<path class="st7" d="M124.8,80c0,0-14-28.2-40-33.3c-32.1-6.3-58,18.5-61.4,22.7c-0.2,0.2-2.2,2.4-2.2,2.4L9.7,69.5
	c0,0,3.2,3.2,3.9,7.6c0.6,3.6-0.2,4.9-0.2,4.9s18.4-17,33.9-22.9C98.2,39.8,124.8,80,124.8,80z"/>
</svg>
