<?xml version="1.0" encoding="utf-8"?>
<!-- Generator: Adobe Illustrator 23.0.1, SVG Export Plug-In . SVG Version: 6.00 Build 0)  -->
<svg version="1.1" id="Слой_1" xmlns="http://www.w3.org/2000/svg" xmlns:xlink="http://www.w3.org/1999/xlink" x="0px" y="0px"
	 viewBox="0 0 282.2 121.9" style="enable-background:new 0 0 282.2 121.9;" xml:space="preserve">
<style type="text/css">
	.st0{fill:#F6F9FE;}
	.st1{fill:none;}
	.st2{fill:none;stroke:#21426E;stroke-miterlimit:10;}
	.st3{fill:none;stroke:#21426E;stroke-width:1.9601;stroke-miterlimit:10;}
	.st4{opacity:0.16;fill:#8B94A5;enable-background:new    ;}
	.st5{fill:none;stroke:#21426E;stroke-width:2;stroke-miterlimit:10;}
	.st6{fill:none;stroke:#21426E;stroke-width:0.98;stroke-miterlimit:10;}
	.st7{fill:#21426E;}
</style>
<g>
	<path class="st0" d="M141.1,12.2C63.2,12.2,0,41.4,0,77.4s63.2,65.2,141.1,65.2s141.1-29.1,141.1-65.2S219.1,12.2,141.1,12.2z
		 M75.5,107.1c-30.7,0-61.6-26.6-61.6-26.6s30.9-34.9,61.6-34.9s49.6,34.9,49.6,34.9S106.2,107.1,75.5,107.1z M208.1,107.1
		c-30.7,0-49.6-26.6-49.6-26.6s18.9-34.9,49.6-34.9s61.6,34.9,61.6,34.9S238.8,107.1,208.1,107.1z"/>
</g>
<rect x="9.1" y="-8" class="st1" width="264" height="120.4"/>
<path class="st2" d="M157.9,81.3c0,2.3,1.3,7.9,4.4,14.4"/>
<path class="st2" d="M125,81.3c0,2.3-1.3,7.9-4.4,14.4"/>
<path class="st3" d="M268.8,82.4c0,0-30.8,25.5-61.4,25.5S158,82.4,158,82.4s18.8-33.2,49.4-33.2C238,49.1,268.8,82.4,268.8,82.4z"
	/>
<path class="st4" d="M207.4,58.8c23.7,0,61,24.4,61,24.4s-30.4-33.2-61-33.2S159.8,77.6,158,82.6C164.3,73.2,183.7,58.8,207.4,58.8z
	"/>
<path class="st3" d="M14,82.4c0,0,30.8,25.5,61.4,25.5s49.4-25.5,49.4-25.5S106,49.1,75.4,49.1C44.8,49.1,14,82.4,14,82.4z"/>
<path class="st4" d="M75.4,58.8c-23.7,0-61,24.4-61,24.4s30.4-33.2,61-33.2s47.6,27.6,49.4,32.7C118.5,73.2,99.1,58.8,75.4,58.8z"/>
<path class="st5" d="M269.2,49.6c0,0-15.3-37.8-48.6-45.6c-28.5-6.7-62.7,6.8-67.4,23.8c-0.6,2.1-1.2,6.9,1.3,8.5
	c10.5,7,32.7-17.5,47.8-20.9C244,5.9,269.2,49.6,269.2,49.6z"/>
<path class="st2" d="M157.6,28.6c2.1-3.3,6.7-9.3,14.7-12.7c2.3-1,4.5-1.6,6.4-1.9"/>
<path class="st5" d="M9.5,50.8c0,0,14.5-38.1,47.7-46.6C85.5-3.1,120,9.8,125,26.7c0.6,2.1,1.4,6.9-1.1,8.6
	c-10.3,7.2-33-16.9-48.2-20C33.9,6.6,9.5,50.8,9.5,50.8z"/>
<path class="st2" d="M120.8,27.5c-2.2-3.3-6.9-9.2-14.9-12.4c-2.3-0.9-4.5-1.5-6.5-1.8"/>
<path class="st6" d="M235.4,107.8c5.6-2.8,13.3-8,21.8-14.8c6.5-5,11.5-10.7,11.5-10.7s-20.8-44.8-51.8-47.9
	c-22.3-2.2-44.8,11.1-58.5,33.4"/>
<path class="st7" d="M158,80.9c0,0,14-30.3,40-35.7c32.1-6.8,58,19.8,61.4,24.3c0.2,0.2,2.2,2.5,2.2,2.5l11.5-2.4
	c0,0-3.2,3.4-3.9,8.1c-0.6,3.9,0.2,5.3,0.2,5.3S251,64.7,235.5,58.4C184.6,37.8,158,80.9,158,80.9z"/>
<path class="st6" d="M47.4,107.8c-5.6-2.8-13.3-8-21.8-14.8C19.1,88,14,82.4,14,82.4s20.9-44.8,51.9-47.9
	c22.3-2.2,44.8,11.1,58.5,33.4"/>
<path class="st7" d="M124.8,80.9c0,0-14-30.3-40-35.7c-32.1-6.8-58,19.8-61.4,24.3c-0.2,0.2-2.2,2.5-2.2,2.5L9.7,69.7
	c0,0,3.2,3.4,3.9,8.1c0.6,3.9-0.2,5.3-0.2,5.3s18.4-18.2,33.9-24.5C98.2,37.8,124.8,80.9,124.8,80.9z"/>
</svg>
