<svg width="46" height="46" viewBox="0 0 46 46" fill="none" xmlns="http://www.w3.org/2000/svg">
<path d="M22.788 45.5167C35.0799 45.5167 45.0445 35.5354 45.0445 23.2228C45.0445 10.9103 35.0799 0.928955 22.788 0.928955C10.4961 0.928955 0.531494 10.9103 0.531494 23.2228C0.531494 35.5354 10.4961 45.5167 22.788 45.5167Z" fill="#BAF0FF"/>
<path d="M22.788 31.1945C27.1832 31.1945 30.7461 27.6255 30.7461 23.223C30.7461 18.8204 27.1832 15.2515 22.788 15.2515C18.3928 15.2515 14.8298 18.8204 14.8298 23.223C14.8298 27.6255 18.3928 31.1945 22.788 31.1945Z" fill="#21426E"/>
<path opacity="0.48" d="M15.6585 37.4482C19.6662 37.4482 22.9151 34.1939 22.9151 30.1794C22.9151 26.165 19.6662 22.9106 15.6585 22.9106C11.6507 22.9106 8.40186 26.165 8.40186 30.1794C8.40186 34.1939 11.6507 37.4482 15.6585 37.4482Z" fill="#F5FFFF"/>
<path d="M32.3023 36.4832C34.3848 36.4832 36.0731 34.7922 36.0731 32.7061C36.0731 30.62 34.3848 28.929 32.3023 28.929C30.2197 28.929 28.5315 30.62 28.5315 32.7061C28.5315 34.7922 30.2197 36.4832 32.3023 36.4832Z" fill="#BAF0FF"/>
</svg>
