<svg width="126" height="91" viewBox="0 0 126 91" fill="none" xmlns="http://www.w3.org/2000/svg">
<g clip-path="url(#clip0)">
<path d="M126 59.002C126 54.6226 122.44 51.0719 118.049 51.0719H93.1012C90.8284 51.0719 88.9857 49.2341 88.9857 46.9674C88.9857 44.698 90.8298 42.8589 93.1052 42.8589C97.1541 42.8589 100.436 39.5857 100.436 35.5476V34.9301C100.436 30.5508 96.8759 27 92.4847 27H35.2896C30.8985 27 27.3382 30.5508 27.3382 34.9301C27.3382 39.3095 30.8985 42.8602 35.2896 42.8602H52.2457C54.5211 42.8602 56.3652 44.6994 56.3652 46.9687C56.3652 49.2354 54.5224 51.0732 52.2497 51.0732H18.9514C14.5603 51.0719 11 54.6226 11 59.002C11 63.3814 14.5603 66.9321 18.9514 66.9321H53.0472C55.32 66.9321 57.1627 68.7699 57.1627 71.0366C57.1627 73.3033 55.32 75.1411 53.0472 75.1411H35.2896C30.8985 75.1411 27.3382 78.6918 27.3382 83.0712C27.3382 87.4506 30.8985 91.0013 35.2896 91.0013H106.731C111.122 91.0013 114.683 87.4506 114.683 83.0712V82.6078C114.683 78.4847 111.331 75.1411 107.196 75.1411C104.923 75.1411 103.08 73.3033 103.08 71.0366C103.08 68.7699 104.923 66.9321 107.196 66.9321H118.049C122.44 66.9308 126 63.3814 126 59.002Z" fill="#EDF5FF"/>
</g>
<path d="M56.4596 52.8324C56.949 54.8822 57.1956 56.9999 57.1956 59.1268C57.1956 74.0808 44.9851 86.2479 29.9778 86.2479C14.9705 86.2479 2.76005 74.0826 2.76005 59.1286C2.76005 44.1746 14.9705 32.0075 29.9778 32.0075C32.9035 32.0075 35.7794 32.4658 38.5285 33.3734L39.3951 30.7625C36.3664 29.7651 33.1979 29.259 29.9778 29.259C13.4488 29.2572 0 42.6564 0 59.1286C0 75.5989 13.4488 89 29.9778 89C46.5068 89 59.9556 75.5989 59.9556 59.1286C59.9556 56.7872 59.6833 54.455 59.1442 52.198L56.4596 52.8324Z" fill="#2C4A9D"/>
<path d="M12.5693 64.7356C12.1773 63.5255 11.9124 62.2677 11.7817 60.9989L9.03641 61.2794C9.18729 62.7389 9.4909 64.1855 9.9417 65.5808C10.9703 68.7619 12.7036 71.5837 15.092 73.9636C19.1952 78.0523 24.5865 80.0985 29.9778 80.0985C35.3691 80.0985 40.7604 78.0541 44.8637 73.9636C53.0721 65.7843 53.0721 52.4768 44.8637 44.2975C36.6553 36.1183 23.3003 36.1183 15.092 44.2975L17.0442 46.2429C24.1762 39.1362 35.7813 39.1362 42.9133 46.2429C50.0452 53.3495 50.0452 64.9134 42.9133 72.0201C35.7813 79.1267 24.1762 79.1267 17.0442 72.0201C14.9668 69.9482 13.4617 67.4987 12.5693 64.7356Z" fill="#2C4A9D"/>
<path d="M54.5386 18.4138L53.4144 19.9851C52.5937 21.1329 45.401 31.3253 45.401 35.9036C45.401 40.9237 49.5006 45.0087 54.5386 45.0087C59.5766 45.0087 63.6762 40.9237 63.6762 35.9036C63.6762 31.3272 56.4835 21.1329 55.6629 19.9851L54.5386 18.4138ZM54.5386 42.2585C51.0223 42.2585 48.1611 39.4074 48.1611 35.9036C48.1611 33.4559 51.7105 27.3906 54.5386 23.2011C57.3667 27.3906 60.9162 33.454 60.9162 35.9036C60.9162 39.4074 58.0549 42.2585 54.5386 42.2585Z" fill="#2C4A9D"/>
<path d="M70.9867 1.57131L69.8624 0L68.7381 1.57131C67.9175 2.71908 60.7248 12.9115 60.7248 17.4898C60.7248 22.5099 64.8244 26.5949 69.8624 26.5949C74.9004 26.5949 79 22.5099 79 17.4898C79 12.9134 71.8073 2.71908 70.9867 1.57131ZM69.8624 23.8447C66.3461 23.8447 63.4848 20.9936 63.4848 17.4898C63.4848 15.042 67.0343 8.97682 69.8624 4.78727C72.6924 8.97682 76.24 15.0402 76.24 17.4898C76.24 20.9936 73.3787 23.8447 69.8624 23.8447Z" fill="#2C4A9D"/>
<path d="M53.1806 37.4842L51.865 39.9026C52.682 40.3445 53.5707 40.559 54.4448 40.559C55.7089 40.559 56.9417 40.108 57.8911 39.2334C59.8857 37.3944 59.4607 34.7835 59.4055 34.4919L56.6914 34.998C56.7006 35.053 56.9251 36.3768 56.0161 37.2147C55.2912 37.8839 54.1246 37.9939 53.1806 37.4842Z" fill="#2C4A9D"/>
<path d="M68.4824 19.0866L67.1667 21.505C67.9837 21.9469 68.8725 22.1632 69.7465 22.1632C71.0106 22.1632 72.2434 21.7122 73.1929 20.8376C75.1875 18.9986 74.7624 16.3877 74.7072 16.0962L71.9932 16.6022C72.0024 16.6572 72.2268 17.981 71.3179 18.8189C70.5929 19.4845 69.4263 19.5963 68.4824 19.0866Z" fill="#2C4A9D"/>
<path d="M34.0388 45.8447C32.1436 45.8447 30.4746 46.8146 29.4994 48.2815C23.7125 48.5326 19.0811 53.2998 19.0811 59.1266C19.0811 65.113 23.9701 69.9846 29.9778 69.9846C35.9855 69.9846 40.8745 65.113 40.8745 59.1266C40.8745 56.9503 40.225 54.9224 39.1136 53.2209C39.351 52.614 39.4816 51.954 39.4816 51.2646C39.4816 48.276 37.0399 45.8447 34.0388 45.8447ZM34.0388 48.595C35.5182 48.595 36.7197 49.7941 36.7197 51.2664C36.7197 52.7405 35.5163 53.9378 34.0388 53.9378C32.5594 53.9378 31.3579 52.7387 31.3579 51.2664C31.3579 49.7923 32.5612 48.595 34.0388 48.595ZM29.9778 67.2362C25.4918 67.2362 21.8412 63.5985 21.8412 59.1285C21.8412 55.1259 24.7687 51.7926 28.6015 51.1399C28.5996 51.1821 28.5978 51.2242 28.5978 51.2682C28.5978 54.2587 31.0395 56.6899 34.0388 56.6899C35.2624 56.6899 36.3922 56.2865 37.3012 55.6045C37.8201 56.6716 38.1145 57.8652 38.1145 59.1285C38.1145 63.5985 34.4638 67.2362 29.9778 67.2362Z" fill="#2C4A9D"/>
<defs>
<clipPath id="clip0">
<rect width="115" height="64" fill="white" transform="translate(11 27)"/>
</clipPath>
</defs>
</svg>
