<svg width="142" height="86" viewBox="0 0 142 86" fill="none" xmlns="http://www.w3.org/2000/svg">
<g clip-path="url(#clip0)">
<path d="M142 52.002C142 47.6226 138.44 44.0719 134.049 44.0719H109.101C106.828 44.0719 104.986 42.2341 104.986 39.9674C104.986 37.698 106.83 35.8589 109.105 35.8589C113.154 35.8589 116.436 32.5857 116.436 28.5476V27.9301C116.436 23.5508 112.876 20 108.485 20H51.2896C46.8985 20 43.3382 23.5508 43.3382 27.9301C43.3382 32.3095 46.8985 35.8602 51.2896 35.8602H68.2457C70.5211 35.8602 72.3652 37.6994 72.3652 39.9687C72.3652 42.2354 70.5224 44.0732 68.2497 44.0732H34.9514C30.5603 44.0719 27 47.6226 27 52.002C27 56.3814 30.5603 59.9321 34.9514 59.9321H69.0472C71.32 59.9321 73.1627 61.7699 73.1627 64.0366C73.1627 66.3033 71.32 68.1411 69.0472 68.1411H51.2896C46.8985 68.1411 43.3382 71.6918 43.3382 76.0712C43.3382 80.4506 46.8985 84.0013 51.2896 84.0013H122.731C127.122 84.0013 130.683 80.4506 130.683 76.0712V75.6078C130.683 71.4847 127.331 68.1411 123.196 68.1411C120.923 68.1411 119.08 66.3033 119.08 64.0366C119.08 61.7699 120.923 59.9321 123.196 59.9321H134.049C138.44 59.9308 142 56.3814 142 52.002Z" fill="#EDF5FF"/>
</g>
<g clip-path="url(#clip1)">
<path d="M44.6513 86.0001C32.1682 86.0001 20.9808 80.6712 13.7954 76.2016C6.04467 71.3769 1.27138 66.6134 1.07343 66.4114L0 65.3338L1.07343 64.2541C1.27342 64.0541 6.04467 59.2886 13.7954 54.4659C20.9808 49.9963 32.1661 44.6675 44.6513 44.6675C49.7614 44.6675 55.0611 45.5532 60.3997 47.3023C61.8323 47.7717 63.2894 48.3105 64.7261 48.9024L63.5608 51.7331C62.1915 51.1698 60.8079 50.6576 59.4467 50.2126C54.4142 48.5656 49.4369 47.7289 44.6513 47.7289C32.9171 47.7289 22.3114 52.7842 15.479 57.0252C10.1527 60.3315 6.22629 63.6725 4.39167 65.3338C6.22425 66.9951 10.1527 70.3381 15.479 73.6423C22.3114 77.8833 32.9171 82.9387 44.6513 82.9387C56.3856 82.9387 66.9913 77.8833 73.8237 73.6423C79.148 70.336 83.0764 66.9951 84.911 65.3338C82.9886 63.5908 78.7643 60.0029 73.038 56.5436L74.6216 53.923C82.8866 58.9171 88.015 64.0398 88.2293 64.2541L89.3027 65.3338L88.2293 66.4134C88.0293 66.6134 83.258 71.379 75.5073 76.2016C68.3198 80.6712 57.1345 86.0001 44.6513 86.0001Z" fill="#2C4A9D"/>
<path d="M69.5484 54.5578C68.5974 54.0517 67.6321 53.5639 66.6791 53.1128L67.9913 50.3474C68.9872 50.8209 69.9953 51.3291 70.9871 51.8577L69.5484 54.5578Z" fill="#2C4A9D"/>
<path d="M44.6514 80.5793C36.2456 80.5793 29.405 73.7402 29.405 65.3316C29.405 56.9231 36.2435 50.084 44.6514 50.084C47.0635 50.084 49.4634 50.6616 51.596 51.7535C52.5429 52.2392 53.4429 52.827 54.2694 53.5005L52.3368 55.8741C51.6756 55.3353 50.9552 54.8658 50.2001 54.4781C48.4737 53.5923 46.6064 53.1454 44.6514 53.1454C37.9333 53.1454 32.4661 58.6109 32.4661 65.3316C32.4661 72.0524 37.9312 77.5179 44.6514 77.5179C51.3715 77.5179 56.8366 72.0524 56.8366 65.3316C56.8366 63.1009 56.2285 60.9212 55.0795 59.0252L57.6978 57.4394C59.1365 59.813 59.8977 62.5438 59.8977 65.3316C59.8957 73.7402 53.0572 80.5793 44.6514 80.5793Z" fill="#2C4A9D"/>
<path d="M53.8122 57.2987C53.3612 56.7864 52.8653 56.3068 52.3368 55.8782L54.2694 53.5046C54.9306 54.0414 55.551 54.6394 56.1122 55.2802L53.8122 57.2987Z" fill="#2C4A9D"/>
<path d="M44.6514 72.9258C40.4658 72.9258 37.0598 69.5196 37.0598 65.3336C37.0598 61.1477 40.4658 57.7415 44.6514 57.7415C48.8369 57.7415 52.2429 61.1477 52.2429 65.3336C52.2429 69.5196 48.8369 72.9258 44.6514 72.9258ZM44.6514 60.8008C42.1535 60.8008 40.1209 62.8335 40.1209 65.3316C40.1209 67.8297 42.1535 69.8624 44.6514 69.8624C47.1492 69.8624 49.1818 67.8297 49.1818 65.3316C49.1818 62.8335 47.1492 60.8008 44.6514 60.8008Z" fill="#2C4A9D"/>
<path d="M78.8704 50.1003C73.2829 50.1003 68.7361 45.5531 68.7361 39.9651C68.7361 34.871 76.7154 23.5235 77.6235 22.2459L78.8704 20.4968L80.1173 22.2459C81.0274 23.5235 89.0047 34.8689 89.0047 39.9651C89.0047 45.5531 84.46 50.1003 78.8704 50.1003ZM78.8704 25.8257C75.7317 30.4891 71.7972 37.2405 71.7972 39.9651C71.7972 43.8653 74.9705 47.0389 78.8704 47.0389C82.7702 47.0389 85.9436 43.8653 85.9436 39.9651C85.9436 37.2384 82.009 30.4891 78.8704 25.8257Z" fill="#2C4A9D"/>
<path d="M95.8658 29.6034C90.2782 29.6034 85.7314 25.0563 85.7314 19.4683C85.7314 14.3742 93.7107 3.02667 94.6189 1.74906L95.8658 0L97.1126 1.74906C98.0228 3.02667 106 14.3721 106 19.4683C106 25.0563 101.453 29.6034 95.8658 29.6034ZM95.8658 5.32882C92.7271 9.99231 88.7926 16.7437 88.7926 19.4683C88.7926 23.3685 91.9659 26.5421 95.8658 26.5421C99.7656 26.5421 102.939 23.3685 102.939 19.4683C102.939 16.7416 99.0024 9.99231 95.8658 5.32882Z" fill="#2C4A9D"/>
<path d="M78.7664 45.147C77.797 45.147 76.8114 44.9062 75.9053 44.4164L77.3644 41.7244C78.4113 42.2918 79.7051 42.1693 80.5112 41.4244C81.5193 40.4917 81.2724 39.0182 81.2622 38.9569L84.2702 38.3916C84.3315 38.7161 84.807 41.6224 82.5907 43.6714C81.5357 44.6449 80.1684 45.147 78.7664 45.147Z" fill="#2C4A9D"/>
<path d="M95.7372 24.6684C94.7678 24.6684 93.7821 24.4276 92.876 23.9378L94.3352 21.2458C95.3821 21.8132 96.6759 21.6907 97.482 20.9458C98.4901 20.0131 98.2432 18.5396 98.2309 18.4783L101.241 17.915C101.302 18.2395 101.774 21.1458 99.5615 23.1928C98.5085 24.1664 97.1391 24.6684 95.7372 24.6684Z" fill="#2C4A9D"/>
</g>
<defs>
<clipPath id="clip0">
<rect width="115" height="64" fill="white" transform="translate(27 20)"/>
</clipPath>
<clipPath id="clip1">
<rect width="106" height="86" fill="white"/>
</clipPath>
</defs>
</svg>
