<svg width="141" height="85" viewBox="0 0 141 85" fill="none" xmlns="http://www.w3.org/2000/svg">
<g clip-path="url(#clip0)">
<path d="M141 32.002C141 27.6226 137.44 24.0719 133.049 24.0719H108.101C105.828 24.0719 103.986 22.2341 103.986 19.9674C103.986 17.698 105.83 15.8589 108.105 15.8589C112.154 15.8589 115.436 12.5857 115.436 8.54759V7.93012C115.436 3.55076 111.876 0 107.485 0H50.2896C45.8985 0 42.3382 3.55076 42.3382 7.93012C42.3382 12.3095 45.8985 15.8602 50.2896 15.8602H67.2457C69.5211 15.8602 71.3652 17.6994 71.3652 19.9687C71.3652 22.2354 69.5224 24.0732 67.2497 24.0732H33.9514C29.5603 24.0719 26 27.6226 26 32.002C26 36.3814 29.5603 39.9321 33.9514 39.9321H68.0472C70.32 39.9321 72.1627 41.7699 72.1627 44.0366C72.1627 46.3033 70.32 48.1411 68.0472 48.1411H50.2896C45.8985 48.1411 42.3382 51.6918 42.3382 56.0712C42.3382 60.4506 45.8985 64.0013 50.2896 64.0013H121.731C126.122 64.0013 129.683 60.4506 129.683 56.0712V55.6078C129.683 51.4847 126.331 48.1411 122.196 48.1411C119.923 48.1411 118.08 46.3033 118.08 44.0366C118.08 41.7699 119.923 39.9321 122.196 39.9321H133.049C137.44 39.9308 141 36.3814 141 32.002Z" fill="#EDF5FF"/>
</g>
<path d="M107.936 40.1461C107.724 39.9347 102.638 34.9292 94.4475 30.0474L92.8778 32.609C98.5539 35.9925 102.741 39.4998 104.647 41.2015C102.83 42.8274 98.9363 46.0933 93.6566 49.3232C86.884 53.4688 76.3712 58.4105 64.7398 58.4105C53.1083 58.4105 42.5955 53.4688 35.8229 49.3232C30.5432 46.0913 26.6492 42.8254 24.8327 41.2015C26.6492 39.5756 30.5432 36.3097 35.8229 33.0798C42.5955 28.9342 53.1083 23.9925 64.7398 23.9925C69.4834 23.9925 74.4192 24.8085 79.4055 26.4204C80.7548 26.8554 82.1263 27.3561 83.4836 27.9067L84.6387 25.1397C83.2125 24.5611 81.7702 24.0344 80.3502 23.5756C75.0584 21.8658 69.805 21 64.7398 21C52.3659 21 41.2766 26.209 34.1541 30.5781C26.4692 35.2923 21.7397 39.9506 21.5435 40.1461L20.4795 41.2015L21.5435 42.2569C21.7418 42.4524 26.4712 47.1107 34.1541 51.8249C41.2766 56.194 52.3639 61.403 64.7398 61.403C77.1156 61.403 88.2029 56.194 95.3255 51.8249C103.01 47.1107 107.74 42.4524 107.936 42.2569L109 41.2015L107.936 40.1461Z" fill="#2C4A9D"/>
<path d="M90.8448 28.0285C89.8617 27.5118 88.8624 27.015 87.8752 26.5542L86.5745 29.2574C87.5192 29.7003 88.476 30.1751 89.4187 30.6699L90.8448 28.0285Z" fill="#2C4A9D"/>
<path d="M71.6235 27.9305C69.5096 26.8632 67.1287 26.2966 64.7397 26.2966C56.4075 26.2966 49.6269 32.9819 49.6269 41.2014C49.6269 49.4208 56.4055 56.1061 64.7397 56.1061C73.0739 56.1061 79.8525 49.4208 79.8525 41.2014C79.8525 38.4742 79.098 35.8069 77.6719 33.4867L75.0765 35.0388C76.2154 36.8921 76.8162 39.0228 76.8162 41.2034C76.8162 47.7709 71.399 53.1156 64.7377 53.1156C58.0764 53.1156 52.6592 47.7729 52.6592 41.2034C52.6592 34.6338 58.0764 29.2911 64.7377 29.2911C66.6756 29.2911 68.5265 29.73 70.2379 30.5959C70.9883 30.9749 71.7004 31.4338 72.3558 31.9605C72.8797 32.3814 73.3713 32.8483 73.8183 33.349L76.1021 31.3739C75.5458 30.7475 74.9309 30.165 74.2755 29.6383L73.3167 30.7994L74.2735 29.6383C73.4542 28.9799 72.5621 28.4054 71.6235 27.9305Z" fill="#2C4A9D"/>
<path d="M64.7397 33.78C60.5908 33.78 57.2147 37.1097 57.2147 41.2015C57.2147 45.2932 60.5908 48.6229 64.7397 48.6229C68.8886 48.6229 72.2648 45.2932 72.2648 41.2015C72.2648 37.1097 68.8886 33.78 64.7397 33.78ZM64.7397 45.6304C62.2637 45.6304 60.249 43.6434 60.249 41.2015C60.249 38.7596 62.2637 36.7725 64.7397 36.7725C67.2157 36.7725 69.2305 38.7596 69.2305 41.2015C69.2305 43.6434 67.2157 45.6304 64.7397 45.6304Z" fill="#2C4A9D"/>
<path d="M19.3811 63.3782C19.3811 62.1752 19.0675 61.044 18.5173 60.0585L21.3736 57.2415L19.2273 55.1248L16.5106 57.8041C15.7399 57.2455 14.8498 56.8405 13.887 56.6291V50.5164H10.8527V56.6291C9.42655 56.9403 8.16226 57.6804 7.20746 58.7059L4.689 56.2221L2.54274 58.3388L5.65188 61.4051C5.46376 62.0296 5.36059 62.6919 5.36059 63.3762C5.36059 64.0984 5.47387 64.7947 5.68425 65.451L0 71.057L2.14626 73.1737L7.27422 68.1164C8.22092 69.1059 9.46093 69.8221 10.8547 70.1273V74.3388H13.889V70.1273C15.0987 69.862 16.193 69.2894 17.0811 68.4954L23.9467 75.2665L26.0929 73.1498L18.8531 66.0096C19.1909 65.1976 19.3811 64.3099 19.3811 63.3782ZM12.3698 67.2984C10.177 67.2984 8.39489 65.5388 8.39489 63.3782C8.39489 61.2156 10.1791 59.458 12.3698 59.458C14.5606 59.458 16.3447 61.2176 16.3447 63.3782C16.3468 65.5408 14.5626 67.2984 12.3698 67.2984Z" fill="#2C4A9D"/>
<path d="M27.3188 61.8818H23.6696V64.8744H27.3188V61.8818Z" fill="#2C4A9D"/>
<path d="M45.5043 73.1118C45.5043 71.9089 45.1908 70.7777 44.6406 69.7921L47.4969 66.9752L45.3506 64.8585L42.6339 67.5378C41.8632 66.9792 40.9731 66.5742 40.0102 66.3627V60.25H36.976V66.3627C35.5498 66.6739 34.2855 67.4141 33.3308 68.4395L30.8123 65.9557L28.666 68.0724L31.7752 71.1388C31.587 71.7632 31.4839 72.4256 31.4839 73.1099C31.4839 73.8321 31.5972 74.5283 31.8075 75.1847L26.1233 80.7907L28.2695 82.9074L33.3975 77.85C34.3442 78.8395 35.5842 79.5557 36.978 79.861V84.0725H40.0123V79.861C41.2219 79.5956 42.3163 79.0231 43.2044 78.2291L50.07 85.0001L52.2162 82.8834L44.9764 75.7433C45.3142 74.9333 45.5043 74.0435 45.5043 73.1118ZM38.4931 77.034C36.3003 77.034 34.5182 75.2744 34.5182 73.1138C34.5182 70.9532 36.3023 69.1936 38.4931 69.1936C40.6839 69.1936 42.468 70.9532 42.468 73.1138C42.468 75.2744 40.6859 77.034 38.4931 77.034Z" fill="#2C4A9D"/>
<path d="M18.2948 79.5017H15.2605V83.1007H18.2948V79.5017Z" fill="#2C4A9D"/>
<defs>
<clipPath id="clip0">
<rect width="115" height="64" fill="white" transform="translate(26)"/>
</clipPath>
</defs>
</svg>
