<svg width="45" height="45" viewBox="0 0 45 45" fill="none" xmlns="http://www.w3.org/2000/svg">
<circle cx="22.5" cy="22.5" r="22.5" fill="#00B200"/>
<path d="M31.3388 31.8388C31.8911 31.8388 32.3388 31.3911 32.3388 30.8388L32.3388 21.8388C32.3388 21.2866 31.8911 20.8388 31.3388 20.8388C30.7866 20.8388 30.3388 21.2866 30.3388 21.8388L30.3388 29.8388L22.3388 29.8388C21.7866 29.8388 21.3388 30.2866 21.3388 30.8388C21.3388 31.3911 21.7866 31.8388 22.3388 31.8388L31.3388 31.8388ZM17.1967 18.1109L30.6317 31.5459L32.0459 30.1317L18.6109 16.6967L17.1967 18.1109Z" fill="white"/>
<path d="M12.6612 13.1612C12.6612 12.6089 13.1089 12.1612 13.6612 12.1612L22.6612 12.1612C23.2134 12.1612 23.6612 12.6089 23.6612 13.1612C23.6612 13.7134 23.2134 14.1612 22.6612 14.1612L14.6612 14.1612L14.6612 22.1612C14.6612 22.7134 14.2134 23.1612 13.6612 23.1612C13.1089 23.1612 12.6612 22.7134 12.6612 22.1612L12.6612 13.1612ZM26.3891 27.3033L12.9541 13.8683L14.3683 12.4541L27.8033 25.8891L26.3891 27.3033Z" fill="white"/>
</svg>
