<svg width="45" height="45" viewBox="0 0 45 45" fill="none" xmlns="http://www.w3.org/2000/svg">
<circle cx="22.5" cy="22.5" r="22.5" fill="#00B200"/>
<path d="M34 34C34.5523 34 35 33.5523 35 33L35 24C35 23.4477 34.5523 23 34 23C33.4477 23 33 23.4477 33 24V32H25C24.4477 32 24 32.4477 24 33C24 33.5523 24.4477 34 25 34L34 34ZM27.2929 27.7071L33.2929 33.7071L34.7071 32.2929L28.7071 26.2929L27.2929 27.7071Z" fill="white"/>
<path d="M12 10C11.4477 10 11 10.4477 11 11L11 20C11 20.5523 11.4477 21 12 21C12.5523 21 13 20.5523 13 20L13 12L21 12C21.5523 12 22 11.5523 22 11C22 10.4477 21.5523 10 21 10L12 10ZM17.7071 15.2929L12.7071 10.2929L11.2929 11.7071L16.2929 16.7071L17.7071 15.2929Z" fill="white"/>
<path d="M34.9999 10.6781C34.9999 10.1258 34.5522 9.6781 33.9999 9.6781L24.9999 9.6781C24.4477 9.6781 23.9999 10.1258 23.9999 10.6781C23.9999 11.2304 24.4477 11.6781 24.9999 11.6781H32.9999V19.6781C32.9999 20.2304 33.4477 20.6781 33.9999 20.6781C34.5522 20.6781 34.9999 20.2304 34.9999 19.6781L34.9999 10.6781ZM28.707 17.3852L34.707 11.3852L33.2928 9.97099L27.2928 15.971L28.707 17.3852Z" fill="white"/>
<path d="M10.6777 32.9998C10.6777 33.552 11.1254 33.9998 11.6777 33.9998L20.6777 33.9998C21.23 33.9998 21.6777 33.552 21.6777 32.9998C21.6777 32.4475 21.23 31.9998 20.6777 31.9998L12.6777 31.9998L12.6777 23.9998C12.6777 23.4475 12.23 22.9998 11.6777 22.9998C11.1254 22.9998 10.6777 23.4475 10.6777 23.9998L10.6777 32.9998ZM17.9706 25.2926L10.9706 32.2926L12.3848 33.7069L19.3848 26.7069L17.9706 25.2926Z" fill="white"/>
</svg>
