<svg width="45" height="45" viewBox="0 0 45 45" fill="none" xmlns="http://www.w3.org/2000/svg">
<circle cx="22.5" cy="22.5" r="22.5" fill="#00B200"/>
<path d="M35.7071 22.7071C36.0976 22.3166 36.0976 21.6834 35.7071 21.2929L29.3431 14.9289C28.9526 14.5384 28.3195 14.5384 27.9289 14.9289C27.5384 15.3195 27.5384 15.9526 27.9289 16.3431L33.5858 22L27.9289 27.6569C27.5384 28.0474 27.5384 28.6805 27.9289 29.0711C28.3195 29.4616 28.9526 29.4616 29.3431 29.0711L35.7071 22.7071ZM16 23H35V21H16V23Z" fill="white"/>
<path d="M9.29289 22.7071C8.90237 22.3166 8.90237 21.6834 9.29289 21.2929L15.6569 14.9289C16.0474 14.5384 16.6805 14.5384 17.0711 14.9289C17.4616 15.3195 17.4616 15.9526 17.0711 16.3431L11.4142 22L17.0711 27.6569C17.4616 28.0474 17.4616 28.6805 17.0711 29.0711C16.6805 29.4616 16.0474 29.4616 15.6569 29.0711L9.29289 22.7071ZM29 23H10V21H29V23Z" fill="white"/>
</svg>
