<svg width="45" height="45" viewBox="0 0 45 45" fill="none" xmlns="http://www.w3.org/2000/svg">
<circle cx="22.5" cy="22.5" r="22.5" fill="#00B200"/>
<path d="M21.7929 35.2071C22.1834 35.5976 22.8166 35.5976 23.2071 35.2071L29.5711 28.8431C29.9616 28.4526 29.9616 27.8195 29.5711 27.4289C29.1805 27.0384 28.5474 27.0384 28.1569 27.4289L22.5 33.0858L16.8431 27.4289C16.4526 27.0384 15.8195 27.0384 15.4289 27.4289C15.0384 27.8195 15.0384 28.4526 15.4289 28.8431L21.7929 35.2071ZM21.5 15.5L21.5 34.5L23.5 34.5L23.5 15.5L21.5 15.5Z" fill="white"/>
<path d="M21.7929 8.79289C22.1834 8.40237 22.8166 8.40237 23.2071 8.79289L29.5711 15.1569C29.9616 15.5474 29.9616 16.1805 29.5711 16.5711C29.1805 16.9616 28.5474 16.9616 28.1569 16.5711L22.5 10.9142L16.8431 16.5711C16.4526 16.9616 15.8195 16.9616 15.4289 16.5711C15.0384 16.1805 15.0384 15.5474 15.4289 15.1569L21.7929 8.79289ZM21.5 28.5L21.5 9.5L23.5 9.5L23.5 28.5L21.5 28.5Z" fill="white"/>
</svg>
