<svg width="126" height="255" viewBox="0 0 126 255" fill="none" xmlns="http://www.w3.org/2000/svg">
<ellipse cx="63" cy="240.5" rx="63" ry="14.5" fill="#EEF5FF"/>
<path d="M88.5794 68.871H37.8969V67.1985C37.8969 66.5098 38.4873 65.9194 39.1762 65.9194H87.3C87.9889 65.9194 88.5794 66.5098 88.5794 67.1985V68.871Z" fill="#CDE7F9"/>
<path d="M90.0556 78.7096H35.9286V69.9531C35.9286 69.3628 36.4207 68.8708 37.0111 68.8708H88.973C89.5635 68.8708 90.0556 69.3628 90.0556 69.9531V78.7096Z" fill="#CDE7F9"/>
<path d="M94.4841 87.0726H31.9921V83.2847C31.9921 80.7758 34.0587 78.7097 36.5683 78.7097H89.9571C92.4667 78.7097 94.5333 80.7267 94.5333 83.2847V87.0726H94.4841Z" fill="#CDE7F9"/>
<path d="M94.4841 87.0725H31.9921V216.943H94.4841V87.0725Z" fill="#C3DBF5"/>
<path d="M94.4841 177.589H31.9921V216.943H94.4841V177.589Z" fill="#2952AE"/>
<path d="M31.9921 216.944H94.4841V231.456C94.4841 238.343 88.8746 244 81.9857 244H44.5397C37.6508 244 31.9921 238.392 31.9921 231.456V216.944Z" fill="#CDE7F9"/>
<path d="M90.0556 92.4839H35.9286V207.105H90.0556V92.4839Z" fill="#F9FAFC"/>
<path d="M90 207.151V177.384C90 162.472 77.9117 150.384 63 150.384C48.0883 150.384 36 162.472 36 177.384V207.151H90Z" fill="#E3ECF9"/>
<path d="M45.9666 105.717C44.0476 105.717 42.5714 107.193 42.5714 109.161C42.5714 111.079 44.0476 112.555 45.9666 112.555C47.8857 112.555 49.3619 111.079 49.3619 109.111C49.3619 107.193 47.8857 105.717 45.9666 105.717ZM45.9666 111.571C44.5889 111.571 43.6047 110.538 43.6047 109.161C43.6047 107.734 44.5889 106.75 45.9666 106.75C47.3444 106.75 48.3286 107.734 48.3286 109.161C48.3286 110.538 47.3444 111.571 45.9666 111.571Z" fill="#2952AE"/>
<path d="M53.5444 106.111V105.323H52.5111V106.111C50.9365 106.209 49.8047 107.39 49.8047 109.013C49.8047 110.636 50.9365 111.768 52.5111 111.915V112.801H53.5444V111.915C55.119 111.817 56.2508 110.636 56.2508 109.013C56.2508 107.39 55.119 106.209 53.5444 106.111ZM53.5444 107.094C54.5286 107.193 55.2174 107.931 55.2174 108.964C55.2174 109.505 55.0206 109.948 54.7254 110.292C54.4301 110.587 54.0365 110.784 53.5444 110.833C53.5444 110.882 53.5444 107.094 53.5444 107.094ZM50.8381 109.013C50.8381 107.98 51.527 107.242 52.5111 107.144V110.882C51.527 110.784 50.8381 110.046 50.8381 109.013Z" fill="#2952AE"/>
<path d="M59.7937 105.815H56.0048V106.848H57.3825V112.457H58.4159V106.848H59.7937V105.815Z" fill="#2952AE"/>
<path d="M62.992 105.717C61.073 105.717 59.5968 107.193 59.5968 109.161C59.5968 111.079 61.073 112.555 62.992 112.555C64.9111 112.555 66.3873 111.079 66.3873 109.111C66.3873 107.193 64.9111 105.717 62.992 105.717ZM62.992 111.571C61.6143 111.571 60.6301 110.538 60.6301 109.161C60.6301 107.734 61.6143 106.75 62.992 106.75C64.3698 106.75 65.354 107.734 65.354 109.161C65.354 110.538 64.3698 111.571 62.992 111.571Z" fill="#2952AE"/>
<path d="M68.8476 105.815L66.1413 112.457H67.273L69.2413 107.39L71.2095 112.457H72.3413L69.6841 105.815H68.8476Z" fill="#2952AE"/>
<path d="M73.7191 110.636V105.815H72.6857V112.457H73.6699L76.9175 107.636V112.457H77.9508V105.815H76.9667L73.7191 110.636Z" fill="#2952AE"/>
<path d="M83.6095 105.815H82.3301L79.919 108.964V105.815H78.8857V112.457H79.919V109.161L82.3793 112.457H83.7079L81.1 109.013L83.6095 105.815Z" fill="#2952AE"/>
<path d="M85.0857 105.569C85.0857 105.471 85.0365 105.225 84.6921 105.225H84.3969V106.307H84.5937V105.914L84.8397 106.307H85.0857L84.7905 105.914C84.9381 105.914 85.0857 105.766 85.0857 105.569ZM84.6921 105.766H84.5937V105.471H84.6921C84.8397 105.471 84.8889 105.569 84.8889 105.619C84.8889 105.668 84.8397 105.766 84.6921 105.766Z" fill="#2952AE"/>
<path d="M84.6921 104.832C84.1508 104.832 83.7571 105.274 83.7571 105.766C83.7571 106.307 84.2 106.75 84.6921 106.75C85.2333 106.75 85.627 106.307 85.627 105.766C85.627 105.225 85.1841 104.832 84.6921 104.832ZM84.6921 106.553C84.2492 106.553 83.9048 106.209 83.9048 105.766C83.9048 105.323 84.2492 104.979 84.6921 104.979C85.1349 104.979 85.4794 105.323 85.4794 105.766C85.4302 106.209 85.0857 106.553 84.6921 106.553Z" fill="#2952AE"/>
<path d="M49.3127 105.815L50.7889 104.684C43.654 101.732 40.7508 106.996 40.7508 106.996C40.7508 106.996 42.8175 104.586 45.8683 104.536C47.5905 104.536 48.673 105.077 49.3127 105.815Z" fill="#2952AE"/>
<path d="M83.6587 34.1895C78.8365 25.5806 75.6873 15.9879 75.7857 6.14919C75.7857 4.52581 74.654 2.55806 73.227 1.82016C71.4063 0.885484 68.5032 0 63.7301 0C63.6317 0 63.5825 0 63.4841 0C63.3857 0 63.3365 0 63.2381 0C58.4651 0 55.5619 0.885484 53.7413 1.82016C52.3143 2.55806 51.1333 4.52581 51.1825 6.14919C51.2809 15.9879 48.1317 25.6298 43.3095 34.1895L41.6857 37.0427C40.4555 39.2073 39.8159 41.6669 39.8159 44.1266V65.9194H87.054V44.1266C87.054 41.6177 86.4143 39.2073 85.1841 37.0427L83.6587 34.1895Z" fill="#C3DBF5"/>
<path d="M45.4648 17.9555C45.6813 17.9555 45.9027 17.9309 46.1291 17.8867C47.0295 17.6948 47.9792 17.5079 48.9289 17.316L48.9978 17.3013C50.7299 16.9569 51.8518 15.2696 51.5073 13.538C51.1579 11.8064 49.48 10.6798 47.743 11.0291L47.6741 11.0439C46.7048 11.2406 45.7305 11.4325 44.8103 11.6293C43.0832 11.9933 41.976 13.6905 42.3402 15.4172C42.6551 16.9225 43.9886 17.9555 45.4648 17.9555Z" fill="#2952AE"/>
<path d="M19.8824 42.5523C20.217 42.5523 20.5615 42.4982 20.8961 42.3851C22.574 41.8243 23.4794 40.014 22.9184 38.3414C22.5641 37.2837 22.3919 36.2949 22.3919 35.3209C22.3919 34.1747 22.6232 33.0285 23.0808 31.9019C23.7451 30.2638 22.9529 28.3994 21.3192 27.7402C19.6856 27.0761 17.8157 27.8681 17.1564 29.5013C16.3887 31.3903 16 33.3482 16 35.3209C16 36.9935 16.2805 38.6464 16.8513 40.3681C17.2941 41.7062 18.544 42.5523 19.8824 42.5523ZM27.78 25.1378C28.4099 25.1378 29.0397 24.9558 29.5957 24.5672C31.5394 23.2242 33.8176 21.9944 36.3715 20.9121C38.0002 20.2234 38.758 18.3491 38.0691 16.7208C37.3802 15.0925 35.5054 14.3349 33.8767 15.0236C30.9243 16.2732 28.2573 17.7145 25.9594 19.3084C24.5078 20.3119 24.1437 22.3043 25.1475 23.7555C25.7675 24.6557 26.7664 25.1378 27.78 25.1378Z" fill="#2952AE"/>
<path d="M27.0665 52.0466C27.8144 52.0466 28.5624 51.7859 29.1725 51.2546C30.5011 50.0936 30.634 48.0718 29.4727 46.7436C28.897 46.0893 28.4049 45.4301 28.0064 44.7955C27.0714 43.2951 25.0983 42.8425 23.5975 43.7772C22.1016 44.7119 21.644 46.6845 22.5789 48.1849C23.1595 49.1147 23.8583 50.0444 24.6554 50.9594C25.2902 51.6777 26.1759 52.0466 27.0665 52.0466Z" fill="#2952AE"/>
<path d="M62.4951 60.9015C88.5696 60.9015 108.995 49.6657 108.995 35.3209C108.995 20.976 88.5696 9.74023 62.4951 9.74023C57.4958 9.74023 52.5407 10.1731 47.7627 11.0193C46.0258 11.3292 44.8645 12.987 45.1745 14.7285C45.4845 16.4699 47.1477 17.626 48.8846 17.316C53.2935 16.5339 57.8746 16.1354 62.4951 16.1354C84.2345 16.1354 102.598 24.9214 102.598 35.3209C102.598 45.7204 84.2345 54.5064 62.4951 54.5064C53.3378 54.5064 44.7267 53.0207 37.5918 50.2019C35.9483 49.5526 34.0883 50.3593 33.4437 52.0024C32.7942 53.6455 33.6012 55.5001 35.2446 56.1494C43.1177 59.2585 52.5407 60.9015 62.4951 60.9015Z" fill="#2952AE"/>
<path d="M39.8651 62.3774C40.4113 62.3774 40.9624 62.2397 41.4692 61.9445C42.9946 61.059 43.5162 59.1011 42.6256 57.5712L39.2795 51.8156C38.3938 50.2906 36.4354 49.7691 34.9051 50.6595C33.3748 51.5499 32.8581 53.5029 33.7487 55.0328L37.0948 60.7885C37.6902 61.8068 38.7629 62.3774 39.8651 62.3774Z" fill="#2952AE"/>
<path d="M36.3174 56.4249C36.6175 56.4249 36.9226 56.3806 37.2228 56.292L43.718 54.3735C45.4107 53.8717 46.3801 52.0958 45.8782 50.3986C45.3763 48.7064 43.595 47.7373 41.9023 48.239L35.4071 50.1576C33.7144 50.6594 32.745 52.4353 33.2469 54.1324C33.6602 55.5246 34.9347 56.4249 36.3174 56.4249Z" fill="#2952AE"/>
<path d="M78.0492 21.1532C76.573 16.2831 75.7365 11.2161 75.7857 6.1C75.7857 4.47661 74.654 2.50887 73.227 1.77097C71.4064 0.885484 68.5032 0 63.7302 0C63.6318 0 63.5826 0 63.4842 0C63.3857 0 63.3365 0 63.2381 0C58.4651 0 55.5619 0.885484 53.7413 1.82016C52.3143 2.55806 51.1334 4.52581 51.1826 6.14919C51.2318 11.2653 50.3953 16.3323 48.9191 21.2024H78.0492V21.1532Z" fill="#C3DBF5"/>
</svg>
