<svg width="93" height="235" viewBox="0 0 93 235" fill="none" xmlns="http://www.w3.org/2000/svg">
<ellipse cx="45" cy="220.5" rx="37" ry="14.5" fill="#EEF5FF"/>
<path d="M61.8527 140.614H29.0587C27.9192 140.614 27 139.69 27 138.554V131.666C27 130.526 27.9238 129.606 29.0587 129.606H61.8527C62.9923 129.606 63.9115 130.531 63.9115 131.666V138.554C63.9115 139.69 62.9923 140.614 61.8527 140.614Z" fill="#EBF6FF"/>
<path d="M52.2767 225H38.6208C32.5009 225 27.5347 220.036 27.5347 213.907V142.43C27.5347 139.591 29.8325 137.292 32.6697 137.292H58.2278C61.065 137.292 63.3628 139.591 63.3628 142.43V213.907C63.3628 220.031 58.3966 225 52.2767 225Z" fill="#C3DBF5"/>
<path d="M52.9659 220.645H38.3204C35.033 220.645 32.3694 217.98 32.3694 214.691V149.436H58.9169V214.696C58.9169 217.98 56.2533 220.645 52.9659 220.645Z" fill="#D0E3F4"/>
<path d="M38.4849 70.7886H30.855C29.4669 70.7886 28.3367 71.9147 28.3367 73.3083V73.4209C28.3367 74.2421 28.7353 74.9647 29.3449 75.4245V89.7313H36.1823V75.936H38.4849C39.873 75.936 41.0031 74.8098 41.0031 73.4162V73.3036C41.0031 71.9147 39.873 70.7886 38.4849 70.7886Z" fill="#EBF6FF"/>
<path d="M61.2056 70.7886H53.5757C52.1876 70.7886 51.0574 71.9147 51.0574 73.3083V73.4209C51.0574 74.8099 52.1829 75.9407 53.5757 75.9407H55.8782V89.736H62.7156V75.4292C63.3252 74.9694 63.7239 74.2468 63.7239 73.4256V73.313C63.7192 71.9147 62.5937 70.7886 61.2056 70.7886Z" fill="#EBF6FF"/>
<path d="M58.2418 134.312C61.0789 134.312 63.3768 132.013 63.3768 129.174V92.021C63.3768 90.0784 62.8938 88.2156 61.9559 86.5404L60.7976 84.3351C57.1397 77.6767 54.748 70.2582 54.8231 62.6474C54.8231 61.3898 53.9649 59.8695 52.8816 59.2971C51.4982 58.5745 49.2988 57.8894 45.6738 57.8894C45.5987 57.8894 45.5612 57.8894 45.4862 57.8894C45.4111 57.8894 45.3736 57.8894 45.2986 57.8894C41.6783 57.8894 39.4742 58.5745 38.0908 59.2971C37.0075 59.8695 36.1118 61.3898 36.1493 62.6474C36.2243 70.2582 33.8326 77.7143 30.1748 84.3351L28.9414 86.5404C28.0082 88.2156 27.5205 90.1159 27.5205 92.021V129.179C27.5205 132.018 29.8184 134.317 32.6556 134.317H58.2418V134.312Z" fill="#C3DBF5"/>
<path d="M45.4583 129.644C54.148 129.644 61.1917 122.596 61.1917 113.901V92.5136C61.1917 90.8103 60.765 89.1727 59.9443 87.704L58.9267 85.7661C55.7143 79.9195 53.6181 73.4066 53.6838 66.7295C53.6838 65.6269 52.9288 64.2896 51.9815 63.7922C50.7669 63.1587 48.8348 62.5581 45.6553 62.5581C45.5896 62.5581 45.5568 62.5581 45.4911 62.5581C45.4255 62.5581 45.3926 62.5581 45.327 62.5581C42.1475 62.5581 40.2154 63.1587 39.0008 63.7922C38.0488 64.2942 37.2657 65.6269 37.2985 66.7295C37.3641 73.4113 35.2679 79.9571 32.0556 85.7661L30.9723 87.704C30.1516 89.1727 29.7249 90.8431 29.7249 92.5136V113.901C29.7249 122.596 36.7686 129.644 45.4583 129.644Z" fill="#D0E3F4"/>
<path d="M69.9426 26.642L57.2293 23.7188C54.2983 23.0431 52.4647 20.1198 53.14 17.1871L55.6301 6.33857C56.6384 1.94191 61.0184 -0.803066 65.4125 0.210465L72.8408 1.91845C77.2349 2.92729 79.9736 7.30988 78.9653 11.7065L76.4752 22.5551C75.7952 25.4831 72.8736 27.3177 69.9426 26.642Z" fill="#C3DBF5"/>
<path d="M70.6556 25.3094L57.1638 22.2078C55.5224 21.8325 54.5189 20.0963 54.9269 18.3367L55.9351 13.9401C56.3384 12.1805 57.9985 11.0543 59.6399 11.4344C61.8533 11.9411 64.442 11.303 66.6554 11.8098C68.9393 12.3353 70.8479 14.0104 73.1317 14.536C73.3287 14.5829 74.3791 14.8457 75.0169 15.953C75.4202 16.6522 75.5703 17.5296 75.3686 18.4071L74.3604 22.8038C73.9571 24.5634 72.297 25.6895 70.6556 25.3094Z" fill="#EBF6FF"/>
<path d="M63.5302 55.2153C63.3137 55.2153 63.0923 55.1907 62.8659 55.1464C61.9655 54.9546 61.0158 54.7677 60.0661 54.5758L59.9972 54.561C58.2651 54.2167 57.1432 52.5293 57.4877 50.7977C57.837 49.0661 59.515 47.9396 61.252 48.2889L61.3209 48.3036C62.2902 48.5004 63.2645 48.6922 64.1847 48.889C65.9118 49.2531 67.019 50.9502 66.6548 52.6769C66.3399 54.1822 65.0064 55.2153 63.5302 55.2153Z" fill="#2952AE"/>
<path d="M89.1127 79.8121C88.7781 79.8121 88.4337 79.758 88.0991 79.6449C86.4211 79.084 85.5157 77.2737 86.0767 75.6011C86.431 74.5435 86.6032 73.5547 86.6032 72.5807C86.6032 71.4344 86.3719 70.2882 85.9143 69.1617C85.25 67.5236 86.0422 65.6591 87.6759 64.9999C89.3095 64.3358 91.1794 65.1278 91.8387 66.7611C92.6064 68.6501 92.9951 70.608 92.9951 72.5807C92.9951 74.2532 92.7146 75.9061 92.1438 77.6279C91.701 78.966 90.4511 79.8121 89.1127 79.8121ZM81.2151 62.3976C80.5853 62.3976 79.9554 62.2156 79.3994 61.8269C77.4557 60.484 75.1775 59.2541 72.6237 58.1719C70.9949 57.4832 70.2372 55.6089 70.926 53.9806C71.6149 52.3523 73.4897 51.5947 75.1184 52.2834C78.0708 53.5329 80.7378 54.9743 83.0357 56.5682C84.4873 57.5717 84.8514 59.564 83.8476 61.0153C83.2276 61.9155 82.2287 62.3976 81.2151 62.3976Z" fill="#2952AE"/>
<path d="M81.9285 89.3064C81.1806 89.3064 80.4327 89.0457 79.8225 88.5144C78.4939 87.3534 78.3611 85.3315 79.5224 84.0033C80.0981 83.349 80.5901 82.6898 80.9887 82.0553C81.9236 80.5548 83.8968 80.1023 85.3976 81.0369C86.8935 81.9716 87.3511 83.9443 86.4162 85.4447C85.8355 86.3744 85.1368 87.3042 84.3397 88.2192C83.7049 88.9374 82.8192 89.3064 81.9285 89.3064Z" fill="#2952AE"/>
<path d="M46.5 98.1613C20.4256 98.1613 0 86.9255 0 72.5806C0 59.4913 17.0065 48.9907 39.7932 47.2528C39.8114 47.2514 39.8478 47.2486 39.8478 47.2486C42.0162 47.0846 46.5 47 46.5 47C46.5 47 49.5768 47.0411 51.105 47.1227C51.1208 47.1236 51.1367 47.1244 51.1525 47.1253C54.5676 47.3096 57.942 47.6963 61.2324 48.279C62.9694 48.589 64.1306 50.2468 63.8206 51.9882C63.5106 53.7297 61.8475 54.8857 60.1105 54.5758C57.5021 54.1131 54.8334 53.7846 52.132 53.5935C52.1139 53.5922 52.0957 53.591 52.0776 53.5897C50.2307 53.4603 48.3686 53.3952 46.5 53.3952C43.8828 53.3952 41.3145 53.5225 38.8214 53.7647C38.8018 53.7666 38.7822 53.7685 38.7626 53.7704C20.5746 55.551 6.39682 63.443 6.39682 72.5806C6.39682 82.9802 24.7606 91.7661 46.5 91.7661C55.6573 91.7661 64.2684 90.2805 71.4033 87.4617C73.0468 86.8123 74.9068 87.6191 75.5514 89.2622C76.2009 90.9052 75.394 92.7598 73.7505 93.4092C65.8775 96.5182 56.4544 98.1613 46.5 98.1613Z" fill="#2952AE"/>
<path d="M54.5135 60.7374C52.3516 57.0024 50.9447 48.6407 50.987 44.3708C50.987 43.6669 50.4805 42.8129 49.8427 42.4939C49.0267 42.0903 47.7277 41.7056 45.5893 41.7056C45.5471 41.7056 45.5236 41.7056 45.4814 41.7056C45.4392 41.7056 45.4158 41.7056 45.3736 41.7056C43.2351 41.7056 41.9361 42.0903 41.1201 42.4939C40.4824 42.8129 39.9524 43.6669 39.9759 44.3708C40.0181 48.6407 38.6065 57.0212 36.4493 60.7374L35.7225 61.9762C35.1738 62.9146 34.883 63.9845 34.883 65.0496C34.883 65.0496 35.2488 72.1303 34.4328 74.3497C30.2966 85.6159 42.1096 79.0138 48.4593 79.0138C51.9061 79.0138 59.7845 82.5518 56.6848 74.7345C55.5217 71.8065 56.0376 68.1982 56.0376 65.0496C56.0376 63.961 55.7515 62.9146 55.1982 61.9762L54.5135 60.7374Z" fill="#C3DBF5"/>
<path d="M69.1301 99.6372C68.5839 99.6372 68.0328 99.4995 67.526 99.2043C66.0006 98.3188 65.479 96.3609 66.3696 94.831L69.7156 89.0753C70.6013 87.5503 72.5598 87.0289 74.0901 87.9193C75.6204 88.8097 76.1371 90.7627 75.2464 92.2926L71.9004 98.0483C71.305 99.0666 70.2323 99.6372 69.1301 99.6372Z" fill="#2952AE"/>
<path d="M72.6778 93.6846C72.3776 93.6846 72.0726 93.6403 71.7724 93.5518L65.2772 91.6332C63.5845 91.1315 62.6151 89.3556 63.117 87.6584C63.6189 85.9661 65.4002 84.997 67.0929 85.4988L73.5881 87.4174C75.2808 87.9191 76.2502 89.695 75.7483 91.3922C75.3349 92.7844 74.0605 93.6846 72.6778 93.6846Z" fill="#2952AE"/>
</svg>
