<svg width="126" height="255" viewBox="0 0 126 255" fill="none" xmlns="http://www.w3.org/2000/svg">
<ellipse cx="63" cy="240.5" rx="63" ry="14.5" fill="#EEF5FF"/>
<path d="M88.5794 68.871H37.8968V67.1985C37.8968 66.5098 38.4873 65.9194 39.1762 65.9194H87.3C87.9889 65.9194 88.5794 66.5098 88.5794 67.1985V68.871Z" fill="#CDE7F9"/>
<path d="M90.0556 78.7096H35.9286V69.9531C35.9286 69.3628 36.4206 68.8708 37.0111 68.8708H88.973C89.5635 68.8708 90.0556 69.3628 90.0556 69.9531V78.7096Z" fill="#CDE7F9"/>
<path d="M94.4841 87.0726H31.9921V83.2847C31.9921 80.7758 34.0587 78.7097 36.5683 78.7097H89.9571C92.4667 78.7097 94.5333 80.7267 94.5333 83.2847V87.0726H94.4841Z" fill="#CDE7F9"/>
<path d="M94.4841 87.0725H31.9921V216.943H94.4841V87.0725Z" fill="#C3DBF5"/>
<path d="M94.4841 177.589H31.9921V216.943H94.4841V177.589Z" fill="#2952AE"/>
<path d="M31.9921 216.944H94.4841V231.456C94.4841 238.343 88.8746 244 81.9857 244H44.5397C37.6508 244 31.9921 238.392 31.9921 231.456V216.944Z" fill="#CDE7F9"/>
<path d="M90.0556 92.4839H35.9286V207.105H90.0556V92.4839Z" fill="#F9FAFC"/>
<path d="M90 207.151V177.384C90 162.472 77.9117 150.384 63 150.384C48.0883 150.384 36 162.472 36 177.384V207.151H90Z" fill="#E3ECF9"/>
<path d="M45.9667 105.717C44.0476 105.717 42.5714 107.193 42.5714 109.161C42.5714 111.079 44.0476 112.555 45.9667 112.555C47.8857 112.555 49.3619 111.079 49.3619 109.111C49.3619 107.193 47.8857 105.717 45.9667 105.717ZM45.9667 111.571C44.5889 111.571 43.6048 110.538 43.6048 109.161C43.6048 107.734 44.5889 106.75 45.9667 106.75C47.3444 106.75 48.3286 107.734 48.3286 109.161C48.3286 110.538 47.3444 111.571 45.9667 111.571Z" fill="#2952AE"/>
<path d="M53.5445 106.111V105.323H52.5111V106.111C50.9365 106.209 49.8048 107.39 49.8048 109.013C49.8048 110.636 50.9365 111.768 52.5111 111.915V112.801H53.5445V111.915C55.1191 111.817 56.2508 110.636 56.2508 109.013C56.2508 107.39 55.1191 106.209 53.5445 106.111ZM53.5445 107.094C54.5286 107.193 55.2175 107.931 55.2175 108.964C55.2175 109.505 55.0206 109.948 54.7254 110.292C54.4302 110.587 54.0365 110.784 53.5445 110.833C53.5445 110.882 53.5445 107.094 53.5445 107.094ZM50.8381 109.013C50.8381 107.98 51.527 107.242 52.5111 107.144V110.882C51.527 110.784 50.8381 110.046 50.8381 109.013Z" fill="#2952AE"/>
<path d="M59.7937 105.815H56.0048V106.848H57.3825V112.457H58.4159V106.848H59.7937V105.815Z" fill="#2952AE"/>
<path d="M62.9921 105.717C61.073 105.717 59.5968 107.193 59.5968 109.161C59.5968 111.079 61.073 112.555 62.9921 112.555C64.9111 112.555 66.3873 111.079 66.3873 109.111C66.3873 107.193 64.9111 105.717 62.9921 105.717ZM62.9921 111.571C61.6143 111.571 60.6302 110.538 60.6302 109.161C60.6302 107.734 61.6143 106.75 62.9921 106.75C64.3699 106.75 65.354 107.734 65.354 109.161C65.354 110.538 64.3699 111.571 62.9921 111.571Z" fill="#2952AE"/>
<path d="M68.8476 105.815L66.1413 112.457H67.273L69.2413 107.39L71.2095 112.457H72.3413L69.6841 105.815H68.8476Z" fill="#2952AE"/>
<path d="M73.719 110.636V105.815H72.6857V112.457H73.6698L76.9175 107.636V112.457H77.9508V105.815H76.9667L73.719 110.636Z" fill="#2952AE"/>
<path d="M83.6095 105.815H82.3302L79.919 108.964V105.815H78.8857V112.457H79.919V109.161L82.3794 112.457H83.7079L81.1 109.013L83.6095 105.815Z" fill="#2952AE"/>
<path d="M85.0857 105.569C85.0857 105.471 85.0365 105.225 84.6921 105.225H84.3968V106.307H84.5936V105.914L84.8397 106.307H85.0857L84.7905 105.914C84.9381 105.914 85.0857 105.766 85.0857 105.569ZM84.6921 105.766H84.5936V105.471H84.6921C84.8397 105.471 84.8889 105.569 84.8889 105.619C84.8889 105.668 84.8397 105.766 84.6921 105.766Z" fill="#2952AE"/>
<path d="M84.6921 104.832C84.1508 104.832 83.7571 105.274 83.7571 105.766C83.7571 106.307 84.2 106.75 84.6921 106.75C85.2333 106.75 85.627 106.307 85.627 105.766C85.627 105.225 85.1841 104.832 84.6921 104.832ZM84.6921 106.553C84.2492 106.553 83.9048 106.209 83.9048 105.766C83.9048 105.323 84.2492 104.979 84.6921 104.979C85.1349 104.979 85.4794 105.323 85.4794 105.766C85.4302 106.209 85.0857 106.553 84.6921 106.553Z" fill="#2952AE"/>
<path d="M49.3127 105.815L50.7889 104.684C43.654 101.732 40.7508 106.996 40.7508 106.996C40.7508 106.996 42.8175 104.586 45.8683 104.536C47.5905 104.536 48.673 105.077 49.3127 105.815Z" fill="#2952AE"/>
<path d="M83.6587 34.1895C78.8365 25.5806 75.6873 15.9879 75.7857 6.14919C75.7857 4.52581 74.654 2.55806 73.227 1.82016C71.4064 0.885484 68.5032 0 63.7302 0C63.6317 0 63.5825 0 63.4841 0C63.3857 0 63.3365 0 63.2381 0C58.4651 0 55.5619 0.885484 53.7413 1.82016C52.3143 2.55806 51.1333 4.52581 51.1825 6.14919C51.281 15.9879 48.1317 25.6298 43.3095 34.1895L41.6857 37.0427C40.4556 39.2073 39.8159 41.6669 39.8159 44.1266V65.9194H87.054V44.1266C87.054 41.6177 86.4143 39.2073 85.1841 37.0427L83.6587 34.1895Z" fill="#C3DBF5"/>
<path d="M79.5303 17.9555C79.3138 17.9555 79.0924 17.9309 78.866 17.8867C77.9656 17.6948 77.0159 17.5079 76.0662 17.316L75.9973 17.3013C74.2652 16.9569 73.1433 15.2696 73.4878 13.538C73.8371 11.8064 75.5151 10.6798 77.2521 11.0291L77.321 11.0439C78.2903 11.2406 79.2646 11.4325 80.1848 11.6293C81.9119 11.9933 83.019 13.6905 82.6549 15.4172C82.34 16.9225 81.0065 17.9555 79.5303 17.9555Z" fill="#2952AE"/>
<path d="M105.113 42.5523C104.778 42.5523 104.434 42.4982 104.099 42.3851C102.421 41.8243 101.516 40.014 102.077 38.3414C102.431 37.2837 102.603 36.2949 102.603 35.3209C102.603 34.1747 102.372 33.0285 101.914 31.9019C101.25 30.2638 102.042 28.3994 103.676 27.7402C105.31 27.0761 107.179 27.8681 107.839 29.5013C108.606 31.3903 108.995 33.3482 108.995 35.3209C108.995 36.9935 108.715 38.6464 108.144 40.3681C107.701 41.7062 106.451 42.5523 105.113 42.5523ZM97.2151 25.1378C96.5852 25.1378 95.9554 24.9558 95.3994 24.5672C93.4557 23.2242 91.1775 21.9944 88.6236 20.9121C86.9949 20.2234 86.2371 18.3491 86.926 16.7208C87.6149 15.0925 89.4897 14.3349 91.1184 15.0236C94.0708 16.2732 96.7378 17.7145 99.0357 19.3084C100.487 20.3119 100.851 22.3043 99.8476 23.7555C99.2276 24.6557 98.2287 25.1378 97.2151 25.1378Z" fill="#2952AE"/>
<path d="M97.9286 52.0466C97.1806 52.0466 96.4327 51.7859 95.8225 51.2546C94.494 50.0936 94.3611 48.0718 95.5224 46.7436C96.0981 46.0893 96.5902 45.4301 96.9887 44.7955C97.9237 43.2951 99.8968 42.8425 101.398 43.7772C102.893 44.7119 103.351 46.6845 102.416 48.1849C101.836 49.1147 101.137 50.0444 100.34 50.9594C99.7049 51.6777 98.8192 52.0466 97.9286 52.0466Z" fill="#2952AE"/>
<path d="M62.5 60.9015C36.4256 60.9015 16 49.6657 16 35.3209C16 20.976 36.4256 9.74023 62.5 9.74023C67.4994 9.74023 72.4544 10.1731 77.2324 11.0193C78.9694 11.3292 80.1306 12.987 79.8206 14.7285C79.5106 16.4699 77.8475 17.626 76.1105 17.316C71.7016 16.5339 67.1205 16.1354 62.5 16.1354C40.7606 16.1354 22.3968 24.9214 22.3968 35.3209C22.3968 45.7204 40.7606 54.5064 62.5 54.5064C71.6573 54.5064 80.2684 53.0207 87.4033 50.2019C89.0468 49.5526 90.9068 50.3593 91.5514 52.0024C92.2009 53.6455 91.394 55.5001 89.7505 56.1494C81.8775 59.2585 72.4544 60.9015 62.5 60.9015Z" fill="#2952AE"/>
<path d="M85.13 62.3774C84.5838 62.3774 84.0327 62.2397 83.5259 61.9445C82.0005 61.059 81.4789 59.1011 82.3695 57.5712L85.7155 51.8156C86.6013 50.2906 88.5597 49.7691 90.09 50.6595C91.6203 51.5499 92.137 53.5029 91.2463 55.0328L87.9003 60.7885C87.3049 61.8068 86.2322 62.3774 85.13 62.3774Z" fill="#2952AE"/>
<path d="M88.6778 56.4249C88.3776 56.4249 88.0725 56.3806 87.7724 56.292L81.2771 54.3735C79.5844 53.8717 78.6151 52.0958 79.117 50.3986C79.6189 48.7064 81.4002 47.7373 83.0929 48.239L89.5881 50.1576C91.2808 50.6594 92.2502 52.4353 91.7483 54.1324C91.3349 55.5246 90.0605 56.4249 88.6778 56.4249Z" fill="#2952AE"/>
<path d="M78.0492 21.1532C76.573 16.2831 75.7365 11.2161 75.7857 6.1C75.7857 4.47661 74.654 2.50887 73.227 1.77097C71.4064 0.885484 68.5032 0 63.7302 0C63.6318 0 63.5826 0 63.4841 0C63.3857 0 63.3365 0 63.2381 0C58.4651 0 55.5619 0.885484 53.7413 1.82016C52.3143 2.55806 51.1333 4.52581 51.1825 6.14919C51.2318 11.2653 50.3952 16.3323 48.9191 21.2024H78.0492V21.1532Z" fill="#C3DBF5"/>
</svg>
