<svg width="167" height="198" viewBox="0 0 167 198" fill="none" xmlns="http://www.w3.org/2000/svg">
<g clip-path="url(#clip0)">
<path d="M26.5534 39.6381C24.467 36.0371 23.1092 27.9756 23.1499 23.8589C23.1499 23.1803 22.6611 22.3569 22.0456 22.0493C21.2581 21.6603 20.0044 21.2893 17.9407 21.2893C17.8999 21.2893 17.8773 21.2893 17.8366 21.2893C17.7958 21.2893 17.7732 21.2893 17.7325 21.2893C15.6687 21.2893 14.415 21.6603 13.6275 22.0493C13.012 22.3569 12.5006 23.1803 12.5232 23.8589C12.5639 27.9756 11.2016 36.0552 9.11974 39.6381L8.41823 40.8323C7.8887 41.7371 7.6081 42.7686 7.6081 43.7955C7.6081 43.7955 7.96112 50.622 7.17362 52.7617C3.1818 63.6235 14.5825 57.2584 20.7105 57.2584C24.037 57.2584 31.6405 60.6694 28.6489 53.1327C27.5264 50.3098 28.0243 46.831 28.0243 43.7955C28.0243 42.7459 27.7482 41.7371 27.2142 40.8323L26.5534 39.6381Z" fill="#C3DBF5"/>
<path d="M33.6363 116.643H1.98686C0.88707 116.643 0 115.752 0 114.657V108.016C0 106.917 0.891596 106.03 1.98686 106.03H33.6363C34.736 106.03 35.6231 106.921 35.6231 108.016V114.657C35.6231 115.752 34.736 116.643 33.6363 116.643Z" fill="#EBF6FF"/>
<path d="M24.3944 198H11.215C5.30876 198 0.515869 193.214 0.515869 187.306V118.398C0.515869 115.661 2.73354 113.445 5.47169 113.445H30.1377C32.8758 113.445 35.0935 115.661 35.0935 118.398V187.31C35.0935 193.214 30.3006 198 24.3944 198Z" fill="#C3DBF5"/>
<path d="M25.0597 193.806H10.9255C7.75282 193.806 5.18213 191.237 5.18213 188.066V125.148H30.8031V188.066C30.8031 191.237 28.2324 193.806 25.0597 193.806Z" fill="#D0E3F4"/>
<path d="M11.0838 49.3281H3.72019C2.38053 49.3281 1.28979 50.4139 1.28979 51.7574V51.866C1.28979 52.6577 1.67449 53.3544 2.26286 53.7977V67.5909H8.86157V54.2908H11.0838C12.4234 54.2908 13.5142 53.2051 13.5142 51.8615V51.7529C13.5142 50.4138 12.4234 49.3281 11.0838 49.3281Z" fill="#EBF6FF"/>
<path d="M33.0117 49.3281H25.6482C24.3085 49.3281 23.2178 50.4139 23.2178 51.7574V51.866C23.2178 53.2051 24.304 54.2953 25.6482 54.2953H27.8704V67.5954H34.4691V53.8022C35.0574 53.3589 35.4421 52.6622 35.4421 51.8705V51.762C35.4376 50.4138 34.3514 49.3281 33.0117 49.3281Z" fill="#EBF6FF"/>
<path d="M30.1514 110.572C32.8896 110.572 35.1072 108.355 35.1072 105.618V69.794C35.1072 67.9211 34.6411 66.1251 33.7359 64.5101L32.618 62.3839C29.0878 55.9645 26.7796 48.8123 26.852 41.4746C26.852 40.2622 26.0238 38.7965 24.9783 38.2446C23.6432 37.5479 21.5206 36.8875 18.0221 36.8875C17.9497 36.8875 17.9135 36.8875 17.841 36.8875C17.7686 36.8875 17.7324 36.8875 17.66 36.8875C14.166 36.8875 12.0389 37.5479 10.7037 38.2446C9.65827 38.7965 8.79383 40.2622 8.83004 41.4746C8.90245 48.8123 6.59426 56.0007 3.06408 62.3839L1.87378 64.5101C0.973132 66.1251 0.502441 67.9573 0.502441 69.794V105.618C0.502441 108.355 2.72012 110.572 5.45827 110.572H30.1514Z" fill="#C3DBF5"/>
<path d="M17.8139 106.071C26.2004 106.071 32.9982 99.276 32.9982 90.8933V70.2736C32.9982 68.6314 32.5864 67.0526 31.7943 65.6366L30.8122 63.7683C27.712 58.1316 25.6889 51.8525 25.7523 45.415C25.7523 44.3519 25.0236 43.0626 24.1094 42.5831C22.9372 41.9724 21.0725 41.3933 18.004 41.3933C17.9406 41.3933 17.909 41.3933 17.8456 41.3933C17.7822 41.3933 17.7506 41.3933 17.6872 41.3933C14.6187 41.3933 12.754 41.9724 11.5818 42.5831C10.6631 43.0671 9.90723 44.3519 9.93892 45.415C10.0023 51.857 7.97921 58.1678 4.87899 63.7683L3.83352 65.6366C3.04149 67.0526 2.62964 68.6631 2.62964 70.2736V90.8933C2.62964 99.276 9.42749 106.071 17.8139 106.071Z" fill="#D0E3F4"/>
<path d="M24.037 23.8588H11.4461C8.54046 23.8588 6.18701 21.5064 6.18701 18.6021V7.8715C6.18701 3.52408 9.71266 0 14.062 0H21.4166C25.7659 0 29.2916 3.52408 29.2916 7.8715V18.6021C29.2961 21.5064 26.9426 23.8588 24.037 23.8588Z" fill="#C3DBF5"/>
<path d="M24.4216 22.4519H11.0612C9.43641 22.4519 8.11938 21.0405 8.11938 19.2988V14.9469C8.11938 13.2052 9.43641 11.7937 11.0612 11.7937C13.2517 11.7937 15.5509 10.6311 17.7414 10.6311C20.0043 10.6311 22.1586 11.7937 24.4216 11.7937C24.6162 11.7937 25.6616 11.8164 26.5035 12.7166C27.0375 13.2866 27.3634 14.0783 27.3634 14.9469V19.2988C27.3634 21.0405 26.0463 22.4519 24.4216 22.4519Z" fill="#EBF6FF"/>
<path d="M61.1943 39.6381C59.1078 36.0371 57.7501 27.9756 57.7908 23.8589C57.7908 23.1803 57.302 22.3569 56.6865 22.0493C55.899 21.6603 54.6453 21.2893 52.5815 21.2893C52.5408 21.2893 52.5182 21.2893 52.4774 21.2893C52.4367 21.2893 52.4141 21.2893 52.3733 21.2893C50.3095 21.2893 49.0559 21.6603 48.2684 22.0493C47.6529 22.3569 47.1414 23.1803 47.1641 23.8589C47.2048 27.9756 45.8425 36.0552 43.7606 39.6381L43.0591 40.8323C42.5296 41.7371 42.249 42.7686 42.249 43.7955C42.249 43.7955 42.602 50.622 41.8145 52.7617C37.8227 63.6235 49.2233 57.2584 55.3514 57.2584C58.6779 57.2584 66.2813 60.6694 63.2897 53.1327C62.1673 50.3098 62.6652 46.831 62.6652 43.7955C62.6652 42.7459 62.3891 41.7371 61.855 40.8323L61.1943 39.6381Z" fill="#C3DBF5"/>
<path d="M68.2771 116.643H36.6277C35.5279 116.643 34.6409 115.752 34.6409 114.657V108.016C34.6409 106.917 35.5325 106.03 36.6277 106.03H68.2771C69.3769 106.03 70.264 106.921 70.264 108.016V114.657C70.264 115.752 69.3724 116.643 68.2771 116.643Z" fill="#EBF6FF"/>
<path d="M59.0308 198H45.8515C39.9452 198 35.1523 193.214 35.1523 187.306V118.398C35.1523 115.661 37.37 113.445 40.1082 113.445H64.7741C67.5123 113.445 69.73 115.661 69.73 118.398V187.31C69.73 193.214 64.9416 198 59.0308 198Z" fill="#C3DBF5"/>
<path d="M59.696 193.806H45.5617C42.3891 193.806 39.8184 191.237 39.8184 188.066V125.148H65.4393V188.066C65.4393 191.237 62.8686 193.806 59.696 193.806Z" fill="#D0E3F4"/>
<path d="M45.7248 49.3281H38.3567C37.017 49.3281 35.9263 50.4139 35.9263 51.7574V51.866C35.9263 52.6577 36.311 53.3544 36.8993 53.7977V67.5909H43.498V54.2908H45.7202C47.0599 54.2908 48.1506 53.2051 48.1506 51.8615V51.7529C48.1506 50.4138 47.0644 49.3281 45.7248 49.3281Z" fill="#EBF6FF"/>
<path d="M67.648 49.3281H60.2844C58.9447 49.3281 57.854 50.4139 57.854 51.7574V51.866C57.854 53.2051 58.9402 54.2953 60.2844 54.2953H62.5066V67.5954H69.1053V53.8022C69.6937 53.3589 70.0784 52.6622 70.0784 51.8705V51.762C70.0784 50.4138 68.9922 49.3281 67.648 49.3281Z" fill="#EBF6FF"/>
<path d="M64.7923 110.572C67.5304 110.572 69.7481 108.355 69.7481 105.618V69.794C69.7481 67.9211 69.2819 66.1251 68.3768 64.5101L67.2589 62.3839C63.7287 55.9645 61.4205 48.8123 61.4929 41.4746C61.4929 40.2622 60.6647 38.7965 59.6192 38.2446C58.2841 37.5479 56.1614 36.8875 52.6629 36.8875C52.5905 36.8875 52.5543 36.8875 52.4819 36.8875C52.4095 36.8875 52.3733 36.8875 52.3009 36.8875C48.8069 36.8875 46.6798 37.5479 45.3446 38.2446C44.2991 38.7965 43.4347 40.2622 43.4709 41.4746C43.5433 48.8123 41.2351 56.0007 37.705 62.3839L36.5146 64.5101C35.614 66.1251 35.1433 67.9573 35.1433 69.794V105.618C35.1433 108.355 37.361 110.572 40.0991 110.572H64.7923Z" fill="#C3DBF5"/>
<path d="M52.4502 106.071C60.8366 106.071 67.6345 99.276 67.6345 90.8933V70.2736C67.6345 68.6314 67.2226 67.0526 66.4306 65.6366L65.4485 63.7683C62.3482 58.1316 60.3252 51.8525 60.3885 45.415C60.3885 44.3519 59.6599 43.0626 58.7456 42.5831C57.5734 41.9724 55.7088 41.3933 52.6402 41.3933C52.5769 41.3933 52.5452 41.3933 52.4818 41.3933C52.4185 41.3933 52.3868 41.3933 52.3234 41.3933C49.2549 41.3933 47.3902 41.9724 46.218 42.5831C45.2993 43.0671 44.5435 44.3519 44.5751 45.415C44.6385 51.857 42.6154 58.1678 39.5152 63.7683L38.4698 65.6366C37.6777 67.0526 37.2659 68.6631 37.2659 70.2736V90.8933C37.2704 99.276 44.0637 106.071 52.4502 106.071Z" fill="#D0E3F4"/>
<path d="M58.6779 23.8588H46.0869C43.1813 23.8588 40.8279 21.5064 40.8279 18.6021V7.8715C40.8279 3.52408 44.3535 0 48.7029 0H56.0574C60.4068 0 63.9324 3.52408 63.9324 7.8715V18.6021C63.9324 21.5064 61.579 23.8588 58.6779 23.8588Z" fill="#C3DBF5"/>
<path d="M59.0624 22.4519H45.7021C44.0773 22.4519 42.7603 21.0405 42.7603 19.2988V14.9469C42.7603 13.2052 44.0773 11.7937 45.7021 11.7937C47.8926 11.7937 50.1917 10.6311 52.3822 10.6311C54.6452 10.6311 56.7995 11.7937 59.0624 11.7937C59.257 11.7937 60.3025 11.8164 61.1443 12.7166C61.6784 13.2866 62.0042 14.0783 62.0042 14.9469V19.2988C62.0042 21.0405 60.6872 22.4519 59.0624 22.4519Z" fill="#EBF6FF"/>
<path d="M95.7265 39.6381C93.6401 36.0371 92.2823 27.9756 92.323 23.8589C92.323 23.1803 91.8342 22.3569 91.2187 22.0493C90.4312 21.6603 89.1775 21.2893 87.1138 21.2893C87.073 21.2893 87.0504 21.2893 87.0097 21.2893C86.9689 21.2893 86.9463 21.2893 86.9056 21.2893C84.8418 21.2893 83.5881 21.6603 82.8006 22.0493C82.1851 22.3569 81.6737 23.1803 81.6963 23.8589C81.737 27.9756 80.3747 36.0552 78.2928 39.6381L77.5913 40.8323C77.0618 41.7371 76.7812 42.7686 76.7812 43.7955C76.7812 43.7955 77.1342 50.622 76.3467 52.7617C72.3549 63.6235 83.7556 57.2584 89.8836 57.2584C93.2101 57.2584 100.814 60.6694 97.822 53.1327C96.6995 50.3098 97.1974 46.831 97.1974 43.7955C97.1974 42.7459 96.9213 41.7371 96.3873 40.8323L95.7265 39.6381Z" fill="#C3DBF5"/>
<path d="M102.81 116.643H71.1602C70.0604 116.643 69.1733 115.752 69.1733 114.657V108.016C69.1733 106.917 70.0649 106.03 71.1602 106.03H102.81C103.909 106.03 104.796 106.921 104.796 108.016V114.657C104.796 115.752 103.909 116.643 102.81 116.643Z" fill="#EBF6FF"/>
<path d="M93.5679 198H80.3886C74.4823 198 69.6895 193.214 69.6895 187.306V118.398C69.6895 115.661 71.9071 113.445 74.6453 113.445H99.3113C102.049 113.445 104.267 115.661 104.267 118.398V187.31C104.263 193.214 99.4742 198 93.5679 198Z" fill="#C3DBF5"/>
<path d="M94.2331 193.806H80.0988C76.9262 193.806 74.3555 191.237 74.3555 188.066V125.148H99.9764V188.066C99.9764 191.237 97.4057 193.806 94.2331 193.806Z" fill="#D0E3F4"/>
<path d="M80.2574 49.3281H72.8938C71.5541 49.3281 70.4634 50.4139 70.4634 51.7574V51.866C70.4634 52.6577 70.8481 53.3544 71.4364 53.7977V67.5909H78.0352V54.2908H80.2574C81.597 54.2908 82.6878 53.2051 82.6878 51.8615V51.7529C82.6878 50.4138 81.597 49.3281 80.2574 49.3281Z" fill="#EBF6FF"/>
<path d="M102.185 49.3281H94.8215C93.4818 49.3281 92.3911 50.4139 92.3911 51.7574V51.866C92.3911 53.2051 93.4773 54.2953 94.8215 54.2953H97.0437V67.5954H103.642V53.8022C104.231 53.3589 104.615 52.6622 104.615 51.8705V51.762C104.611 50.4138 103.525 49.3281 102.185 49.3281Z" fill="#EBF6FF"/>
<path d="M99.3245 110.572C102.063 110.572 104.28 108.355 104.28 105.618V69.794C104.28 67.9211 103.814 66.1251 102.909 64.5101L101.791 62.3839C98.2609 55.9645 95.9527 48.8123 96.0251 41.4746C96.0251 40.2622 95.1969 38.7965 94.1514 38.2446C92.8163 37.5479 90.6937 36.8875 87.1952 36.8875C87.1228 36.8875 87.0865 36.8875 87.0141 36.8875C86.9417 36.8875 86.9055 36.8875 86.8331 36.8875C83.3391 36.8875 81.212 37.5479 79.8768 38.2446C78.8314 38.7965 77.9669 40.2622 78.0031 41.4746C78.0756 48.8123 75.7674 56.0007 72.2372 62.3839L71.0469 64.5101C70.1462 66.1251 69.6755 67.9573 69.6755 69.794V105.618C69.6755 108.355 71.8932 110.572 74.6314 110.572H99.3245Z" fill="#C3DBF5"/>
<path d="M86.9873 106.071C95.3737 106.071 102.172 99.276 102.172 90.8933V70.2736C102.172 68.6314 101.76 67.0526 100.968 65.6366L99.9856 63.7683C96.8853 58.1316 94.8623 51.8525 94.9256 45.415C94.9256 44.3519 94.197 43.0626 93.2828 42.5831C92.1106 41.9724 90.2459 41.3933 87.1774 41.3933C87.114 41.3933 87.0823 41.3933 87.019 41.3933C86.9556 41.3933 86.9239 41.3933 86.8605 41.3933C83.792 41.3933 81.9273 41.9724 80.7551 42.5831C79.8364 43.0671 79.0806 44.3519 79.1123 45.415C79.1756 51.857 77.1526 58.1678 74.0523 63.7683L73.0069 65.6366C72.2148 67.0526 71.803 68.6631 71.803 70.2736V90.8933C71.803 99.276 78.6008 106.071 86.9873 106.071Z" fill="#D0E3F4"/>
<path d="M93.2104 23.8588H80.6194C77.7138 23.8588 75.3604 21.5064 75.3604 18.6021V7.8715C75.3604 3.52408 78.886 0 83.2354 0H90.5899C94.9393 0 98.4649 3.52408 98.4649 7.8715V18.6021C98.4694 21.5064 96.116 23.8588 93.2104 23.8588Z" fill="#C3DBF5"/>
<path d="M93.5949 22.4519H80.2345C78.6098 22.4519 77.2927 21.0405 77.2927 19.2988V14.9469C77.2927 13.2052 78.6098 11.7937 80.2345 11.7937C82.4251 11.7937 84.7242 10.6311 86.9147 10.6311C89.1777 10.6311 91.332 11.7937 93.5949 11.7937C93.7895 11.7937 94.835 11.8164 95.6768 12.7166C96.2109 13.2866 96.5367 14.0783 96.5367 14.9469V19.2988C96.5367 21.0405 95.2197 22.4519 93.5949 22.4519Z" fill="#EBF6FF"/>
<path d="M158.677 42.2393C157.247 38.3307 157.306 30.1561 158.061 26.1117C158.179 25.4422 157.84 24.5465 157.288 24.1348C156.581 23.6146 155.409 23.031 153.377 22.6736C153.336 22.6646 153.314 22.6646 153.273 22.6555C153.232 22.6465 153.21 22.6465 153.169 22.6374C151.137 22.28 149.838 22.4293 148.992 22.6781C148.331 22.8772 147.684 23.5965 147.589 24.2705C146.919 28.3329 144.176 36.0552 141.501 39.2219L140.605 40.2759C139.926 41.0766 139.474 42.0402 139.297 43.0536C139.297 43.0536 138.464 49.8393 137.319 51.8117C131.504 61.8185 143.837 57.5254 149.874 58.584C153.151 59.1585 160.048 63.8361 158.405 55.8923C157.79 52.9156 158.885 49.577 159.41 46.5867C159.591 45.5553 159.496 44.5102 159.13 43.5286L158.677 42.2393Z" fill="#C3DBF5"/>
<path d="M152.313 119.308L121.144 113.829C120.062 113.639 119.338 112.608 119.528 111.527L120.678 104.985C120.868 103.904 121.9 103.18 122.981 103.37L154.151 108.849C155.233 109.039 155.957 110.07 155.767 111.151L154.617 117.693C154.423 118.778 153.391 119.498 152.313 119.308Z" fill="#EBF6FF"/>
<path d="M129.114 197.837L116.134 195.557C110.314 194.535 106.426 188.988 107.449 183.175L119.388 115.308C119.863 112.612 122.429 110.816 125.127 111.287L149.417 115.557C152.115 116.032 153.911 118.597 153.441 121.294L141.501 189.16C140.479 194.974 134.934 198.86 129.114 197.837Z" fill="#C3DBF5"/>
<path d="M130.494 193.82L116.573 191.373C113.45 190.825 111.363 187.848 111.911 184.727L122.809 122.759L148.041 127.193L137.143 189.16C136.595 192.282 133.622 194.372 130.494 193.82Z" fill="#D0E3F4"/>
<path d="M141.759 49.1063L134.505 47.8306C133.183 47.5999 131.925 48.482 131.689 49.803L131.671 49.9116C131.536 50.6942 131.794 51.4452 132.296 51.9835L129.906 65.5686L136.405 66.7086L138.709 53.6121L140.9 53.9966C142.221 54.2273 143.479 53.3452 143.715 52.0242L143.733 51.9156C143.964 50.5947 143.081 49.337 141.759 49.1063Z" fill="#EBF6FF"/>
<path d="M163.357 52.902L156.102 51.6263C154.78 51.3955 153.522 52.2777 153.287 53.5987L153.269 53.7072C153.038 55.0282 153.92 56.2858 155.242 56.5211L157.432 56.9056L155.129 70.0021L161.628 71.1421L164.018 57.557C164.674 57.2223 165.172 56.6025 165.312 55.8199L165.33 55.7113C165.561 54.3903 164.678 53.1327 163.357 52.902Z" fill="#EBF6FF"/>
<path d="M149.933 112.725C152.631 113.2 155.197 111.4 155.672 108.704L161.877 73.422C162.203 71.5808 162.049 69.7261 161.442 67.9844L160.709 65.6953C158.342 58.7602 157.31 51.3185 158.654 44.1029C158.863 42.9087 158.301 41.3208 157.369 40.6015C156.179 39.6831 154.196 38.6653 150.757 38.0591C150.684 38.0455 150.648 38.041 150.58 38.0274C150.512 38.0138 150.472 38.0093 150.404 37.9957C146.96 37.3895 144.751 37.6746 143.321 38.1269C142.198 38.4888 141.09 39.7827 140.918 40.9815C139.718 48.2197 136.202 54.9014 131.617 60.5788L130.078 62.4698C128.91 63.9039 128.132 65.6274 127.815 67.437L121.61 102.719C121.135 105.415 122.936 107.98 125.634 108.455L149.933 112.725Z" fill="#C3DBF5"/>
<path d="M138.559 106.157C146.819 107.609 154.69 102.094 156.142 93.8382L159.713 73.5307C159.998 71.9111 159.867 70.2871 159.333 68.758L158.691 66.7494C156.613 60.6648 155.708 54.1279 156.885 47.7945C157.07 46.7494 156.577 45.3516 155.758 44.7182C154.712 43.913 152.974 43.0173 149.951 42.488C149.888 42.4789 149.856 42.4699 149.797 42.4608C149.734 42.4518 149.702 42.4427 149.643 42.4337C146.62 41.9044 144.683 42.1487 143.425 42.5513C142.438 42.868 141.465 44.0035 141.316 45.0575C140.261 51.4135 137.175 57.2765 133.151 62.2572L131.798 63.9175C130.775 65.1751 130.092 66.6906 129.811 68.2785L126.24 88.5861C124.783 96.8376 130.3 104.705 138.559 106.157Z" fill="#D0E3F4"/>
<path d="M158.93 26.2655L146.53 24.085C143.669 23.5828 141.759 20.8595 142.262 18.0004L144.122 7.43267C144.873 3.1531 148.96 0.289502 153.241 1.04499L160.483 2.31619C164.764 3.06715 167.629 7.15219 166.873 11.4318L165.013 21.9995C164.515 24.8585 161.791 26.7676 158.93 26.2655Z" fill="#C3DBF5"/>
<path d="M159.555 24.9444L146.398 22.6327C144.796 22.3523 143.746 20.7327 144.049 19.0136L144.805 14.7296C145.109 13.015 146.647 11.8479 148.249 12.1329C150.408 12.5129 152.875 11.7664 155.029 12.1464C157.256 12.54 159.179 14.0555 161.406 14.4491C161.601 14.4807 162.624 14.6843 163.293 15.7203C163.719 16.3762 163.904 17.2086 163.755 18.0682L162.999 22.3523C162.696 24.0623 161.157 25.2249 159.555 24.9444Z" fill="#EBF6FF"/>
</g>
<defs>
<clipPath id="clip0">
<rect width="167" height="198" fill="white"/>
</clipPath>
</defs>
</svg>
