<svg width="183" height="37" viewBox="0 0 183 37" fill="none" xmlns="http://www.w3.org/2000/svg">
<g clip-path="url(#clip0)">
<path d="M21.2292 7.97705C13.3173 7.97705 7.36377 14.0716 7.36377 22.1496C7.36377 30.141 13.3244 36.1778 21.2292 36.1778C29.134 36.1778 35.0947 30.0544 35.0947 21.9476C35.1018 13.985 29.1412 7.97705 21.2292 7.97705ZM21.2648 32.0595C15.6389 32.0595 11.5583 27.8907 11.5583 22.1424C11.5583 16.3147 15.646 12.0882 21.2648 12.0882C26.8552 12.0882 30.9073 16.2281 30.9073 21.9332C30.9073 27.8041 26.8552 32.0595 21.2648 32.0595Z" fill="#2C4A9D"/>
<path d="M52.1504 9.59973V6.36133H47.9559V9.59973C41.5466 10.0325 36.9746 14.9153 36.9746 21.4931C36.9746 28.0709 41.5395 32.9537 47.9559 33.3865V36.9999H52.1504V33.3865C58.5597 32.9465 63.1175 28.0709 63.1175 21.4931C63.1246 14.9153 58.5597 10.0325 52.1504 9.59973ZM52.1504 13.7181C56.1883 14.0787 58.9372 17.1728 58.9372 21.4931C58.9372 23.6352 58.2179 25.597 56.9147 27.0106C55.704 28.3233 54.0946 29.095 52.1575 29.2609V13.7181H52.1504ZM41.1763 21.4931C41.1763 17.1728 43.9251 14.0715 47.963 13.7181V29.2754C43.9251 28.9147 41.1763 25.8134 41.1763 21.4931Z" fill="#2C4A9D"/>
<path d="M77.6524 8.42407H62.2559V12.5424H67.8533V35.7305H72.0479V12.5424H77.6524V8.42407Z" fill="#2C4A9D"/>
<path d="M90.7131 7.97705C82.8083 7.97705 76.8477 14.0716 76.8477 22.1496C76.8477 30.141 82.8083 36.1778 90.7131 36.1778C98.6179 36.1778 104.579 30.0544 104.579 21.9476C104.586 13.985 98.6179 7.97705 90.7131 7.97705ZM90.7487 32.0595C85.1228 32.0595 81.0422 27.8907 81.0422 22.1424C81.0422 16.3147 85.1299 12.0882 90.7487 12.0882C96.3319 12.0882 100.391 16.2281 100.391 21.9332C100.391 27.8041 96.3391 32.0595 90.7487 32.0595Z" fill="#2C4A9D"/>
<path d="M114.513 8.42407L103.61 35.7305H108.182L116.25 14.9586L124.255 35.7305H128.827L117.995 8.42407H114.513Z" fill="#2C4A9D"/>
<path d="M134.425 28.3233V8.42407H130.237V35.7305H134.154L147.421 15.8385V35.7305H151.609V8.42407H147.699L134.425 28.3233Z" fill="#2C4A9D"/>
<path d="M174.753 8.42407H169.597L159.748 21.3921V8.42407H155.554V35.7305H159.748V22.1422L169.861 35.7305H175.095L164.598 21.5075L174.753 8.42407Z" fill="#2C4A9D"/>
<path d="M180.736 7.40715C180.736 6.9744 180.565 6.01514 179.14 6.01514H177.894V10.422H178.685V8.79194H178.699L179.76 10.422H180.736L179.582 8.79194C180.28 8.74867 180.736 8.09954 180.736 7.40715ZM179.155 8.10676H178.685V6.8013H179.155C179.824 6.8013 179.938 7.18356 179.938 7.45763C179.938 7.72449 179.824 8.10676 179.155 8.10676Z" fill="#2C4A9D"/>
<path d="M179.176 4.21924C177.046 4.21924 175.344 6.00072 175.344 8.19331C175.344 10.3931 177.061 12.1818 179.176 12.1818C181.284 12.1818 183 10.4003 183 8.19331C183 6.00072 181.284 4.21924 179.176 4.21924ZM179.176 11.4317C177.452 11.4317 176.056 9.9748 176.056 8.1861C176.056 6.41183 177.445 4.96212 179.176 4.96212C180.885 4.96212 182.288 6.40462 182.288 8.1861C182.281 9.99643 180.878 11.4317 179.176 11.4317Z" fill="#2C4A9D"/>
<path d="M34.8453 8.39493L40.9127 3.72124C11.8643 -8.51112 0 13.321 0 13.321C0 13.321 8.33922 3.43996 20.9513 3.21637C27.9659 3.09376 32.3599 5.40896 34.8453 8.39493Z" fill="#2C4A9D"/>
</g>
<defs>
<clipPath id="clip0">
<rect width="183" height="37" fill="white"/>
</clipPath>
</defs>
</svg>
