<svg width="170" height="35" viewBox="0 0 170 35" fill="none" xmlns="http://www.w3.org/2000/svg">
<g clip-path="url(#clip0)">
<path d="M19.7208 7.54578C12.3709 7.54578 6.84033 13.3109 6.84033 20.9522C6.84033 28.5117 12.3776 34.2222 19.7208 34.2222C27.0641 34.2222 32.6013 28.4298 32.6013 20.7612C32.6079 13.229 27.0707 7.54578 19.7208 7.54578ZM19.7539 30.3265C14.5276 30.3265 10.7369 26.383 10.7369 20.9454C10.7369 15.4327 14.5342 11.4347 19.7539 11.4347C24.9471 11.4347 28.7114 15.3508 28.7114 20.7475C28.7114 26.3011 24.9471 30.3265 19.7539 30.3265Z" fill="white"/>
<path d="M48.4459 9.08087V6.01752H44.5493V9.08087C38.5953 9.49023 34.3481 14.1091 34.3481 20.3314C34.3481 26.5536 38.5887 31.1725 44.5493 31.5818V35H48.4459V31.5818C54.3999 31.1657 58.6339 26.5536 58.6339 20.3314C58.6405 14.1091 54.3999 9.49023 48.4459 9.08087ZM48.4459 12.9766C52.1969 13.3177 54.7505 16.2446 54.7505 20.3314C54.7505 22.3577 54.0823 24.2134 52.8717 25.5507C51.7471 26.7924 50.2519 27.5224 48.4525 27.6793V12.9766H48.4459ZM38.2513 20.3314C38.2513 16.2446 40.8049 13.3109 44.5559 12.9766V27.693C40.8049 27.3518 38.2513 24.4181 38.2513 20.3314Z" fill="white"/>
<path d="M72.1358 7.96881H57.833V11.8645H63.0328V33.7992H66.9294V11.8645H72.1358V7.96881Z" fill="white"/>
<path d="M84.2692 7.54578C76.9259 7.54578 71.3887 13.3109 71.3887 20.9522C71.3887 28.5117 76.9259 34.2222 84.2692 34.2222C91.6124 34.2222 97.1497 28.4298 97.1497 20.7612C97.1563 13.229 91.6124 7.54578 84.2692 7.54578ZM84.3022 30.3265C79.0759 30.3265 75.2852 26.383 75.2852 20.9454C75.2852 15.4327 79.0826 11.4347 84.3022 11.4347C89.4888 11.4347 93.2597 15.3508 93.2597 20.7475C93.2597 26.3011 89.4954 30.3265 84.3022 30.3265Z" fill="white"/>
<path d="M106.378 7.96881L96.25 33.7992H100.497L107.993 14.1501L115.429 33.7992H119.676L109.613 7.96881H106.378Z" fill="white"/>
<path d="M124.875 26.7924V7.96881H120.985V33.7992H124.624L136.949 14.9825V33.7992H140.839V7.96881H137.207L124.875 26.7924Z" fill="white"/>
<path d="M162.339 7.96881H157.549L148.4 20.2359V7.96881H144.503V33.7992H148.4V20.9454L157.794 33.7992H162.657L152.905 20.345L162.339 7.96881Z" fill="white"/>
<path d="M167.896 7.00677C167.896 6.59741 167.738 5.69 166.415 5.69H165.257V9.85862H165.991V8.31671H166.004L166.99 9.85862H167.896L166.825 8.31671C167.473 8.27577 167.896 7.66174 167.896 7.00677ZM166.428 7.66856H165.991V6.43367H166.428C167.05 6.43367 167.155 6.79527 167.155 7.05453C167.155 7.30696 167.05 7.66856 166.428 7.66856Z" fill="white"/>
<path d="M166.447 3.99121C164.469 3.99121 162.888 5.6764 162.888 7.75047C162.888 9.83137 164.483 11.5234 166.447 11.5234C168.406 11.5234 170 9.83819 170 7.75047C170 5.6764 168.406 3.99121 166.447 3.99121ZM166.447 10.8138C164.846 10.8138 163.55 9.43566 163.55 7.74365C163.55 6.06529 164.84 4.69394 166.447 4.69394C168.035 4.69394 169.338 6.05846 169.338 7.74365C169.332 9.45613 168.028 10.8138 166.447 10.8138Z" fill="white"/>
<path d="M32.3699 7.94114L38.0064 3.52009C11.0215 -8.05106 0 12.601 0 12.601C0 12.601 7.74682 3.25401 19.463 3.04251C25.9793 2.92652 30.0611 5.11658 32.3699 7.94114Z" fill="white"/>
</g>
<defs>
<clipPath id="clip0">
<rect width="170" height="35" fill="white"/>
</clipPath>
</defs>
</svg>
