<svg width="1920" height="4104" viewBox="0 0 1920 4104" fill="none" xmlns="http://www.w3.org/2000/svg">
<g filter="url(#filter0_d)">
<path d="M404.5 721C196.1 721 -6 549.833 -72 510.5V3854H2070V250C2050.33 363.5 2009.5 559 1783.5 559C1555.71 559 1618 749 1425 749C1232 749 1192.5 526 961.5 526C730.5 526 665 721 404.5 721Z" fill="#D8EAFF"/>
<path d="M404.5 721C196.1 721 -6 549.833 -72 510.5V3854H2070V250C2050.33 363.5 2009.5 559 1783.5 559C1555.71 559 1618 749 1425 749C1232 749 1192.5 526 961.5 526C730.5 526 665 721 404.5 721Z" fill="url(#paint0_linear)"/>
</g>
<defs>
<filter id="filter0_d" x="-295" y="0" width="2642" height="4104" filterUnits="userSpaceOnUse" color-interpolation-filters="sRGB">
<feFlood flood-opacity="0" result="BackgroundImageFix"/>
<feColorMatrix in="SourceAlpha" type="matrix" values="0 0 0 0 0 0 0 0 0 0 0 0 0 0 0 0 0 0 127 0"/>
<feOffset dx="27"/>
<feGaussianBlur stdDeviation="125"/>
<feColorMatrix type="matrix" values="0 0 0 0 0.584314 0 0 0 0 0.713726 0 0 0 0 0.886275 0 0 0 0.3 0"/>
<feBlend mode="normal" in2="BackgroundImageFix" result="effect1_dropShadow"/>
<feBlend mode="normal" in="SourceGraphic" in2="effect1_dropShadow" result="shape"/>
</filter>
<linearGradient id="paint0_linear" x1="429" y1="585" x2="999" y2="1651.5" gradientUnits="userSpaceOnUse">
<stop stop-color="white"/>
<stop offset="1" stop-color="white" stop-opacity="0"/>
</linearGradient>
</defs>
</svg>
