<svg width="314" height="259" viewBox="0 0 314 259" fill="none" xmlns="http://www.w3.org/2000/svg">
<path d="M102.028 212.673C102.028 212.673 21.3891 212.362 20.3848 136.597C20.3848 103.351 66.8964 89.0628 75.8524 72.4362C84.8083 55.8095 74.7441 10.0603 113.498 4.53195C152.252 -0.996429 173.897 38.7193 197.046 31.1775C220.201 23.6356 228.111 8.04686 264.669 17.6022C301.228 27.1575 265.978 77.4318 275.8 94.2729C285.622 111.114 309.276 106.146 313.307 133.518C317.332 160.89 304.109 194.074 264.669 212.673H102.028Z" fill="#8494DE"/>
<path d="M14.2132 108.333C22.063 108.333 28.4264 101.976 28.4264 94.1346C28.4264 86.2932 22.063 79.9365 14.2132 79.9365C6.36348 79.9365 0 86.2932 0 94.1346C0 101.976 6.36348 108.333 14.2132 108.333Z" fill="#D5E2F7"/>
<path d="M187.937 18.1004C192.94 18.1004 196.997 14.0485 196.997 9.05021C196.997 4.05192 192.94 0 187.937 0C182.933 0 178.877 4.05192 178.877 9.05021C178.877 14.0485 182.933 18.1004 187.937 18.1004Z" fill="#D5E2F7"/>
<path d="M228.624 54.5752H102V218.98H228.624V54.5752Z" fill="#95B2E5"/>
<path d="M222.417 60.6294H108.206V208.92H222.417V60.6294Z" fill="white"/>
<path d="M213.503 83.6011C208.855 86.4379 204.921 90.278 201.451 94.4572C200.315 92.6028 199.033 90.8177 197.274 89.5515C196.754 89.1779 196.193 89.7937 196.29 90.3057C196.796 93.0041 198.493 95.412 200.038 97.64C200.661 98.5394 201.873 98.5602 202.49 97.64C205.828 92.672 209.908 88.6313 214.244 84.549C214.743 84.0785 214.091 83.2413 213.503 83.6011Z" fill="#345BB6"/>
<path d="M213.503 112.315C208.855 115.152 204.921 118.992 201.451 123.172C200.315 121.317 199.033 119.532 197.274 118.266C196.754 117.892 196.193 118.508 196.29 119.02C196.796 121.719 198.493 124.126 200.038 126.354C200.661 127.254 201.873 127.275 202.49 126.354C205.828 121.386 209.908 117.346 214.244 113.263C214.743 112.793 214.091 111.956 213.503 112.315Z" fill="#345BB6"/>
<path d="M213.503 144.835C208.855 147.672 204.921 151.512 201.451 155.691C200.315 153.837 199.033 152.052 197.274 150.785C196.754 150.412 196.193 151.028 196.29 151.54C196.796 154.238 198.493 156.646 200.038 158.874C200.661 159.773 201.873 159.794 202.49 158.874C205.828 153.906 209.908 149.865 214.244 145.783C214.743 145.312 214.091 144.475 213.503 144.835Z" fill="#345BB6"/>
<path d="M213.503 177.009C208.855 179.846 204.921 183.686 201.451 187.865C200.315 186.011 199.033 184.226 197.274 182.96C196.754 182.586 196.193 183.202 196.29 183.714C196.796 186.412 198.493 188.82 200.038 191.048C200.661 191.948 201.873 191.968 202.49 191.048C205.828 186.08 209.908 182.039 214.244 177.957C214.743 177.487 214.091 176.649 213.503 177.009Z" fill="#345BB6"/>
<path d="M189.219 49.04H141.405V62.6153H189.219V49.04Z" fill="#6182C6"/>
<path d="M175.678 41H154.94C153.187 41 151.774 42.4184 151.774 44.162V51.4064C151.774 53.1569 153.194 54.5684 154.94 54.5684H175.678C177.43 54.5684 178.843 53.15 178.843 51.4064V44.162C178.85 42.4184 177.43 41 175.678 41ZM165.309 45.6496C164.388 45.6496 163.646 44.9024 163.646 43.9891C163.646 43.0688 164.395 42.3285 165.309 42.3285C166.23 42.3285 166.971 43.0757 166.971 43.9891C166.978 44.9024 166.23 45.6496 165.309 45.6496Z" fill="#95B2E5"/>
<path d="M177.284 89.3784H118.049C117.183 89.3784 116.483 88.6796 116.483 87.8147C116.483 86.9498 117.183 86.251 118.049 86.251H177.284C178.15 86.251 178.85 86.9498 178.85 87.8147C178.85 88.6796 178.15 89.3784 177.284 89.3784Z" fill="#D5D8D7"/>
<path d="M177.284 96.0415H118.049C117.183 96.0415 116.483 95.3427 116.483 94.4778C116.483 93.6129 117.183 92.9141 118.049 92.9141H177.284C178.15 92.9141 178.85 93.6129 178.85 94.4778C178.85 95.3427 178.15 96.0415 177.284 96.0415Z" fill="#D5D8D7"/>
<path d="M210.039 100.574H194.801C193.797 100.574 192.986 99.7642 192.986 98.7609V83.5389C192.986 82.5356 193.797 81.7261 194.801 81.7261H210.039C211.044 81.7261 211.854 82.5356 211.854 83.5389V98.7609C211.861 99.7642 211.044 100.574 210.039 100.574Z" stroke="#6182C6" stroke-width="1.0899" stroke-miterlimit="10"/>
<path d="M177.284 118.432H118.049C117.183 118.432 116.483 117.733 116.483 116.868C116.483 116.003 117.183 115.304 118.049 115.304H177.284C178.15 115.304 178.85 116.003 178.85 116.868C178.85 117.733 178.15 118.432 177.284 118.432Z" fill="#D5D8D7"/>
<path d="M177.284 125.095H118.049C117.183 125.095 116.483 124.396 116.483 123.531C116.483 122.667 117.183 121.968 118.049 121.968H177.284C178.15 121.968 178.85 122.667 178.85 123.531C178.85 124.389 178.15 125.095 177.284 125.095Z" fill="#D5D8D7"/>
<path d="M210.039 129.627H194.801C193.797 129.627 192.986 128.817 192.986 127.814V112.592C192.986 111.589 193.797 110.779 194.801 110.779H210.039C211.044 110.779 211.854 111.589 211.854 112.592V127.814C211.861 128.811 211.044 129.627 210.039 129.627Z" stroke="#6182C6" stroke-width="1.0899" stroke-miterlimit="10"/>
<path d="M177.284 150.46H118.049C117.183 150.46 116.483 149.762 116.483 148.897C116.483 148.032 117.183 147.333 118.049 147.333H177.284C178.15 147.333 178.85 148.032 178.85 148.897C178.85 149.762 178.15 150.46 177.284 150.46Z" fill="#D5D8D7"/>
<path d="M177.284 157.124H118.049C117.183 157.124 116.483 156.425 116.483 155.56C116.483 154.695 117.183 153.996 118.049 153.996H177.284C178.15 153.996 178.85 154.695 178.85 155.56C178.85 156.425 178.15 157.124 177.284 157.124Z" fill="#D5D8D7"/>
<path d="M210.039 161.655H194.801C193.797 161.655 192.986 160.846 192.986 159.842V144.62C192.986 143.617 193.797 142.808 194.801 142.808H210.039C211.044 142.808 211.854 143.617 211.854 144.62V159.842C211.861 160.846 211.044 161.655 210.039 161.655Z" stroke="#6182C6" stroke-width="1.0899" stroke-miterlimit="10"/>
<path d="M177.284 184.606H118.049C117.183 184.606 116.483 183.908 116.483 183.043C116.483 182.178 117.183 181.479 118.049 181.479H177.284C178.15 181.479 178.85 182.178 178.85 183.043C178.85 183.908 178.15 184.606 177.284 184.606Z" fill="#D5D8D7"/>
<path d="M177.284 191.27H118.049C117.183 191.27 116.483 190.571 116.483 189.706C116.483 188.841 117.183 188.142 118.049 188.142H177.284C178.15 188.142 178.85 188.841 178.85 189.706C178.85 190.571 178.15 191.27 177.284 191.27Z" fill="#D5D8D7"/>
<path d="M210.039 195.801H194.801C193.797 195.801 192.986 194.992 192.986 193.988V178.766C192.986 177.763 193.797 176.954 194.801 176.954H210.039C211.044 176.954 211.854 177.763 211.854 178.766V193.988C211.861 194.985 211.044 195.801 210.039 195.801Z" stroke="#6182C6" stroke-width="1.0899" stroke-miterlimit="10"/>
<path d="M171.48 127.173L167.22 134.832L159.352 130.971L155.099 138.624L147.23 134.763L174.396 221.425L198.653 213.835L171.48 127.173Z" fill="#95B2E5"/>
<path d="M178.261 233.755L174.396 221.425L198.653 213.835L202.518 226.165C203.128 228.102 202.047 230.164 200.108 230.766L182.868 236.156C180.935 236.765 178.871 235.686 178.261 233.755Z" fill="#6182C6"/>
<path d="M198.656 213.838L174.404 221.426L175.644 225.381L199.896 217.793L198.656 213.838Z" fill="#D5D8D7"/>
<path d="M147.23 134.763L152.155 108L171.48 127.173L167.22 134.832L159.352 130.971L155.099 138.624L147.23 134.763Z" fill="white"/>
<path d="M150.334 117.88L159.29 115.078L152.156 108L150.334 117.88Z" fill="#111316"/>
<path d="M155.099 138.624L180.464 219.529" stroke="#211915" stroke-width="0.6095" stroke-miterlimit="10"/>
<path d="M167.221 134.833L192.586 215.731" stroke="#211915" stroke-width="0.6095" stroke-miterlimit="10"/>
<path d="M153.811 258.062L147.902 255.792H145V258.062H153.811Z" fill="#111316"/>
<path d="M197.877 258.062L191.969 255.792H189.066V258.062H197.877Z" fill="#111316"/>
<path d="M162.801 176.921C162.801 176.921 164.816 175.662 167.331 178.049C169.845 180.436 172.366 183.079 172.366 183.079C172.366 183.079 172.491 188.559 168.841 190.344C168.841 190.344 162.676 185.612 161.041 183.467C159.407 181.322 160.944 177.219 162.801 176.921Z" fill="#345BB6"/>
<path d="M160.349 204.826C160.349 204.826 162.801 197.789 161.796 195.021C160.792 192.254 155.382 183.335 154.496 179.433C153.616 175.537 162.004 173.807 165.689 176.921C169.374 180.035 171.611 184.214 173.371 188.483C175.13 192.759 175.255 202.937 175.255 202.937C175.255 202.937 170.226 208.092 160.349 204.826Z" fill="#345BB6"/>
<path d="M169.956 189.597C169.956 189.597 173.967 192.413 176.231 193.7C176.903 194.08 177.665 194.246 178.434 194.177L189.981 193.139C189.981 193.139 192.751 194.018 194.261 194.267C195.771 194.516 196.699 191.195 196.699 191.195C196.699 191.195 197.849 190.192 196.464 189.313C195.079 188.434 190.237 189.362 190.237 189.362L179.709 189.251C178.864 189.244 178.053 188.953 177.395 188.428L172.297 184.345C172.29 184.345 172.325 187.563 169.956 189.597Z" fill="#081023"/>
<path d="M160.349 204.826L145 255.792H147.833L175.262 202.937C175.262 202.944 171.168 208.348 160.349 204.826Z" fill="#111316"/>
<path d="M188.977 255.792H191.616L189.635 224.871L175.262 202.937C175.262 202.937 172.166 206.203 164.54 205.815L182.369 227.887L188.977 255.792Z" fill="#111316"/>
<path d="M162.926 156.185C162.926 156.185 167.581 157.693 169.215 163.097C170.85 168.501 165.821 172.147 162.926 173.275C162.926 173.275 161.922 170.763 159.532 169.628C157.142 168.501 156.263 165.103 159.026 163.346C161.797 161.588 162.926 159.575 162.926 156.185Z" fill="#081023"/>
<path d="M159.532 169.635C157.143 168.508 156.263 165.11 159.027 163.353C161.797 161.595 162.926 159.582 162.926 156.192C162.926 156.192 163.605 156.413 164.533 156.987C164.533 156.987 164.305 154.559 159.65 154.054C154.995 153.548 146.185 155.811 147.321 166.626C148.2 170.902 150.846 172.41 149.71 175.551C148.817 178.042 144.737 186.435 150.486 189.389C155.196 191.811 161.105 189.5 163.065 184.588C164.097 182.007 164.429 178.36 162.919 173.289C162.926 173.275 161.922 170.763 159.532 169.635Z" fill="white"/>
<path d="M291.866 133.09C291.866 133.09 285.701 134.218 284.316 141.137C283.561 145.282 287.585 148.928 290.605 149.433C290.605 149.433 291.485 150.693 290.855 152.824C290.855 152.824 292.87 150.187 295.89 151.066V148.555C295.89 148.555 294.131 147.295 295.89 144.784C295.89 144.784 298.529 143.524 297.906 141.013C297.276 138.501 294.637 139.255 294.256 142.016C294.256 142.016 290.231 139.629 291.866 133.09Z" fill="#345BB6"/>
<path d="M268.967 159.106C268.967 159.106 277.902 166.143 281.926 164.891C285.951 163.631 289.026 154.284 290.862 152.824C292.697 151.364 294.256 150.437 295.897 151.066C297.532 151.696 298.793 156.221 299.548 162.379C300.303 168.537 301.397 183.731 301.397 183.731C301.397 183.731 296.368 187.696 283.596 185.558L284.891 171.927C284.891 171.927 279.038 175.698 267.09 164.385L268.967 159.106Z" fill="#D7DCE8"/>
<path d="M303.697 136.737C303.067 135.228 300.802 134.848 300.802 134.848C300.802 134.848 301.931 132.087 299.417 130.925C296.902 129.762 294.887 131.333 294.887 131.333C295.261 129.575 291.991 125.05 289.228 127.942C286.457 130.835 288.161 134.855 288.161 134.855V134.862C290.045 133.443 291.874 133.097 291.874 133.097C290.239 139.636 294.263 142.023 294.263 142.023C294.637 139.255 297.283 138.501 297.914 141.02C298.544 143.531 295.898 144.791 295.898 144.791C294.139 147.302 295.898 148.561 295.898 148.561C302.693 149.821 302.187 142.279 302.187 142.279C304.071 141.006 304.327 138.245 303.697 136.737Z" fill="#111316"/>
<path d="M283.589 185.558L290.834 235.604H294.775L301.39 183.731C301.39 183.731 298.155 187.807 283.589 185.558Z" fill="#111316"/>
<path d="M295.738 185.994L306.509 232.982L303.274 234.248L285.958 201.929L283.589 185.558C283.589 185.558 289.878 186.963 295.738 185.994Z" fill="#111316"/>
<path d="M294.284 235.604H291.382V238.296H294.284V235.604Z" fill="#345BB6"/>
<path d="M285.473 240.558L291.381 238.295H294.283V240.558H285.473Z" fill="#111316"/>
<path d="M306.279 233.142L303.574 234.192L304.55 236.701L307.256 235.65L306.279 233.142Z" fill="#345BB6"/>
<path d="M299.859 240.932L304.549 236.684L307.25 235.632L308.074 237.742L299.859 240.932Z" fill="#111316"/>
<path d="M267.499 163.209C267.499 163.209 264.153 161.217 262.546 160.462C260.939 159.708 257.829 159.425 257.074 158.103C256.319 156.781 261.507 155.937 263.869 156.498C263.869 156.498 263.301 154.706 263.682 154.235C264.063 153.765 265.663 154.422 266.134 155.84C266.605 157.252 268.967 159.106 268.967 159.106L267.499 163.209Z" fill="#345BB6"/>
</svg>
